<?xml version="1.0" encoding="UTF-8" standalone="no"?>
<!-- Created with Inkscape (http://www.inkscape.org/) -->

<svg
   xmlns:dc="http://purl.org/dc/elements/1.1/"
   xmlns:cc="http://creativecommons.org/ns#"
   xmlns:rdf="http://www.w3.org/1999/02/22-rdf-syntax-ns#"
   xmlns:svg="http://www.w3.org/2000/svg"
   xmlns="http://www.w3.org/2000/svg"
   xmlns:sodipodi="http://sodipodi.sourceforge.net/DTD/sodipodi-0.dtd"
   xmlns:inkscape="http://www.inkscape.org/namespaces/inkscape"
   id="svg2"
   version="1.1"
   inkscape:version="0.91 r"
   xml:space="preserve"
   width="451.58597pt"
   height="150pt"
   viewBox="0 0 564.48242 187.5"
   sodipodi:docname="absorption_scheme.svg"><sodipodi:namedview
     pagecolor="#ffffff"
     bordercolor="#666666"
     borderopacity="1"
     objecttolerance="10"
     gridtolerance="10"
     guidetolerance="10"
     inkscape:pageopacity="0"
     inkscape:pageshadow="2"
     inkscape:window-width="1920"
     inkscape:window-height="1060"
     id="namedview4"
     showgrid="false"
     units="pt"
     inkscape:zoom="1.6000436"
     inkscape:cx="385.17243"
     inkscape:cy="175.95537"
     inkscape:window-x="1918"
     inkscape:window-y="-3"
     inkscape:window-maximized="1"
     inkscape:current-layer="layer1" /><metadata
     id="metadata8"><rdf:RDF><cc:Work
         rdf:about=""><dc:format>image/svg+xml</dc:format><dc:type
           rdf:resource="http://purl.org/dc/dcmitype/StillImage" /><dc:title></dc:title></cc:Work></rdf:RDF></metadata><defs
     id="defs6"><clipPath
       clipPathUnits="userSpaceOnUse"
       id="clipPath18"><path
         d="m 0,0 595.276,0 0,841.89 L 0,841.89 0,0 Z"
         id="path20"
         inkscape:connector-curvature="0" /></clipPath><clipPath
       clipPathUnits="userSpaceOnUse"
       id="clipPath24"><path
         d="m 66,63 470,0 0,710 -470,0 0,-710 z"
         id="path26"
         inkscape:connector-curvature="0" /></clipPath><clipPath
       clipPathUnits="userSpaceOnUse"
       id="clipPath28"><path
         d="M 0,0 596,0 596,842 0,842 0,0 Z"
         id="path30"
         inkscape:connector-curvature="0" /></clipPath><clipPath
       clipPathUnits="userSpaceOnUse"
       id="clipPath32"><path
         d="M 0,0 596,0 596,842 0,842 0,0 Z"
         id="path34"
         inkscape:connector-curvature="0" /></clipPath><clipPath
       clipPathUnits="userSpaceOnUse"
       id="clipPath36"><path
         d="m 120,598 355,0 0,138 -355,0 0,-138 z"
         id="path38"
         inkscape:connector-curvature="0" /></clipPath><clipPath
       clipPathUnits="userSpaceOnUse"
       id="clipPath40"><path
         d="m 120.472,598.608 354.3434,0 0,137.0945 -354.3434,0 0,-137.0945 z"
         id="path42"
         inkscape:connector-curvature="0" /></clipPath><clipPath
       clipPathUnits="userSpaceOnUse"
       id="clipPath44"><path
         d="m 120.472,735.7025 354.3434,0 0,-137.0945 -354.3434,0 0,137.0945 z"
         id="path46"
         inkscape:connector-curvature="0" /></clipPath><clipPath
       clipPathUnits="userSpaceOnUse"
       id="clipPath48"><path
         d="m 120.472,598.608 354.3434,0 0,137.0945 -354.3434,0 0,-137.0945 z"
         id="path50"
         inkscape:connector-curvature="0" /></clipPath><clipPath
       clipPathUnits="userSpaceOnUse"
       id="clipPath52"><path
         d="m 120.472,735.7025 354.3434,0 0,-137.0945 -354.3434,0 0,137.0945 z"
         id="path54"
         inkscape:connector-curvature="0" /></clipPath><clipPath
       clipPathUnits="userSpaceOnUse"
       id="clipPath56"><path
         d="m 120.472,598.608 354.3434,0 0,137.0945 -354.3434,0 0,-137.0945 z"
         id="path58"
         inkscape:connector-curvature="0" /></clipPath><clipPath
       clipPathUnits="userSpaceOnUse"
       id="clipPath60"><path
         d="m 344,639 15,0 0,73 -15,0 0,-73 z"
         id="path62"
         inkscape:connector-curvature="0" /></clipPath><clipPath
       clipPathUnits="userSpaceOnUse"
       id="clipPath64"><path
         d="m 344.1799,639.0521 14.73329,0 0,72.94076 -14.73329,0 0,-72.94076 z"
         id="path66"
         inkscape:connector-curvature="0" /></clipPath><clipPath
       clipPathUnits="userSpaceOnUse"
       id="clipPath68"><path
         d="m 120.472,735.7025 354.3434,0 0,-137.0945 -354.3434,0 0,137.0945 z"
         id="path70"
         inkscape:connector-curvature="0" /></clipPath><clipPath
       clipPathUnits="userSpaceOnUse"
       id="clipPath72"><path
         d="m 120.472,598.608 354.3434,0 0,137.0945 -354.3434,0 0,-137.0945 z"
         id="path74"
         inkscape:connector-curvature="0" /></clipPath><clipPath
       clipPathUnits="userSpaceOnUse"
       id="clipPath76"><path
         d="m 308,638 10,0 0,74 -10,0 0,-74 z"
         id="path78"
         inkscape:connector-curvature="0" /></clipPath><clipPath
       clipPathUnits="userSpaceOnUse"
       id="clipPath80"><path
         d="m 308.3441,638.0416 9.34413,0 0,73.94733 -9.34413,0 0,-73.94733 z"
         id="path82"
         inkscape:connector-curvature="0" /></clipPath><clipPath
       clipPathUnits="userSpaceOnUse"
       id="clipPath84"><path
         d="m 120.472,735.7025 354.3434,0 0,-137.0945 -354.3434,0 0,137.0945 z"
         id="path86"
         inkscape:connector-curvature="0" /></clipPath><clipPath
       clipPathUnits="userSpaceOnUse"
       id="clipPath88"><path
         d="m 120.472,598.608 354.3434,0 0,137.0945 -354.3434,0 0,-137.0945 z"
         id="path90"
         inkscape:connector-curvature="0" /></clipPath><clipPath
       clipPathUnits="userSpaceOnUse"
       id="clipPath92"><path
         d="m 248,638 11,0 0,74 -11,0 0,-74 z"
         id="path94"
         inkscape:connector-curvature="0" /></clipPath><clipPath
       clipPathUnits="userSpaceOnUse"
       id="clipPath96"><path
         d="m 248.7264,638.0416 9.34413,0 0,73.94733 -9.34413,0 0,-73.94733 z"
         id="path98"
         inkscape:connector-curvature="0" /></clipPath><clipPath
       clipPathUnits="userSpaceOnUse"
       id="clipPath100"><path
         d="m 120.472,598.608 354.3434,0 0,137.0945 -354.3434,0 0,-137.0945 z"
         id="path102"
         inkscape:connector-curvature="0" /></clipPath><clipPath
       clipPathUnits="userSpaceOnUse"
       id="clipPath104"><path
         d="m 120.472,735.7025 354.3434,0 0,-137.0945 -354.3434,0 0,137.0945 z"
         id="path106"
         inkscape:connector-curvature="0" /></clipPath><clipPath
       clipPathUnits="userSpaceOnUse"
       id="clipPath108"><path
         d="m 120.472,598.608 354.3434,0 0,137.0945 -354.3434,0 0,-137.0945 z"
         id="path110"
         inkscape:connector-curvature="0" /></clipPath><clipPath
       clipPathUnits="userSpaceOnUse"
       id="clipPath112"><path
         d="m 120.472,598.608 354.3434,0 0,137.0945 -354.3434,0 0,-137.0945 z"
         id="path114"
         inkscape:connector-curvature="0" /></clipPath><clipPath
       clipPathUnits="userSpaceOnUse"
       id="clipPath116"><path
         d="m 120.472,735.7025 354.3434,0 0,-137.0945 -354.3434,0 0,137.0945 z"
         id="path118"
         inkscape:connector-curvature="0" /></clipPath><clipPath
       clipPathUnits="userSpaceOnUse"
       id="clipPath120"><path
         d="m 120.472,598.608 354.3434,0 0,137.0945 -354.3434,0 0,-137.0945 z"
         id="path122"
         inkscape:connector-curvature="0" /></clipPath><clipPath
       clipPathUnits="userSpaceOnUse"
       id="clipPath124"><path
         d="m 120.472,598.608 354.3434,0 0,137.0945 -354.3434,0 0,-137.0945 z"
         id="path126"
         inkscape:connector-curvature="0" /></clipPath></defs><g
     id="g10"
     inkscape:groupmode="layer"
     inkscape:label="henning_abgabe_version"
     transform="matrix(1.25,0,0,-1.25,0,187.50001)"><g
       id="g158"
       transform="translate(-77.997873,-591.98386)"><g
         clip-path="url(#clipPath40)"
         id="g160"><path
           d="m 184.1269,690.9647 0,-12.0836 -10.7446,0 0,-3.8663 0,-3.867 10.7446,0 0,-12.083 24.5579,0 0,31.8999 -24.5579,0 z"
           style="fill:#7b7979;fill-opacity:1;fill-rule:nonzero;stroke:none"
           id="path162"
           inkscape:connector-curvature="0" /><g
           transform="matrix(0.56067,0,0,0.56067,184.1269,690.9647)"
           id="g164"><path
             d="m 0,0 0,-21.552 -19.164,0 0,-6.896 0,-6.897 19.164,0 0,-21.551 43.801,0 L 43.801,0 0,0 Z"
             style="fill:none;stroke:#231f20;stroke-width:2;stroke-linecap:butt;stroke-linejoin:round;stroke-miterlimit:10;stroke-dasharray:none;stroke-opacity:1"
             id="path166"
             inkscape:connector-curvature="0" /></g><path
           d="m 208.685,690.9647 144.6534,0 91.5754,-31.8999 0,31.8999 -91.5754,-31.8999 -144.6534,0 0,31.8999 z"
           style="fill:#8554b0;fill-opacity:1;fill-rule:nonzero;stroke:none"
           id="path168"
           inkscape:connector-curvature="0" /><g
           transform="matrix(0.56067,0,0,0.56067,208.685,690.9647)"
           id="g170"><path
             d="M 0,0 258.001,0 421.333,-56.896 421.333,0 258.001,-56.896 0,-56.896 0,0 Z"
             style="fill:none;stroke:#100f0d;stroke-width:2;stroke-linecap:butt;stroke-linejoin:miter;stroke-miterlimit:10;stroke-dasharray:none;stroke-opacity:1"
             id="path172"
             inkscape:connector-curvature="0" /></g><path
           d="m 458.182,651.0929 -13.8289,0 0,47.8436 13.8289,0 0,-47.8436 z"
           style="fill:#110f0e;fill-opacity:1;fill-rule:nonzero;stroke:none"
           id="path174"
           inkscape:connector-curvature="0" /><path
           d="m 284.9353,680.8086 68.4029,3.498 91.0146,-6.5402 0,-4.8594 -91.0146,-6.1679 -68.4029,2.4821 0,11.5874 z"
           style="fill:#502881;fill-opacity:1;fill-rule:nonzero;stroke:none"
           id="path176"
           inkscape:connector-curvature="0" /><g
           transform="matrix(0.56067,0,0,0.56067,284.9353,680.8086)"
           id="g178"><path
             d="m 0,0 122.002,6.239 162.332,-11.665 0,-8.667 L 122.002,-25.094 0,-20.667 0,0 Z"
             style="fill:none;stroke:#100f0d;stroke-width:2;stroke-linecap:butt;stroke-linejoin:miter;stroke-miterlimit:10;stroke-dasharray:none;stroke-opacity:1"
             id="path180"
             inkscape:connector-curvature="0" /></g></g></g><g
       id="g182"
       transform="translate(-77.997873,-591.98386)"><g
         clip-path="url(#clipPath44)"
         id="g184"><g
           clip-path="url(#clipPath48)"
           id="g186"><path
             d="m 290.7287,675.0152 c 0,-3.1998 -2.5937,-5.7934 -5.7934,-5.7934 -3.1998,0 -5.794,2.5936 -5.794,5.7934 0,3.1997 2.5942,5.7934 5.794,5.7934 3.1997,0 5.7934,-2.5937 5.7934,-5.7934"
             style="fill:#918f90;fill-opacity:1;fill-rule:nonzero;stroke:none"
             id="path188"
             inkscape:connector-curvature="0" /><g
             transform="matrix(0.56067,0,0,0.56067,290.7287,675.0152)"
             id="g190"><path
               d="m 0,0 c 0,-5.707 -4.626,-10.333 -10.333,-10.333 -5.707,0 -10.334,4.626 -10.334,10.333 0,5.707 4.627,10.333 10.334,10.333 C -4.626,10.333 0,5.707 0,0 Z"
               style="fill:none;stroke:#231f20;stroke-width:2;stroke-linecap:butt;stroke-linejoin:round;stroke-miterlimit:10;stroke-dasharray:none;stroke-opacity:1"
               id="path192"
               inkscape:connector-curvature="0" /></g></g></g></g><g
       id="g194"
       transform="translate(-77.997873,-591.98386)"><g
         clip-path="url(#clipPath52)"
         id="g196"><g
           clip-path="url(#clipPath56)"
           id="g198"><g
             id="g200" /><g
             id="g202"><g
               clip-path="url(#clipPath60)"
               id="g204"
               style="opacity:0.7"><g
                 id="g206" /><g
                 id="g208"><g
                   clip-path="url(#clipPath64)"
                   id="g210"><path
                     d="m 358.3527,640.3204 0,70.4045 c -8.1869,-7.4507 -13.612,-20.428 -13.612,-35.2022 0,-14.7742 5.4251,-27.7515 13.612,-35.2023"
                     style="fill:#72d1e8;fill-opacity:1;fill-rule:nonzero;stroke:none"
                     id="path212"
                     inkscape:connector-curvature="0" /><g
                     transform="matrix(0.56067,0,0,0.56067,358.3527,640.3204)"
                     id="g214"><path
                       d="M 0,0 0,125.572 C -14.602,112.283 -24.278,89.137 -24.278,62.786 -24.278,36.435 -14.602,13.289 0,0 Z"
                       style="fill:none;stroke:#100f0d;stroke-width:2;stroke-linecap:butt;stroke-linejoin:miter;stroke-miterlimit:10;stroke-dasharray:none;stroke-opacity:1"
                       id="path216"
                       inkscape:connector-curvature="0" /></g></g></g></g></g></g></g></g><g
       id="g218"
       transform="translate(-77.997873,-591.98386)"><g
         clip-path="url(#clipPath68)"
         id="g220"><g
           clip-path="url(#clipPath72)"
           id="g222"><g
             id="g224" /><g
             id="g226"><g
               clip-path="url(#clipPath76)"
               id="g228"
               style="opacity:0.7"><g
                 id="g230" /><g
                 id="g232"><g
                   clip-path="url(#clipPath80)"
                   id="g234"><path
                     d="m 317.1278,638.6023 -1.904,1.5199 0.002,-1.5199 -2.028,1.4258 -0.0308,-1.4258 -2.0195,1.567 0,-1.567 -2.2427,1.8586 0,-1.6119 0,72.5793 0.5607,-1.8183 1.7756,1.8183 0.0465,-2.0515 1.7292,2.0515 0,-2.1452 2.149,2.1452 0,-2.2853 1.9623,2.2853 0,-72.826 z"
                     style="fill:#72d1e8;fill-opacity:1;fill-rule:nonzero;stroke:none"
                     id="path236"
                     inkscape:connector-curvature="0" /><g
                     transform="matrix(0.56067,0,0,0.56067,317.1278,638.6023)"
                     id="g238"><path
                       d="M 0,0 -3.396,2.711 -3.393,0 -7.01,2.543 -7.065,0 l -3.602,2.795 0,-2.795 -4,3.315 0,-2.875 0,129.451 1,-3.243 3.167,3.243 0.083,-3.659 3.084,3.659 0,-3.826 3.833,3.826 0,-4.076 L 0,129.891 0,0 Z"
                       style="fill:none;stroke:#100f0d;stroke-width:2;stroke-linecap:butt;stroke-linejoin:round;stroke-miterlimit:10;stroke-dasharray:none;stroke-opacity:1"
                       id="path240"
                       inkscape:connector-curvature="0" /></g></g></g></g></g></g></g></g><g
       id="g242"
       transform="translate(-77.997873,-591.98386)"><g
         clip-path="url(#clipPath84)"
         id="g244"><g
           clip-path="url(#clipPath88)"
           id="g246"><g
             id="g248" /><g
             id="g250"><g
               clip-path="url(#clipPath92)"
               id="g252"
               style="opacity:0.7"><g
                 id="g254" /><g
                 id="g256"><g
                   clip-path="url(#clipPath96)"
                   id="g258"><path
                     d="m 257.5098,638.6023 -1.904,1.5199 0.002,-1.5199 -2.028,1.4258 -0.0308,-1.4258 -2.0195,1.567 0,-1.567 -2.2427,1.8586 0,-1.6119 0,72.5793 0.5607,-1.8183 1.7756,1.8183 0.0465,-2.0515 1.7291,2.0515 0,-2.1452 2.1491,2.1452 0,-2.2853 1.9623,2.2853 0,-72.826 z"
                     style="fill:#72d1e8;fill-opacity:1;fill-rule:nonzero;stroke:none"
                     id="path260"
                     inkscape:connector-curvature="0" /><g
                     transform="matrix(0.56067,0,0,0.56067,257.5098,638.6023)"
                     id="g262"><path
                       d="M 0,0 -3.396,2.711 -3.393,0 -7.01,2.543 -7.065,0 l -3.602,2.795 0,-2.795 -4,3.315 0,-2.875 0,129.451 1,-3.243 3.167,3.243 0.083,-3.659 3.084,3.659 0,-3.826 3.833,3.826 0,-4.076 L 0,129.891 0,0 Z"
                       style="fill:none;stroke:#100f0d;stroke-width:2;stroke-linecap:butt;stroke-linejoin:round;stroke-miterlimit:10;stroke-dasharray:none;stroke-opacity:1"
                       id="path264"
                       inkscape:connector-curvature="0" /></g></g></g></g></g><g
             transform="matrix(0.56067,0,0,0.56067,173.2018,675.2325)"
             id="g266"><path
               d="m 0,0 c -7.608,0 -13.94,-0.135 -20.379,-1.251 -6.58,-1.141 -15.079,-3.802 -20.89,-7.237 -12.682,-7.497 -13.985,-23.273 -9.946,-36.165 3.506,-11.188 18.213,-38.854 34.641,-31.39 9.626,4.374 4.594,27.294 -4.209,35.583 -6.262,5.897 -21.358,5.88 -28.933,3.138 -11.723,-4.244 -19.301,-17.945 -23.831,-28.831 -5.464,-13.134 -7.516,-29.914 -6.451,-44.108 0.642,-8.548 0.458,-17.913 2.665,-26.405"
               style="fill:none;stroke:#231f20;stroke-width:2;stroke-linecap:butt;stroke-linejoin:round;stroke-miterlimit:10;stroke-dasharray:none;stroke-opacity:1"
               id="path268"
               inkscape:connector-curvature="0" /></g></g></g></g><path
       inkscape:connector-curvature="0"
       id="path326"
       style="fill:#231f20;fill-opacity:1;fill-rule:nonzero;stroke:none"
       d="m 206.93743,42.79804 67.7323,0" /><g
       id="g328"
       transform="matrix(0.56067,0,0,0.56067,210.32113,42.79804)"><path
         inkscape:connector-curvature="0"
         id="path330"
         style="fill:none;stroke:#231f20;stroke-width:2;stroke-linecap:butt;stroke-linejoin:miter;stroke-miterlimit:10;stroke-dasharray:none;stroke-opacity:1"
         d="M 0,0 108.736,0" /></g><path
       inkscape:connector-curvature="0"
       id="path332"
       style="fill:#231f20;fill-opacity:1;fill-rule:nonzero;stroke:none"
       d="m 206.93743,42.79804 c 1.5923,-0.591 3.5675,-1.5991 4.792,-2.6666 l -0.9643,2.6666 0.9643,2.666 c -1.2245,-1.0676 -3.1997,-2.0756 -4.792,-2.666" /><path
       inkscape:connector-curvature="0"
       id="path334"
       style="fill:#231f20;fill-opacity:1;fill-rule:nonzero;stroke:none"
       d="m 274.66973,42.79804 c -1.5923,-0.591 -3.5675,-1.5991 -4.792,-2.6666 l 0.9644,2.6666 -0.9644,2.666 c 1.2245,-1.0676 3.1997,-2.0756 4.792,-2.666" /><path
       inkscape:connector-curvature="0"
       id="path336"
       style="fill:#231f20;fill-opacity:1;fill-rule:nonzero;stroke:none"
       d="m 274.67033,42.79804 92.2454,0" /><g
       id="g338"
       transform="matrix(0.56067,0,0,0.56067,278.05413,42.79804)"><path
         inkscape:connector-curvature="0"
         id="path340"
         style="fill:none;stroke:#231f20;stroke-width:2;stroke-linecap:butt;stroke-linejoin:miter;stroke-miterlimit:10;stroke-dasharray:none;stroke-opacity:1"
         d="M 0,0 152.457,0" /></g><path
       inkscape:connector-curvature="0"
       id="path342"
       style="fill:#231f20;fill-opacity:1;fill-rule:nonzero;stroke:none"
       d="m 274.67033,42.79804 c 1.5923,-0.591 3.5676,-1.5991 4.7926,-2.6666 l -0.9649,2.6666 0.9649,2.666 c -1.225,-1.0676 -3.2003,-2.0756 -4.7926,-2.666" /><path
       inkscape:connector-curvature="0"
       id="path344"
       style="fill:#231f20;fill-opacity:1;fill-rule:nonzero;stroke:none"
       d="m 366.91593,42.79804 c -1.5923,-0.591 -3.5676,-1.5991 -4.7926,-2.6666 l 0.9649,2.6666 -0.9649,2.666 c 1.225,-1.0676 3.2003,-2.0756 4.7926,-2.666" /><g
       id="g346"
       transform="matrix(0.56067,0,0,0.56067,183.01563,36.44364)"><path
         inkscape:connector-curvature="0"
         id="path348"
         style="fill:#231f20;fill-opacity:1;fill-rule:nonzero;stroke:#231f20;stroke-width:1;stroke-linecap:butt;stroke-linejoin:miter;stroke-miterlimit:10;stroke-dasharray:none;stroke-opacity:1"
         d="M 0,0 38,68.332" /></g><text
       transform="scale(1,-1)"
       style="font-variant:normal;font-weight:normal;font-size:11.9552002px;font-family:CMSY10;-inkscape-font-specification:CMSY10;writing-mode:lr-tb;fill:#000000;fill-opacity:1;fill-rule:nonzero;stroke:none"
       id="text542"
       x="320.27802"
       y="-449.46799"><tspan
         x="320.27802"
         y="-449.46799"
         id="tspan544" /></text>
<text
       transform="scale(1,-1)"
       style="font-variant:normal;font-weight:normal;font-size:11.9552002px;font-family:CMSY10;-inkscape-font-specification:CMSY10;writing-mode:lr-tb;fill:#000000;fill-opacity:1;fill-rule:nonzero;stroke:none"
       id="text590"
       x="323.57101"
       y="-433.17999"><tspan
         x="323.57101"
         y="-433.17999"
         id="tspan592" /></text>
<text
       transform="scale(1,-1)"
       style="font-variant:normal;font-weight:normal;font-size:11.9552002px;font-family:CMMI12;-inkscape-font-specification:CMMI12;writing-mode:lr-tb;fill:#000000;fill-opacity:1;fill-rule:nonzero;stroke:none"
       id="text670"
       x="281.07501"
       y="-363.65399"><tspan
         x="281.07501"
         y="-363.65399"
         id="tspan672" /></text>
<text
       transform="scale(1,-1)"
       style="font-variant:normal;font-weight:normal;font-size:11.9552002px;font-family:CMMI12;-inkscape-font-specification:CMMI12;writing-mode:lr-tb;fill:#000000;fill-opacity:1;fill-rule:nonzero;stroke:none"
       id="text726"
       x="429.69901"
       y="-337.90799"><tspan
         x="429.69901"
         y="-337.90799"
         id="tspan728" /></text>
<text
       transform="scale(1,-1)"
       style="font-variant:normal;font-weight:normal;font-size:11.9552002px;font-family:CMMI12;-inkscape-font-specification:CMMI12;writing-mode:lr-tb;fill:#000000;fill-opacity:1;fill-rule:nonzero;stroke:none"
       id="text758"
       x="236.153"
       y="-292.927"><tspan
         x="236.153"
         y="-292.927"
         id="tspan760" /></text>
<text
       transform="scale(1,-1)"
       style="font-variant:normal;font-weight:normal;font-size:11.9552002px;font-family:CMMI12;-inkscape-font-specification:CMMI12;writing-mode:lr-tb;fill:#000000;fill-opacity:1;fill-rule:nonzero;stroke:none"
       id="text782"
       x="285.21399"
       y="-301.01501"><tspan
         x="285.21399"
         y="-301.01501"
         id="tspan784" /></text>
<text
       transform="scale(1,-1)"
       style="font-variant:normal;font-weight:normal;font-size:11.9552002px;font-family:CMMI12;-inkscape-font-specification:CMMI12;writing-mode:lr-tb;fill:#000000;fill-opacity:1;fill-rule:nonzero;stroke:none"
       id="text814"
       x="329.84201"
       y="-284.72699"><tspan
         x="329.84201"
         y="-284.72699"
         id="tspan816" /></text>
<text
       transform="scale(1,-1)"
       style="font-variant:normal;font-weight:normal;font-size:11.9552002px;font-family:CMR12;-inkscape-font-specification:CMR12;writing-mode:lr-tb;fill:#000000;fill-opacity:1;fill-rule:nonzero;stroke:none"
       id="text822"
       x="341.328"
       y="-284.72699"><tspan
         x="341.328"
         y="-284.72699"
         id="tspan824" /></text>
<text
       transform="scale(1,-1)"
       style="font-variant:normal;font-weight:normal;font-size:11.9552002px;font-family:CMSY10;-inkscape-font-specification:CMSY10;writing-mode:lr-tb;fill:#000000;fill-opacity:1;fill-rule:nonzero;stroke:none"
       id="text910"
       x="447.93701"
       y="-233.897"><tspan
         x="447.93701"
         y="-233.897"
         id="tspan912" /></text>
<text
       transform="scale(1,-1)"
       style="font-variant:normal;font-weight:normal;font-size:11.9552002px;font-family:CMMI12;-inkscape-font-specification:CMMI12;writing-mode:lr-tb;fill:#000000;fill-opacity:1;fill-rule:nonzero;stroke:none"
       id="text1014"
       x="318.24701"
       y="-153.114"><tspan
         x="318.24701"
         y="-153.114"
         id="tspan1016" /></text>
</g><g
     inkscape:label="henning_abgabe_version 1"
     id="layer1"
     inkscape:groupmode="layer"><g
       id="g9652"
       transform="translate(-89.997546,265.61775)"><path
         id="path9253"
         d="m 130.82232,-195.80587 -0.1625,0 -0.1625,0.0125 -0.15,0.025 -0.1625,0.025 -0.15,0.025 -0.15,0.05 -0.1375,0.0375 -0.1375,0.0625 -0.1375,0.05 -0.1375,0.075 -0.125,0.075 -0.1125,0.075 -0.125,0.0875 -0.1125,0.0875 -0.1,0.1 -0.1125,0.1 -0.0875,0.1125 -0.1,0.1125 -0.0875,0.1125 -0.075,0.125 -0.075,0.1375 -0.075,0.125 -0.0625,0.1375 -0.05,0.15 -0.05,0.15 -0.05,0.15 -0.0375,0.15 -0.0375,0.1625 -0.025,0.1625 -0.0125,0.175 -0.0125,0.175 0,0.175 c 0,1.8375 1.2625,3.2125 2.9875,3.2125 l 0.1625,-0.375 c -0.525,0 -1.0375,-0.325 -1.325,-0.875 -0.375,-0.7125 -0.6,-1.6625 -0.6,-2.6375 0,-1.3 0.65,-2.15 1.6125,-2.15 l 0,0 c 1.15,0 1.95,1.3125 1.95,3.1875 0,1.5375 -0.6125,2.475 -1.6375,2.475 l -0.1625,0.375 c 1.725,0 3.0375,-1.4375 3.0375,-3.325 0,-1.7875 -1.2625,-3.0875 -3.0125,-3.0875 z"
         inkscape:connector-curvature="0"
         style="font-style:normal;font-variant:normal;font-weight:normal;font-stretch:normal;letter-spacing:normal;word-spacing:normal;text-anchor:start;fill:#000000;fill-opacity:1;fill-rule:evenodd;stroke:#000000;stroke-width:0;stroke-linecap:butt;stroke-linejoin:miter;stroke-miterlimit:10.43299961;stroke-dasharray:none;stroke-dashoffset:0;stroke-opacity:1" /><path
         id="path9255"
         d="m 134.38482,-194.89337 0.025,0 0.025,0 0.0125,0 0.025,-0.0125 0.025,0 0.0125,0 0.05,0 0.0375,0 0.025,0 0.0125,0 0.025,0 0.025,0 0.0125,0 0.025,0 c 0.4625,0 0.5625,0.1375 0.5625,0.775 l 0,6.4 c 0,0.7125 -0.15,0.85 -0.95,0.9375 l 0,0.2375 3.3,0 0,-0.25 c -1.025,-0.0125 -1.2,-0.1625 -1.2,-1.025 l 0,-2.15 c 0.475,0.4625 0.8,0.5875 1.375,0.5875 l 0.05,-0.425 c -0.65,0 -1.425,-0.5 -1.425,-0.9125 l 0,-3.3625 c 0,-0.4 0.7625,-0.9 1.3875,-0.9 1.0125,0 1.6875,1.05 1.6875,2.625 0,1.525 -0.675,2.55 -1.65,2.55 l -0.05,0.425 c 1.6125,0 2.875,-1.525 2.875,-3.5 0,-1.7 -0.9625,-2.9125 -2.2875,-2.9125 -0.7625,0 -1.3625,0.3375 -1.9625,1.075 l 0,-1.05 -0.0875,-0.025 c -0.7375,0.2875 -1.2125,0.4625 -1.9625,0.7 z"
         inkscape:connector-curvature="0"
         style="font-style:normal;font-variant:normal;font-weight:normal;font-stretch:normal;letter-spacing:normal;word-spacing:normal;text-anchor:start;fill:#000000;fill-opacity:1;fill-rule:evenodd;stroke:#000000;stroke-width:0;stroke-linecap:butt;stroke-linejoin:miter;stroke-miterlimit:10.43299961;stroke-dasharray:none;stroke-dashoffset:0;stroke-opacity:1" /><path
         id="path9257"
         d="m 144.59732,-195.66837 -1.3875,0 0,-1.5875 c 0,-0.1375 -0.0125,-0.175 -0.0875,-0.175 -0.1,0.125 -0.1875,0.2375 -0.275,0.375 -0.525,0.7625 -1.1125,1.4125 -1.325,1.4625 -0.15,0.1 -0.2375,0.2 -0.2375,0.2625 0,0.0375 0.0125,0.075 0.0625,0.1 l 0.725,0 0,4.1125 c 0,1.1375 0.4,1.725 1.2125,1.725 0.6625,0 1.1875,-0.325 1.6375,-1.0375 l -0.175,-0.15 c -0.2875,0.35 -0.525,0.4875 -0.825,0.4875 -0.5,0 -0.7125,-0.375 -0.7125,-1.2375 l 0,-3.9 1.3875,0 z"
         inkscape:connector-curvature="0"
         style="font-style:normal;font-variant:normal;font-weight:normal;font-stretch:normal;letter-spacing:normal;word-spacing:normal;text-anchor:start;fill:#000000;fill-opacity:1;fill-rule:evenodd;stroke:#000000;stroke-width:0;stroke-linecap:butt;stroke-linejoin:miter;stroke-miterlimit:10.43299961;stroke-dasharray:none;stroke-dashoffset:0;stroke-opacity:1" /><path
         id="path9259"
         d="m 147.30982,-195.80587 -2.1125,0.75 0,0.2 0.1,-0.0125 c 0.175,-0.025 0.35,-0.0375 0.475,-0.0375 0.325,0 0.45,0.2125 0.45,0.8125 l 0,3.175 c 0,0.9875 -0.1375,1.1375 -1.0875,1.1875 l 0,0.2125 3.2375,0 0,-0.2125 c -0.9,-0.0625 -1.0125,-0.2 -1.0125,-1.1875 l 0,-4.85 z"
         inkscape:connector-curvature="0"
         style="font-style:normal;font-variant:normal;font-weight:normal;font-stretch:normal;letter-spacing:normal;word-spacing:normal;text-anchor:start;fill:#000000;fill-opacity:1;fill-rule:evenodd;stroke:#000000;stroke-width:0;stroke-linecap:butt;stroke-linejoin:miter;stroke-miterlimit:10.43299961;stroke-dasharray:none;stroke-dashoffset:0;stroke-opacity:1" /><path
         id="path9261"
         d="m 146.67232,-198.85587 -0.0375,0 -0.0375,0 -0.0375,0.0125 -0.025,0 -0.0375,0.0125 -0.025,0.0125 -0.0375,0.0125 -0.025,0.0125 -0.0375,0.0125 -0.025,0.0125 -0.025,0.0125 -0.0375,0.025 -0.025,0.0125 -0.025,0.025 -0.025,0.025 -0.025,0.025 -0.025,0.025 -0.0125,0.025 -0.025,0.025 -0.025,0.025 -0.0125,0.025 -0.0125,0.025 -0.025,0.0375 -0.0125,0.025 -0.0125,0.0375 0,0.025 -0.0125,0.0375 -0.0125,0.0375 0,0.025 -0.0125,0.0375 0,0.0375 0,0.0375 c 0,0.3875 0.3,0.7 0.6875,0.7 0.3875,0 0.7,-0.3 0.7,-0.7 0,-0.3875 -0.3125,-0.7 -0.7,-0.7 z"
         inkscape:connector-curvature="0"
         style="font-style:normal;font-variant:normal;font-weight:normal;font-stretch:normal;letter-spacing:normal;word-spacing:normal;text-anchor:start;fill:#000000;fill-opacity:1;fill-rule:evenodd;stroke:#000000;stroke-width:0;stroke-linecap:butt;stroke-linejoin:miter;stroke-miterlimit:10.43299961;stroke-dasharray:none;stroke-dashoffset:0;stroke-opacity:1" /><path
         id="path9263"
         d="m 154.15982,-191.65587 -0.0625,0.0875 -0.05,0.0875 -0.0625,0.075 -0.0625,0.075 -0.05,0.075 -0.0625,0.075 -0.0625,0.0625 -0.05,0.0625 -0.0625,0.0625 -0.05,0.0625 -0.0625,0.05 -0.05,0.05 -0.0625,0.05 -0.05,0.05 -0.0625,0.0375 -0.05,0.0375 -0.0625,0.0375 -0.05,0.0375 -0.0625,0.025 -0.05,0.025 -0.0625,0.0375 -0.0625,0.0125 -0.0625,0.025 -0.0625,0.0125 -0.0625,0.025 -0.0625,0.0125 -0.0625,0.0125 -0.0625,0.0125 -0.075,0 -0.0625,0 -0.075,0.0125 -0.075,0 c -1.2375,0 -2.1125,-1.1 -2.1125,-2.6625 0,-1.4125 0.75,-2.3875 1.8625,-2.3875 0.4875,0 0.6625,0.1625 0.8,0.6625 l 0.075,0.3 c 0.1125,0.3875 0.3625,0.625 0.65,0.625 0.35,0 0.65,-0.2625 0.65,-0.575 0,-0.7625 -0.95,-1.4 -2.1,-1.4 -0.6625,0 -1.3625,0.275 -1.925,0.7625 -0.6875,0.6 -1.0625,1.525 -1.0625,2.6125 0,1.775 1.075,3.0375 2.5875,3.0375 0.6125,0 1.1625,-0.2125 1.6625,-0.6375 0.3625,-0.325 0.625,-0.7 1.0375,-1.5 z"
         inkscape:connector-curvature="0"
         style="font-style:normal;font-variant:normal;font-weight:normal;font-stretch:normal;letter-spacing:normal;word-spacing:normal;text-anchor:start;fill:#000000;fill-opacity:1;fill-rule:evenodd;stroke:#000000;stroke-width:0;stroke-linecap:butt;stroke-linejoin:miter;stroke-miterlimit:10.43299961;stroke-dasharray:none;stroke-dashoffset:0;stroke-opacity:1" /><path
         id="path9265"
         d="m 160.84732,-190.43087 -0.025,0.025 -0.0125,0.0125 -0.025,0.0125 -0.025,0.025 -0.0125,0.0125 -0.025,0.0125 -0.025,0.0125 -0.0125,0.0125 -0.025,0.0125 -0.0125,0.0125 -0.025,0.0125 -0.0125,0.0125 -0.025,0 -0.0125,0.0125 -0.0125,0.0125 -0.025,0 -0.0125,0.0125 -0.025,0.0125 -0.0125,0 -0.025,0.0125 -0.0125,0 -0.0125,0 -0.025,0.0125 -0.0125,0 -0.0375,0.0125 -0.0375,0 -0.0375,0 -0.0375,0 c -0.3125,0 -0.4125,-0.1875 -0.4125,-0.7875 l 0,-2.6625 c 0,-0.7125 -0.0625,-1.1125 -0.275,-1.4375 -0.3,-0.4875 -0.8875,-0.75 -1.6875,-0.75 -1.2875,0 -2.3,0.6625 -2.3,1.525 0,0.3125 0.275,0.5875 0.5875,0.5875 0.325,0 0.6125,-0.275 0.6125,-0.575 0,-0.05 -0.0125,-0.125 -0.025,-0.2125 -0.025,-0.125 -0.0375,-0.2375 -0.0375,-0.325 0,-0.375 0.4375,-0.675 0.975,-0.675 0.675,0 1.05,0.4 1.05,1.1375 l 0,0.825 0,0.3375 0,1.975 c 0,0.425 -0.075,0.55 -0.3625,0.7125 -0.325,0.1875 -0.7125,0.3125 -1,0.3125 -0.475,0 -0.85,-0.4625 -0.85,-1.05 l 0,-0.05 c 0,-0.8125 0.55,-1.3 2.2125,-1.9 l 0,-0.3375 c -2.1125,0.85 -2.3375,0.9625 -2.925,1.475 -0.3,0.275 -0.5,0.7375 -0.5,1.2 0,0.85 0.6125,1.45 1.4375,1.45 0.6,0 1.1625,-0.275 2,-0.9875 0.0625,0.7125 0.3125,0.9875 0.875,0.9875 0.4625,0 0.75,-0.1625 1.225,-0.675 z"
         inkscape:connector-curvature="0"
         style="font-style:normal;font-variant:normal;font-weight:normal;font-stretch:normal;letter-spacing:normal;word-spacing:normal;text-anchor:start;fill:#000000;fill-opacity:1;fill-rule:evenodd;stroke:#000000;stroke-width:0;stroke-linecap:butt;stroke-linejoin:miter;stroke-miterlimit:10.43299961;stroke-dasharray:none;stroke-dashoffset:0;stroke-opacity:1" /><path
         id="path9267"
         d="m 161.14732,-198.03087 0.0875,0 c 0.15,-0.0125 0.3125,-0.0375 0.425,-0.0375 0.4375,0 0.575,0.2 0.575,0.8375 l 0,6.5125 c 0,0.7375 -0.2,0.925 -1.05,0.9875 l 0,0.2125 3.2125,0 0,-0.2125 c -0.85,-0.05 -1.025,-0.1875 -1.025,-0.9375 l 0,-8.1625 -0.05,-0.025 c -0.7125,0.2375 -1.225,0.375 -2.175,0.6 z"
         inkscape:connector-curvature="0"
         style="font-style:normal;font-variant:normal;font-weight:normal;font-stretch:normal;letter-spacing:normal;word-spacing:normal;text-anchor:start;fill:#000000;fill-opacity:1;fill-rule:evenodd;stroke:#000000;stroke-width:0;stroke-linecap:butt;stroke-linejoin:miter;stroke-miterlimit:10.43299961;stroke-dasharray:none;stroke-dashoffset:0;stroke-opacity:1" /><path
         id="path9269"
         d="m 168.54732,-195.21837 0.925,0 0,4.4125 c 0,0.875 -0.15,1.05 -0.9125,1.075 l 0,0.2125 3.0125,0 0,-0.2125 c -0.775,-0.05 -0.95,-0.25 -0.95,-1 l 0,-4.4875 1.175,0 c 1.3125,0 1.3875,0.0375 1.3875,0.7625 l 0,3.6125 c 0,0.925 -0.1,1.05 -0.95,1.1125 l 0,0.2125 3.0125,0 0,-0.2125 c -0.775,-0.0625 -0.925,-0.25 -0.925,-1.1125 l 0,-3.5875 c 0,-0.3 0,-0.6125 0.025,-1.3375 l -0.05,-0.0375 c -0.6,0.0875 -1,0.1375 -1.5375,0.1375 l -2.15,0 0,-0.5875 c 0,-0.6 0.0375,-1.025 0.1125,-1.2625 0.1875,-0.5875 0.725,-1 1.3375,-1 0.375,0 0.6375,0.1875 0.9625,0.65 0.2625,0.3625 0.4375,0.5 0.675,0.5 0.2875,0 0.4875,-0.225 0.4875,-0.525 0,-0.575 -0.675,-0.9625 -1.725,-0.9625 -1.0375,0 -1.8375,0.3625 -2.325,1.025 -0.4125,0.5625 -0.5625,1.0625 -0.6375,2.1625 l -0.95,0 z"
         inkscape:connector-curvature="0"
         style="font-style:normal;font-variant:normal;font-weight:normal;font-stretch:normal;letter-spacing:normal;word-spacing:normal;text-anchor:start;fill:#000000;fill-opacity:1;fill-rule:evenodd;stroke:#000000;stroke-width:0;stroke-linecap:butt;stroke-linejoin:miter;stroke-miterlimit:10.43299961;stroke-dasharray:none;stroke-dashoffset:0;stroke-opacity:1" /><path
         id="path9271"
         d="m 177.83482,-198.83087 -0.075,-0.025 c -0.575,0.2125 -0.9375,0.3125 -1.575,0.4875 l -0.4,0.1125 0,0.225 c 0.075,-0.0125 0.1375,-0.0125 0.225,-0.0125 0.55,0 0.675,0.125 0.675,0.6875 l 0,7.0875 c 0,0.425 1.1625,0.875 2.25,0.875 l 0.225,-0.425 c -0.7125,0 -1.325,-0.325 -1.325,-0.6625 l 0,-3.4375 c 0,-0.5375 0.6375,-1.025 1.35,-1.025 1.0625,0 1.75,1.0625 1.75,2.725 0,1.5125 -0.6625,2.4 -1.775,2.4 l -0.225,0.425 c 1.8,0 3.2,-1.5 3.2,-3.45 0,-1.675 -1.0375,-2.9625 -2.4,-2.9625 -0.8375,0 -1.6375,0.4875 -1.9,1.1625 z"
         inkscape:connector-curvature="0"
         style="font-style:normal;font-variant:normal;font-weight:normal;font-stretch:normal;letter-spacing:normal;word-spacing:normal;text-anchor:start;fill:#000000;fill-opacity:1;fill-rule:evenodd;stroke:#000000;stroke-width:0;stroke-linecap:butt;stroke-linejoin:miter;stroke-miterlimit:10.43299961;stroke-dasharray:none;stroke-dashoffset:0;stroke-opacity:1" /><path
         id="path9273"
         d="m 188.15982,-191.76837 -0.0625,0.1 -0.05,0.0875 -0.0625,0.0875 -0.0625,0.0875 -0.0625,0.0875 -0.0625,0.075 -0.0625,0.075 -0.05,0.0625 -0.0625,0.075 -0.0625,0.0625 -0.0625,0.0625 -0.0625,0.05 -0.0625,0.05 -0.0625,0.05 -0.0625,0.05 -0.0625,0.05 -0.0625,0.0375 -0.0625,0.0375 -0.0625,0.0375 -0.075,0.0375 -0.0625,0.025 -0.0625,0.025 -0.075,0.025 -0.075,0.025 -0.0625,0.0125 -0.075,0.025 -0.075,0.0125 -0.075,0 -0.075,0.0125 -0.075,0.0125 -0.0875,0 -0.075,0 c -0.775,0 -1.3625,-0.4 -1.7625,-1.175 -0.25,-0.5125 -0.3375,-0.9625 -0.375,-1.8 l 0.0375,-0.4375 c 0.15,-1.0625 0.6125,-1.575 1.4375,-1.575 0.8375,0 1.1625,0.3875 1.35,1.575 l -2.7875,0 -0.0375,0.4375 4.2125,0 c -0.1125,-0.8875 -0.25,-1.2875 -0.5875,-1.725 -0.4125,-0.4875 -1.0375,-0.775 -1.75,-0.775 -0.6875,0 -1.325,0.2375 -1.8375,0.7125 -0.65,0.55 -1.0125,1.525 -1.0125,2.65 0,1.875 0.975,3.05 2.55,3.05 1.3,0 2.325,-0.8 2.9,-2.275 z"
         inkscape:connector-curvature="0"
         style="font-style:normal;font-variant:normal;font-weight:normal;font-stretch:normal;letter-spacing:normal;word-spacing:normal;text-anchor:start;fill:#000000;fill-opacity:1;fill-rule:evenodd;stroke:#000000;stroke-width:0;stroke-linecap:butt;stroke-linejoin:miter;stroke-miterlimit:10.43299961;stroke-dasharray:none;stroke-dashoffset:0;stroke-opacity:1" /><path
         id="path9275"
         d="m 188.77232,-194.85587 0.0125,0 0.0125,0 0.025,-0.0125 0.0125,0 0.0375,0 0.025,-0.0125 0.0375,0 0.025,0 0.025,-0.0125 0.0375,0 0.025,0 0.025,0 0.025,-0.0125 0.0375,0 0.025,0 0.025,0 0.025,0 0.0375,0 c 0.3375,0 0.4625,0.2125 0.4625,0.8125 l 0,3.425 c 0,0.675 -0.1,0.775 -0.975,0.9375 l 0,0.2125 3.2875,0 0,-0.2125 c -0.9375,-0.0375 -1.1625,-0.25 -1.1625,-1.025 l 0,-3.075 c 0,-0.4375 0.5875,-1.1125 0.95,-1.1125 0.0875,0 0.2125,0.0625 0.3625,0.2 0.2125,0.1875 0.3625,0.275 0.5375,0.275 0.3375,0 0.5375,-0.2375 0.5375,-0.6125 0,-0.45 -0.2875,-0.725 -0.75,-0.725 -0.575,0 -0.975,0.3125 -1.6375,1.2875 l 0,-1.2625 -0.075,-0.025 c -0.725,0.3 -1.2125,0.475 -2.0125,0.7375 z"
         inkscape:connector-curvature="0"
         style="font-style:normal;font-variant:normal;font-weight:normal;font-stretch:normal;letter-spacing:normal;word-spacing:normal;text-anchor:start;fill:#000000;fill-opacity:1;fill-rule:evenodd;stroke:#000000;stroke-width:0;stroke-linecap:butt;stroke-linejoin:miter;stroke-miterlimit:10.43299961;stroke-dasharray:none;stroke-dashoffset:0;stroke-opacity:1" /></g><g
       id="g9666"
       transform="translate(78.747853,189.49489)"><path
         id="path9277"
         d="m 132.84732,-166.75587 -0.0625,0.1 -0.0625,0.075 -0.05,0.0875 -0.0625,0.075 -0.0625,0.075 -0.05,0.0625 -0.0625,0.075 -0.05,0.0625 -0.0625,0.0625 -0.05,0.05 -0.0625,0.0625 -0.05,0.05 -0.0625,0.0375 -0.05,0.05 -0.0625,0.0375 -0.05,0.05 -0.0625,0.0375 -0.05,0.025 -0.0625,0.0375 -0.0625,0.025 -0.05,0.025 -0.0625,0.025 -0.0625,0.025 -0.0625,0.0125 -0.0625,0.0125 -0.0625,0.0125 -0.0625,0.0125 -0.075,0.0125 -0.0625,0.0125 -0.075,0 -0.0625,0 -0.075,0 c -1.2375,0 -2.1125,-1.0875 -2.1125,-2.6625 0,-1.4 0.75,-2.375 1.85,-2.375 0.5,0 0.675,0.15 0.8125,0.65 l 0.075,0.3 c 0.1125,0.3875 0.3625,0.6375 0.65,0.6375 0.35,0 0.65,-0.2625 0.65,-0.575 0,-0.7625 -0.95,-1.4125 -2.1,-1.4125 -0.675,0 -1.3625,0.275 -1.925,0.775 -0.6875,0.6 -1.0625,1.525 -1.0625,2.6 0,1.775 1.075,3.05 2.5875,3.05 0.6125,0 1.1625,-0.225 1.65,-0.6375 0.375,-0.3375 0.6375,-0.7 1.0375,-1.5125 z"
         inkscape:connector-curvature="0"
         style="font-style:normal;font-variant:normal;font-weight:normal;font-stretch:normal;letter-spacing:normal;word-spacing:normal;text-anchor:start;fill:#000000;fill-opacity:1;fill-rule:evenodd;stroke:#000000;stroke-width:0;stroke-linecap:butt;stroke-linejoin:miter;stroke-miterlimit:10.43299961;stroke-dasharray:none;stroke-dashoffset:0;stroke-opacity:1" /><path
         id="path9279"
         d="m 135.63482,-169.30587 0.0625,-0.05 0.05,-0.0625 0.05,-0.05 0.05,-0.05 0.05,-0.05 0.05,-0.05 0.05,-0.0375 0.05,-0.05 0.0375,-0.0375 0.05,-0.0375 0.05,-0.0375 0.05,-0.0375 0.0375,-0.025 0.05,-0.0375 0.05,-0.025 0.0375,-0.025 0.05,-0.025 0.0375,-0.025 0.05,-0.025 0.05,-0.0125 0.0375,-0.025 0.05,-0.0125 0.0375,-0.0125 0.05,-0.0125 0.05,-0.0125 0.05,-0.0125 0.0375,0 0.05,-0.0125 0.05,0 0.05,0 0.05,-0.0125 0.05,0 c 0.675,0 1.025,0.5 1.025,1.45 l 0,2.7 c 0,0.9375 -0.1375,1.1125 -0.9375,1.2 l 0,0.2 2.9,0 0,-0.2 c -0.7375,-0.1375 -0.825,-0.25 -0.825,-1.2 l 0,-2.7125 c 0,-1.4375 -0.5625,-2.175 -1.675,-2.175 -0.8,0 -1.375,0.3375 -2.0125,1.15 l 0,-4.15 -0.0625,-0.0375 c -0.4625,0.1625 -0.8125,0.2625 -1.575,0.4875 l -0.3625,0.1125 0,0.2125 c 0.05,-0.0125 0.0875,-0.0125 0.1625,-0.0125 0.5875,0 0.7,0.1125 0.7,0.7 l 0,6.425 c 0,0.9625 -0.0875,1.0875 -0.875,1.2 l 0,0.2 2.95,0 0,-0.2 c -0.8,-0.0875 -0.9375,-0.25 -0.9375,-1.2 z"
         inkscape:connector-curvature="0"
         style="font-style:normal;font-variant:normal;font-weight:normal;font-stretch:normal;letter-spacing:normal;word-spacing:normal;text-anchor:start;fill:#000000;fill-opacity:1;fill-rule:evenodd;stroke:#000000;stroke-width:0;stroke-linecap:butt;stroke-linejoin:miter;stroke-miterlimit:10.43299961;stroke-dasharray:none;stroke-dashoffset:0;stroke-opacity:1" /><path
         id="path9281"
         d="m 146.38482,-165.51837 -0.025,0.0125 -0.025,0.025 -0.0125,0.0125 -0.025,0.0125 -0.025,0.0125 -0.0125,0.0125 -0.025,0.025 -0.0125,0.0125 -0.025,0.0125 -0.0125,0 -0.025,0.0125 -0.0125,0.0125 -0.025,0.0125 -0.0125,0.0125 -0.025,0 -0.0125,0.0125 -0.025,0.0125 -0.0125,0 -0.0125,0.0125 -0.025,0 -0.0125,0.0125 -0.025,0 -0.0125,0 -0.025,0.0125 -0.025,0 -0.0375,0 -0.0375,0.0125 -0.0375,0 c -0.3125,0 -0.4125,-0.2 -0.4125,-0.8 l 0,-2.6625 c 0,-0.7125 -0.075,-1.1 -0.275,-1.4375 -0.3,-0.4875 -0.8875,-0.75 -1.6875,-0.75 -1.2875,0 -2.3,0.675 -2.3,1.5375 0,0.3125 0.275,0.5875 0.5875,0.5875 0.325,0 0.6125,-0.275 0.6125,-0.575 0,-0.05 -0.0125,-0.125 -0.025,-0.225 -0.025,-0.125 -0.0375,-0.225 -0.0375,-0.325 0,-0.3625 0.4375,-0.6625 0.975,-0.6625 0.675,0 1.0375,0.3875 1.0375,1.125 l 0,0.8375 0,0.325 0,1.9875 c 0,0.4125 -0.0625,0.5375 -0.35,0.7 -0.325,0.2 -0.7125,0.325 -1,0.325 -0.475,0 -0.8625,-0.475 -0.8625,-1.0625 l 0,-0.05 c 0,-0.8 0.5625,-1.3 2.2125,-1.9 l 0,-0.325 c -2.1,0.85 -2.3375,0.95 -2.925,1.475 -0.2875,0.275 -0.4875,0.7375 -0.4875,1.1875 0,0.8625 0.6,1.4625 1.4375,1.4625 0.6,0 1.1625,-0.2875 1.9875,-1 0.075,0.7125 0.325,1 0.875,1 0.4625,0 0.7625,-0.1625 1.2375,-0.6875 z"
         inkscape:connector-curvature="0"
         style="font-style:normal;font-variant:normal;font-weight:normal;font-stretch:normal;letter-spacing:normal;word-spacing:normal;text-anchor:start;fill:#000000;fill-opacity:1;fill-rule:evenodd;stroke:#000000;stroke-width:0;stroke-linecap:butt;stroke-linejoin:miter;stroke-miterlimit:10.43299961;stroke-dasharray:none;stroke-dashoffset:0;stroke-opacity:1" /><path
         id="path9283"
         d="m 146.68482,-170.05587 0.0125,0 0.025,0 0.0125,-0.0125 0.0125,0 0.0125,0 0.025,-0.0125 0.025,0 0.025,0 0.025,-0.0125 0.025,0 0.025,0 0.025,-0.0125 0.025,0 0.025,0 0.025,0 0.0375,0 0.025,0 0.025,0 0.025,0 c 0.35,0 0.475,0.2125 0.475,0.875 l 0,3.45 c 0,0.7375 -0.1875,0.9375 -0.95,0.9625 l 0,0.2 3.025,0 0,-0.2 c -0.725,-0.0375 -0.925,-0.1875 -0.925,-0.7125 l 0,-3.85 c 0,-0.025 0.1125,-0.175 0.2,-0.2625 0.35,-0.3125 0.9375,-0.55 1.4125,-0.55 0.6,0 0.9,0.475 0.9,1.4375 l 0,2.9625 c 0,0.7625 -0.15,0.9125 -0.925,0.975 l 0,0.2 3.0625,0 0,-0.2 c -0.7875,-0.025 -0.9875,-0.25 -0.9875,-1.1 l 0,-3.4375 c 0.4125,-0.5875 0.8625,-0.8375 1.4875,-0.8375 0.775,0 1.025,0.375 1.025,1.5 l 0,2.8875 c 0,0.775 -0.1125,0.8875 -0.9,0.9875 l 0,0.2 2.9875,0 0,-0.2 -0.35,-0.0375 c -0.4125,-0.025 -0.5875,-0.2625 -0.5875,-0.8 l 0,-2.8125 c 0,-1.6125 -0.5375,-2.4375 -1.5875,-2.4375 -0.7875,0 -1.4875,0.3625 -2.225,1.15 -0.25,-0.775 -0.7125,-1.15 -1.45,-1.15 -0.6,0 -0.9875,0.2 -2.1125,1.05 l 0,-1.025 -0.1,-0.025 c -0.7,0.2625 -1.1625,0.4125 -1.9125,0.625 z"
         inkscape:connector-curvature="0"
         style="font-style:normal;font-variant:normal;font-weight:normal;font-stretch:normal;letter-spacing:normal;word-spacing:normal;text-anchor:start;fill:#000000;fill-opacity:1;fill-rule:evenodd;stroke:#000000;stroke-width:0;stroke-linecap:butt;stroke-linejoin:miter;stroke-miterlimit:10.43299961;stroke-dasharray:none;stroke-dashoffset:0;stroke-opacity:1" /><path
         id="path9285"
         d="m 159.17232,-173.91837 -0.0625,-0.025 c -0.575,0.2 -0.95,0.3125 -1.5875,0.4875 l -0.4,0.1125 0,0.2125 c 0.0875,-0.0125 0.1375,-0.0125 0.2375,-0.0125 0.5375,0 0.6625,0.125 0.6625,0.7 l 0,7.0875 c 0,0.425 1.1625,0.875 2.2625,0.875 l 0.2125,-0.4375 c -0.7125,0 -1.325,-0.3125 -1.325,-0.6625 l 0,-3.4375 c 0,-0.5375 0.6375,-1.025 1.35,-1.025 1.0625,0 1.75,1.0625 1.75,2.7375 0,1.5125 -0.65,2.3875 -1.775,2.3875 l -0.2125,0.4375 c 1.8,0 3.1875,-1.5 3.1875,-3.45 0,-1.6875 -1.0375,-2.975 -2.4,-2.975 -0.8375,0 -1.625,0.5 -1.9,1.1625 z"
         inkscape:connector-curvature="0"
         style="font-style:normal;font-variant:normal;font-weight:normal;font-stretch:normal;letter-spacing:normal;word-spacing:normal;text-anchor:start;fill:#000000;fill-opacity:1;fill-rule:evenodd;stroke:#000000;stroke-width:0;stroke-linecap:butt;stroke-linejoin:miter;stroke-miterlimit:10.43299961;stroke-dasharray:none;stroke-dashoffset:0;stroke-opacity:1" /><path
         id="path9287"
         d="m 169.50982,-166.85587 -0.0625,0.0875 -0.0625,0.1 -0.0625,0.0875 -0.0625,0.0875 -0.0625,0.075 -0.05,0.075 -0.0625,0.075 -0.0625,0.075 -0.0625,0.0625 -0.0625,0.0625 -0.0625,0.0625 -0.0625,0.0625 -0.05,0.05 -0.0625,0.05 -0.0625,0.05 -0.0625,0.0375 -0.075,0.05 -0.0625,0.0375 -0.0625,0.025 -0.0625,0.0375 -0.075,0.025 -0.0625,0.0375 -0.075,0.025 -0.0625,0.0125 -0.075,0.025 -0.075,0.0125 -0.075,0.0125 -0.075,0.0125 -0.075,0.0125 -0.075,0 -0.075,0 -0.0875,0.0125 c -0.775,0 -1.3625,-0.4 -1.7625,-1.175 -0.2375,-0.525 -0.3375,-0.975 -0.3625,-1.8125 l 0.025,-0.4375 c 0.15,-1.0625 0.6125,-1.5625 1.45,-1.5625 0.825,0 1.1625,0.375 1.3375,1.5625 l -2.7875,0 -0.025,0.4375 4.2,0 c -0.1,-0.8875 -0.2375,-1.275 -0.5875,-1.7125 -0.4,-0.5 -1.0375,-0.7875 -1.7375,-0.7875 -0.6875,0 -1.325,0.25 -1.85,0.7125 -0.6375,0.5625 -1.0125,1.5375 -1.0125,2.65 0,1.8875 0.9875,3.0625 2.55,3.0625 1.3,0 2.325,-0.8 2.9,-2.2875 z"
         inkscape:connector-curvature="0"
         style="font-style:normal;font-variant:normal;font-weight:normal;font-stretch:normal;letter-spacing:normal;word-spacing:normal;text-anchor:start;fill:#000000;fill-opacity:1;fill-rule:evenodd;stroke:#000000;stroke-width:0;stroke-linecap:butt;stroke-linejoin:miter;stroke-miterlimit:10.43299961;stroke-dasharray:none;stroke-dashoffset:0;stroke-opacity:1" /><path
         id="path9289"
         d="m 170.10982,-169.94337 0.025,0 0.0125,-0.0125 0.0125,0 0.025,0 0.025,-0.0125 0.0375,0 0.025,-0.0125 0.025,0 0.0375,0 0.025,-0.0125 0.025,0 0.025,0 0.0375,0 0.025,0 0.025,0 0.0375,0 0.025,0 0.025,-0.0125 c 0.35,0 0.475,0.225 0.475,0.825 l 0,3.4125 c 0,0.6875 -0.1,0.7875 -0.975,0.95 l 0,0.2 3.275,0 0,-0.2 c -0.925,-0.05 -1.1625,-0.25 -1.1625,-1.025 l 0,-3.075 c 0,-0.4375 0.5875,-1.125 0.9625,-1.125 0.075,0 0.2,0.075 0.35,0.2125 0.225,0.1875 0.375,0.2625 0.55,0.2625 0.325,0 0.525,-0.225 0.525,-0.6125 0,-0.45 -0.275,-0.725 -0.75,-0.725 -0.575,0 -0.9625,0.325 -1.6375,1.2875 l 0,-1.2625 -0.0625,-0.025 c -0.725,0.3 -1.225,0.4875 -2.025,0.7375 z"
         inkscape:connector-curvature="0"
         style="font-style:normal;font-variant:normal;font-weight:normal;font-stretch:normal;letter-spacing:normal;word-spacing:normal;text-anchor:start;fill:#000000;fill-opacity:1;fill-rule:evenodd;stroke:#000000;stroke-width:0;stroke-linecap:butt;stroke-linejoin:miter;stroke-miterlimit:10.43299961;stroke-dasharray:none;stroke-dashoffset:0;stroke-opacity:1" /><path
         id="path9291"
         d="m 185.79732,-170.76837 0,0.2125 c 0.4625,0.0875 0.6,0.1875 0.6,0.425 0,0.2 -0.075,0.525 -0.225,0.9 l -1.2375,3.025 -1.1375,-3.05 c -0.2375,-0.6375 -0.2375,-0.6375 -0.2375,-0.8125 0,-0.3 0.15,-0.4 0.7875,-0.4875 l 0,-0.2125 -2.7625,0 0,0.2125 c 0.5,0.05 0.6625,0.2 0.9375,0.9375 0.1,0.2625 0.1875,0.525 0.275,0.7625 l -1.25,2.725 -1.35,-3.575 c -0.05,-0.125 -0.075,-0.2625 -0.075,-0.4 0,-0.2875 0.1625,-0.4 0.625,-0.45 l 0,-0.2125 -2.4625,0 0,0.2125 c 0.3125,0.025 0.425,0.1625 0.725,0.85 l 1.85,4.675 c 0.1625,0.4125 0.2625,0.6 0.35,0.6 0.075,0 0.175,-0.175 0.3375,-0.525 l 1.5375,-3.2875 1.2375,3.225 c 0.1875,0.5125 0.25,0.5875 0.3375,0.5875 0.0875,0 0.1625,-0.125 0.375,-0.6625 l 1.8875,-4.725 c 0.2375,-0.575 0.2875,-0.65 0.5625,-0.7375 l 0,-0.2125 z"
         inkscape:connector-curvature="0"
         style="font-style:normal;font-variant:normal;font-weight:normal;font-stretch:normal;letter-spacing:normal;word-spacing:normal;text-anchor:start;fill:#000000;fill-opacity:1;fill-rule:evenodd;stroke:#000000;stroke-width:0;stroke-linecap:butt;stroke-linejoin:miter;stroke-miterlimit:10.43299961;stroke-dasharray:none;stroke-dashoffset:0;stroke-opacity:1" /><path
         id="path9293"
         d="m 190.28482,-170.90587 -2.125,0.75 0,0.2125 0.1125,-0.0125 c 0.1625,-0.025 0.3375,-0.05 0.4625,-0.05 0.3375,0 0.45,0.225 0.45,0.825 l 0,3.1625 c 0,0.9875 -0.1375,1.1375 -1.075,1.2 l 0,0.2 3.2375,0 0,-0.2 c -0.9,-0.075 -1.0125,-0.2125 -1.0125,-1.2 l 0,-4.8375 z"
         inkscape:connector-curvature="0"
         style="font-style:normal;font-variant:normal;font-weight:normal;font-stretch:normal;letter-spacing:normal;word-spacing:normal;text-anchor:start;fill:#000000;fill-opacity:1;fill-rule:evenodd;stroke:#000000;stroke-width:0;stroke-linecap:butt;stroke-linejoin:miter;stroke-miterlimit:10.43299961;stroke-dasharray:none;stroke-dashoffset:0;stroke-opacity:1" /><path
         id="path9295"
         d="m 189.63482,-173.94337 -0.025,0 -0.0375,0 -0.0375,0 -0.025,0.0125 -0.0375,0 -0.0375,0.0125 -0.025,0.0125 -0.0375,0.0125 -0.025,0.0125 -0.025,0.0125 -0.0375,0.025 -0.025,0.0125 -0.025,0.025 -0.025,0.0125 -0.025,0.025 -0.025,0.025 -0.025,0.025 -0.025,0.025 -0.0125,0.025 -0.025,0.025 -0.0125,0.0375 -0.0125,0.025 -0.025,0.025 -0.0125,0.0375 -0.0125,0.025 -0.0125,0.0375 0,0.0375 -0.0125,0.025 -0.0125,0.0375 0,0.0375 0,0.0375 0,0.025 c 0,0.3875 0.3,0.7 0.675,0.7 0.4,0 0.7125,-0.3 0.7125,-0.7 0,-0.375 -0.3125,-0.6875 -0.7125,-0.6875 z"
         inkscape:connector-curvature="0"
         style="font-style:normal;font-variant:normal;font-weight:normal;font-stretch:normal;letter-spacing:normal;word-spacing:normal;text-anchor:start;fill:#000000;fill-opacity:1;fill-rule:evenodd;stroke:#000000;stroke-width:0;stroke-linecap:butt;stroke-linejoin:miter;stroke-miterlimit:10.43299961;stroke-dasharray:none;stroke-dashoffset:0;stroke-opacity:1" /><path
         id="path9297"
         d="m 191.92232,-170.05587 0,0 0.0125,0 0.0125,-0.0125 0,0 0.0125,0 0.0125,-0.0125 0.0125,0 0,0 0.0125,0 0.0125,0 0.0125,-0.0125 0.0125,0 0.025,0 0.0125,0 0.025,-0.0125 0.025,0 0.025,0 0.025,0 0.0375,0 0.025,0 0.025,0 0.025,0 c 0.3875,0 0.5125,0.2 0.5125,0.875 l 0,3.3875 c 0,0.775 -0.15,0.9625 -0.85,1.025 l 0,0.2 2.9,0 0,-0.2 c -0.7,-0.0625 -0.9125,-0.225 -0.9125,-0.7125 l 0,-3.8375 c 0.6625,-0.6125 0.9625,-0.7875 1.4125,-0.7875 0.675,0 1,0.425 1,1.325 l 0,2.8625 c 0,0.8625 -0.1875,1.0875 -0.8625,1.15 l 0,0.2 2.8375,0 0,-0.2 c -0.6625,-0.075 -0.8375,-0.2375 -0.8375,-0.9125 l 0,-3.125 c 0,-1.275 -0.6,-2.05 -1.6,-2.05 -0.6375,0 -1.0625,0.2375 -1.9875,1.1125 l 0,-1.0875 -0.0875,-0.025 c -0.675,0.25 -1.1375,0.4 -1.8875,0.625 z"
         inkscape:connector-curvature="0"
         style="font-style:normal;font-variant:normal;font-weight:normal;font-stretch:normal;letter-spacing:normal;word-spacing:normal;text-anchor:start;fill:#000000;fill-opacity:1;fill-rule:evenodd;stroke:#000000;stroke-width:0;stroke-linecap:butt;stroke-linejoin:miter;stroke-miterlimit:10.43299961;stroke-dasharray:none;stroke-dashoffset:0;stroke-opacity:1" /><path
         id="path9299"
         d="m 203.24732,-164.48087 2.0125,-0.7125 0,-0.2125 c -0.25,0.0125 -0.275,0.0125 -0.325,0.0125 -0.4875,0 -0.5875,-0.15 -0.5875,-0.7875 l 0,-7.7375 -0.075,-0.025 c -0.6625,0.225 -1.1375,0.3625 -2.0125,0.6 l 0,0.2125 c 0.1125,-0.0125 0.2,-0.0125 0.3,-0.0125 0.5125,0 0.6375,0.1375 0.6375,0.7 l 0,2.125 c -0.525,-0.4375 -0.8875,-0.5875 -1.4375,-0.5875 -1.575,0 -2.8375,1.55 -2.8375,3.4875 0,1.75 1.025,2.9375 2.525,2.9375 0.7625,0 1.275,-0.275 1.75,-0.9125 l -0.2375,-0.2125 c -0.25,0.275 -0.5875,0.4125 -0.9875,0.4125 -1.125,0 -1.875,-1.0875 -1.875,-2.775 0,-1.5375 0.6625,-2.55 1.7,-2.55 0.725,0 1.4,0.6375 1.4,1.3625 l 0,3.1375 c 0,0.1 -0.1,0.2625 -0.2375,0.4125 l 0.2375,0.2125 0,0.875 z"
         inkscape:connector-curvature="0"
         style="font-style:normal;font-variant:normal;font-weight:normal;font-stretch:normal;letter-spacing:normal;word-spacing:normal;text-anchor:start;fill:#000000;fill-opacity:1;fill-rule:evenodd;stroke:#000000;stroke-width:0;stroke-linecap:butt;stroke-linejoin:miter;stroke-miterlimit:10.43299961;stroke-dasharray:none;stroke-dashoffset:0;stroke-opacity:1" /><path
         id="path9301"
         d="m 208.80982,-170.90587 -0.1625,0.0125 -0.1625,0.0125 -0.15,0.0125 -0.1625,0.025 -0.15,0.0375 -0.15,0.0375 -0.1375,0.05 -0.1375,0.05 -0.1375,0.0625 -0.1375,0.0625 -0.125,0.075 -0.125,0.075 -0.1125,0.0875 -0.1125,0.1 -0.1125,0.0875 -0.1,0.1125 -0.1,0.1 -0.0875,0.1125 -0.0875,0.125 -0.075,0.125 -0.075,0.125 -0.075,0.1375 -0.0625,0.1375 -0.05,0.1375 -0.0625,0.15 -0.0375,0.15 -0.0375,0.1625 -0.0375,0.1625 -0.025,0.1625 -0.0125,0.1625 -0.0125,0.175 0,0.175 c 0,1.85 1.2625,3.225 2.9875,3.225 l 0.1625,-0.3875 c -0.525,0 -1.0375,-0.325 -1.325,-0.875 -0.375,-0.7 -0.6,-1.6625 -0.6,-2.6375 0,-1.2875 0.65,-2.1375 1.6125,-2.1375 l 0,0 c 1.15,0 1.95,1.3125 1.95,3.175 0,1.55 -0.6125,2.475 -1.6375,2.475 l -0.1625,0.3875 c 1.725,0 3.0375,-1.45 3.0375,-3.3375 0,-1.7875 -1.2625,-3.0875 -3.0125,-3.0875 z"
         inkscape:connector-curvature="0"
         style="font-style:normal;font-variant:normal;font-weight:normal;font-stretch:normal;letter-spacing:normal;word-spacing:normal;text-anchor:start;fill:#000000;fill-opacity:1;fill-rule:evenodd;stroke:#000000;stroke-width:0;stroke-linecap:butt;stroke-linejoin:miter;stroke-miterlimit:10.43299961;stroke-dasharray:none;stroke-dashoffset:0;stroke-opacity:1" /><path
         id="path9303"
         d="m 219.70982,-170.76837 0,0.2125 c 0.4625,0.0875 0.6,0.1875 0.6,0.425 0,0.2 -0.0875,0.525 -0.2375,0.9 l -1.225,3.025 -1.15,-3.05 c -0.2375,-0.6375 -0.2375,-0.6375 -0.2375,-0.8125 0,-0.3 0.15,-0.4 0.8,-0.4875 l 0,-0.2125 -2.775,0 0,0.2125 c 0.5,0.05 0.6625,0.2 0.9375,0.9375 0.1,0.2625 0.2,0.525 0.275,0.7625 l -1.2375,2.725 -1.35,-3.575 c -0.0625,-0.125 -0.0875,-0.2625 -0.0875,-0.4 0,-0.2875 0.1625,-0.4 0.625,-0.45 l 0,-0.2125 -2.45,0 0,0.2125 c 0.3125,0.025 0.425,0.1625 0.7125,0.85 l 1.85,4.675 c 0.1625,0.4125 0.275,0.6 0.35,0.6 0.075,0 0.1875,-0.175 0.35,-0.525 l 1.525,-3.2875 1.25,3.225 c 0.1875,0.5125 0.2375,0.5875 0.325,0.5875 0.0875,0 0.1625,-0.125 0.375,-0.6625 l 1.8875,-4.725 c 0.25,-0.575 0.2875,-0.65 0.5625,-0.7375 l 0,-0.2125 z"
         inkscape:connector-curvature="0"
         style="font-style:normal;font-variant:normal;font-weight:normal;font-stretch:normal;letter-spacing:normal;word-spacing:normal;text-anchor:start;fill:#000000;fill-opacity:1;fill-rule:evenodd;stroke:#000000;stroke-width:0;stroke-linecap:butt;stroke-linejoin:miter;stroke-miterlimit:10.43299961;stroke-dasharray:none;stroke-dashoffset:0;stroke-opacity:1" /><path
         id="path9305"
         d="m 226.09732,-168.90587 -0.05,-1.8625 -0.15,0 -0.025,0.0375 c -0.125,0.0875 -0.1375,0.1 -0.2,0.1 -0.075,0 -0.2125,-0.025 -0.3625,-0.0875 -0.3,-0.1125 -0.6,-0.175 -0.9625,-0.175 -1.075,0 -1.85,0.7 -1.85,1.6875 0,0.7625 0.4375,1.3125 1.5875,1.9625 l 0.8,0.45 c 0.475,0.275 0.7125,0.6 0.7125,1.025 0,0.6 -0.4375,0.9875 -1.1375,0.9875 -0.4625,0 -0.8875,-0.175 -1.15,-0.475 -0.2875,-0.35 -0.4125,-0.6625 -0.5875,-1.4375 l -0.2125,0 0,2.125 0.175,0 c 0.1,-0.1375 0.15,-0.1625 0.3125,-0.1625 0.125,0 0.3125,0.025 0.625,0.1125 0.3875,0.075 0.75,0.1375 1,0.1375 1.05,0 1.925,-0.7875 1.925,-1.75 0,-0.6875 -0.325,-1.1375 -1.15,-1.625 l -1.475,-0.875 c -0.375,-0.2125 -0.5875,-0.5625 -0.5875,-0.925 0,-0.55 0.425,-0.925 1.0625,-0.925 0.775,0 1.175,0.4625 1.5,1.675 z"
         inkscape:connector-curvature="0"
         style="font-style:normal;font-variant:normal;font-weight:normal;font-stretch:normal;letter-spacing:normal;word-spacing:normal;text-anchor:start;fill:#000000;fill-opacity:1;fill-rule:evenodd;stroke:#000000;stroke-width:0;stroke-linecap:butt;stroke-linejoin:miter;stroke-miterlimit:10.43299961;stroke-dasharray:none;stroke-dashoffset:0;stroke-opacity:1" /></g><g
       id="g9683"
       transform="translate(211.24424,164.61989)"><path
         id="path9307"
         d="m 127.67232,-148.21837 0.0875,0 c 0.1375,-0.0125 0.3125,-0.025 0.4125,-0.025 0.4375,0 0.575,0.1875 0.575,0.825 l 0,6.5125 c 0,0.7375 -0.1875,0.925 -1.05,0.9875 l 0,0.2 3.225,0 0,-0.2 c -0.8625,-0.05 -1.025,-0.1875 -1.025,-0.9375 l 0,-8.1625 -0.05,-0.025 c -0.7125,0.2375 -1.2375,0.375 -2.175,0.6 z"
         inkscape:connector-curvature="0"
         style="font-style:normal;font-variant:normal;font-weight:normal;font-stretch:normal;letter-spacing:normal;word-spacing:normal;text-anchor:start;fill:#000000;fill-opacity:1;fill-rule:evenodd;stroke:#000000;stroke-width:0;stroke-linecap:butt;stroke-linejoin:miter;stroke-miterlimit:10.43299961;stroke-dasharray:none;stroke-dashoffset:0;stroke-opacity:1" /><path
         id="path9309"
         d="m 136.79732,-141.95587 -0.0625,0.1 -0.0625,0.0875 -0.0625,0.0875 -0.0625,0.0875 -0.0625,0.0875 -0.05,0.075 -0.0625,0.075 -0.0625,0.0625 -0.0625,0.075 -0.0625,0.0625 -0.0625,0.0625 -0.0625,0.05 -0.05,0.05 -0.0625,0.05 -0.0625,0.05 -0.0625,0.05 -0.075,0.0375 -0.0625,0.0375 -0.0625,0.0375 -0.0625,0.0375 -0.075,0.025 -0.0625,0.025 -0.0625,0.025 -0.075,0.025 -0.075,0.0125 -0.075,0.025 -0.0625,0.0125 -0.075,0 -0.0875,0.0125 -0.075,0.0125 -0.075,0 -0.0875,0 c -0.775,0 -1.3625,-0.4 -1.7625,-1.175 -0.2375,-0.525 -0.3375,-0.975 -0.3625,-1.8 l 0.025,-0.4375 c 0.15,-1.0625 0.6125,-1.575 1.45,-1.575 0.825,0 1.1625,0.3875 1.3375,1.575 l -2.7875,0 -0.025,0.4375 4.2,0 c -0.1,-0.8875 -0.2375,-1.2875 -0.5875,-1.725 -0.4,-0.4875 -1.0375,-0.775 -1.7375,-0.775 -0.6875,0 -1.325,0.25 -1.85,0.7125 -0.6375,0.5625 -1.0125,1.525 -1.0125,2.65 0,1.875 0.9875,3.05 2.55,3.05 1.3,0 2.325,-0.8 2.9,-2.275 z"
         inkscape:connector-curvature="0"
         style="font-style:normal;font-variant:normal;font-weight:normal;font-stretch:normal;letter-spacing:normal;word-spacing:normal;text-anchor:start;fill:#000000;fill-opacity:1;fill-rule:evenodd;stroke:#000000;stroke-width:0;stroke-linecap:butt;stroke-linejoin:miter;stroke-miterlimit:10.43299961;stroke-dasharray:none;stroke-dashoffset:0;stroke-opacity:1" /><path
         id="path9311"
         d="m 137.52232,-145.14337 0.0125,-0.0125 0,0 0.0125,0 0.0125,-0.0125 0,0 0.0125,0 0.0125,0 0.0125,0 0,-0.0125 0.0125,0 0.025,0 0.025,-0.0125 0.025,0 0.025,0 0.025,0 0.025,0 0.025,-0.0125 0.025,0 0.025,0 0.025,0 0.025,0 c 0.3875,0 0.5125,0.2125 0.5125,0.875 l 0,3.3875 c 0,0.775 -0.15,0.975 -0.85,1.025 l 0,0.2 2.9,0 0,-0.2 c -0.7,-0.05 -0.9,-0.2125 -0.9,-0.7125 l 0,-3.8375 c 0.65,-0.6125 0.95,-0.775 1.4,-0.775 0.675,0 1,0.425 1,1.325 l 0,2.85 c 0,0.8625 -0.175,1.1 -0.8625,1.15 l 0,0.2 2.8375,0 0,-0.2 c -0.6625,-0.0625 -0.825,-0.225 -0.825,-0.9 l 0,-3.125 c 0,-1.2875 -0.6,-2.05 -1.6125,-2.05 -0.6375,0 -1.05,0.225 -1.9875,1.1 l 0,-1.075 -0.0875,-0.025 c -0.675,0.25 -1.1375,0.4 -1.8875,0.6125 z"
         inkscape:connector-curvature="0"
         style="font-style:normal;font-variant:normal;font-weight:normal;font-stretch:normal;letter-spacing:normal;word-spacing:normal;text-anchor:start;fill:#000000;fill-opacity:1;fill-rule:evenodd;stroke:#000000;stroke-width:0;stroke-linecap:butt;stroke-linejoin:miter;stroke-miterlimit:10.43299961;stroke-dasharray:none;stroke-dashoffset:0;stroke-opacity:1" /><path
         id="path9313"
         d="m 148.45982,-144.00587 -0.0625,-1.85 -0.15,0 -0.025,0.025 c -0.125,0.1 -0.1375,0.1125 -0.1875,0.1125 -0.0875,0 -0.225,-0.025 -0.375,-0.1 -0.3,-0.1125 -0.6,-0.1625 -0.95,-0.1625 -1.0875,0 -1.8625,0.7 -1.8625,1.675 0,0.7625 0.4375,1.3125 1.6,1.975 l 0.7875,0.45 c 0.4875,0.275 0.7125,0.6 0.7125,1.025 0,0.6 -0.4375,0.975 -1.125,0.975 -0.475,0 -0.9,-0.175 -1.15,-0.475 -0.2875,-0.3375 -0.4125,-0.65 -0.5875,-1.4375 l -0.225,0 0,2.1375 0.175,0 c 0.1,-0.1375 0.15,-0.1625 0.325,-0.1625 0.1125,0 0.3125,0.025 0.625,0.1 0.375,0.0875 0.75,0.1375 1,0.1375 1.05,0 1.925,-0.7875 1.925,-1.7375 0,-0.6875 -0.3375,-1.1375 -1.15,-1.625 l -1.475,-0.875 c -0.3875,-0.225 -0.5875,-0.5625 -0.5875,-0.9375 0,-0.5375 0.425,-0.925 1.05,-0.925 0.775,0 1.1875,0.4625 1.5,1.675 z"
         inkscape:connector-curvature="0"
         style="font-style:normal;font-variant:normal;font-weight:normal;font-stretch:normal;letter-spacing:normal;word-spacing:normal;text-anchor:start;fill:#000000;fill-opacity:1;fill-rule:evenodd;stroke:#000000;stroke-width:0;stroke-linecap:butt;stroke-linejoin:miter;stroke-miterlimit:10.43299961;stroke-dasharray:none;stroke-dashoffset:0;stroke-opacity:1" /></g><g
       id="g9689"
       transform="translate(302.49175,139.63864)"><path
         id="path9315"
         d="m 135.88482,-120.95587 -0.125,-3.0875 -0.2875,0 c -0.0875,0.2875 -0.3,0.45 -0.575,0.45 -0.125,0 -0.325,-0.0375 -0.5375,-0.1125 -0.6625,-0.225 -1.35,-0.3375 -1.9875,-0.3375 -1.125,0 -2.25,0.425 -3.1,1.175 -0.9625,0.85 -1.475,2.125 -1.475,3.625 0,1.275 0.4125,2.45 1.1,3.225 0.825,0.8875 2.075,1.4 3.4375,1.4 1.5375,0 2.8875,-0.625 3.725,-1.725 l -0.25,-0.25 c -1.0125,0.9625 -1.9125,1.375 -3.05,1.375 -0.85,0 -1.625,-0.275 -2.2,-0.7875 -0.7625,-0.675 -1.175,-1.9 -1.175,-3.4125 0,-2.475 1.2625,-4.075 3.25,-4.075 0.775,0 1.4875,0.2875 2.025,0.8375 0.4375,0.4375 0.65,0.8125 0.9125,1.7 z"
         inkscape:connector-curvature="0"
         style="font-style:normal;font-variant:normal;font-weight:normal;font-stretch:normal;letter-spacing:normal;word-spacing:normal;text-anchor:start;fill:#000000;fill-opacity:1;fill-rule:evenodd;stroke:#000000;stroke-width:0;stroke-linecap:butt;stroke-linejoin:miter;stroke-miterlimit:10.43299961;stroke-dasharray:none;stroke-dashoffset:0;stroke-opacity:1" /><path
         id="path9317"
         d="m 145.02232,-120.95587 -0.125,-3.0875 -0.2875,0 c -0.0875,0.2875 -0.3,0.45 -0.575,0.45 -0.125,0 -0.325,-0.0375 -0.5375,-0.1125 -0.6625,-0.225 -1.35,-0.3375 -1.9875,-0.3375 -1.125,0 -2.2625,0.425 -3.1,1.175 -0.9625,0.85 -1.475,2.125 -1.475,3.625 0,1.275 0.4125,2.45 1.1,3.225 0.825,0.8875 2.075,1.4 3.4375,1.4 1.5375,0 2.8875,-0.625 3.725,-1.725 l -0.25,-0.25 c -1.0125,0.9625 -1.9125,1.375 -3.05,1.375 -0.85,0 -1.6125,-0.275 -2.2,-0.7875 -0.7625,-0.675 -1.175,-1.9 -1.175,-3.4125 0,-2.475 1.2625,-4.075 3.25,-4.075 0.775,0 1.4875,0.2875 2.025,0.8375 0.4375,0.4375 0.65,0.8125 0.9,1.7 z"
         inkscape:connector-curvature="0"
         style="font-style:normal;font-variant:normal;font-weight:normal;font-stretch:normal;letter-spacing:normal;word-spacing:normal;text-anchor:start;fill:#000000;fill-opacity:1;fill-rule:evenodd;stroke:#000000;stroke-width:0;stroke-linecap:butt;stroke-linejoin:miter;stroke-miterlimit:10.43299961;stroke-dasharray:none;stroke-dashoffset:0;stroke-opacity:1" /><path
         id="path9319"
         d="m 147.10982,-116.29337 0,0.0875 0,0.0875 -0.0125,0.075 0,0.0875 0,0.0625 -0.0125,0.075 -0.0125,0.0625 -0.0125,0.0625 -0.0125,0.05 -0.0125,0.0625 -0.0125,0.05 -0.025,0.0375 -0.025,0.05 -0.0125,0.0375 -0.0375,0.0375 -0.025,0.0375 -0.0375,0.025 -0.0375,0.025 -0.0375,0.0375 -0.0375,0.025 -0.05,0.0125 -0.05,0.025 -0.0625,0.0125 -0.05,0.025 -0.0625,0.0125 -0.075,0.0125 -0.0625,0.0125 -0.075,0.0125 -0.0875,0.0125 -0.0875,0 -0.0875,0.0125 -0.05,0 -0.0375,0 0,0.2625 3.875,0 c 1.5875,0 3.0125,-0.45 3.8625,-1.2125 0.8875,-0.8125 1.4,-2.025 1.4,-3.35 0,-1.225 -0.4125,-2.2875 -1.1625,-3.0375 -0.9375,-0.95 -2.425,-1.4375 -4.2875,-1.4375 l -0.3875,0.5 c 1.175,0 2.0625,0.225 2.7125,0.6875 1.075,0.7375 1.6375,1.9125 1.6375,3.3875 0,1.6125 -0.5625,2.75 -1.675,3.4 -0.6875,0.4 -1.4875,0.5625 -2.675,0.5625 -0.55,0 -0.7125,-0.125 -0.7125,-0.5625 l 0,-6.9375 c 0,-0.425 0.15,-0.5375 0.7125,-0.5375 l 0.3875,-0.5 -3.6875,0 0,0.25 c 1.075,0.1 1.2,0.225 1.2,1.2375 z"
         inkscape:connector-curvature="0"
         style="font-style:normal;font-variant:normal;font-weight:normal;font-stretch:normal;letter-spacing:normal;word-spacing:normal;text-anchor:start;fill:#000000;fill-opacity:1;fill-rule:evenodd;stroke:#000000;stroke-width:0;stroke-linecap:butt;stroke-linejoin:miter;stroke-miterlimit:10.43299961;stroke-dasharray:none;stroke-dashoffset:0;stroke-opacity:1" /><path
         id="path9321"
         d="m 164.43482,-116.93087 -0.0625,0.0875 -0.05,0.075 -0.0625,0.0875 -0.0625,0.075 -0.0625,0.075 -0.05,0.0625 -0.0625,0.075 -0.05,0.0625 -0.0625,0.0625 -0.05,0.05 -0.0625,0.0625 -0.05,0.05 -0.0625,0.05 -0.05,0.0375 -0.0625,0.05 -0.05,0.0375 -0.0625,0.0375 -0.05,0.025 -0.0625,0.0375 -0.0625,0.025 -0.05,0.025 -0.0625,0.025 -0.0625,0.025 -0.0625,0.0125 -0.0625,0.0125 -0.0625,0.0125 -0.0625,0.0125 -0.075,0.0125 -0.0625,0.0125 -0.0625,0 -0.075,0 -0.075,0 c -1.2375,0 -2.1125,-1.0875 -2.1125,-2.6625 0,-1.4 0.75,-2.375 1.85,-2.375 0.5,0 0.675,0.15 0.8125,0.6625 l 0.075,0.3 c 0.1125,0.375 0.3625,0.625 0.65,0.625 0.35,0 0.65,-0.2625 0.65,-0.575 0,-0.7625 -0.95,-1.4125 -2.1,-1.4125 -0.675,0 -1.3625,0.275 -1.925,0.775 -0.6875,0.6 -1.0625,1.525 -1.0625,2.6 0,1.775 1.075,3.05 2.5875,3.05 0.6125,0 1.1625,-0.2125 1.6625,-0.6375 0.3625,-0.3375 0.625,-0.7 1.0375,-1.5125 z"
         inkscape:connector-curvature="0"
         style="font-style:normal;font-variant:normal;font-weight:normal;font-stretch:normal;letter-spacing:normal;word-spacing:normal;text-anchor:start;fill:#000000;fill-opacity:1;fill-rule:evenodd;stroke:#000000;stroke-width:0;stroke-linecap:butt;stroke-linejoin:miter;stroke-miterlimit:10.43299961;stroke-dasharray:none;stroke-dashoffset:0;stroke-opacity:1" /><path
         id="path9323"
         d="m 171.12232,-115.70587 -0.025,0.0125 -0.025,0.025 -0.0125,0.0125 -0.025,0.0125 -0.0125,0.0125 -0.025,0.025 -0.025,0.0125 -0.0125,0.0125 -0.025,0.0125 -0.0125,0.0125 -0.025,0 -0.0125,0.0125 -0.025,0.0125 -0.0125,0.0125 -0.025,0 -0.0125,0.0125 -0.0125,0.0125 -0.025,0 -0.0125,0.0125 -0.025,0 -0.0125,0.0125 -0.025,0 -0.0125,0 -0.0125,0.0125 -0.0375,0 -0.0375,0 -0.0375,0.0125 -0.0375,0 c -0.3125,0 -0.4125,-0.2 -0.4125,-0.8 l 0,-2.6625 c 0,-0.7125 -0.0625,-1.1 -0.275,-1.4375 -0.3,-0.4875 -0.8875,-0.75 -1.6875,-0.75 -1.2875,0 -2.3,0.675 -2.3,1.5375 0,0.3125 0.275,0.5875 0.5875,0.5875 0.325,0 0.6125,-0.275 0.6125,-0.575 0,-0.05 -0.0125,-0.125 -0.025,-0.225 -0.025,-0.1125 -0.0375,-0.225 -0.0375,-0.325 0,-0.3625 0.4375,-0.6625 0.9875,-0.6625 0.6625,0 1.025,0.3875 1.025,1.125 l 0,0.8375 0,0.325 0,1.9875 c 0,0.425 -0.0625,0.5375 -0.35,0.7125 -0.325,0.1875 -0.7125,0.3125 -1,0.3125 -0.475,0 -0.8625,-0.4625 -0.8625,-1.0625 l 0,-0.05 c 0,-0.8 0.5625,-1.3 2.2125,-1.9 l 0,-0.325 c -2.1,0.85 -2.325,0.95 -2.9125,1.475 -0.3,0.275 -0.5,0.7375 -0.5,1.1875 0,0.8625 0.6,1.4625 1.4375,1.4625 0.6,0 1.1625,-0.2875 2,-1 0.0625,0.7125 0.3125,1 0.875,1 0.4625,0 0.75,-0.1625 1.225,-0.6875 z"
         inkscape:connector-curvature="0"
         style="font-style:normal;font-variant:normal;font-weight:normal;font-stretch:normal;letter-spacing:normal;word-spacing:normal;text-anchor:start;fill:#000000;fill-opacity:1;fill-rule:evenodd;stroke:#000000;stroke-width:0;stroke-linecap:butt;stroke-linejoin:miter;stroke-miterlimit:10.43299961;stroke-dasharray:none;stroke-dashoffset:0;stroke-opacity:1" /><path
         id="path9325"
         d="m 171.42232,-120.24337 0.025,0 0.0125,0 0.0125,-0.0125 0.0125,0 0.0125,0 0.025,0 0.025,-0.0125 0.025,0 0.025,-0.0125 0.025,0 0.0375,0 0.025,0 0.025,-0.0125 0.025,0 0.025,0 0.025,0 0.025,0 0.025,0 0.025,0 c 0.3625,0 0.475,0.2125 0.475,0.875 l 0,3.45 c 0,0.7375 -0.1875,0.95 -0.95,0.9625 l 0,0.2 3.0375,0 0,-0.2 c -0.725,-0.025 -0.9375,-0.1875 -0.9375,-0.7125 l 0,-3.85 c 0,-0.025 0.1125,-0.1625 0.2125,-0.2625 0.3375,-0.3125 0.925,-0.55 1.4,-0.55 0.6,0 0.9,0.4875 0.9,1.4375 l 0,2.9625 c 0,0.7625 -0.15,0.9125 -0.925,0.975 l 0,0.2 3.0625,0 0,-0.2 c -0.775,-0.0125 -0.9875,-0.25 -0.9875,-1.1 l 0,-3.4375 c 0.4125,-0.5875 0.8625,-0.8375 1.4875,-0.8375 0.7875,0 1.025,0.375 1.025,1.5125 l 0,2.875 c 0,0.775 -0.1125,0.8875 -0.9,0.9875 l 0,0.2 2.9875,0 0,-0.2 -0.35,-0.025 c -0.4125,-0.0375 -0.5875,-0.275 -0.5875,-0.8125 l 0,-2.8125 c 0,-1.6125 -0.5375,-2.4375 -1.5875,-2.4375 -0.7875,0 -1.4875,0.3625 -2.225,1.15 -0.25,-0.775 -0.7125,-1.15 -1.45,-1.15 -0.6,0 -0.975,0.2 -2.1125,1.0625 l 0,-1.025 -0.1,-0.0375 c -0.7,0.2625 -1.1625,0.4125 -1.9125,0.625 z"
         inkscape:connector-curvature="0"
         style="font-style:normal;font-variant:normal;font-weight:normal;font-stretch:normal;letter-spacing:normal;word-spacing:normal;text-anchor:start;fill:#000000;fill-opacity:1;fill-rule:evenodd;stroke:#000000;stroke-width:0;stroke-linecap:butt;stroke-linejoin:miter;stroke-miterlimit:10.43299961;stroke-dasharray:none;stroke-dashoffset:0;stroke-opacity:1" /><path
         id="path9327"
         d="m 187.39732,-117.04337 -0.0625,0.1 -0.0625,0.0875 -0.0625,0.0875 -0.0625,0.0875 -0.05,0.075 -0.0625,0.075 -0.0625,0.075 -0.0625,0.075 -0.0625,0.0625 -0.0625,0.0625 -0.05,0.0625 -0.0625,0.0625 -0.0625,0.05 -0.0625,0.05 -0.0625,0.05 -0.0625,0.0375 -0.0625,0.05 -0.0625,0.0375 -0.075,0.0375 -0.0625,0.025 -0.0625,0.0375 -0.075,0.025 -0.0625,0.025 -0.075,0.0125 -0.075,0.025 -0.0625,0.0125 -0.075,0.0125 -0.075,0.0125 -0.075,0.0125 -0.0875,0 -0.075,0.0125 -0.075,0 c -0.7875,0 -1.375,-0.4 -1.7625,-1.175 -0.25,-0.525 -0.35,-0.975 -0.375,-1.8125 l 0.025,-0.4375 c 0.15,-1.0625 0.6125,-1.5625 1.45,-1.5625 0.8375,0 1.1625,0.375 1.3375,1.5625 l -2.7875,0 -0.025,0.4375 4.2125,0 c -0.1125,-0.8875 -0.25,-1.275 -0.5875,-1.7125 -0.4125,-0.5 -1.0375,-0.7875 -1.75,-0.7875 -0.6875,0 -1.325,0.25 -1.85,0.7125 -0.6375,0.5625 -1.0125,1.5375 -1.0125,2.65 0,1.8875 0.9875,3.0625 2.5625,3.0625 1.3,0 2.325,-0.8 2.8875,-2.2875 z"
         inkscape:connector-curvature="0"
         style="font-style:normal;font-variant:normal;font-weight:normal;font-stretch:normal;letter-spacing:normal;word-spacing:normal;text-anchor:start;fill:#000000;fill-opacity:1;fill-rule:evenodd;stroke:#000000;stroke-width:0;stroke-linecap:butt;stroke-linejoin:miter;stroke-miterlimit:10.43299961;stroke-dasharray:none;stroke-dashoffset:0;stroke-opacity:1" /><path
         id="path9329"
         d="m 187.99732,-120.13087 0.025,0 0.0125,-0.0125 0.0125,0 0.025,0 0.025,-0.0125 0.0375,0 0.025,-0.0125 0.0375,0 0.025,0 0.025,0 0.025,-0.0125 0.0375,0 0.025,0 0.025,0 0.025,0 0.0375,0 0.025,0 0.0375,0 c 0.3375,0 0.4625,0.2125 0.4625,0.8125 l 0,3.4125 c 0,0.6875 -0.1,0.7875 -0.975,0.95 l 0,0.2 3.275,0 0,-0.2 c -0.925,-0.05 -1.15,-0.25 -1.15,-1.025 l 0,-3.075 c 0,-0.4375 0.5875,-1.125 0.95,-1.125 0.075,0 0.2,0.075 0.35,0.2125 0.225,0.1875 0.375,0.275 0.55,0.275 0.325,0 0.5375,-0.2375 0.5375,-0.625 0,-0.45 -0.2875,-0.725 -0.75,-0.725 -0.575,0 -0.975,0.325 -1.6375,1.2875 l 0,-1.25 -0.075,-0.0375 c -0.725,0.3 -1.2125,0.4875 -2.025,0.75 z"
         inkscape:connector-curvature="0"
         style="font-style:normal;font-variant:normal;font-weight:normal;font-stretch:normal;letter-spacing:normal;word-spacing:normal;text-anchor:start;fill:#000000;fill-opacity:1;fill-rule:evenodd;stroke:#000000;stroke-width:0;stroke-linecap:butt;stroke-linejoin:miter;stroke-miterlimit:10.43299961;stroke-dasharray:none;stroke-dashoffset:0;stroke-opacity:1" /><path
         id="path9331"
         d="m 198.50982,-115.70587 -0.025,0.0125 -0.025,0.025 -0.0125,0.0125 -0.025,0.0125 -0.025,0.0125 -0.0125,0.025 -0.025,0.0125 -0.0125,0.0125 -0.025,0.0125 -0.0125,0.0125 -0.025,0 -0.0125,0.0125 -0.025,0.0125 -0.0125,0.0125 -0.025,0 -0.0125,0.0125 -0.025,0.0125 -0.0125,0 -0.025,0.0125 -0.0125,0 -0.0125,0.0125 -0.025,0 -0.0125,0 -0.025,0.0125 -0.0375,0 -0.025,0 -0.0375,0.0125 -0.0375,0 c -0.325,0 -0.4125,-0.2 -0.4125,-0.8 l 0,-2.6625 c 0,-0.7125 -0.075,-1.1 -0.275,-1.4375 -0.3,-0.4875 -0.8875,-0.75 -1.7,-0.75 -1.275,0 -2.2875,0.675 -2.2875,1.5375 0,0.3125 0.275,0.5875 0.5875,0.5875 0.325,0 0.6125,-0.275 0.6125,-0.575 0,-0.05 -0.0125,-0.125 -0.025,-0.225 -0.025,-0.1125 -0.05,-0.225 -0.05,-0.325 0,-0.3625 0.4375,-0.6625 0.9875,-0.6625 0.675,0 1.0375,0.3875 1.0375,1.125 l 0,0.8375 0,0.325 0,1.9875 c 0,0.425 -0.0625,0.5375 -0.35,0.7125 -0.325,0.1875 -0.7125,0.3125 -1,0.3125 -0.475,0 -0.8625,-0.4625 -0.8625,-1.0625 l 0,-0.05 c 0,-0.8 0.5625,-1.3 2.2125,-1.9 l 0,-0.325 c -2.1,0.85 -2.3375,0.95 -2.925,1.475 -0.3,0.275 -0.4875,0.7375 -0.4875,1.1875 0,0.8625 0.6,1.4625 1.4375,1.4625 0.6,0 1.1625,-0.2875 1.9875,-1 0.075,0.7125 0.3125,1 0.875,1 0.4625,0 0.75,-0.1625 1.2375,-0.6875 z"
         inkscape:connector-curvature="0"
         style="font-style:normal;font-variant:normal;font-weight:normal;font-stretch:normal;letter-spacing:normal;word-spacing:normal;text-anchor:start;fill:#000000;fill-opacity:1;fill-rule:evenodd;stroke:#000000;stroke-width:0;stroke-linecap:butt;stroke-linejoin:miter;stroke-miterlimit:10.43299961;stroke-dasharray:none;stroke-dashoffset:0;stroke-opacity:1" /></g><g
       id="g9700"
       transform="translate(58.123415,247.49325)"><path
         id="path9333"
         d="m 132.98482,-92.14337 -0.0625,0.1 -0.0625,0.0875 -0.0625,0.0875 -0.05,0.0875 -0.0625,0.0875 -0.0625,0.075 -0.0625,0.075 -0.0625,0.0625 -0.0625,0.075 -0.05,0.0625 -0.0625,0.0625 -0.0625,0.05 -0.0625,0.05 -0.0625,0.0625 -0.0625,0.0375 -0.0625,0.05 -0.0625,0.0375 -0.0625,0.0375 -0.075,0.0375 -0.0625,0.0375 -0.0625,0.025 -0.075,0.025 -0.0625,0.025 -0.075,0.025 -0.0625,0.0125 -0.075,0.025 -0.075,0.0125 -0.075,0.0125 -0.075,0 -0.075,0.0125 -0.0875,0 -0.075,0 c -0.7875,0 -1.375,-0.4 -1.7625,-1.175 -0.25,-0.5125 -0.35,-0.9625 -0.375,-1.8 l 0.025,-0.4375 c 0.15,-1.0625 0.625,-1.575 1.45,-1.575 0.8375,0 1.1625,0.3875 1.3375,1.575 l -2.7875,0 -0.025,0.4375 4.2125,0 c -0.1125,-0.8875 -0.25,-1.2875 -0.5875,-1.725 -0.4125,-0.4875 -1.0375,-0.775 -1.75,-0.775 -0.6875,0 -1.325,0.25 -1.85,0.7125 -0.6375,0.5625 -1,1.525 -1,2.65 0,1.875 0.975,3.05 2.55,3.05 1.3,0 2.325,-0.8 2.9,-2.275 z"
         inkscape:connector-curvature="0"
         style="font-style:normal;font-variant:normal;font-weight:normal;font-stretch:normal;letter-spacing:normal;word-spacing:normal;text-anchor:start;fill:#000000;fill-opacity:1;fill-rule:evenodd;stroke:#000000;stroke-width:0;stroke-linecap:butt;stroke-linejoin:miter;stroke-miterlimit:10.43299961;stroke-dasharray:none;stroke-dashoffset:0;stroke-opacity:1" /><path
         id="path9335"
         d="m 133.58482,-95.23087 0.025,0 0.0125,0 0.025,0 0.0125,-0.0125 0.025,0 0.0375,-0.0125 0.025,0 0.0375,0 0.025,-0.0125 0.025,0 0.0375,0 0.025,0 0.025,-0.0125 0.025,0 0.0375,0 0.025,0 0.025,0 0.0375,0 c 0.3375,0 0.4625,0.225 0.4625,0.825 l 0,3.4125 c 0,0.6875 -0.1,0.775 -0.975,0.9375 l 0,0.2125 3.2875,0 0,-0.2125 c -0.9375,-0.0375 -1.1625,-0.2375 -1.1625,-1.025 l 0,-3.075 c 0,-0.4375 0.5875,-1.1125 0.95,-1.1125 0.0875,0 0.2125,0.0625 0.3625,0.2 0.2125,0.1875 0.3625,0.275 0.5375,0.275 0.325,0 0.5375,-0.2375 0.5375,-0.6125 0,-0.45 -0.2875,-0.725 -0.75,-0.725 -0.575,0 -0.975,0.3125 -1.6375,1.2875 l 0,-1.2625 -0.075,-0.025 c -0.725,0.3 -1.2125,0.475 -2.025,0.7375 z"
         inkscape:connector-curvature="0"
         style="font-style:normal;font-variant:normal;font-weight:normal;font-stretch:normal;letter-spacing:normal;word-spacing:normal;text-anchor:start;fill:#000000;fill-opacity:1;fill-rule:evenodd;stroke:#000000;stroke-width:0;stroke-linecap:butt;stroke-linejoin:miter;stroke-miterlimit:10.43299961;stroke-dasharray:none;stroke-dashoffset:0;stroke-opacity:1" /><path
         id="path9337"
         d="m 140.14732,-99.19337 -0.075,-0.0375 c -0.575,0.2125 -0.9375,0.3125 -1.575,0.5 l -0.4,0.1 0,0.225 c 0.075,-0.0125 0.1375,-0.0125 0.2375,-0.0125 0.5375,0 0.6625,0.125 0.6625,0.7 l 0,7.0875 c 0,0.425 1.1625,0.8625 2.25,0.8625 l 0.225,-0.425 c -0.7125,0 -1.325,-0.325 -1.325,-0.6625 l 0,-3.4375 c 0,-0.5375 0.6375,-1.025 1.35,-1.025 1.0625,0 1.75,1.0625 1.75,2.725 0,1.525 -0.6625,2.4 -1.775,2.4 l -0.225,0.425 c 1.8125,0 3.2,-1.5 3.2,-3.45 0,-1.675 -1.0375,-2.9625 -2.4,-2.9625 -0.8375,0 -1.625,0.4875 -1.9,1.1625 z"
         inkscape:connector-curvature="0"
         style="font-style:normal;font-variant:normal;font-weight:normal;font-stretch:normal;letter-spacing:normal;word-spacing:normal;text-anchor:start;fill:#000000;fill-opacity:1;fill-rule:evenodd;stroke:#000000;stroke-width:0;stroke-linecap:butt;stroke-linejoin:miter;stroke-miterlimit:10.43299961;stroke-dasharray:none;stroke-dashoffset:0;stroke-opacity:1" /><path
         id="path9339"
         d="m 147.29732,-96.18087 -2.1125,0.75 0,0.2 0.1,-0.0125 c 0.1625,-0.025 0.35,-0.0375 0.4625,-0.0375 0.3375,0 0.45,0.225 0.45,0.825 l 0,3.1625 c 0,0.9875 -0.1375,1.1375 -1.075,1.1875 l 0,0.2125 3.2375,0 0,-0.2125 c -0.9,-0.0625 -1.0125,-0.2 -1.0125,-1.1875 l 0,-4.85 z"
         inkscape:connector-curvature="0"
         style="font-style:normal;font-variant:normal;font-weight:normal;font-stretch:normal;letter-spacing:normal;word-spacing:normal;text-anchor:start;fill:#000000;fill-opacity:1;fill-rule:evenodd;stroke:#000000;stroke-width:0;stroke-linecap:butt;stroke-linejoin:miter;stroke-miterlimit:10.43299961;stroke-dasharray:none;stroke-dashoffset:0;stroke-opacity:1" /><path
         id="path9341"
         d="m 146.64732,-99.23087 -0.025,0 -0.0375,0.0125 -0.0375,0 -0.025,0 -0.0375,0.0125 -0.025,0.0125 -0.0375,0.0125 -0.025,0.0125 -0.0375,0.0125 -0.025,0.0125 -0.0375,0.0125 -0.025,0.025 -0.025,0.0125 -0.025,0.025 -0.025,0.025 -0.025,0.025 -0.025,0.025 -0.0125,0.025 -0.025,0.025 -0.025,0.025 -0.0125,0.025 -0.0125,0.0375 -0.025,0.025 -0.0125,0.025 -0.0125,0.0375 -0.0125,0.025 0,0.0375 -0.0125,0.0375 0,0.0375 -0.0125,0.025 0,0.0375 0,0.0375 c 0,0.3875 0.3,0.7 0.675,0.7 0.4,0 0.7125,-0.3 0.7125,-0.7 0,-0.3875 -0.3125,-0.7 -0.7125,-0.7 z"
         inkscape:connector-curvature="0"
         style="font-style:normal;font-variant:normal;font-weight:normal;font-stretch:normal;letter-spacing:normal;word-spacing:normal;text-anchor:start;fill:#000000;fill-opacity:1;fill-rule:evenodd;stroke:#000000;stroke-width:0;stroke-linecap:butt;stroke-linejoin:miter;stroke-miterlimit:10.43299961;stroke-dasharray:none;stroke-dashoffset:0;stroke-opacity:1" /><path
         id="path9343"
         d="m 155.25982,-90.58087 -0.075,0 c -0.625,0 -0.775,-0.15 -0.775,-0.775 l 0,-4.6875 -2.1625,0 0,0.225 c 0.85,0.05 1.0125,0.1875 1.0125,0.8625 l 0,3.2125 c 0,0.3875 -0.0625,0.575 -0.2625,0.725 -0.3625,0.3 -0.7875,0.4625 -1.2,0.4625 -0.525,0 -0.9625,-0.4625 -0.9625,-1.0375 l 0,-4.45 -2,0 0,0.1875 c 0.6625,0.0375 0.85,0.25 0.85,0.875 l 0,3.45 c 0,1.075 0.65,1.7625 1.65,1.7625 0.5125,0 1.0375,-0.2125 1.4125,-0.575 l 0.5875,-0.6 0,1.1375 0.05,0.025 c 0.6875,-0.2625 1.175,-0.4125 1.875,-0.6125 z"
         inkscape:connector-curvature="0"
         style="font-style:normal;font-variant:normal;font-weight:normal;font-stretch:normal;letter-spacing:normal;word-spacing:normal;text-anchor:start;fill:#000000;fill-opacity:1;fill-rule:evenodd;stroke:#000000;stroke-width:0;stroke-linecap:butt;stroke-linejoin:miter;stroke-miterlimit:10.43299961;stroke-dasharray:none;stroke-dashoffset:0;stroke-opacity:1" /><path
         id="path9345"
         d="m 155.82232,-95.33087 0.0125,-0.0125 0.025,0 0.0125,0 0.0125,0 0.0125,-0.0125 0.0125,0 0.0375,0 0.025,-0.0125 0.025,0 0.025,0 0.025,-0.0125 0.025,0 0.025,0 0.025,0 0.025,0 0.0375,-0.0125 0.025,0 0.025,0 0.025,0 c 0.35,0 0.475,0.225 0.475,0.875 l 0,3.4625 c 0,0.7375 -0.1875,0.9375 -0.95,0.95 l 0,0.2125 3.025,0 0,-0.2125 c -0.725,-0.025 -0.925,-0.175 -0.925,-0.7125 l 0,-3.85 c 0,-0.025 0.1125,-0.1625 0.2,-0.2625 0.35,-0.3125 0.9375,-0.5375 1.4125,-0.5375 0.6,0 0.9,0.475 0.9,1.4375 l 0,2.9625 c 0,0.7625 -0.15,0.9125 -0.925,0.9625 l 0,0.2125 3.05,0 0,-0.2125 c -0.775,-0.0125 -0.975,-0.2375 -0.975,-1.0875 l 0,-3.45 c 0.4125,-0.5875 0.8625,-0.825 1.4875,-0.825 0.775,0 1.025,0.3625 1.025,1.5 l 0,2.875 c 0,0.7875 -0.1125,0.9 -0.9,0.9875 l 0,0.2125 2.9875,0 0,-0.2125 -0.35,-0.025 c -0.4125,-0.025 -0.5875,-0.275 -0.5875,-0.8125 l 0,-2.8125 c 0,-1.6 -0.5375,-2.425 -1.5875,-2.425 -0.7875,0 -1.4875,0.35 -2.225,1.15 -0.25,-0.7875 -0.7125,-1.15 -1.45,-1.15 -0.6,0 -0.9875,0.1875 -2.1125,1.05 l 0,-1.025 -0.1,-0.025 c -0.7,0.2625 -1.1625,0.4125 -1.9125,0.6125 z"
         inkscape:connector-curvature="0"
         style="font-style:normal;font-variant:normal;font-weight:normal;font-stretch:normal;letter-spacing:normal;word-spacing:normal;text-anchor:start;fill:#000000;fill-opacity:1;fill-rule:evenodd;stroke:#000000;stroke-width:0;stroke-linecap:butt;stroke-linejoin:miter;stroke-miterlimit:10.43299961;stroke-dasharray:none;stroke-dashoffset:0;stroke-opacity:1" /><path
         id="path9347"
         d="m 175.68482,-90.80587 -0.025,0.025 -0.025,0.0125 -0.0125,0.025 -0.025,0.0125 -0.025,0.0125 -0.0125,0.0125 -0.025,0.0125 -0.0125,0.0125 -0.025,0.0125 -0.0125,0.0125 -0.025,0.0125 -0.0125,0.0125 -0.025,0.0125 -0.0125,0 -0.025,0.0125 -0.0125,0.0125 -0.025,0 -0.0125,0.0125 -0.0125,0 -0.025,0.0125 -0.0125,0 -0.025,0 -0.0125,0.0125 -0.0125,0 -0.0375,0.0125 -0.0375,0 -0.0375,0 -0.0375,0 c -0.3125,0 -0.4125,-0.1875 -0.4125,-0.7875 l 0,-2.6625 c 0,-0.7125 -0.075,-1.1125 -0.275,-1.4375 -0.3,-0.4875 -0.8875,-0.75 -1.6875,-0.75 -1.2875,0 -2.3,0.675 -2.3,1.525 0,0.325 0.275,0.5875 0.5875,0.5875 0.325,0 0.6125,-0.2625 0.6125,-0.575 0,-0.05 -0.0125,-0.1125 -0.025,-0.2125 -0.025,-0.125 -0.0375,-0.2375 -0.0375,-0.325 0,-0.375 0.4375,-0.675 0.975,-0.675 0.675,0 1.0375,0.4 1.0375,1.1375 l 0,0.8375 0,0.325 0,1.975 c 0,0.425 -0.0625,0.55 -0.35,0.7125 -0.325,0.1875 -0.7125,0.3125 -1,0.3125 -0.475,0 -0.8625,-0.4625 -0.8625,-1.05 l 0,-0.05 c 0,-0.8125 0.5625,-1.3 2.2125,-1.9 l 0,-0.325 c -2.1,0.8375 -2.325,0.95 -2.9125,1.475 -0.3,0.2625 -0.5,0.7375 -0.5,1.1875 0,0.8625 0.6,1.45 1.4375,1.45 0.6,0 1.1625,-0.275 1.9875,-0.9875 0.075,0.7125 0.325,0.9875 0.8875,0.9875 0.4625,0 0.75,-0.1625 1.225,-0.675 z"
         inkscape:connector-curvature="0"
         style="font-style:normal;font-variant:normal;font-weight:normal;font-stretch:normal;letter-spacing:normal;word-spacing:normal;text-anchor:start;fill:#000000;fill-opacity:1;fill-rule:evenodd;stroke:#000000;stroke-width:0;stroke-linecap:butt;stroke-linejoin:miter;stroke-miterlimit:10.43299961;stroke-dasharray:none;stroke-dashoffset:0;stroke-opacity:1" /><path
         id="path9349"
         d="m 179.20982,-96.04337 -1.375,0 0,-1.5875 c 0,-0.1375 -0.0125,-0.175 -0.1,-0.175 -0.1,0.125 -0.175,0.25 -0.275,0.375 -0.5125,0.7625 -1.1,1.4125 -1.325,1.4625 -0.15,0.1 -0.225,0.2 -0.225,0.2625 0,0.05 0.0125,0.075 0.05,0.1 l 0.725,0 0,4.1125 c 0,1.15 0.4125,1.725 1.2125,1.725 0.675,0 1.1875,-0.325 1.6375,-1.0375 l -0.175,-0.15 c -0.2875,0.35 -0.5125,0.4875 -0.825,0.4875 -0.5,0 -0.7,-0.375 -0.7,-1.2375 l 0,-3.9 1.375,0 z"
         inkscape:connector-curvature="0"
         style="font-style:normal;font-variant:normal;font-weight:normal;font-stretch:normal;letter-spacing:normal;word-spacing:normal;text-anchor:start;fill:#000000;fill-opacity:1;fill-rule:evenodd;stroke:#000000;stroke-width:0;stroke-linecap:butt;stroke-linejoin:miter;stroke-miterlimit:10.43299961;stroke-dasharray:none;stroke-dashoffset:0;stroke-opacity:1" /><path
         id="path9351"
         d="m 182.94732,-96.18087 -0.1625,0 -0.1625,0.0125 -0.1625,0.025 -0.15,0.025 -0.15,0.025 -0.15,0.05 -0.1375,0.0375 -0.1375,0.0625 -0.1375,0.05 -0.1375,0.075 -0.125,0.075 -0.125,0.075 -0.1125,0.0875 -0.1125,0.0875 -0.1125,0.1 -0.1,0.1 -0.1,0.1125 -0.0875,0.1125 -0.0875,0.1125 -0.075,0.125 -0.075,0.1375 -0.075,0.125 -0.0625,0.15 -0.0625,0.1375 -0.05,0.15 -0.0375,0.15 -0.0375,0.1625 -0.0375,0.15 -0.025,0.1625 -0.0125,0.175 -0.0125,0.175 0,0.175 c 0,1.8375 1.2625,3.2125 2.9875,3.2125 l 0.1625,-0.375 c -0.525,0 -1.0375,-0.325 -1.325,-0.875 -0.375,-0.7125 -0.6,-1.6625 -0.6,-2.6375 0,-1.3 0.6375,-2.15 1.6125,-2.15 l 0,0 c 1.15,0 1.95,1.3125 1.95,3.1875 0,1.55 -0.6125,2.475 -1.6375,2.475 l -0.1625,0.375 c 1.725,0 3.0375,-1.4375 3.0375,-3.325 0,-1.7875 -1.2625,-3.0875 -3.0125,-3.0875 z"
         inkscape:connector-curvature="0"
         style="font-style:normal;font-variant:normal;font-weight:normal;font-stretch:normal;letter-spacing:normal;word-spacing:normal;text-anchor:start;fill:#000000;fill-opacity:1;fill-rule:evenodd;stroke:#000000;stroke-width:0;stroke-linecap:butt;stroke-linejoin:miter;stroke-miterlimit:10.43299961;stroke-dasharray:none;stroke-dashoffset:0;stroke-opacity:1" /><path
         id="path9353"
         d="m 186.64732,-95.33087 0.0125,-0.0125 0.0125,0 0.025,0 0.0125,0 0.0125,-0.0125 0.0125,0 0.0375,0 0.025,-0.0125 0.025,0 0.025,0 0.025,-0.0125 0.025,0 0.025,0 0.025,0 0.025,0 0.025,-0.0125 0.025,0 0.025,0 0.0375,0 c 0.35,0 0.475,0.225 0.475,0.875 l 0,3.4625 c 0,0.7375 -0.1875,0.9375 -0.95,0.95 l 0,0.2125 3.025,0 0,-0.2125 c -0.725,-0.025 -0.925,-0.175 -0.925,-0.7125 l 0,-3.85 c 0,-0.025 0.1,-0.1625 0.2,-0.2625 0.3375,-0.3125 0.925,-0.5375 1.4125,-0.5375 0.6,0 0.9,0.475 0.9,1.4375 l 0,2.9625 c 0,0.7625 -0.15,0.9125 -0.9375,0.9625 l 0,0.2125 3.0625,0 0,-0.2125 c -0.775,-0.0125 -0.975,-0.2375 -0.975,-1.0875 l 0,-3.45 c 0.4,-0.5875 0.85,-0.825 1.4875,-0.825 0.775,0 1.025,0.3625 1.025,1.5 l 0,2.875 c 0,0.7875 -0.1125,0.9 -0.9125,0.9875 l 0,0.2125 3,0 0,-0.2125 -0.3625,-0.025 c -0.4,-0.025 -0.575,-0.275 -0.575,-0.8125 l 0,-2.8125 c 0,-1.6 -0.5375,-2.425 -1.5875,-2.425 -0.8,0 -1.4875,0.35 -2.225,1.15 -0.25,-0.7875 -0.7125,-1.15 -1.45,-1.15 -0.6,0 -0.9875,0.1875 -2.125,1.05 l 0,-1.025 -0.0875,-0.025 c -0.7,0.2625 -1.1625,0.4125 -1.9125,0.6125 z"
         inkscape:connector-curvature="0"
         style="font-style:normal;font-variant:normal;font-weight:normal;font-stretch:normal;letter-spacing:normal;word-spacing:normal;text-anchor:start;fill:#000000;fill-opacity:1;fill-rule:evenodd;stroke:#000000;stroke-width:0;stroke-linecap:butt;stroke-linejoin:miter;stroke-miterlimit:10.43299961;stroke-dasharray:none;stroke-dashoffset:0;stroke-opacity:1" /><path
         id="path9355"
         d="m 201.34732,-94.18087 -0.0625,-1.8625 -0.15,0 -0.025,0.025 c -0.125,0.1 -0.1375,0.1125 -0.1875,0.1125 -0.0875,0 -0.225,-0.025 -0.375,-0.1 -0.3,-0.1125 -0.6,-0.1625 -0.95,-0.1625 -1.075,0 -1.8625,0.7 -1.8625,1.675 0,0.775 0.4375,1.3125 1.6,1.975 l 0.8,0.45 c 0.475,0.275 0.7,0.6 0.7,1.025 0,0.6 -0.4375,0.9875 -1.125,0.9875 -0.475,0 -0.8875,-0.1875 -1.15,-0.4875 -0.2875,-0.3375 -0.4125,-0.65 -0.5875,-1.4375 l -0.225,0 0,2.1375 0.1875,0 c 0.0875,-0.1375 0.15,-0.1625 0.3125,-0.1625 0.125,0 0.3125,0.025 0.625,0.1125 0.3875,0.075 0.75,0.125 1,0.125 1.05,0 1.925,-0.7875 1.925,-1.7375 0,-0.6875 -0.325,-1.1375 -1.15,-1.625 l -1.475,-0.875 c -0.375,-0.225 -0.5875,-0.5625 -0.5875,-0.9375 0,-0.5375 0.425,-0.925 1.05,-0.925 0.775,0 1.1875,0.4625 1.5,1.6875 z"
         inkscape:connector-curvature="0"
         style="font-style:normal;font-variant:normal;font-weight:normal;font-stretch:normal;letter-spacing:normal;word-spacing:normal;text-anchor:start;fill:#000000;fill-opacity:1;fill-rule:evenodd;stroke:#000000;stroke-width:0;stroke-linecap:butt;stroke-linejoin:miter;stroke-miterlimit:10.43299961;stroke-dasharray:none;stroke-dashoffset:0;stroke-opacity:1" /></g><path
       style="font-style:normal;font-variant:normal;font-weight:normal;font-stretch:normal;letter-spacing:normal;word-spacing:normal;text-anchor:start;fill:#000000;fill-opacity:1;fill-rule:evenodd;stroke:#000000;stroke-width:0;stroke-linecap:butt;stroke-linejoin:miter;stroke-miterlimit:10.43299961;stroke-dasharray:none;stroke-dashoffset:0;stroke-opacity:1"
       inkscape:connector-curvature="0"
       d="m 304.0233,142.92017 0,-0.525 -1.05,0 c -0.275,0 -0.4875,-0.05 -0.7625,-0.1375 l -0.3,-0.1125 c -0.3625,-0.1375 -0.7375,-0.2125 -1.0875,-0.2125 -1.275,0 -2.275,0.9875 -2.275,2.2375 0,0.85 0.3625,1.375 1.2625,1.825 -0.2625,0.25 -0.5,0.475 -0.5875,0.55 -0.45,0.3875 -0.625,0.6625 -0.625,0.9375 0,0.2875 0.1625,0.45 0.725,0.725 l 0.2875,0.0375 c 0.45,0.1 1.5375,0.175 2.2125,0.175 1.2375,0 1.6875,0.1875 1.6875,0.675 0,0.7875 -1.0375,1.325 -2.575,1.325 -1.2,0 -2,-0.4 -2,-1 0,-0.3125 0.1,-0.4875 0.675,-1.175 l 0,0 -0.2875,-0.0375 c -0.975,0.7125 -1.3375,1.1625 -1.3375,1.6625 0,0.725 1.0625,1.325 2.3625,1.325 1.025,0 2.0875,-0.35 2.8,-0.925 0.5125,-0.425 0.75,-0.8625 0.75,-1.375 0,-0.85 -0.6375,-1.425 -1.65,-1.4625 l -1.7625,-0.0875 c -0.725,-0.025 -1.075,-0.15 -1.075,-0.3625 0,-0.275 0.4625,-0.75 0.825,-0.8625 0.125,0.0125 0.225,0.025 0.2625,0.025 0.2625,0.025 0.4375,0.0375 0.5125,0.0375 l 0.0625,-0.3375 c -0.825,0 -1.4,-0.8875 -1.4,-2.2 l 0,-0.0375 c 0,-0.8125 0.3875,-1.2875 1.0125,-1.2875 0.425,0 0.775,0.2375 1,0.6375 0.25,0.4875 0.4125,1.1125 0.4125,1.6375 0,0.775 -0.4,1.25 -1.025,1.25 l -0.0625,0.3375 c 0.5125,0 1.0625,-0.2 1.475,-0.575 0.4625,-0.375 0.6625,-0.85 0.6625,-1.5375 0,-0.4 -0.075,-0.7125 -0.2625,-1.15 z"
       id="path9357" /><path
       style="font-style:normal;font-variant:normal;font-weight:normal;font-stretch:normal;letter-spacing:normal;word-spacing:normal;text-anchor:start;fill:#000000;fill-opacity:1;fill-rule:evenodd;stroke:#000000;stroke-width:0;stroke-linecap:butt;stroke-linejoin:miter;stroke-miterlimit:10.43299961;stroke-dasharray:none;stroke-dashoffset:0;stroke-opacity:1"
       inkscape:connector-curvature="0"
       d="m 399.8602,141.86392 -0.0625,-0.0375 c -0.575,0.2125 -0.95,0.325 -1.5875,0.5 l -0.4,0.1125 0,0.2125 c 0.0875,-0.0125 0.1375,-0.0125 0.2375,-0.0125 0.55,0 0.675,0.125 0.675,0.7 l 0,7.0875 c 0,0.425 1.1625,0.875 2.25,0.875 l 0.2125,-0.4375 c -0.7,0 -1.325,-0.325 -1.325,-0.6625 l 0,-3.4375 c 0,-0.5375 0.65,-1.025 1.3625,-1.025 1.0625,0 1.7375,1.0625 1.7375,2.725 0,1.525 -0.65,2.4 -1.775,2.4 l -0.2125,0.4375 c 1.8,0 3.2,-1.5125 3.2,-3.4625 0,-1.675 -1.05,-2.9625 -2.4125,-2.9625 -0.825,0 -1.625,0.4875 -1.9,1.1625 z"
       id="path9359" /></g></svg>