<?xml version="1.0" encoding="UTF-8" standalone="no"?>
<!-- Created with Inkscape (http://www.inkscape.org/) -->

<svg
   xmlns:ns0="http://www.iki.fi/pav/software/textext/"
   xmlns:dc="http://purl.org/dc/elements/1.1/"
   xmlns:cc="http://creativecommons.org/ns#"
   xmlns:rdf="http://www.w3.org/1999/02/22-rdf-syntax-ns#"
   xmlns:svg="http://www.w3.org/2000/svg"
   xmlns="http://www.w3.org/2000/svg"
   xmlns:sodipodi="http://sodipodi.sourceforge.net/DTD/sodipodi-0.dtd"
   xmlns:inkscape="http://www.inkscape.org/namespaces/inkscape"
   id="svg2"
   version="1.1"
   inkscape:version="0.91 r"
   xml:space="preserve"
   width="451.58597pt"
   height="165pt"
   viewBox="0 0 564.48246 206.25"
   sodipodi:docname="breathing_mode.svg"><sodipodi:namedview
     pagecolor="#ffffff"
     bordercolor="#666666"
     borderopacity="1"
     objecttolerance="10"
     gridtolerance="10"
     guidetolerance="10"
     inkscape:pageopacity="0"
     inkscape:pageshadow="2"
     inkscape:window-width="1920"
     inkscape:window-height="1025"
     id="namedview4"
     showgrid="false"
     inkscape:zoom="1.4700477"
     inkscape:cx="174.0327"
     inkscape:cy="215.37493"
     inkscape:window-x="-2"
     inkscape:window-y="-3"
     inkscape:window-maximized="1"
     inkscape:current-layer="layer1"
     units="pt"
     borderlayer="true" /><metadata
     id="metadata8"><rdf:RDF><cc:Work
         rdf:about=""><dc:format>image/svg+xml</dc:format><dc:type
           rdf:resource="http://purl.org/dc/dcmitype/StillImage" /><dc:title></dc:title></cc:Work></rdf:RDF></metadata><defs
     id="defs6"><marker
       inkscape:isstock="true"
       style="overflow:visible;"
       id="marker13335"
       refX="0.0"
       refY="0.0"
       orient="auto"
       inkscape:stockid="Arrow1Mend"><path
         transform="scale(0.4) rotate(180) translate(10,0)"
         style="fill-rule:evenodd;stroke:#000000;stroke-width:1pt;stroke-opacity:1;fill:#000000;fill-opacity:1"
         d="M 0.0,0.0 L 5.0,-5.0 L -12.5,0.0 L 5.0,5.0 L 0.0,0.0 z "
         id="path13337" /></marker><marker
       inkscape:stockid="Arrow1Mend"
       orient="auto"
       refY="0.0"
       refX="0.0"
       id="Arrow1Mend"
       style="overflow:visible;"
       inkscape:isstock="true"><path
         id="path4645"
         d="M 0.0,0.0 L 5.0,-5.0 L -12.5,0.0 L 5.0,5.0 L 0.0,0.0 z "
         style="fill-rule:evenodd;stroke:#000000;stroke-width:1pt;stroke-opacity:1;fill:#000000;fill-opacity:1"
         transform="scale(0.4) rotate(180) translate(10,0)" /></marker><marker
       inkscape:stockid="Arrow1Lend"
       orient="auto"
       refY="0.0"
       refX="0.0"
       id="Arrow1Lend"
       style="overflow:visible;"
       inkscape:isstock="true"><path
         id="path4639"
         d="M 0.0,0.0 L 5.0,-5.0 L -12.5,0.0 L 5.0,5.0 L 0.0,0.0 z "
         style="fill-rule:evenodd;stroke:#000000;stroke-width:1pt;stroke-opacity:1;fill:#000000;fill-opacity:1"
         transform="scale(0.8) rotate(180) translate(12.5,0)" /></marker><marker
       inkscape:isstock="true"
       style="overflow:visible;"
       id="marker11107"
       refX="0.0"
       refY="0.0"
       orient="auto"
       inkscape:stockid="Arrow1Send"><path
         transform="scale(0.2) rotate(180) translate(6,0)"
         style="fill-rule:evenodd;stroke:#000000;stroke-width:1pt;stroke-opacity:1;fill:#000000;fill-opacity:1"
         d="M 0.0,0.0 L 5.0,-5.0 L -12.5,0.0 L 5.0,5.0 L 0.0,0.0 z "
         id="path11109" /></marker><marker
       inkscape:isstock="true"
       style="overflow:visible"
       id="marker11097"
       refX="0.0"
       refY="0.0"
       orient="auto"
       inkscape:stockid="Arrow1Sstart"><path
         transform="scale(0.2) translate(6,0)"
         style="fill-rule:evenodd;stroke:#000000;stroke-width:1pt;stroke-opacity:1;fill:#000000;fill-opacity:1"
         d="M 0.0,0.0 L 5.0,-5.0 L -12.5,0.0 L 5.0,5.0 L 0.0,0.0 z "
         id="path11099" /></marker><marker
       inkscape:isstock="true"
       style="overflow:visible"
       id="Arrow1Lstart"
       refX="0.0"
       refY="0.0"
       orient="auto"
       inkscape:stockid="Arrow1Lstart"><path
         transform="scale(0.8) translate(12.5,0)"
         style="fill-rule:evenodd;stroke:#000000;stroke-width:1pt;stroke-opacity:1;fill:#000000;fill-opacity:1"
         d="M 0.0,0.0 L 5.0,-5.0 L -12.5,0.0 L 5.0,5.0 L 0.0,0.0 z "
         id="path4636" /></marker><clipPath
       id="clipPath20"
       clipPathUnits="userSpaceOnUse"><path
         inkscape:connector-curvature="0"
         id="path22"
         d="m 73.125,44.1 453.375,0 0,352.8 -453.375,0 0,-352.8 z" /></clipPath><clipPath
       id="clipPath30"
       clipPathUnits="userSpaceOnUse"><path
         inkscape:connector-curvature="0"
         id="path32"
         d="m 73.125,44.1 453.375,0 0,352.8 -453.375,0 0,-352.8 z" /></clipPath><clipPath
       id="clipPath54"
       clipPathUnits="userSpaceOnUse"><path
         inkscape:connector-curvature="0"
         id="path56"
         d="m -1021,-416 2702,0 0,1583 -2702,0 0,-1583 z" /></clipPath><clipPath
       id="clipPath76"
       clipPathUnits="userSpaceOnUse"><path
         inkscape:connector-curvature="0"
         id="path78"
         d="m -1021,-416 2702,0 0,1583 -2702,0 0,-1583 z" /></clipPath><clipPath
       id="clipPath98"
       clipPathUnits="userSpaceOnUse"><path
         inkscape:connector-curvature="0"
         id="path100"
         d="m -1021,-416 2702,0 0,1583 -2702,0 0,-1583 z" /></clipPath><clipPath
       id="clipPath152"
       clipPathUnits="userSpaceOnUse"><path
         inkscape:connector-curvature="0"
         id="path154"
         d="m -1021,-416 2702,0 0,1583 -2702,0 0,-1583 z" /></clipPath><clipPath
       id="clipPath174"
       clipPathUnits="userSpaceOnUse"><path
         inkscape:connector-curvature="0"
         id="path176"
         d="m -1021,-416 2702,0 0,1583 -2702,0 0,-1583 z" /></clipPath></defs><g
     transform="matrix(1.25,0,0,-1.25,0,206.25)"
     inkscape:label="dipole_pot"
     inkscape:groupmode="layer"
     id="g10" /><g
     inkscape:groupmode="layer"
     id="layer1"
     inkscape:label="dipole_pot 1"><g
       id="g13515"
       transform="translate(-4.6294149,-11.664442)"><g
         transform="matrix(1.25,0,0,-1.25,9.8210721,206.25)"
         id="g10260"><g
           id="g4465"
           style="fill:none;stroke:#000000;stroke-width:3.99911213;stroke-miterlimit:4;stroke-dasharray:none;stroke-opacity:1"
           transform="matrix(0.44289832,0,0,0.44289832,-58.181502,-36.984163)"><g
             id="g4467"
             clip-path="url(#clipPath20)"
             style="fill:none;stroke:#000000;stroke-width:3.99911213;stroke-miterlimit:4;stroke-dasharray:none;stroke-opacity:1"><path
               d="m 185.82647,394.24011 3.74034,-0.90833 3.40031,-1.0529 3.13585,-1.20247 2.94694,-1.36852 2.79581,-1.54522 2.68247,-1.73972 2.56912,-1.93132 2.53135,-2.18467 2.45578,-2.41331 2.45578,-2.72886 2.418,-3.02024 2.418,-3.37519 2.45578,-3.81492 2.49356,-4.29555 2.53135,-4.81692 2.56912,-5.37773 2.64469,-6.06582 2.72025,-6.81034 2.79581,-7.60606 2.94694,-8.67492 3.09806,-9.82347 3.32475,-11.29448 3.66478,-13.25631 4.26928,-16.31676 5.78053,-23.06172 9.33197,-37.25016 3.92925,-14.70527 3.21141,-11.18702 2.79581,-8.9546 2.49356,-7.25766 2.2291,-5.83182 2.04019,-4.74396 1.88906,-3.85107 1.73794,-3.0584 1.62459,-2.42167 1.51125,-1.86148 1.39791,-1.37821 1.32234,-0.9945 1.209,-0.64297 1.17122,-0.37839 1.13344,-0.13605 0.0756,-0.001 0,0"
               style="fill:none;stroke:#000000;stroke-width:3.99911213;stroke-linecap:square;stroke-linejoin:round;stroke-miterlimit:4;stroke-dasharray:none;stroke-opacity:1"
               id="path4469"
               inkscape:connector-curvature="0"
               sodipodi:nodetypes="cccccccccccccccccccccccccccccccccccccccccccc" /></g></g><g
           transform="matrix(-0.44289832,0,0,0.44289832,209.12957,-36.984163)"
           style="fill:none;stroke:#000000;stroke-width:3.99911213;stroke-miterlimit:4;stroke-dasharray:none;stroke-opacity:1"
           id="g4477"><g
             style="fill:none;stroke:#000000;stroke-width:3.99911213;stroke-miterlimit:4;stroke-dasharray:none;stroke-opacity:1"
             clip-path="url(#clipPath20)"
             id="g4479"><path
               sodipodi:nodetypes="cccccccccccccccccccccccccccccccccccccccccccc"
               inkscape:connector-curvature="0"
               id="path4481"
               style="fill:none;stroke:#000000;stroke-width:3.99911213;stroke-linecap:square;stroke-linejoin:round;stroke-miterlimit:4;stroke-dasharray:none;stroke-opacity:1"
               d="m 185.82647,394.24011 3.74034,-0.90833 3.40031,-1.0529 3.13585,-1.20247 2.94694,-1.36852 2.79581,-1.54522 2.68247,-1.73972 2.56912,-1.93132 2.53135,-2.18467 2.45578,-2.41331 2.45578,-2.72886 2.418,-3.02024 2.418,-3.37519 2.45578,-3.81492 2.49356,-4.29555 2.53135,-4.81692 2.56912,-5.37773 2.64469,-6.06582 2.72025,-6.81034 2.79581,-7.60606 2.94694,-8.67492 3.09806,-9.82347 3.32475,-11.29448 3.66478,-13.25631 4.26928,-16.31676 5.78053,-23.06172 9.33197,-37.25016 3.92925,-14.70527 3.21141,-11.18702 2.79581,-8.9546 2.49356,-7.25766 2.2291,-5.83182 2.04019,-4.74396 1.88906,-3.85107 1.73794,-3.0584 1.62459,-2.42167 1.51125,-1.86148 1.39791,-1.37821 1.32234,-0.9945 1.209,-0.64297 1.17122,-0.37839 1.13344,-0.13605 0.0756,-0.001 0,0" /></g></g></g><circle
         r="1.6721939"
         cy="136.14532"
         cx="113.60303"
         id="circle12729"
         style="opacity:1;fill:#ff0000;fill-opacity:1;fill-rule:nonzero;stroke:#ff0000;stroke-width:0.65561229;stroke-linejoin:miter;stroke-miterlimit:4;stroke-dasharray:none;stroke-dashoffset:0;stroke-opacity:1" /><circle
         style="opacity:1;fill:#ff0000;fill-opacity:1;fill-rule:nonzero;stroke:#ff0000;stroke-width:0.65561229;stroke-linejoin:miter;stroke-miterlimit:4;stroke-dasharray:none;stroke-dashoffset:0;stroke-opacity:1"
         id="circle12985"
         cx="287.60303"
         cy="136.14532"
         r="1.6721939" /><circle
         r="1.6721939"
         cy="152.14532"
         cx="287.60303"
         id="circle12987"
         style="opacity:1;fill:#ff0000;fill-opacity:1;fill-rule:nonzero;stroke:#ff0000;stroke-width:0.65561229;stroke-linejoin:miter;stroke-miterlimit:4;stroke-dasharray:none;stroke-dashoffset:0;stroke-opacity:1" /><g
         id="g12991"
         transform="matrix(1.25,0,0,-1.25,357.82107,206.25)"><g
           transform="matrix(0.44289832,0,0,0.44289832,-58.181502,-36.984163)"
           style="fill:none;stroke:#000000;stroke-width:3.99911213;stroke-miterlimit:4;stroke-dasharray:none;stroke-opacity:1"
           id="g12993"><g
             style="fill:none;stroke:#000000;stroke-width:3.99911213;stroke-miterlimit:4;stroke-dasharray:none;stroke-opacity:1"
             clip-path="url(#clipPath20)"
             id="g12995"><path
               sodipodi:nodetypes="cccccccccccccccccccccccccccccccccccccccccccc"
               inkscape:connector-curvature="0"
               id="path12997"
               style="fill:none;stroke:#000000;stroke-width:3.99911213;stroke-linecap:square;stroke-linejoin:round;stroke-miterlimit:4;stroke-dasharray:none;stroke-opacity:1"
               d="m 185.82647,394.24011 3.74034,-0.90833 3.40031,-1.0529 3.13585,-1.20247 2.94694,-1.36852 2.79581,-1.54522 2.68247,-1.73972 2.56912,-1.93132 2.53135,-2.18467 2.45578,-2.41331 2.45578,-2.72886 2.418,-3.02024 2.418,-3.37519 2.45578,-3.81492 2.49356,-4.29555 2.53135,-4.81692 2.56912,-5.37773 2.64469,-6.06582 2.72025,-6.81034 2.79581,-7.60606 2.94694,-8.67492 3.09806,-9.82347 3.32475,-11.29448 3.66478,-13.25631 4.26928,-16.31676 5.78053,-23.06172 9.33197,-37.25016 3.92925,-14.70527 3.21141,-11.18702 2.79581,-8.9546 2.49356,-7.25766 2.2291,-5.83182 2.04019,-4.74396 1.88906,-3.85107 1.73794,-3.0584 1.62459,-2.42167 1.51125,-1.86148 1.39791,-1.37821 1.32234,-0.9945 1.209,-0.64297 1.17122,-0.37839 1.13344,-0.13605 0.0756,-0.001 0,0" /></g></g><g
           id="g12999"
           style="fill:none;stroke:#000000;stroke-width:3.99911213;stroke-miterlimit:4;stroke-dasharray:none;stroke-opacity:1"
           transform="matrix(-0.44289832,0,0,0.44289832,209.12957,-36.984163)"><g
             id="g13001"
             clip-path="url(#clipPath20)"
             style="fill:none;stroke:#000000;stroke-width:3.99911213;stroke-miterlimit:4;stroke-dasharray:none;stroke-opacity:1"><path
               d="m 185.82647,394.24011 3.74034,-0.90833 3.40031,-1.0529 3.13585,-1.20247 2.94694,-1.36852 2.79581,-1.54522 2.68247,-1.73972 2.56912,-1.93132 2.53135,-2.18467 2.45578,-2.41331 2.45578,-2.72886 2.418,-3.02024 2.418,-3.37519 2.45578,-3.81492 2.49356,-4.29555 2.53135,-4.81692 2.56912,-5.37773 2.64469,-6.06582 2.72025,-6.81034 2.79581,-7.60606 2.94694,-8.67492 3.09806,-9.82347 3.32475,-11.29448 3.66478,-13.25631 4.26928,-16.31676 5.78053,-23.06172 9.33197,-37.25016 3.92925,-14.70527 3.21141,-11.18702 2.79581,-8.9546 2.49356,-7.25766 2.2291,-5.83182 2.04019,-4.74396 1.88906,-3.85107 1.73794,-3.0584 1.62459,-2.42167 1.51125,-1.86148 1.39791,-1.37821 1.32234,-0.9945 1.209,-0.64297 1.17122,-0.37839 1.13344,-0.13605 0.0756,-0.001 0,0"
               style="fill:none;stroke:#000000;stroke-width:3.99911213;stroke-linecap:square;stroke-linejoin:round;stroke-miterlimit:4;stroke-dasharray:none;stroke-opacity:1"
               id="path13003"
               inkscape:connector-curvature="0"
               sodipodi:nodetypes="cccccccccccccccccccccccccccccccccccccccccccc" /></g></g></g><circle
         style="opacity:1;fill:#ff0000;fill-opacity:1;fill-rule:nonzero;stroke:#ff0000;stroke-width:0.65561229;stroke-linejoin:miter;stroke-miterlimit:4;stroke-dasharray:none;stroke-dashoffset:0;stroke-opacity:1"
         id="circle13005"
         cx="460.75095"
         cy="153.25073"
         r="1.6721939" /><g
         transform="matrix(0.43445546,0,0,-0.43445546,321.40502,228.51795)"
         style="fill:none;stroke:#000000;stroke-width:1.80628371;stroke-miterlimit:4;stroke-dasharray:none;stroke-opacity:1"
         id="g13009"><g
           style="fill:none;stroke:#000000;stroke-width:1.80628371;stroke-miterlimit:4;stroke-dasharray:none;stroke-opacity:1"
           clip-path="url(#clipPath20)"
           id="g13011"><path
             sodipodi:nodetypes="ccccccccccccc"
             inkscape:connector-curvature="0"
             id="path13013"
             style="fill:none;stroke:#000000;stroke-width:1.80628371;stroke-linecap:square;stroke-linejoin:round;stroke-miterlimit:4;stroke-dasharray:none;stroke-opacity:1"
             d="m 284.66222,164.36783 2.04019,-4.74396 1.88906,-3.85107 1.73794,-3.0584 1.62459,-2.42167 1.51125,-1.86148 1.39791,-1.37821 1.32234,-0.9945 1.209,-0.64297 1.17122,-0.37839 1.13344,-0.13605 0.0756,-0.001 0,0" /></g></g><g
         id="g13015"
         style="fill:none;stroke:#000000;stroke-width:1.80628371;stroke-miterlimit:4;stroke-dasharray:none;stroke-opacity:1"
         transform="matrix(-0.43445546,0,0,-0.43445546,582.60035,228.51795)"><g
           id="g13017"
           clip-path="url(#clipPath20)"
           style="fill:none;stroke:#000000;stroke-width:1.80628371;stroke-miterlimit:4;stroke-dasharray:none;stroke-opacity:1"><path
             d="m 284.66222,164.36783 2.04019,-4.74396 1.88906,-3.85107 1.73794,-3.0584 1.62459,-2.42167 1.51125,-1.86148 1.39791,-1.37821 1.32234,-0.9945 1.209,-0.64297 1.17122,-0.37839 1.13344,-0.13605 0.0756,-0.001 0,0"
             style="fill:none;stroke:#000000;stroke-width:1.80628371;stroke-linecap:square;stroke-linejoin:round;stroke-miterlimit:4;stroke-dasharray:none;stroke-opacity:1"
             id="path13019"
             inkscape:connector-curvature="0"
             sodipodi:nodetypes="ccccccccccccc" /></g></g><path
         sodipodi:nodetypes="ccc"
         inkscape:connector-curvature="0"
         id="path13063"
         d="m 443.86647,158.73528 1.10819,-1.91945 2.14031,0.66958"
         style="fill:none;fill-rule:evenodd;stroke:#000000;stroke-width:0.78500003;stroke-linecap:butt;stroke-linejoin:miter;stroke-miterlimit:4;stroke-dasharray:none;stroke-opacity:1" /><path
         inkscape:connector-curvature="0"
         id="path13065"
         d="m 277.90319,136.38338 0,14.67079"
         style="fill:none;fill-rule:evenodd;stroke:#000000;stroke-width:1px;stroke-linecap:butt;stroke-linejoin:miter;stroke-opacity:1;marker-end:url(#Arrow1Mend)" /><g
         ns0:preamble="/media/rob/Daten/Masterarbeit/Thesis/inkscape_preamble.tex"
         ns0:text=" \\fontsize{11pt}{1em}\\selectfont $\\vec{g}$"
         word-spacing="normal"
         letter-spacing="normal"
         font-size-adjust="none"
         font-stretch="normal"
         font-weight="normal"
         font-variant="normal"
         font-style="normal"
         stroke-miterlimit="10.433"
         xml:space="preserve"
         transform="matrix(1.25,0,0,-1.25,-18.578613,1032.2675)"
         id="content"
         style="font-style:normal;font-variant:normal;font-weight:normal;font-stretch:normal;letter-spacing:normal;word-spacing:normal;text-anchor:start;fill:none;fill-opacity:1;fill-rule:evenodd;stroke:#000000;stroke-linecap:butt;stroke-linejoin:miter;stroke-miterlimit:10.43299961;stroke-dasharray:none;stroke-dashoffset:0;stroke-opacity:1"><polygon
           id="polygon13260"
           points="229.52,713.7 228.36,715.28 228.04,715.01 228.63,713.92 224.98,713.92 224.88,713.48 228.54,713.48 227.47,712.38 227.68,712.12 "
           style="fill:#000000;stroke-width:0" /><path
           id="path13262"
           d="m 228.59,711.55 -0.67,0 c -0.03,0 -0.08,0.02 -0.17,0.09 -0.3,0.2 -0.66,0.3 -1.07,0.3 l -0.01,-0.24 c 0.4,0 0.61,-0.26 0.61,-0.77 0,-0.39 -0.13,-0.87 -0.34,-1.24 -0.24,-0.45 -0.58,-0.69 -0.95,-0.69 -0.42,0 -0.66,0.31 -0.66,0.82 0,1.01 0.63,1.88 1.34,1.88 l 0,0 0.01,0.24 c -1.22,0 -2.2,-0.84 -2.2,-1.86 0,-0.57 0.24,-0.9 0.86,-1.18 -0.64,-0.44 -0.84,-0.66 -0.84,-0.92 0,-0.14 0.09,-0.28 0.3,-0.43 l 0.25,-0.12 c 0.01,0 0.03,-0.01 0.05,-0.02 0.04,-0.01 0.15,-0.05 0.32,-0.1 1.16,-0.36 1.56,-0.67 1.56,-1.17 0,-0.59 -0.63,-1.03 -1.47,-1.03 -0.88,0 -1.39,0.42 -1.39,1.12 0,0.26 0.07,0.45 0.24,0.66 0.14,0.18 0.6,0.54 0.69,0.54 l 0,0 -0.25,0.12 c -1.08,-0.71 -1.28,-0.93 -1.28,-1.43 0,-0.75 0.72,-1.25 1.82,-1.25 1.38,0 2.3,0.65 2.3,1.6 0,0.69 -0.52,1.17 -1.56,1.44 -0.48,0.12 -0.77,0.3 -0.77,0.46 0,0.16 0.25,0.45 0.4,0.45 0.02,0 0.04,0 0.07,-0.01 0.09,-0.02 0.24,-0.03 0.34,-0.03 1,0 2.02,0.88 2.02,1.73 0,0.18 -0.03,0.4 -0.1,0.61 l 0.55,0 z"
           inkscape:connector-curvature="0"
           style="fill:#000000;stroke-width:0" /></g><path
         style="fill:none;fill-rule:evenodd;stroke:#000000;stroke-width:1px;stroke-linecap:butt;stroke-linejoin:miter;stroke-opacity:1;marker-end:url(#marker13335)"
         d="m 32.652002,191.96475 475.494778,0"
         id="path13333"
         inkscape:connector-curvature="0" /><g
         style="font-style:normal;font-variant:normal;font-weight:normal;font-stretch:normal;letter-spacing:normal;word-spacing:normal;text-anchor:start;fill:none;fill-opacity:1;fill-rule:evenodd;stroke:#000000;stroke-linecap:butt;stroke-linejoin:miter;stroke-miterlimit:10.43299961;stroke-dasharray:none;stroke-dashoffset:0;stroke-opacity:1"
         id="g13425"
         transform="matrix(1.25,0,0,-1.25,237.73928,1080.471)"
         xml:space="preserve"
         stroke-miterlimit="10.433"
         font-style="normal"
         font-variant="normal"
         font-weight="normal"
         font-stretch="normal"
         font-size-adjust="none"
         letter-spacing="normal"
         word-spacing="normal"
         ns0:text=" \\fontsize{11pt}{1em}\\selectfont time"
         ns0:preamble="/media/rob/Daten/Masterarbeit/Thesis/inkscape_preamble.tex"><path
           style="fill:#000000;stroke-width:0"
           inkscape:connector-curvature="0"
           d="m 226.22,712.04 -1.1,0 0,1.27 c 0,0.11 -0.02,0.14 -0.08,0.14 -0.08,-0.1 -0.14,-0.19 -0.22,-0.3 -0.42,-0.61 -0.89,-1.13 -1.06,-1.17 -0.12,-0.08 -0.19,-0.16 -0.19,-0.21 0,-0.03 0.02,-0.06 0.05,-0.08 l 0.58,0 0,-3.29 c 0,-0.91 0.32,-1.38 0.97,-1.38 0.54,0 0.95,0.26 1.31,0.83 l -0.14,0.12 c -0.23,-0.28 -0.42,-0.39 -0.66,-0.39 -0.4,0 -0.56,0.3 -0.56,0.99 l 0,3.12 1.1,0 z"
           id="path13427" /><path
           style="fill:#000000;stroke-width:0"
           inkscape:connector-curvature="0"
           d="m 228.39,712.15 -1.69,-0.6 0,-0.16 0.09,0.01 c 0.13,0.02 0.27,0.03 0.37,0.03 0.26,0 0.36,-0.17 0.36,-0.65 l 0,-2.54 c 0,-0.79 -0.11,-0.91 -0.87,-0.95 l 0,-0.17 2.59,0 0,0.17 c -0.72,0.05 -0.81,0.16 -0.81,0.95 l 0,3.88 z"
           id="path13429" /><path
           style="fill:#000000;stroke-width:0"
           inkscape:connector-curvature="0"
           d="m 227.88,714.59 -0.03,0 -0.03,0 -0.02,-0.01 -0.03,0 -0.03,-0.01 -0.02,-0.01 -0.03,-0.01 -0.02,-0.01 -0.03,-0.01 -0.02,-0.01 -0.02,-0.01 -0.03,-0.02 -0.02,-0.01 -0.02,-0.02 -0.02,-0.02 -0.02,-0.02 -0.01,-0.02 -0.02,-0.02 -0.02,-0.02 -0.01,-0.02 -0.02,-0.02 -0.01,-0.02 -0.01,-0.03 -0.02,-0.02 -0.01,-0.03 0,-0.02 -0.01,-0.03 -0.01,-0.03 0,-0.02 -0.01,-0.03 0,-0.03 0,-0.03 c 0,-0.31 0.24,-0.56 0.55,-0.56 0.31,0 0.57,0.24 0.57,0.56 0,0.31 -0.26,0.56 -0.57,0.56 z"
           id="path13431" /><path
           style="fill:#000000;stroke-width:0"
           inkscape:connector-curvature="0"
           d="m 229.73,711.47 0.02,0.01 0.01,0 0.01,0 0.01,0.01 0.02,0 0.01,0 0.02,0 0.02,0.01 0.02,0 0.03,0.01 0.02,0 0.02,0 0.02,0 0.02,0 0.02,0.01 0.02,0 0.02,0 0.02,0 0.02,0 c 0.29,0 0.38,-0.18 0.38,-0.7 l 0,-2.77 c 0,-0.59 -0.15,-0.75 -0.76,-0.76 l 0,-0.17 2.43,0 0,0.17 c -0.58,0.02 -0.75,0.14 -0.75,0.57 l 0,3.08 c 0,0.02 0.09,0.13 0.17,0.21 0.27,0.25 0.74,0.43 1.12,0.43 0.48,0 0.72,-0.38 0.72,-1.14 l 0,-2.37 c 0,-0.62 -0.12,-0.74 -0.74,-0.78 l 0,-0.17 2.45,0 0,0.17 c -0.62,0.01 -0.79,0.2 -0.79,0.87 l 0,2.76 c 0.33,0.47 0.69,0.66 1.19,0.66 0.62,0 0.82,-0.29 0.82,-1.2 l 0,-2.3 c 0,-0.63 -0.09,-0.72 -0.72,-0.79 l 0,-0.17 2.39,0 0,0.17 -0.28,0.02 c -0.33,0.02 -0.47,0.22 -0.47,0.65 l 0,2.25 c 0,1.29 -0.43,1.94 -1.27,1.94 -0.63,0 -1.19,-0.28 -1.78,-0.92 -0.2,0.63 -0.57,0.92 -1.16,0.92 -0.48,0 -0.78,-0.15 -1.69,-0.84 l 0,0.82 -0.08,0.02 c -0.55,-0.21 -0.93,-0.33 -1.53,-0.49 z"
           id="path13433" /><path
           style="fill:#000000;stroke-width:0"
           inkscape:connector-curvature="0"
           d="m 242.51,708.92 -0.05,-0.08 -0.05,-0.07 -0.05,-0.07 -0.05,-0.07 -0.04,-0.07 -0.05,-0.06 -0.05,-0.06 -0.05,-0.05 -0.05,-0.06 -0.05,-0.05 -0.04,-0.05 -0.05,-0.04 -0.05,-0.04 -0.05,-0.04 -0.05,-0.04 -0.05,-0.04 -0.05,-0.03 -0.05,-0.03 -0.06,-0.03 -0.05,-0.03 -0.05,-0.02 -0.06,-0.02 -0.05,-0.02 -0.06,-0.02 -0.06,-0.01 -0.05,-0.02 -0.06,-0.01 -0.06,0 -0.06,-0.01 -0.07,-0.01 -0.06,0 -0.06,0 c -0.63,0 -1.1,0.32 -1.41,0.94 -0.2,0.41 -0.28,0.77 -0.3,1.44 l 0.02,0.35 c 0.12,0.85 0.49,1.26 1.16,1.26 0.67,0 0.93,-0.31 1.07,-1.26 l -2.23,0 -0.02,-0.35 3.37,0 c -0.09,0.71 -0.2,1.03 -0.47,1.38 -0.33,0.39 -0.83,0.62 -1.4,0.62 -0.55,0 -1.06,-0.19 -1.48,-0.57 -0.51,-0.44 -0.81,-1.22 -0.81,-2.12 0,-1.5 0.79,-2.44 2.05,-2.44 1.04,0 1.86,0.64 2.31,1.82 z"
           id="path13435" /></g></g></g></svg>