<?xml version="1.0" encoding="UTF-8" standalone="no"?>
<!-- Created with Inkscape (http://www.inkscape.org/) -->

<svg
   xmlns:dc="http://purl.org/dc/elements/1.1/"
   xmlns:cc="http://creativecommons.org/ns#"
   xmlns:rdf="http://www.w3.org/1999/02/22-rdf-syntax-ns#"
   xmlns:svg="http://www.w3.org/2000/svg"
   xmlns="http://www.w3.org/2000/svg"
   xmlns:sodipodi="http://sodipodi.sourceforge.net/DTD/sodipodi-0.dtd"
   xmlns:inkscape="http://www.inkscape.org/namespaces/inkscape"
   id="svg4181"
   version="1.1"
   inkscape:version="0.91 r"
   xml:space="preserve"
   width="564.48248"
   height="562.5"
   viewBox="0 0 564.48248 562.5"
   sodipodi:docname="erbium_term_scheme.svg"><sodipodi:namedview
     pagecolor="#ffffff"
     bordercolor="#666666"
     borderopacity="1"
     objecttolerance="10"
     gridtolerance="10"
     guidetolerance="10"
     inkscape:pageopacity="0"
     inkscape:pageshadow="2"
     inkscape:window-width="1920"
     inkscape:window-height="1025"
     id="namedview4183"
     showgrid="false"
     inkscape:zoom="1.5377778"
     inkscape:cx="282.24124"
     inkscape:cy="281.25"
     inkscape:window-x="-2"
     inkscape:window-y="-3"
     inkscape:window-maximized="1"
     inkscape:current-layer="g4189" /><metadata
     id="metadata4187"><rdf:RDF><cc:Work
         rdf:about=""><dc:format>image/svg+xml</dc:format><dc:type
           rdf:resource="http://purl.org/dc/dcmitype/StillImage" /><dc:title></dc:title></cc:Work></rdf:RDF></metadata><defs
     id="defs4185" /><g
     id="g4189"
     inkscape:groupmode="layer"
     inkscape:label="erbium_term_scheme"
     transform="matrix(1.25,0,0,-1.25,0,562.5)"><path
       inkscape:connector-curvature="0"
       id="path4193"
       style="fill:#000000;fill-opacity:1;fill-rule:evenodd;stroke:none"
       d="m 9.336,209.453 0,-0.308 c 1.18,-0.551 1.437,-1.024 1.437,-2.583 l 0,-0.289 c 0,-0.539 -0.046,-1 -0.128,-1.07 -0.028,-0.058 -0.149,-0.082 -0.34,-0.082 l -2.7,0 0,1.684 c 0,0.898 0.141,1.058 1.051,1.199 l 0,0.25 -2.531,0 0,-0.25 c 0.441,-0.07 0.609,-0.121 0.762,-0.242 0.187,-0.141 0.269,-0.45 0.269,-0.957 l 0,-1.684 -2.422,0 c -0.308,0 -0.367,0.063 -0.367,0.363 l 0,1.469 c 0,1.238 0.156,1.481 1.137,1.66 l 0,0.282 -1.559,-0.032 0,-5.808 0.211,0 c 0.059,0.808 0.219,0.949 0.981,0.949 l 4.847,0 c 0.77,0 0.93,-0.152 0.993,-0.949 l 0.207,0 0,5.898 -1.848,0.5 z" /><path
       inkscape:connector-curvature="0"
       id="path4195"
       style="fill:#000000;fill-opacity:1;fill-rule:evenodd;stroke:none"
       d="m 6.836,209.793 -0.012,0.012 0,0.007 -0.008,0.012 0,0.028 -0.011,0.011 0,0.02 -0.008,0.019 0,0.082 -0.012,0.02 0,0.09 c 0,0.301 0.172,0.398 0.699,0.398 l 2.711,0 c 0.621,0 0.782,-0.121 0.821,-0.68 l 0.168,0 0,2.321 -0.168,0 c -0.039,-0.559 -0.172,-0.719 -0.571,-0.719 l -3.07,0 c -0.488,0.52 -0.621,0.758 -0.621,1.117 0,0.543 0.34,0.801 1.062,0.801 l 2.278,0 c 0.691,0 0.883,-0.141 0.922,-0.687 l 0.168,0 0,2.277 -0.168,0 c -0.051,-0.539 -0.18,-0.668 -0.719,-0.668 l -2.5,0 c -1.031,0 -1.641,-0.481 -1.641,-1.289 0,-0.5 0.18,-0.844 0.879,-1.582 l -0.859,0 -0.02,-0.078 c 0.188,-0.543 0.309,-0.91 0.489,-1.512 l 0.191,0 z" /><path
       inkscape:connector-curvature="0"
       id="path4197"
       style="fill:#000000;fill-opacity:1;fill-rule:evenodd;stroke:none"
       d="m 9.387,219.562 0.078,-0.05 0.07,-0.047 0.211,-0.153 0.059,-0.05 0.062,-0.039 0.047,-0.051 0.063,-0.051 0.097,-0.098 0.043,-0.05 0.078,-0.102 0.039,-0.047 0.039,-0.051 0.094,-0.152 0.028,-0.047 0.019,-0.062 0.02,-0.047 0.023,-0.063 0.02,-0.05 0.007,-0.059 0.02,-0.059 0.012,-0.062 0,-0.059 0.007,-0.058 0.012,-0.063 0,-0.129 c 0,-0.621 -0.32,-1.09 -0.941,-1.41 -0.41,-0.191 -0.77,-0.269 -1.438,-0.289 l -0.351,0.02 c -0.848,0.121 -1.258,0.488 -1.258,1.16 0,0.66 0.308,0.929 1.258,1.07 l 0,-2.23 0.351,-0.02 0,3.359 c -0.711,-0.082 -1.031,-0.191 -1.383,-0.468 -0.386,-0.321 -0.617,-0.832 -0.617,-1.403 0,-0.539 0.188,-1.058 0.571,-1.468 0.437,-0.512 1.218,-0.813 2.117,-0.813 1.5,0 2.441,0.793 2.441,2.043 0,1.039 -0.64,1.859 -1.82,2.32 l -0.078,-0.172 z" /><path
       inkscape:connector-curvature="0"
       id="path4199"
       style="fill:#000000;fill-opacity:1;fill-rule:evenodd;stroke:none"
       d="m 6.914,220.043 0,0.031 -0.008,0.008 0,0.039 -0.011,0.031 0,0.039 -0.008,0.032 0,0.058 -0.012,0.031 0,0.11 c 0,0.281 0.172,0.371 0.648,0.371 l 2.743,0 c 0.539,0 0.621,-0.07 0.75,-0.77 l 0.168,0 0,2.622 -0.168,0 c -0.032,-0.743 -0.2,-0.93 -0.821,-0.93 l -2.461,0 c -0.347,0 -0.89,0.469 -0.89,0.769 0,0.059 0.051,0.161 0.16,0.278 0.152,0.179 0.223,0.3 0.223,0.441 0,0.262 -0.192,0.418 -0.493,0.418 -0.359,0 -0.578,-0.226 -0.578,-0.598 0,-0.461 0.25,-0.769 1.028,-1.308 l -1.008,0 -0.02,-0.051 c 0.239,-0.582 0.379,-0.98 0.59,-1.621 l 0.168,0 z" /><path
       inkscape:connector-curvature="0"
       id="path4201"
       style="fill:#000000;fill-opacity:1;fill-rule:evenodd;stroke:none"
       d="m 6.945,228.555 -0.429,0 0,-0.84 c 0,-0.223 -0.032,-0.383 -0.11,-0.602 l -0.09,-0.242 c -0.109,-0.297 -0.16,-0.59 -0.16,-0.879 0,-1.008 0.789,-1.82 1.778,-1.82 0.691,0 1.101,0.293 1.461,1.019 0.199,-0.207 0.39,-0.41 0.441,-0.468 0.32,-0.36 0.539,-0.508 0.75,-0.508 0.23,0 0.371,0.129 0.578,0.578 l 0.043,0.23 c 0.066,0.36 0.137,1.239 0.137,1.77 0,1 0.14,1.359 0.531,1.359 0.641,0 1.059,-0.828 1.059,-2.07 0,-0.961 -0.309,-1.59 -0.789,-1.59 -0.25,0 -0.399,0.07 -0.938,0.531 l -0.043,-0.23 c 0.57,-0.77 0.93,-1.07 1.34,-1.07 0.582,0 1.062,0.851 1.062,1.89 0,0.821 -0.293,1.668 -0.75,2.239 -0.339,0.421 -0.679,0.601 -1.101,0.601 -0.68,0 -1.141,-0.512 -1.168,-1.32 l -0.063,-1.41 c -0.027,-0.578 -0.117,-0.852 -0.3,-0.852 -0.219,0 -0.598,0.363 -0.688,0.652 0.008,0.098 0.02,0.18 0.02,0.211 0.031,0.207 0.039,0.348 0.039,0.418 l -0.282,0.039 c 0,-0.66 -0.707,-1.109 -1.757,-1.109 l -0.032,0 c -0.64,0 -1.027,0.301 -1.027,0.813 0,0.328 0.188,0.617 0.52,0.789 0.378,0.199 0.878,0.328 1.308,0.328 0.61,0 0.988,-0.321 0.988,-0.821 l 0.282,-0.039 c 0,0.403 -0.168,0.84 -0.461,1.18 -0.309,0.359 -0.688,0.52 -1.239,0.52 -0.308,0 -0.57,-0.047 -0.91,-0.207 l 0,0.91 z" /><path
       inkscape:connector-curvature="0"
       id="path4203"
       style="fill:#000000;fill-opacity:1;fill-rule:evenodd;stroke:none"
       d="m 6.266,234.094 0,-1.481 0.16,0 c 0,0.352 0.097,0.52 0.281,0.52 0.039,0 0.098,-0.012 0.18,-0.039 l 3.019,-1.063 -2.769,-1.258 c -0.153,-0.058 -0.293,-0.101 -0.41,-0.101 -0.204,0 -0.282,0.16 -0.301,0.633 l -0.16,0 0,-2.25 0.148,0 c 0.043,0.277 0.172,0.468 0.352,0.558 l 2.691,1.239 0.09,0.031 0.32,0.172 c 0.547,0.297 0.938,0.476 1.11,0.476 0.16,0 0.847,-0.25 1.179,-0.437 0.278,-0.153 0.489,-0.391 0.489,-0.551 0,-0.059 -0.02,-0.16 -0.079,-0.27 -0.07,-0.211 -0.121,-0.39 -0.121,-0.582 0,-0.25 0.219,-0.468 0.481,-0.468 0.359,0 0.64,0.351 0.64,0.808 0,0.731 -0.609,1.262 -2.191,1.852 l -4.461,1.679 c -0.348,0.141 -0.457,0.262 -0.488,0.532 l -0.16,0 z" /><path
       inkscape:connector-curvature="0"
       id="path4205"
       style="fill:#000000;fill-opacity:1;fill-rule:evenodd;stroke:none"
       d="m 12.934,237.305 -9.161,2.886 0,-0.558 9.161,-2.899 0,0.571 z" /><path
       inkscape:connector-curvature="0"
       id="path4207"
       style="fill:#000000;fill-opacity:1;fill-rule:evenodd;stroke:none"
       d="m 3.797,243.293 0.988,-1.969 0.16,0 c -0.058,0.129 -0.101,0.25 -0.121,0.289 -0.078,0.199 -0.117,0.391 -0.117,0.5 0,0.231 0.16,0.321 0.508,0.321 l 4.949,0 c 0.359,0 0.609,-0.082 0.711,-0.262 0.102,-0.16 0.129,-0.32 0.141,-0.777 l 0.168,0 0,3.019 -0.168,0 c -0.012,-0.859 -0.121,-1.043 -0.641,-1.043 l -6.559,0 -0.019,-0.078 z" /><path
       inkscape:connector-curvature="0"
       id="path4209"
       style="fill:#000000;fill-opacity:1;fill-rule:evenodd;stroke:none"
       d="m 3.797,248.363 0,-0.16 0.008,-0.058 0,-0.051 0.011,-0.051 0,-0.051 0.008,-0.051 0.012,-0.046 0.008,-0.051 0.011,-0.051 0.02,-0.051 0.012,-0.051 0.019,-0.039 0.008,-0.05 0.02,-0.04 0.023,-0.05 0.02,-0.039 0.019,-0.051 0.039,-0.078 0.031,-0.051 0.02,-0.039 0.031,-0.039 0.02,-0.043 0.027,-0.039 0.063,-0.078 0.027,-0.043 0.043,-0.039 0.027,-0.032 0.043,-0.039 c 0.61,-0.64 1.86,-1.05 3.137,-1.05 1.203,0 2.473,0.363 3.082,0.871 0.488,0.41 0.75,0.961 0.75,1.601 l -0.289,0 c 0,-0.941 -1.16,-1.422 -3.442,-1.422 -2.32,0 -3.531,0.493 -3.531,1.43 0,0.922 1.242,1.41 3.52,1.41 2.293,0 3.453,-0.48 3.453,-1.418 l 0.289,0 c 0,0.559 -0.191,1.02 -0.57,1.418 -0.602,0.629 -1.871,1.051 -3.192,1.051 -2.238,0 -3.777,-1 -3.777,-2.43 z" /><path
       inkscape:connector-curvature="0"
       id="path4211"
       style="fill:#000000;fill-opacity:1;fill-rule:evenodd;stroke:none"
       d="m 3.797,253.844 0,-0.172 0.008,-0.051 0,-0.047 0.011,-0.051 0,-0.05 0.008,-0.059 0.012,-0.051 0.008,-0.039 0.011,-0.051 0.02,-0.05 0.012,-0.051 0.019,-0.039 0.008,-0.051 0.02,-0.051 0.023,-0.039 0.02,-0.039 0.019,-0.051 0.039,-0.078 0.031,-0.051 0.02,-0.039 0.031,-0.043 0.02,-0.039 0.027,-0.039 0.031,-0.039 0.032,-0.043 0.027,-0.039 0.043,-0.039 0.027,-0.039 0.043,-0.031 c 0.61,-0.641 1.86,-1.051 3.137,-1.051 1.203,0 2.473,0.359 3.082,0.871 0.488,0.41 0.75,0.961 0.75,1.602 l -0.289,0 c 0,-0.942 -1.16,-1.422 -3.442,-1.422 -2.32,0 -3.531,0.488 -3.531,1.429 0,0.911 1.242,1.411 3.52,1.411 2.293,0 3.453,-0.481 3.453,-1.418 l 0.289,0 c 0,0.547 -0.191,1.019 -0.57,1.418 -0.602,0.629 -1.871,1.05 -3.192,1.05 -2.238,0 -3.777,-1 -3.777,-2.429 z" /><path
       inkscape:connector-curvature="0"
       id="path4213"
       style="fill:#000000;fill-opacity:1;fill-rule:evenodd;stroke:none"
       d="m 3.797,259.324 0,-0.172 0.008,-0.05 0,-0.047 0.011,-0.051 0,-0.051 0.008,-0.058 0.012,-0.051 0.008,-0.039 0.011,-0.051 0.02,-0.051 0.012,-0.051 0.019,-0.039 0.008,-0.051 0.02,-0.05 0.023,-0.039 0.02,-0.039 0.019,-0.051 0.039,-0.078 0.031,-0.051 0.02,-0.039 0.031,-0.043 0.02,-0.039 0.027,-0.039 0.031,-0.039 0.032,-0.043 0.027,-0.039 0.043,-0.039 0.027,-0.039 0.043,-0.032 c 0.61,-0.64 1.86,-1.051 3.137,-1.051 1.203,0 2.473,0.36 3.082,0.872 0.488,0.41 0.75,0.961 0.75,1.597 l -0.289,0 c 0,-0.937 -1.16,-1.418 -3.442,-1.418 -2.32,0 -3.531,0.489 -3.531,1.43 0,0.91 1.242,1.41 3.52,1.41 2.293,0 3.453,-0.48 3.453,-1.422 l 0.289,0 c 0,0.551 -0.191,1.024 -0.57,1.422 -0.602,0.629 -1.871,1.051 -3.192,1.051 -2.238,0 -3.777,-1 -3.777,-2.43 z" /><path
       inkscape:connector-curvature="0"
       id="path4215"
       style="fill:#000000;fill-opacity:1;fill-rule:evenodd;stroke:none"
       d="m 9.477,268.203 0.07,-0.051 0.07,-0.039 0.117,-0.101 0.063,-0.039 0.058,-0.051 0.051,-0.051 0.051,-0.039 0.047,-0.051 0.051,-0.039 0.039,-0.051 0.043,-0.039 0.039,-0.05 0.039,-0.04 0.031,-0.05 0.027,-0.039 0.032,-0.051 0.031,-0.039 0.039,-0.102 0.031,-0.039 0.008,-0.051 0.02,-0.046 0.011,-0.051 0.02,-0.051 0.012,-0.051 0.007,-0.051 0.012,-0.046 0,-0.114 0.008,-0.058 0,-0.059 c 0,-0.992 -0.879,-1.691 -2.129,-1.691 -1.129,0 -1.91,0.601 -1.91,1.48 0,0.399 0.129,0.539 0.531,0.649 l 0.238,0.062 c 0.313,0.09 0.5,0.289 0.5,0.52 0,0.281 -0.211,0.519 -0.461,0.519 -0.609,0 -1.117,-0.762 -1.117,-1.68 0,-0.539 0.219,-1.089 0.61,-1.539 0.48,-0.55 1.218,-0.851 2.089,-0.851 1.418,0 2.43,0.859 2.43,2.07 0,0.488 -0.168,0.93 -0.512,1.328 -0.257,0.293 -0.558,0.5 -1.199,0.832 l -0.097,-0.16 z" /><path
       inkscape:connector-curvature="0"
       id="path4217"
       style="fill:#000000;fill-opacity:1;fill-rule:evenodd;stroke:none"
       d="m 6.836,268.934 -0.012,0.007 0,0.032 -0.008,0.011 0,0.039 -0.011,0.032 0,0.019 -0.008,0.02 0,0.078 -0.012,0.019 0,0.09 c 0,0.281 0.18,0.383 0.699,0.383 l 2.77,0 c 0.59,0 0.75,-0.152 0.762,-0.769 l 0.168,0 0,2.429 -0.168,0 c -0.02,-0.582 -0.141,-0.742 -0.571,-0.742 l -3.078,0 c -0.023,0 -0.133,0.082 -0.211,0.16 -0.25,0.27 -0.429,0.742 -0.429,1.129 0,0.481 0.378,0.723 1.14,0.723 l 2.367,0 c 0.621,0 0.743,-0.121 0.782,-0.742 l 0.168,0 0,2.441 -0.168,0 c -0.012,-0.621 -0.2,-0.781 -0.871,-0.781 l -2.758,0 c -0.473,0.32 -0.66,0.679 -0.66,1.191 0,0.621 0.289,0.82 1.199,0.82 l 2.301,0 c 0.628,0 0.718,-0.089 0.789,-0.73 l 0.168,0 0,2.398 -0.168,0 -0.02,-0.289 c -0.019,-0.32 -0.223,-0.468 -0.652,-0.468 l -2.25,0 c -1.289,0 -1.938,-0.422 -1.938,-1.262 0,-0.641 0.278,-1.188 0.918,-1.777 -0.629,-0.204 -0.918,-0.571 -0.918,-1.161 0,-0.48 0.149,-0.793 0.84,-1.703 l -0.82,0 -0.02,-0.066 c 0.211,-0.563 0.328,-0.934 0.489,-1.531 l 0.191,0 z" /><path
       inkscape:connector-curvature="0"
       id="path4219"
       style="fill:#000000;fill-opacity:1;fill-rule:evenodd;stroke:none"
       d="m 5.023,281.633 0.434,0 0,-3.91 -0.434,0 0,3.91 z" /><path
       inkscape:connector-curvature="0"
       id="path4221"
       style="fill:#000000;fill-opacity:1;fill-rule:evenodd;stroke:none"
       d="m 2.035,284.352 0.699,-1.379 0.102,0 c -0.031,0.089 -0.063,0.179 -0.082,0.211 -0.047,0.14 -0.078,0.257 -0.078,0.339 0,0.161 0.109,0.231 0.347,0.231 l 3.473,0 c 0.25,0 0.418,-0.063 0.488,-0.18 0.071,-0.121 0.102,-0.222 0.102,-0.551 l 0.121,0 0,2.122 -0.121,0 c 0,-0.614 -0.082,-0.731 -0.449,-0.731 l -4.582,0 -0.02,-0.062 z" /><path
       inkscape:connector-curvature="0"
       id="path4223"
       style="fill:#000000;fill-opacity:1;fill-rule:evenodd;stroke:none"
       d="m 29.094,53.398 -0.172,0 -0.051,-0.007 -0.047,0 -0.062,-0.012 -0.047,0 -0.051,-0.012 -0.051,-0.008 -0.051,-0.011 -0.05,-0.008 -0.039,-0.02 -0.051,-0.011 -0.051,-0.02 -0.039,-0.012 -0.051,-0.019 -0.039,-0.02 L 28.191,53.219 28.113,53.18 28.062,53.16 28.023,53.129 27.984,53.109 27.941,53.078 27.902,53.059 27.863,53.027 27.824,53 27.781,52.969 27.742,52.938 27.703,52.898 27.664,52.867 27.621,52.828 c -0.629,-0.609 -1.047,-1.859 -1.047,-3.14 0,-1.2 0.36,-2.469 0.879,-3.079 0.399,-0.492 0.961,-0.75 1.59,-0.75 l 0,0.289 c -0.941,0 -1.422,1.161 -1.422,3.442 0,2.32 0.5,3.527 1.441,3.527 0.911,0 1.403,-1.238 1.403,-3.519 0,-2.289 -0.481,-3.45 -1.422,-3.45 l 0,-0.289 c 0.559,0 1.031,0.192 1.422,0.571 0.637,0.597 1.047,1.871 1.047,3.187 0,2.242 -0.989,3.781 -2.418,3.781 z" /><path
       inkscape:connector-curvature="0"
       id="path4225"
       style="fill:#000000;fill-opacity:1;fill-rule:evenodd;stroke:none"
       d="m 26.477,282.098 -1.957,-0.989 0,-0.16 c 0.128,0.059 0.25,0.098 0.289,0.117 0.199,0.082 0.379,0.122 0.488,0.122 0.23,0 0.332,-0.161 0.332,-0.512 l 0,-4.949 c 0,-0.36 -0.09,-0.61 -0.262,-0.711 -0.168,-0.098 -0.32,-0.129 -0.777,-0.137 l 0,-0.172 3.019,0 0,0.172 c -0.871,0.008 -1.043,0.117 -1.043,0.637 l 0,6.562 -0.089,0.02 z" /><path
       inkscape:connector-curvature="0"
       id="path4227"
       style="fill:#000000;fill-opacity:1;fill-rule:evenodd;stroke:none"
       d="m 30.758,281.086 2.14,0 c 0.18,0 0.219,0.023 0.25,0.09 l 0.418,0.98 -0.097,0.071 c -0.172,-0.231 -0.27,-0.278 -0.5,-0.278 l -2.289,0 -1.192,-2.59 c -0.011,-0.023 -0.011,-0.031 -0.011,-0.062 0,-0.051 0.043,-0.078 0.132,-0.078 0.348,0 0.789,-0.082 1.239,-0.223 1.25,-0.41 1.832,-1.078 1.832,-2.168 0,-1.039 -0.66,-1.859 -1.524,-1.859 -0.218,0 -0.398,0.07 -0.726,0.308 -0.352,0.25 -0.602,0.36 -0.832,0.36 -0.321,0 -0.469,-0.129 -0.469,-0.399 0,-0.422 0.508,-0.679 1.328,-0.679 0.922,0 1.711,0.3 2.262,0.847 0.5,0.5 0.73,1.121 0.73,1.953 0,0.789 -0.211,1.289 -0.761,1.829 -0.481,0.488 -1.098,0.738 -2.391,0.968 l 0.461,0.93 z" /><path
       inkscape:connector-curvature="0"
       id="path4229"
       style="fill:#000000;fill-opacity:1;fill-rule:evenodd;stroke:none"
       d="m 28.727,352.527 -0.137,0.059 c -0.402,-0.629 -0.551,-0.719 -1.043,-0.719 l -2.609,0 1.839,1.918 c 0.969,1.024 1.403,1.844 1.403,2.703 0,1.09 -0.891,1.93 -2.032,1.93 -0.601,0 -1.171,-0.242 -1.57,-0.68 -0.351,-0.371 -0.512,-0.722 -0.699,-1.492 l 0.23,-0.058 c 0.438,1.07 0.829,1.417 1.59,1.417 0.91,0 1.528,-0.617 1.528,-1.539 0,-0.847 -0.5,-1.871 -1.411,-2.839 l -1.949,-2.059 0,-0.141 4.262,0 0.598,1.5 z" /><path
       inkscape:connector-curvature="0"
       id="path4231"
       style="fill:#000000;fill-opacity:1;fill-rule:evenodd;stroke:none"
       d="m 31.797,358.418 -0.168,0 -0.051,-0.012 -0.051,0 -0.058,-0.008 -0.051,0 -0.051,-0.011 -0.051,-0.008 -0.046,-0.012 -0.051,-0.012 -0.039,-0.019 -0.051,-0.008 -0.051,-0.019 -0.039,-0.012 -0.051,-0.02 -0.039,-0.019 -0.051,-0.02 -0.039,-0.019 -0.043,-0.024 -0.046,-0.019 -0.043,-0.028 -0.039,-0.019 -0.04,-0.031 -0.039,-0.02 -0.043,-0.031 -0.039,-0.031 -0.039,-0.028 -0.039,-0.031 -0.043,-0.039 -0.039,-0.031 -0.039,-0.039 c -0.629,-0.61 -1.051,-1.86 -1.051,-3.141 0,-1.199 0.36,-2.469 0.879,-3.078 0.403,-0.492 0.961,-0.75 1.59,-0.75 l 0,0.289 c -0.937,0 -1.418,1.16 -1.418,3.437 0,2.321 0.488,3.532 1.43,3.532 0.922,0 1.41,-1.239 1.41,-3.52 0,-2.289 -0.48,-3.449 -1.422,-3.449 l 0,-0.289 c 0.563,0 1.031,0.187 1.422,0.566 0.641,0.602 1.051,1.871 1.051,3.192 0,2.242 -0.992,3.781 -2.422,3.781 z" /><path
       inkscape:connector-curvature="0"
       id="path4233"
       style="fill:#000000;fill-opacity:1;fill-rule:evenodd;stroke:none"
       d="m 28.934,428.715 -0.141,0.062 c -0.398,-0.632 -0.551,-0.722 -1.039,-0.722 l -2.609,0 1.839,1.922 c 0.969,1.019 1.399,1.839 1.399,2.699 0,1.09 -0.891,1.929 -2.031,1.929 -0.598,0 -1.168,-0.238 -1.571,-0.679 -0.347,-0.371 -0.508,-0.719 -0.699,-1.488 l 0.23,-0.063 c 0.442,1.07 0.833,1.422 1.59,1.422 0.91,0 1.532,-0.621 1.532,-1.539 0,-0.852 -0.5,-1.871 -1.411,-2.84 l -1.949,-2.063 0,-0.14 4.258,0 0.602,1.5 z" /><path
       inkscape:connector-curvature="0"
       id="path4235"
       style="fill:#000000;fill-opacity:1;fill-rule:evenodd;stroke:none"
       d="m 31.203,433.598 2.141,0 c 0.179,0 0.218,0.019 0.25,0.09 l 0.418,0.98 -0.098,0.07 c -0.172,-0.23 -0.269,-0.281 -0.5,-0.281 l -2.293,0 -1.187,-2.59 c -0.012,-0.019 -0.012,-0.031 -0.012,-0.062 0,-0.047 0.043,-0.078 0.133,-0.078 0.347,0 0.789,-0.082 1.238,-0.219 1.25,-0.41 1.828,-1.082 1.828,-2.172 0,-1.039 -0.656,-1.859 -1.519,-1.859 -0.219,0 -0.399,0.07 -0.731,0.308 -0.348,0.25 -0.598,0.36 -0.828,0.36 -0.32,0 -0.469,-0.129 -0.469,-0.399 0,-0.418 0.508,-0.68 1.328,-0.68 0.922,0 1.711,0.301 2.262,0.852 0.5,0.5 0.731,1.117 0.731,1.949 0,0.789 -0.211,1.289 -0.762,1.828 -0.481,0.493 -1.102,0.743 -2.391,0.973 l 0.461,0.93 z" /><path
       inkscape:connector-curvature="0"
       id="path4237"
       style="fill:#000000;fill-opacity:1;fill-rule:evenodd;stroke:none"
       d="m 28.453,128.578 2.141,0 c 0.179,0 0.218,0.02 0.25,0.09 l 0.418,0.98 -0.098,0.071 c -0.16,-0.231 -0.269,-0.281 -0.5,-0.281 l -2.293,0 -1.187,-2.59 c -0.012,-0.02 -0.012,-0.028 -0.012,-0.059 0,-0.051 0.051,-0.082 0.133,-0.082 0.347,0 0.789,-0.078 1.238,-0.219 1.25,-0.41 1.828,-1.078 1.828,-2.168 0,-1.043 -0.656,-1.863 -1.519,-1.863 -0.207,0 -0.399,0.07 -0.731,0.313 -0.348,0.25 -0.598,0.359 -0.828,0.359 -0.32,0 -0.469,-0.129 -0.469,-0.399 0,-0.421 0.508,-0.683 1.34,-0.683 0.91,0 1.699,0.301 2.25,0.851 0.5,0.5 0.731,1.122 0.731,1.95 0,0.789 -0.211,1.289 -0.762,1.832 -0.481,0.488 -1.102,0.738 -2.391,0.968 l 0.461,0.93 z" /><path
       inkscape:connector-curvature="0"
       id="path4239"
       style="fill:#000000;fill-opacity:1;fill-rule:evenodd;stroke:none"
       d="m 26.273,205.906 -1.961,-0.988 0,-0.16 c 0.129,0.058 0.25,0.101 0.29,0.121 0.203,0.078 0.382,0.117 0.492,0.117 0.23,0 0.328,-0.156 0.328,-0.508 l 0,-4.949 c 0,-0.359 -0.09,-0.609 -0.258,-0.711 -0.172,-0.101 -0.32,-0.129 -0.781,-0.14 l 0,-0.168 3.019,0 0,0.168 c -0.871,0.011 -1.039,0.121 -1.039,0.64 l 0,6.559 -0.09,0.019 z" /><path
       inkscape:connector-curvature="0"
       id="path4241"
       style="fill:#000000;fill-opacity:1;fill-rule:evenodd;stroke:none"
       d="m 31.352,205.906 -0.168,0 -0.051,-0.008 -0.051,0 -0.059,-0.011 -0.05,0 -0.051,-0.008 -0.051,-0.012 -0.047,-0.008 -0.051,-0.011 -0.039,-0.02 -0.05,-0.012 -0.051,-0.019 -0.039,-0.008 -0.051,-0.019 -0.039,-0.024 -0.051,-0.019 -0.039,-0.02 -0.043,-0.019 -0.047,-0.02 -0.043,-0.031 -0.039,-0.02 -0.039,-0.027 -0.039,-0.024 -0.043,-0.027 -0.078,-0.062 -0.039,-0.028 -0.039,-0.043 -0.043,-0.027 -0.039,-0.039 c -0.629,-0.613 -1.051,-1.863 -1.051,-3.141 0,-1.203 0.359,-2.472 0.883,-3.082 0.398,-0.488 0.957,-0.75 1.59,-0.75 l 0,0.289 c -0.942,0 -1.422,1.16 -1.422,3.442 0,2.32 0.488,3.531 1.429,3.531 0.922,0 1.411,-1.242 1.411,-3.52 0,-2.293 -0.481,-3.453 -1.418,-3.453 l 0,-0.289 c 0.558,0 1.027,0.192 1.418,0.571 0.64,0.601 1.05,1.871 1.05,3.191 0,2.238 -0.992,3.777 -2.421,3.777 z" /><path
       inkscape:connector-curvature="0"
       id="path4243"
       style="fill:#000000;fill-opacity:1;fill-rule:evenodd;stroke:none"
       d="m 183.41,4.062 -0.051,-0.078 -0.047,-0.07 -0.05,-0.07 -0.043,-0.071 -0.047,-0.07 -0.102,-0.117 -0.05,-0.051 -0.051,-0.062 -0.039,-0.047 -0.051,-0.051 -0.047,-0.039 -0.051,-0.043 -0.152,-0.117 -0.047,-0.031 -0.051,-0.032 -0.062,-0.027 -0.047,-0.031 -0.051,-0.02 -0.059,-0.019 -0.05,-0.024 -0.063,-0.019 -0.047,-0.008 -0.062,-0.02 -0.059,-0.011 -0.062,0 -0.059,-0.008 -0.058,-0.012 -0.133,0 c -0.629,0 -1.098,0.32 -1.407,0.941 -0.203,0.411 -0.281,0.77 -0.3,1.438 l 0.019,0.352 c 0.121,0.847 0.5,1.257 1.16,1.257 0.668,0 0.93,-0.308 1.071,-1.257 l -2.231,0 -0.019,-0.352 3.367,0 c -0.09,0.711 -0.199,1.031 -0.469,1.383 -0.328,0.386 -0.828,0.617 -1.398,0.617 -0.551,0 -1.063,-0.188 -1.481,-0.57 -0.511,-0.438 -0.801,-1.219 -0.801,-2.118 0,-1.5 0.782,-2.441 2.04,-2.441 1.042,0 1.859,0.641 2.32,1.82 l -0.18,0.078 z" /><path
       inkscape:connector-curvature="0"
       id="path4245"
       style="fill:#000000;fill-opacity:1;fill-rule:evenodd;stroke:none"
       d="m 184.031,9.074 0.059,0 c 0.121,0.012 0.25,0.031 0.34,0.031 0.351,0 0.461,-0.16 0.461,-0.671 l 0,-5.211 c 0,-0.59 -0.149,-0.739 -0.84,-0.789 l 0,-0.168 2.578,0 0,0.168 c -0.688,0.039 -0.817,0.152 -0.817,0.75 l 0,6.531 -0.05,0.019 c -0.563,-0.191 -0.981,-0.3 -1.731,-0.48 l 0,-0.18 z" /><path
       inkscape:connector-curvature="0"
       id="path4247"
       style="fill:#000000;fill-opacity:1;fill-rule:evenodd;stroke:none"
       d="m 191.32,4.062 -0.05,-0.078 -0.04,-0.07 -0.101,-0.141 -0.047,-0.07 -0.102,-0.117 -0.039,-0.051 -0.05,-0.062 -0.051,-0.047 -0.051,-0.051 -0.047,-0.039 -0.051,-0.043 -0.152,-0.117 -0.047,-0.031 -0.051,-0.032 -0.05,-0.027 -0.059,-0.031 -0.102,-0.039 -0.058,-0.024 -0.063,-0.019 -0.047,-0.008 -0.062,-0.02 -0.059,-0.011 -0.062,0 -0.059,-0.008 -0.058,-0.012 -0.133,0 c -0.617,0 -1.09,0.32 -1.41,0.941 -0.199,0.411 -0.27,0.77 -0.297,1.438 l 0.027,0.352 c 0.121,0.847 0.492,1.257 1.153,1.257 0.668,0 0.929,-0.308 1.07,-1.257 l -2.223,0 -0.027,-0.352 3.367,0 c -0.09,0.711 -0.199,1.031 -0.469,1.383 -0.328,0.386 -0.828,0.617 -1.398,0.617 -0.551,0 -1.063,-0.188 -1.473,-0.57 -0.519,-0.438 -0.808,-1.219 -0.808,-2.118 0,-1.5 0.781,-2.441 2.039,-2.441 1.039,0 1.859,0.641 2.32,1.82 l -0.18,0.078 z" /><path
       inkscape:connector-curvature="0"
       id="path4249"
       style="fill:#000000;fill-opacity:1;fill-rule:evenodd;stroke:none"
       d="M 196.082,3.973 196.031,3.902 195.98,3.836 195.93,3.773 195.891,3.715 195.84,3.652 195.801,3.594 195.699,3.492 195.66,3.445 195.57,3.355 195.531,3.312 195.48,3.273 195.441,3.234 195.391,3.203 195.352,3.176 195.25,3.113 195.211,3.094 195.16,3.074 195.109,3.043 195.07,3.035 l -0.05,-0.019 -0.051,-0.012 -0.047,-0.02 -0.051,-0.011 -0.059,-0.008 -0.05,-0.012 -0.11,0 -0.05,-0.008 -0.063,0 c -1,0 -1.699,0.879 -1.699,2.129 0,1.129 0.609,1.91 1.492,1.91 0.387,0 0.539,-0.129 0.648,-0.531 l 0.059,-0.238 c 0.09,-0.313 0.281,-0.5 0.523,-0.5 0.278,0 0.52,0.211 0.52,0.461 0,0.609 -0.77,1.117 -1.68,1.117 -0.543,0 -1.101,-0.219 -1.543,-0.609 C 192.312,6.203 192,5.465 192,4.594 c 0,-1.418 0.871,-2.43 2.082,-2.43 0.488,0 0.93,0.172 1.32,0.512 0.297,0.258 0.5,0.558 0.828,1.199 l -0.148,0.098 z" /><path
       inkscape:connector-curvature="0"
       id="path4251"
       style="fill:#000000;fill-opacity:1;fill-rule:evenodd;stroke:none"
       d="m 199.379,7.184 -1.098,0 0,1.269 c 0,0.109 -0.011,0.141 -0.082,0.141 -0.07,-0.102 -0.137,-0.192 -0.219,-0.301 -0.41,-0.609 -0.878,-1.129 -1.058,-1.168 -0.121,-0.082 -0.18,-0.16 -0.18,-0.211 0,-0.031 0.008,-0.059 0.039,-0.078 l 0.578,0 0,-3.293 c 0,-0.91 0.332,-1.379 0.973,-1.379 0.539,0 0.949,0.262 1.309,0.828 L 199.5,3.113 c -0.23,-0.277 -0.41,-0.39 -0.648,-0.39 -0.411,0 -0.571,0.3 -0.571,0.992 l 0,3.121 1.098,0 0,0.348 z" /><path
       inkscape:connector-curvature="0"
       id="path4253"
       style="fill:#000000;fill-opacity:1;fill-rule:evenodd;stroke:none"
       d="m 199.719,6.535 0.031,0 0.012,0.008 0.039,0 0.019,0.012 0.051,0 0.031,0.007 0.059,0 0.031,0.012 0.11,0 c 0.269,0 0.367,-0.172 0.367,-0.648 l 0,-2.742 c 0,-0.539 -0.067,-0.622 -0.77,-0.75 l 0,-0.168 2.621,0 0,0.168 c -0.738,0.031 -0.929,0.199 -0.929,0.82 l 0,2.461 c 0,0.347 0.468,0.89 0.769,0.89 0.059,0 0.16,-0.05 0.281,-0.16 0.18,-0.152 0.289,-0.222 0.438,-0.222 0.262,0 0.422,0.191 0.422,0.492 0,0.359 -0.231,0.578 -0.602,0.578 -0.457,0 -0.769,-0.25 -1.308,-1.027 l 0,1.007 -0.051,0.02 c -0.578,-0.238 -0.981,-0.379 -1.621,-0.59 l 0,-0.168 z" /><path
       inkscape:connector-curvature="0"
       id="path4255"
       style="fill:#000000;fill-opacity:1;fill-rule:evenodd;stroke:none"
       d="m 206.02,7.293 -0.129,0 -0.129,-0.008 -0.121,-0.019 -0.129,-0.024 -0.121,-0.019 -0.121,-0.039 -0.11,-0.032 -0.109,-0.047 -0.11,-0.043 -0.109,-0.058 -0.102,-0.059 -0.089,-0.062 -0.102,-0.071 -0.09,-0.07 -0.078,-0.078 -0.09,-0.078 -0.07,-0.094 -0.082,-0.09 -0.067,-0.09 L 204,6.215 203.941,6.105 203.879,6.004 203.832,5.895 203.789,5.773 203.75,5.652 203.711,5.535 203.68,5.414 l -0.028,-0.129 -0.023,-0.133 -0.008,-0.136 -0.012,-0.141 0,-0.141 c 0,-1.468 1.012,-2.57 2.391,-2.57 l 0.129,0.301 c -0.418,0 -0.828,0.258 -1.059,0.699 -0.3,0.57 -0.48,1.328 -0.48,2.109 0,1.039 0.519,1.719 1.289,1.719 0.922,0 1.562,-1.047 1.562,-2.547 0,-1.23 -0.492,-1.98 -1.312,-1.98 L 206,2.164 c 1.379,0 2.43,1.148 2.43,2.66 0,1.43 -1.008,2.469 -2.41,2.469 z" /><path
       inkscape:connector-curvature="0"
       id="path4257"
       style="fill:#000000;fill-opacity:1;fill-rule:evenodd;stroke:none"
       d="m 208.949,6.613 0,0.012 0.02,0 0,0.008 0.031,0 0.012,0.012 0.027,0 0.012,0.007 0.078,0 0.023,0.012 0.09,0 c 0.309,0 0.399,-0.172 0.399,-0.699 l 0,-2.711 c 0,-0.621 -0.11,-0.781 -0.672,-0.82 l 0,-0.168 2.312,0 0,0.168 c -0.551,0.039 -0.719,0.171 -0.719,0.57 l 0,3.07 c 0.528,0.488 0.77,0.621 1.129,0.621 0.528,0 0.801,-0.34 0.801,-1.062 l 0,-2.278 c 0,-0.691 -0.152,-0.882 -0.691,-0.921 l 0,-0.168 2.269,0 0,0.168 c -0.531,0.05 -0.668,0.179 -0.668,0.718 l 0,2.5 c 0,1.032 -0.48,1.641 -1.281,1.641 -0.512,0 -0.851,-0.18 -1.59,-0.879 l 0,0.859 -0.082,0.02 c -0.527,-0.188 -0.898,-0.309 -1.5,-0.488 l 0,-0.192 z" /><path
       inkscape:connector-curvature="0"
       id="path4259"
       style="fill:#000000;fill-opacity:1;fill-rule:evenodd;stroke:none"
       d="m 216.16,7.293 -1.691,-0.598 0,-0.16 0.093,0.008 c 0.129,0.019 0.27,0.031 0.368,0.031 0.261,0 0.359,-0.172 0.359,-0.648 l 0,-2.543 c 0,-0.789 -0.109,-0.91 -0.867,-0.949 l 0,-0.168 2.59,0 0,0.168 c -0.723,0.05 -0.801,0.16 -0.801,0.949 l 0,3.883 -0.051,0.027 z" /><path
       inkscape:connector-curvature="0"
       id="path4261"
       style="fill:#000000;fill-opacity:1;fill-rule:evenodd;stroke:none"
       d="m 215.652,9.734 -0.062,0 -0.02,-0.011 -0.031,0 -0.027,-0.008 -0.02,-0.012 -0.031,-0.008 -0.02,-0.011 -0.019,-0.008 -0.031,-0.012 -0.02,-0.012 -0.019,-0.019 -0.02,-0.008 -0.031,-0.02 -0.02,-0.019 -0.011,-0.024 -0.059,-0.058 -0.012,-0.02 -0.019,-0.019 -0.008,-0.02 -0.012,-0.031 -0.008,-0.019 -0.011,-0.032 -0.012,-0.019 -0.008,-0.032 -0.012,-0.027 0,-0.051 -0.007,-0.031 0,-0.027 c 0,-0.313 0.238,-0.563 0.55,-0.563 0.317,0 0.567,0.242 0.567,0.563 0,0.308 -0.25,0.558 -0.567,0.558 z" /><path
       inkscape:connector-curvature="0"
       id="path4263"
       style="fill:#000000;fill-opacity:1;fill-rule:evenodd;stroke:none"
       d="M 221.652,3.973 221.602,3.902 221.551,3.836 221.5,3.773 221.449,3.715 221.41,3.652 221.359,3.594 221.32,3.543 221.27,3.492 221.23,3.445 221.141,3.355 221.09,3.312 221.051,3.273 221,3.234 220.961,3.203 220.91,3.176 220.871,3.145 220.82,3.113 l -0.05,-0.019 -0.04,-0.02 -0.05,-0.031 -0.051,-0.008 -0.047,-0.019 -0.051,-0.012 -0.051,-0.02 -0.05,-0.011 -0.051,-0.008 -0.047,-0.012 -0.113,0 -0.059,-0.008 -0.058,0 c -0.993,0 -1.692,0.879 -1.692,2.129 0,1.129 0.602,1.91 1.492,1.91 0.387,0 0.528,-0.129 0.637,-0.531 l 0.07,-0.238 c 0.082,-0.313 0.282,-0.5 0.512,-0.5 0.289,0 0.531,0.211 0.531,0.461 0,0.609 -0.773,1.117 -1.691,1.117 -0.531,0 -1.09,-0.219 -1.539,-0.609 -0.543,-0.481 -0.852,-1.219 -0.852,-2.09 0,-1.418 0.86,-2.43 2.082,-2.43 0.489,0 0.918,0.172 1.317,0.512 0.293,0.258 0.5,0.558 0.832,1.199 l -0.149,0.098 z" /><path
       inkscape:connector-curvature="0"
       id="path4265"
       style="fill:#000000;fill-opacity:1;fill-rule:evenodd;stroke:none"
       d="m 229.73,2.992 -0.019,-0.019 -0.012,-0.008 -0.019,-0.012 -0.028,-0.027 -0.023,-0.012 -0.008,-0.012 -0.019,-0.007 -0.012,-0.012 -0.02,-0.008 -0.008,-0.012 -0.023,-0.008 -0.008,0 -0.019,-0.011 -0.012,-0.008 -0.02,0 -0.011,-0.012 -0.008,-0.012 -0.02,0 -0.011,-0.007 -0.028,0 -0.023,-0.012 -0.008,0 -0.031,-0.008 -0.09,0 c -0.25,0 -0.328,0.149 -0.328,0.629 l 0,2.129 c 0,0.57 -0.051,0.891 -0.223,1.152 -0.23,0.391 -0.699,0.598 -1.347,0.598 -1.032,0 -1.84,-0.527 -1.84,-1.219 0,-0.25 0.218,-0.469 0.468,-0.469 0.27,0 0.5,0.219 0.5,0.457 0,0.043 -0.011,0.102 -0.031,0.172 -0.019,0.102 -0.027,0.192 -0.027,0.258 0,0.301 0.348,0.543 0.789,0.543 0.531,0 0.828,-0.32 0.828,-0.91 l 0,-2.512 c 0,-0.34 -0.059,-0.437 -0.289,-0.57 -0.258,-0.148 -0.559,-0.25 -0.789,-0.25 -0.391,0 -0.691,0.371 -0.691,0.84 l 0,0.043 c 0,0.648 0.449,1.039 1.769,1.519 l 0,0.27 c -1.68,-0.68 -1.867,-0.77 -2.34,-1.18 -0.238,-0.223 -0.387,-0.59 -0.387,-0.961 0,-0.679 0.477,-1.16 1.137,-1.16 0.492,0 0.93,0.219 1.602,0.789 0.051,-0.57 0.25,-0.789 0.699,-0.789 0.371,0 0.602,0.129 0.98,0.539 l 0,0.289 z" /><path
       inkscape:connector-curvature="0"
       id="path4267"
       style="fill:#000000;fill-opacity:1;fill-rule:evenodd;stroke:none"
       d="m 229.941,6.613 0.008,0.012 0.012,0 0.008,0.008 0.031,0 0.012,0.012 0.019,0 0.02,0.007 0.078,0 0.023,0.012 0.09,0 c 0.297,0 0.399,-0.172 0.399,-0.699 l 0,-2.711 c 0,-0.621 -0.121,-0.781 -0.672,-0.82 l 0,-0.168 2.312,0 0,0.168 c -0.562,0.039 -0.719,0.171 -0.719,0.57 l 0,3.07 c 0.528,0.488 0.758,0.621 1.129,0.621 0.528,0 0.789,-0.34 0.789,-1.062 l 0,-2.278 c 0,-0.691 -0.14,-0.882 -0.691,-0.921 l 0,-0.168 2.281,0 0,0.168 c -0.539,0.05 -0.668,0.179 -0.668,0.718 l 0,2.5 c 0,1.032 -0.48,1.641 -1.293,1.641 -0.5,0 -0.839,-0.18 -1.578,-0.879 l 0,0.859 -0.082,0.02 c -0.527,-0.188 -0.91,-0.309 -1.508,-0.488 l 0,-0.192 z" /><path
       inkscape:connector-curvature="0"
       id="path4269"
       style="fill:#000000;fill-opacity:1;fill-rule:evenodd;stroke:none"
       d="m 240.379,6.504 0,0.43 -0.84,0 c -0.219,0 -0.379,0.031 -0.598,0.109 l -0.242,0.09 c -0.289,0.109 -0.59,0.16 -0.867,0.16 -1.02,0 -1.832,-0.789 -1.832,-1.777 0,-0.692 0.301,-1.102 1.02,-1.461 -0.208,-0.2 -0.411,-0.391 -0.469,-0.442 -0.36,-0.32 -0.512,-0.539 -0.512,-0.75 0,-0.23 0.141,-0.371 0.59,-0.578 l 0.223,-0.043 c 0.367,-0.066 1.238,-0.137 1.769,-0.137 1,0 1.359,-0.14 1.359,-0.531 0,-0.64 -0.828,-1.058 -2.07,-1.058 -0.961,0 -1.59,0.308 -1.59,0.789 0,0.25 0.082,0.398 0.532,0.937 l -0.223,0.043 c -0.777,-0.57 -1.078,-0.93 -1.078,-1.34 0,-0.582 0.859,-1.062 1.89,-1.062 0.821,0 1.68,0.293 2.239,0.75 0.422,0.34 0.609,0.679 0.609,1.101 0,0.68 -0.519,1.141 -1.328,1.168 l -1.41,0.063 c -0.582,0.027 -0.852,0.121 -0.852,0.301 0,0.218 0.363,0.597 0.66,0.687 0.09,-0.008 0.172,-0.019 0.203,-0.019 0.208,-0.032 0.348,-0.039 0.418,-0.039 l 0.04,0.281 c -0.649,0 -1.11,0.707 -1.11,1.758 l 0,0.031 c 0,0.64 0.309,1.027 0.809,1.027 0.343,0 0.621,-0.187 0.793,-0.519 0.199,-0.379 0.328,-0.879 0.328,-1.309 0,-0.609 -0.309,-0.988 -0.82,-0.988 l -0.04,-0.281 c 0.399,0 0.84,0.167 1.18,0.46 0.36,0.309 0.52,0.688 0.52,1.239 0,0.308 -0.051,0.57 -0.2,0.91 l 0.899,0 z" /><path
       inkscape:connector-curvature="0"
       id="path4271"
       style="fill:#000000;fill-opacity:1;fill-rule:evenodd;stroke:none"
       d="m 245.961,2.812 -0.051,0 c -0.508,0 -0.629,0.122 -0.629,0.622 l 0,3.75 -1.719,0 0,-0.18 c 0.668,-0.039 0.809,-0.149 0.809,-0.692 l 0,-2.57 c 0,-0.308 -0.059,-0.457 -0.211,-0.578 -0.301,-0.238 -0.64,-0.371 -0.961,-0.371 -0.429,0 -0.777,0.371 -0.777,0.832 l 0,3.559 -1.602,0 0,-0.149 c 0.532,-0.031 0.68,-0.199 0.68,-0.699 l 0,-2.75 c 0,-0.871 0.531,-1.422 1.32,-1.422 0.41,0 0.84,0.172 1.129,0.469 l 0.473,0.472 0,-0.91 0.039,-0.019 c 0.551,0.207 0.941,0.328 1.5,0.488 l 0,0.148 z" /><path
       inkscape:connector-curvature="0"
       id="path4273"
       style="fill:#000000;fill-opacity:1;fill-rule:evenodd;stroke:none"
       d="m 246.41,9.074 0.07,0 c 0.122,0.012 0.25,0.031 0.34,0.031 0.352,0 0.461,-0.16 0.461,-0.671 l 0,-5.211 c 0,-0.59 -0.16,-0.739 -0.84,-0.789 l 0,-0.168 2.571,0 0,0.168 c -0.68,0.039 -0.821,0.152 -0.821,0.75 l 0,6.531 -0.039,0.019 c -0.57,-0.191 -0.98,-0.3 -1.742,-0.48 l 0,-0.18 z" /><path
       inkscape:connector-curvature="0"
       id="path4275"
       style="fill:#000000;fill-opacity:1;fill-rule:evenodd;stroke:none"
       d="M 254.082,2.992 254.07,2.973 254.051,2.965 254.031,2.953 254.02,2.934 254,2.926 l -0.02,-0.012 -0.011,-0.012 -0.02,-0.007 -0.008,-0.012 -0.019,-0.008 -0.012,-0.012 -0.019,-0.008 -0.012,0 -0.02,-0.011 -0.007,-0.008 -0.02,0 -0.012,-0.012 -0.008,-0.012 -0.023,0 -0.008,-0.007 -0.031,0 -0.02,-0.012 -0.011,0 -0.028,-0.008 -0.089,0 c -0.25,0 -0.332,0.149 -0.332,0.629 l 0,2.129 c 0,0.57 -0.051,0.891 -0.208,1.152 -0.242,0.391 -0.71,0.598 -1.363,0.598 -1.027,0 -1.828,-0.527 -1.828,-1.219 0,-0.25 0.211,-0.469 0.469,-0.469 0.262,0 0.492,0.219 0.492,0.457 0,0.043 -0.012,0.102 -0.02,0.172 -0.031,0.102 -0.042,0.192 -0.042,0.258 0,0.301 0.351,0.543 0.792,0.543 0.528,0 0.829,-0.32 0.829,-0.91 l 0,-2.512 c 0,-0.34 -0.051,-0.437 -0.289,-0.57 -0.262,-0.148 -0.563,-0.25 -0.79,-0.25 -0.39,0 -0.691,0.371 -0.691,0.84 l 0,0.043 c 0,0.648 0.449,1.039 1.77,1.519 l 0,0.27 c -1.68,-0.68 -1.871,-0.77 -2.34,-1.18 -0.239,-0.223 -0.391,-0.59 -0.391,-0.961 0,-0.679 0.481,-1.16 1.152,-1.16 0.477,0 0.918,0.219 1.59,0.789 0.047,-0.57 0.25,-0.789 0.7,-0.789 0.367,0 0.597,0.129 0.98,0.539 l 0,0.289 z" /><path
       inkscape:connector-curvature="0"
       id="path4277"
       style="fill:#000000;fill-opacity:1;fill-rule:evenodd;stroke:none"
       d="m 254.191,6.535 0.028,0 0.023,0.008 0.039,0 0.02,0.012 0.051,0 0.019,0.007 0.07,0 0.02,0.012 0.121,0 c 0.27,0 0.367,-0.172 0.367,-0.648 l 0,-2.742 c 0,-0.539 -0.078,-0.622 -0.777,-0.75 l 0,-0.168 2.629,0 0,0.168 c -0.75,0.031 -0.93,0.199 -0.93,0.82 l 0,2.461 c 0,0.347 0.469,0.89 0.758,0.89 0.07,0 0.172,-0.05 0.293,-0.16 0.168,-0.152 0.289,-0.222 0.43,-0.222 0.269,0 0.429,0.191 0.429,0.492 0,0.359 -0.23,0.578 -0.601,0.578 -0.461,0 -0.778,-0.25 -1.309,-1.027 l 0,1.007 -0.059,0.02 C 255.23,7.055 254.84,6.914 254.191,6.703 l 0,-0.168 z" /><path
       inkscape:connector-curvature="0"
       id="path4279"
       style="fill:#000000;fill-opacity:1;fill-rule:evenodd;stroke:none"
       d="m 260.719,6.613 0.011,0.012 0.02,0 0.02,0.008 0.042,0 0.028,0.012 0.019,0 0.02,0.007 0.082,0 0.019,0.012 0.09,0 c 0.282,0 0.379,-0.18 0.379,-0.699 l 0,-2.77 c 0,-0.59 -0.16,-0.75 -0.769,-0.761 l 0,-0.168 2.429,0 0,0.168 c -0.578,0.019 -0.738,0.14 -0.738,0.57 l 0,3.082 c 0,0.019 0.078,0.129 0.16,0.207 0.27,0.25 0.739,0.43 1.129,0.43 0.481,0 0.719,-0.379 0.719,-1.137 l 0,-2.371 c 0,-0.621 -0.117,-0.742 -0.75,-0.781 l 0,-0.168 2.453,0 0,0.168 c -0.621,0.011 -0.793,0.199 -0.793,0.871 l 0,2.757 c 0.332,0.473 0.691,0.661 1.191,0.661 0.629,0 0.832,-0.289 0.832,-1.2 l 0,-2.3 c 0,-0.629 -0.093,-0.719 -0.73,-0.789 l 0,-0.168 2.398,0 0,0.168 -0.289,0.019 c -0.32,0.02 -0.472,0.223 -0.472,0.652 l 0,2.25 c 0,1.29 -0.418,1.938 -1.27,1.938 -0.629,0 -1.187,-0.277 -1.777,-0.918 -0.192,0.629 -0.563,0.918 -1.152,0.918 -0.481,0 -0.79,-0.148 -1.7,-0.84 l 0,0.82 -0.07,0.02 c -0.559,-0.207 -0.93,-0.328 -1.531,-0.488 l 0,-0.192 z" /><path
       inkscape:connector-curvature="0"
       id="path4281"
       style="fill:#000000;fill-opacity:1;fill-rule:evenodd;stroke:none"
       d="m 271.77,7.293 -0.141,0 L 271.5,7.285 271.379,7.266 271.25,7.242 271.129,7.223 271.02,7.184 270.902,7.152 270.789,7.105 270.68,7.062 l -0.098,-0.058 -0.113,-0.059 -0.09,-0.062 -0.098,-0.071 -0.09,-0.07 -0.082,-0.078 -0.078,-0.078 -0.082,-0.094 -0.078,-0.09 -0.059,-0.09 -0.07,-0.097 -0.062,-0.11 -0.059,-0.101 -0.051,-0.109 -0.078,-0.243 -0.043,-0.117 -0.027,-0.121 -0.02,-0.129 -0.023,-0.133 -0.02,-0.136 -0.007,-0.141 0,-0.141 c 0,-1.468 1.019,-2.57 2.39,-2.57 l 0.137,0.301 c -0.43,0 -0.84,0.258 -1.059,0.699 -0.308,0.57 -0.488,1.328 -0.488,2.109 0,1.039 0.52,1.719 1.289,1.719 0.918,0 1.57,-1.047 1.57,-2.547 0,-1.23 -0.5,-1.98 -1.312,-1.98 l -0.137,-0.301 c 1.379,0 2.43,1.148 2.43,2.66 0,1.43 -1.012,2.469 -2.402,2.469 z" /><path
       inkscape:connector-curvature="0"
       id="path4283"
       style="fill:#000000;fill-opacity:1;fill-rule:evenodd;stroke:none"
       d="m 274.719,6.613 0.011,0.012 0.032,0 0.008,0.008 0.05,0 0.02,0.012 0.019,0 0.02,0.007 0.082,0 0.031,0.012 0.078,0 c 0.282,0 0.379,-0.18 0.379,-0.699 l 0,-2.77 c 0,-0.59 -0.148,-0.75 -0.758,-0.761 l 0,-0.168 2.418,0 0,0.168 c -0.57,0.019 -0.738,0.14 -0.738,0.57 l 0,3.082 c 0,0.019 0.09,0.129 0.168,0.207 0.273,0.25 0.742,0.43 1.121,0.43 0.481,0 0.719,-0.379 0.719,-1.137 l 0,-2.371 c 0,-0.621 -0.117,-0.742 -0.738,-0.781 l 0,-0.168 2.449,0 0,0.168 c -0.629,0.011 -0.789,0.199 -0.789,0.871 l 0,2.757 c 0.328,0.473 0.691,0.661 1.191,0.661 0.617,0 0.82,-0.289 0.82,-1.2 l 0,-2.3 c 0,-0.629 -0.093,-0.719 -0.722,-0.789 l 0,-0.168 2.39,0 0,0.168 -0.281,0.019 c -0.328,0.02 -0.469,0.223 -0.469,0.652 l 0,2.25 c 0,1.29 -0.429,1.938 -1.269,1.938 -0.629,0 -1.191,-0.277 -1.781,-0.918 -0.2,0.629 -0.571,0.918 -1.16,0.918 -0.481,0 -0.79,-0.148 -1.688,-0.84 l 0,0.82 -0.082,0.02 c -0.559,-0.207 -0.93,-0.328 -1.531,-0.488 l 0,-0.192 z" /><path
       inkscape:connector-curvature="0"
       id="path4285"
       style="fill:#000000;fill-opacity:1;fill-rule:evenodd;stroke:none"
       d="m 287.5,4.062 -0.051,-0.078 -0.047,-0.07 -0.152,-0.211 -0.039,-0.058 -0.051,-0.059 -0.051,-0.051 -0.047,-0.062 -0.05,-0.047 -0.09,-0.09 -0.051,-0.043 -0.152,-0.117 -0.047,-0.031 -0.063,-0.032 -0.047,-0.027 -0.05,-0.031 -0.051,-0.02 -0.059,-0.019 -0.05,-0.024 -0.063,-0.019 -0.059,-0.008 -0.058,-0.02 -0.051,-0.011 -0.059,0 -0.07,-0.008 -0.062,-0.012 -0.129,0 c -0.621,0 -1.09,0.32 -1.41,0.941 -0.192,0.411 -0.27,0.77 -0.289,1.438 l 0.019,0.352 c 0.121,0.847 0.488,1.257 1.16,1.257 0.668,0 0.93,-0.308 1.071,-1.257 l -2.231,0 -0.019,-0.352 3.367,0 c -0.09,0.711 -0.199,1.031 -0.469,1.383 -0.328,0.386 -0.84,0.617 -1.398,0.617 -0.551,0 -1.063,-0.188 -1.481,-0.57 -0.512,-0.438 -0.809,-1.219 -0.809,-2.118 0,-1.5 0.79,-2.441 2.047,-2.441 1.032,0 1.852,0.641 2.313,1.82 L 287.5,4.062 Z" /><path
       inkscape:connector-curvature="0"
       id="path4287"
       style="fill:#000000;fill-opacity:1;fill-rule:evenodd;stroke:none"
       d="m 288.082,6.613 0.008,0.012 0.012,0 0.007,0.008 0.032,0 0,0.012 0.031,0 0.019,0.007 0.079,0 0.019,0.012 0.09,0 c 0.301,0 0.402,-0.172 0.402,-0.699 l 0,-2.711 c 0,-0.621 -0.121,-0.781 -0.679,-0.82 l 0,-0.168 2.32,0 0,0.168 c -0.563,0.039 -0.723,0.171 -0.723,0.57 l 0,3.07 c 0.52,0.488 0.762,0.621 1.121,0.621 0.539,0 0.801,-0.34 0.801,-1.062 l 0,-2.278 c 0,-0.691 -0.141,-0.882 -0.691,-0.921 l 0,-0.168 2.269,0 0,0.168 c -0.527,0.05 -0.66,0.179 -0.66,0.718 l 0,2.5 c 0,1.032 -0.477,1.641 -1.289,1.641 -0.5,0 -0.84,-0.18 -1.59,-0.879 l 0,0.859 -0.07,0.02 c -0.539,-0.188 -0.91,-0.309 -1.508,-0.488 l 0,-0.192 z" /><path
       inkscape:connector-curvature="0"
       id="path4289"
       style="fill:#000000;fill-opacity:1;fill-rule:evenodd;stroke:none"
       d="m 296.172,7.184 -1.102,0 0,1.269 c 0,0.109 -0.008,0.141 -0.078,0.141 -0.082,-0.102 -0.14,-0.192 -0.222,-0.301 -0.411,-0.609 -0.879,-1.129 -1.059,-1.168 -0.121,-0.082 -0.18,-0.16 -0.18,-0.211 0,-0.031 0.008,-0.059 0.039,-0.078 l 0.582,0 0,-3.293 c 0,-0.91 0.328,-1.379 0.969,-1.379 0.539,0 0.949,0.262 1.309,0.828 l -0.141,0.121 c -0.227,-0.277 -0.41,-0.39 -0.648,-0.39 -0.411,0 -0.571,0.3 -0.571,0.992 l 0,3.121 1.102,0 0,0.348 z" /><path
       inkscape:connector-curvature="0"
       id="path4291"
       style="fill:#000000;fill-opacity:1;fill-rule:evenodd;stroke:none"
       d="m 301.66,2.812 -0.051,0 c -0.5,0 -0.617,0.122 -0.617,0.622 l 0,3.75 -1.73,0 0,-0.18 c 0.679,-0.039 0.808,-0.149 0.808,-0.692 l 0,-2.57 c 0,-0.308 -0.058,-0.457 -0.211,-0.578 -0.289,-0.238 -0.629,-0.371 -0.957,-0.371 -0.433,0 -0.773,0.371 -0.773,0.832 l 0,3.559 -1.598,0 0,-0.149 c 0.52,-0.031 0.68,-0.199 0.68,-0.699 l 0,-2.75 c 0,-0.871 0.519,-1.422 1.32,-1.422 0.399,0 0.828,0.172 1.129,0.469 l 0.461,0.472 0,-0.91 0.051,-0.019 c 0.539,0.207 0.937,0.328 1.488,0.488 l 0,0.148 z" /><path
       inkscape:connector-curvature="0"
       id="path4293"
       style="fill:#000000;fill-opacity:1;fill-rule:evenodd;stroke:none"
       d="m 302.121,6.613 0.008,0.012 0.031,0 0.012,0.008 0.047,0 0.023,0.012 0.02,0 0.019,0.007 0.078,0 0.02,0.012 0.09,0 c 0.281,0 0.383,-0.18 0.383,-0.699 l 0,-2.77 c 0,-0.59 -0.153,-0.75 -0.762,-0.761 l 0,-0.168 2.422,0 0,0.168 c -0.582,0.019 -0.742,0.14 -0.742,0.57 l 0,3.082 c 0,0.019 0.089,0.129 0.16,0.207 0.269,0.25 0.742,0.43 1.132,0.43 0.477,0 0.719,-0.379 0.719,-1.137 l 0,-2.371 c 0,-0.621 -0.121,-0.742 -0.742,-0.781 l 0,-0.168 2.441,0 0,0.168 c -0.621,0.011 -0.781,0.199 -0.781,0.871 l 0,2.757 c 0.321,0.473 0.68,0.661 1.192,0.661 0.621,0 0.82,-0.289 0.82,-1.2 l 0,-2.3 c 0,-0.629 -0.09,-0.719 -0.719,-0.789 l 0,-0.168 2.387,0 0,0.168 -0.277,0.019 c -0.332,0.02 -0.473,0.223 -0.473,0.652 l 0,2.25 c 0,1.29 -0.43,1.938 -1.27,1.938 -0.64,0 -1.187,-0.277 -1.777,-0.918 -0.203,0.629 -0.57,0.918 -1.16,0.918 -0.481,0 -0.793,-0.148 -1.703,-0.84 l 0,0.82 -0.067,0.02 C 303.09,7.086 302.719,6.965 302.121,6.805 l 0,-0.192 z" /><path
       inkscape:connector-curvature="0"
       id="path4295"
       style="fill:#000000;fill-opacity:1;fill-rule:evenodd;stroke:none"
       d="m 316.211,8.312 0,0.071 0.008,0.07 0,0.133 0.011,0.047 0,0.062 0.012,0.047 0.008,0.051 0.012,0.043 0.008,0.047 0.011,0.043 0.02,0.027 0.019,0.039 0.039,0.063 0.051,0.05 0.031,0.02 0.039,0.02 0.032,0.019 0.039,0.02 0.039,0.011 0.051,0.02 0.05,0.008 0.051,0.011 0.059,0.008 0.058,0.012 0.063,0.012 0.07,0.007 0.039,0 0.031,0.012 0.079,0 0.039,0.008 0.039,0 0,0.211 -3.137,0 0,-0.211 c 0.898,-0.059 1.02,-0.18 1.02,-0.981 l 0,-5.058 c 0,-0.488 -0.133,-0.719 -0.422,-0.719 -0.149,0 -0.211,0.078 -0.289,0.36 -0.11,0.378 -0.289,0.55 -0.571,0.55 -0.289,0 -0.531,-0.25 -0.531,-0.543 0,-0.457 0.441,-0.789 1.082,-0.789 1.18,0 1.84,0.789 1.84,2.153 l 0,4.046 z" /><path
       inkscape:connector-curvature="0"
       id="path4297"
       style="fill:#000000;fill-opacity:1;fill-rule:evenodd;stroke:none"
       d="M 82.141,22.367 82,22.43 c -0.398,-0.633 -0.551,-0.723 -1.039,-0.723 l -2.609,0 1.839,1.922 c 0.969,1.019 1.399,1.84 1.399,2.699 0,1.09 -0.891,1.93 -2.031,1.93 -0.598,0 -1.168,-0.238 -1.571,-0.68 -0.347,-0.371 -0.508,-0.719 -0.699,-1.488 l 0.231,-0.063 c 0.441,1.071 0.832,1.422 1.589,1.422 0.911,0 1.532,-0.621 1.532,-1.539 0,-0.851 -0.5,-1.871 -1.411,-2.84 l -1.949,-2.062 0,-0.141 4.258,0 0.602,1.5 z" /><path
       inkscape:connector-curvature="0"
       id="path4299"
       style="fill:#000000;fill-opacity:1;fill-rule:evenodd;stroke:none"
       d="m 180.191,27.258 2.141,0 c 0.18,0 0.219,0.019 0.25,0.09 l 0.418,0.98 -0.098,0.07 c -0.16,-0.23 -0.269,-0.281 -0.5,-0.281 l -2.289,0 -1.191,-2.59 c -0.012,-0.019 -0.012,-0.027 -0.012,-0.058 0,-0.051 0.051,-0.082 0.133,-0.082 0.348,0 0.789,-0.078 1.238,-0.219 1.25,-0.41 1.832,-1.078 1.832,-2.168 0,-1.043 -0.66,-1.863 -1.523,-1.863 -0.207,0 -0.399,0.07 -0.727,0.312 -0.351,0.25 -0.601,0.36 -0.832,0.36 -0.32,0 -0.469,-0.129 -0.469,-0.399 0,-0.422 0.508,-0.683 1.34,-0.683 0.91,0 1.7,0.3 2.25,0.851 0.5,0.5 0.731,1.121 0.731,1.949 0,0.793 -0.211,1.293 -0.762,1.832 -0.48,0.489 -1.098,0.739 -2.391,0.969 l 0.461,0.93 z" /><path
       inkscape:connector-curvature="0"
       id="path4301"
       style="fill:#000000;fill-opacity:1;fill-rule:evenodd;stroke:none"
       d="m 346.465,28.332 -1.961,-0.988 0,-0.16 c 0.129,0.058 0.25,0.101 0.289,0.121 0.203,0.078 0.383,0.117 0.492,0.117 0.231,0 0.328,-0.16 0.328,-0.508 l 0,-4.949 c 0,-0.363 -0.09,-0.613 -0.258,-0.711 -0.171,-0.102 -0.32,-0.129 -0.781,-0.141 l 0,-0.168 3.02,0 0,0.168 c -0.867,0.012 -1.039,0.121 -1.039,0.641 l 0,6.558 -0.09,0.02 z" /><path
       inkscape:connector-curvature="0"
       id="path4303"
       style="fill:#000000;fill-opacity:1;fill-rule:evenodd;stroke:none"
       d="m 351.543,28.332 -0.168,0 -0.051,-0.008 -0.051,0 -0.058,-0.012 -0.051,0 -0.051,-0.007 -0.047,-0.012 -0.05,-0.008 -0.051,-0.012 -0.039,-0.019 -0.051,-0.012 -0.051,-0.019 -0.039,-0.008 -0.051,-0.02 -0.039,-0.023 -0.05,-0.02 -0.079,-0.039 -0.05,-0.019 -0.039,-0.032 -0.043,-0.019 -0.039,-0.031 -0.04,-0.02 -0.039,-0.027 -0.043,-0.031 -0.039,-0.032 -0.039,-0.027 -0.039,-0.043 -0.043,-0.027 -0.039,-0.043 c -0.629,-0.61 -1.051,-1.86 -1.051,-3.137 0,-1.203 0.36,-2.473 0.883,-3.082 0.399,-0.488 0.957,-0.75 1.59,-0.75 l 0,0.289 c -0.941,0 -1.422,1.16 -1.422,3.441 0,2.321 0.492,3.532 1.43,3.532 0.922,0 1.41,-1.243 1.41,-3.52 0,-2.293 -0.48,-3.453 -1.418,-3.453 l 0,-0.289 c 0.559,0 1.027,0.191 1.418,0.57 0.641,0.602 1.051,1.871 1.051,3.192 0,2.238 -0.988,3.777 -2.422,3.777 z" /><path
       inkscape:connector-curvature="0"
       id="path4305"
       style="fill:#000000;fill-opacity:1;fill-rule:evenodd;stroke:none"
       d="m 413.852,28.258 -1.961,-0.988 0,-0.161 c 0.129,0.059 0.25,0.098 0.289,0.118 0.199,0.082 0.382,0.121 0.492,0.121 0.23,0 0.328,-0.16 0.328,-0.508 l 0,-4.953 c 0,-0.36 -0.09,-0.61 -0.258,-0.707 -0.172,-0.102 -0.32,-0.133 -0.781,-0.141 l 0,-0.172 3.019,0 0,0.172 c -0.871,0.008 -1.039,0.121 -1.039,0.641 l 0,6.558 -0.089,0.02 z" /><path
       inkscape:connector-curvature="0"
       id="path4307"
       style="fill:#000000;fill-opacity:1;fill-rule:evenodd;stroke:none"
       d="m 421.34,22.367 -0.141,0.063 c -0.41,-0.633 -0.547,-0.723 -1.039,-0.723 l -2.609,0 1.84,1.922 c 0.968,1.019 1.39,1.84 1.39,2.699 0,1.09 -0.879,1.93 -2.019,1.93 -0.602,0 -1.172,-0.238 -1.571,-0.68 -0.351,-0.371 -0.511,-0.719 -0.699,-1.488 l 0.231,-0.063 c 0.437,1.071 0.828,1.422 1.578,1.422 0.922,0 1.539,-0.621 1.539,-1.539 0,-0.851 -0.5,-1.871 -1.418,-2.84 l -1.942,-2.062 0,-0.141 4.262,0 0.598,1.5 z" /><path
       inkscape:connector-curvature="0"
       id="path4309"
       style="fill:#000000;fill-opacity:1;fill-rule:evenodd;stroke:none"
       d="m 112.477,24.555 0.418,0 0.043,-0.012 0.156,0 0.043,-0.008 0.07,0 0.027,-0.012 0.063,0 0.027,-0.011 0.031,0 0.032,-0.008 0.051,-0.012 0.046,-0.008 0.051,-0.019 0.051,-0.012 0.051,-0.019 c 0.679,-0.239 1.109,-0.86 1.109,-1.622 0,-0.91 -0.629,-1.628 -1.441,-1.628 -0.289,0 -0.508,0.078 -0.91,0.339 -0.329,0.2 -0.52,0.282 -0.7,0.282 -0.25,0 -0.418,-0.16 -0.418,-0.391 0,-0.379 0.469,-0.621 1.239,-0.621 0.839,0 1.699,0.289 2.211,0.73 0.519,0.45 0.8,1.09 0.8,1.821 0,0.558 -0.172,1.07 -0.492,1.41 -0.219,0.238 -0.418,0.371 -0.91,0.578 0.762,0.512 1.031,0.91 1.031,1.512 0,0.879 -0.699,1.488 -1.699,1.488 -0.551,0 -1.031,-0.18 -1.422,-0.527 -0.328,-0.301 -0.5,-0.582 -0.738,-1.243 l 0.168,-0.039 c 0.449,0.801 0.941,1.161 1.629,1.161 0.711,0 1.203,-0.481 1.203,-1.172 0,-0.399 -0.172,-0.789 -0.442,-1.059 -0.328,-0.328 -0.628,-0.488 -1.378,-0.758 l 0,-0.14 z" /><path
       inkscape:connector-curvature="0"
       id="path4311"
       style="fill:#000000;fill-opacity:1;fill-rule:evenodd;stroke:none"
       d="m 145.203,23.504 -0.402,0 0,-0.641 2.801,0 0,-1.66 0.757,0 0,1.66 1.024,0 0,0.641 -1.024,0 0,4.418 -0.429,0 -3.129,-4.418 0.402,0 2.387,3.41 0,-3.41 -2.387,0 z" /><path
       inkscape:connector-curvature="0"
       id="path4313"
       style="fill:#000000;fill-opacity:1;fill-rule:evenodd;stroke:none"
       d="m 216.605,28.379 -0.117,-0.012 -0.109,-0.008 -0.113,-0.011 -0.098,-0.02 -0.109,-0.008 -0.102,-0.011 -0.09,-0.02 -0.101,-0.019 -0.09,-0.012 -0.09,-0.02 -0.078,-0.019 -0.09,-0.02 -0.082,-0.019 -0.078,-0.02 -0.16,-0.051 -0.149,-0.05 -0.152,-0.059 -0.149,-0.07 -0.14,-0.071 -0.153,-0.082 -0.136,-0.078 -0.141,-0.09 -0.082,-0.05 -0.07,-0.059 c -1.18,-0.84 -1.828,-2.082 -1.828,-3.551 0,-0.949 0.3,-1.91 0.769,-2.449 0.41,-0.492 1,-0.75 1.68,-0.75 1.359,0 2.301,1.039 2.301,2.547 0,1.402 -0.801,2.281 -2.059,2.281 -0.48,0 -0.711,-0.078 -1.402,-0.488 l 0.039,-0.281 c 0.222,0.168 0.562,0.269 0.953,0.269 0.937,0 1.476,-0.789 1.476,-2.148 0,-1.211 -0.417,-1.871 -1.187,-1.871 -0.961,0 -1.551,1.019 -1.551,2.718 0,0.563 0.09,0.86 0.309,1.032 l -0.039,0.281 c 0.301,1.648 1.519,2.828 3.242,3.109 l -0.024,0.18 z" /><path
       inkscape:connector-curvature="0"
       id="path4315"
       style="fill:#000000;fill-opacity:1;fill-rule:evenodd;stroke:none"
       d="m 250.508,28.223 -4.051,0 -0.641,-1.61 0.192,-0.09 c 0.469,0.75 0.66,0.891 1.262,0.891 l 2.378,0 -2.171,-6.512 0.711,0 2.32,7.141 0,0.18 z" /><path
       inkscape:connector-curvature="0"
       id="path4317"
       style="fill:#000000;fill-opacity:1;fill-rule:evenodd;stroke:none"
       d="m 282.289,25.004 0.098,0.051 0.101,0.058 0.09,0.051 0.082,0.051 0.09,0.047 0.078,0.05 0.07,0.063 0.082,0.047 0.059,0.051 0.07,0.05 0.059,0.051 0.062,0.051 0.047,0.047 0.063,0.051 0.039,0.062 0.051,0.047 0.078,0.102 0.031,0.058 0.039,0.051 0.031,0.059 0.02,0.05 0.031,0.063 0.039,0.117 0.008,0.063 0.023,0.058 0.008,0.059 0,0.07 0.012,0.063 0,0.07 0.008,0.07 c 0,0.899 -0.789,1.547 -1.879,1.547 l -0.09,-0.297 c 0.738,0 1.211,-0.492 1.211,-1.242 0,-0.621 -0.301,-1.109 -0.93,-1.531 l -0.101,-0.059 c -0.969,0.629 -1.36,1.129 -1.36,1.742 0,0.637 0.489,1.09 1.18,1.09 l 0.09,0.297 c -1.199,0 -2.082,-0.73 -2.082,-1.73 0,-0.7 0.211,-1.02 1.351,-2.028 -1.179,-0.89 -1.418,-1.23 -1.418,-1.972 0,-1.059 0.868,-1.809 2.098,-1.809 l 0.121,0.309 c -0.832,0 -1.39,0.632 -1.39,1.582 0,0.699 0.25,1.16 0.879,1.668 l 0.652,-0.477 c 0.797,-0.57 1.058,-0.961 1.058,-1.57 0,-0.711 -0.488,-1.203 -1.199,-1.203 l -0.121,-0.309 c 1.309,0 2.152,0.719 2.152,1.852 0,0.839 -0.371,1.378 -1.691,2.359 z" /><path
       inkscape:connector-curvature="0"
       id="path4319"
       style="fill:#000000;fill-opacity:1;fill-rule:evenodd;stroke:none"
       d="m 313.52,20.754 0.109,0.008 0.109,0.011 0.11,0.02 0.101,0.012 0.102,0.019 0.09,0.008 0.097,0.02 0.09,0.023 0.18,0.039 0.082,0.02 0.078,0.019 0.082,0.02 0.078,0.019 0.152,0.051 0.149,0.051 0.141,0.058 0.14,0.071 0.129,0.07 0.141,0.07 0.129,0.082 0.14,0.09 0.071,0.047 0.07,0.051 c 1.129,0.832 1.801,2.191 1.801,3.66 0,1.801 -1.012,3.082 -2.422,3.082 -1.301,0 -2.27,-1.102 -2.27,-2.582 0,-1.328 0.789,-2.211 1.969,-2.211 0.602,0 1.062,0.172 1.641,0.621 l -0.149,0.25 c -0.301,-0.258 -0.711,-0.41 -1.101,-0.41 -0.829,0 -1.36,0.82 -1.36,2.121 0,0.629 0.18,1.281 0.41,1.57 0.18,0.219 0.461,0.34 0.782,0.34 0.949,0 1.437,-0.941 1.437,-2.781 l 0,-0.43 c 0,-0.211 -0.051,-0.308 -0.168,-0.41 l 0.149,-0.25 c -0.45,-1.781 -1.661,-2.949 -3.329,-3.238 l 0.04,-0.211 z" /><path
       inkscape:connector-curvature="0"
       id="path4321"
       style="fill:#000000;fill-opacity:1;fill-rule:evenodd;stroke:none"
       d="m 380.602,28.258 -1.961,-0.988 0,-0.161 c 0.129,0.059 0.25,0.098 0.289,0.118 0.199,0.082 0.379,0.121 0.492,0.121 0.226,0 0.328,-0.16 0.328,-0.508 l 0,-4.953 c 0,-0.36 -0.09,-0.61 -0.258,-0.707 -0.172,-0.102 -0.32,-0.133 -0.781,-0.141 l 0,-0.172 3.019,0 0,0.172 c -0.871,0.008 -1.039,0.121 -1.039,0.641 l 0,6.558 -0.089,0.02 z" /><path
       inkscape:connector-curvature="0"
       id="path4323"
       style="fill:#000000;fill-opacity:1;fill-rule:evenodd;stroke:none"
       d="m 386.082,28.258 -1.973,-0.988 0,-0.161 c 0.141,0.059 0.262,0.098 0.301,0.118 0.199,0.082 0.379,0.121 0.488,0.121 0.231,0 0.332,-0.16 0.332,-0.508 l 0,-4.953 c 0,-0.36 -0.089,-0.61 -0.261,-0.707 -0.168,-0.102 -0.321,-0.133 -0.778,-0.141 l 0,-0.172 3.02,0 0,0.172 c -0.871,0.008 -1.039,0.121 -1.039,0.641 l 0,6.558 -0.09,0.02 z" /><path
       d="m 46.117,49.629 5.231,0"
       style="fill:none;stroke:#000000;stroke-width:0.830531;stroke-linecap:butt;stroke-linejoin:miter;stroke-miterlimit:3.79999995;stroke-dasharray:none;stroke-opacity:1"
       id="path4327"
       inkscape:connector-curvature="0" /><path
       d="m 46.117,64.828 2.574,0 m -2.574,15.281 2.574,0 m -2.574,15.282 2.574,0 m -2.574,15.199 2.574,0 m -2.574,15.281 5.231,0"
       style="fill:none;stroke:#000000;stroke-width:0.830531;stroke-linecap:butt;stroke-linejoin:miter;stroke-miterlimit:3.79999995;stroke-dasharray:none;stroke-opacity:1"
       id="path4331"
       inkscape:connector-curvature="0" /><path
       d="m 46.117,141.152 2.574,0 m -2.574,15.2 2.574,0 m -2.574,15.281 2.574,0 m -2.574,15.281 2.574,0 m -2.574,15.199 5.231,0"
       style="fill:none;stroke:#000000;stroke-width:0.830531;stroke-linecap:butt;stroke-linejoin:miter;stroke-miterlimit:3.79999995;stroke-dasharray:none;stroke-opacity:1"
       id="path4335"
       inkscape:connector-curvature="0" /><path
       d="m 46.117,217.395 2.574,0 m -2.574,15.285 2.574,0 m -2.574,15.195 2.574,0 m -2.574,15.285 2.574,0 m -2.574,15.281 5.231,0"
       style="fill:none;stroke:#000000;stroke-width:0.830531;stroke-linecap:butt;stroke-linejoin:miter;stroke-miterlimit:3.79999995;stroke-dasharray:none;stroke-opacity:1"
       id="path4339"
       inkscape:connector-curvature="0" /><path
       d="m 46.117,293.641 2.574,0 m -2.574,15.281 2.574,0 m -2.574,15.281 2.574,0 m -2.574,15.199 2.574,0 m -2.574,15.282 5.231,0"
       style="fill:none;stroke:#000000;stroke-width:0.830531;stroke-linecap:butt;stroke-linejoin:miter;stroke-miterlimit:3.79999995;stroke-dasharray:none;stroke-opacity:1"
       id="path4343"
       inkscape:connector-curvature="0" /><path
       d="m 46.117,369.965 2.574,0 m -2.574,15.199 2.574,0 m -2.574,15.281 2.574,0 m -2.574,15.282 2.574,0 m -2.574,15.199 5.231,0"
       style="fill:none;stroke:#000000;stroke-width:0.830531;stroke-linecap:butt;stroke-linejoin:miter;stroke-miterlimit:3.79999995;stroke-dasharray:none;stroke-opacity:1"
       id="path4347"
       inkscape:connector-curvature="0" /><path
       d="m 46.117,446.207 2.574,0 m 31.145,-404.219 0,5.231"
       style="fill:none;stroke:#000000;stroke-width:0.830531;stroke-linecap:butt;stroke-linejoin:miter;stroke-miterlimit:3.79999995;stroke-dasharray:none;stroke-opacity:1"
       id="path4351"
       inkscape:connector-curvature="0" /><path
       d="m 113.473,41.988 0,5.231"
       style="fill:none;stroke:#000000;stroke-width:0.830531;stroke-linecap:butt;stroke-linejoin:miter;stroke-miterlimit:3.79999995;stroke-dasharray:none;stroke-opacity:1"
       id="path4355"
       inkscape:connector-curvature="0" /><path
       d="m 147.191,41.988 0,5.231"
       style="fill:none;stroke:#000000;stroke-width:0.830531;stroke-linecap:butt;stroke-linejoin:miter;stroke-miterlimit:3.79999995;stroke-dasharray:none;stroke-opacity:1"
       id="path4359"
       inkscape:connector-curvature="0" /><path
       d="m 180.828,41.988 0,5.231"
       style="fill:none;stroke:#000000;stroke-width:0.830531;stroke-linecap:butt;stroke-linejoin:miter;stroke-miterlimit:3.79999995;stroke-dasharray:none;stroke-opacity:1"
       id="path4363"
       inkscape:connector-curvature="0" /><path
       d="m 214.547,41.988 0,5.231"
       style="fill:none;stroke:#000000;stroke-width:0.830531;stroke-linecap:butt;stroke-linejoin:miter;stroke-miterlimit:3.79999995;stroke-dasharray:none;stroke-opacity:1"
       id="path4367"
       inkscape:connector-curvature="0" /><path
       d="m 248.266,41.988 0,5.231"
       style="fill:none;stroke:#000000;stroke-width:0.830531;stroke-linecap:butt;stroke-linejoin:miter;stroke-miterlimit:3.79999995;stroke-dasharray:none;stroke-opacity:1"
       id="path4371"
       inkscape:connector-curvature="0" /><path
       d="m 281.902,41.988 0,5.231"
       style="fill:none;stroke:#000000;stroke-width:0.830531;stroke-linecap:butt;stroke-linejoin:miter;stroke-miterlimit:3.79999995;stroke-dasharray:none;stroke-opacity:1"
       id="path4375"
       inkscape:connector-curvature="0" /><path
       d="m 315.625,41.988 0,5.231"
       style="fill:none;stroke:#000000;stroke-width:0.830531;stroke-linecap:butt;stroke-linejoin:miter;stroke-miterlimit:3.79999995;stroke-dasharray:none;stroke-opacity:1"
       id="path4379"
       inkscape:connector-curvature="0" /><path
       d="m 349.258,41.988 0,5.231"
       style="fill:none;stroke:#000000;stroke-width:0.830531;stroke-linecap:butt;stroke-linejoin:miter;stroke-miterlimit:3.79999995;stroke-dasharray:none;stroke-opacity:1"
       id="path4383"
       inkscape:connector-curvature="0" /><path
       d="m 382.98,41.988 0,5.231"
       style="fill:none;stroke:#000000;stroke-width:0.830531;stroke-linecap:butt;stroke-linejoin:miter;stroke-miterlimit:3.79999995;stroke-dasharray:none;stroke-opacity:1"
       id="path4387"
       inkscape:connector-curvature="0" /><path
       d="m 416.617,41.988 0,5.231"
       style="fill:none;stroke:#000000;stroke-width:0.830531;stroke-linecap:butt;stroke-linejoin:miter;stroke-miterlimit:3.79999995;stroke-dasharray:none;stroke-opacity:1"
       id="path4391"
       inkscape:connector-curvature="0" /><path
       d="m 46.117,446.207 404.219,0 0,-404.219 -404.219,0 0,404.219 z"
       style="fill:none;stroke:#000000;stroke-width:0.830531;stroke-linecap:butt;stroke-linejoin:miter;stroke-miterlimit:3.79999995;stroke-dasharray:none;stroke-opacity:1"
       id="path4395"
       inkscape:connector-curvature="0" /><path
       d="m 201.094,49.629 26.91,0 m -60.629,106.141 26.992,0 m -60.629,57.804 26.907,0 m -26.907,-87.121 26.907,0 m -60.629,111.957 26.91,0 m -60.629,10.961 26.992,0 m 141.441,51.41 26.993,0 m 6.726,3.989 26.91,0 m 6.727,40.113 26.992,0 m -60.629,5.566 26.91,0 m -94.265,1.41 26.91,0 m 6.726,1.579 26.993,0 m -94.348,-8.473 26.992,0 m -60.629,17.277 26.907,0 m -60.629,28.903 26.91,0 m 74.168,-20.68 26.91,0 m -60.629,15.613 26.992,0 m -60.629,18.934 26.907,0 m 107.804,-34.051 26.91,0 m -60.629,0.5 26.993,0 m 40.363,1.578 26.992,0 m -94.348,20.098 26.993,0 m -94.348,12.125 26.992,0 m 6.727,1.746 26.91,0 m -26.91,-11.297 26.91,0 m 40.445,1.828 26.91,0 m -60.629,8.055 26.993,0 m -60.629,-5.481 26.91,0 m -26.91,2.575 26.91,0 m 6.726,1.164 26.993,0 m -26.993,6.226 26.993,0 m -127.985,5.731 26.907,0 m 107.804,1.496 26.91,0 m -26.91,9.386 26.91,0 m -127.984,4.153 26.992,0"
       style="fill:none;stroke:#ff0000;stroke-width:2.07632804;stroke-linecap:butt;stroke-linejoin:miter;stroke-miterlimit:3.79999995;stroke-dasharray:none;stroke-opacity:1"
       id="path4399"
       inkscape:connector-curvature="0" /><path
       d="m 201.094,159.094 26.91,0 m 6.726,7.89 26.993,0 m 40.363,14.118 26.992,0 m -60.629,11.128 26.91,0 m 40.446,4.653 26.91,0 m -60.629,13.785 26.992,0 m -161.703,12.875 26.992,0 m 74.082,2.406 26.91,0 m -94.265,3.656 26.91,0 m 6.726,1.329 26.993,0 m 6.726,48.754 26.91,0 m -127.984,1.578 26.992,0 m 40.363,10.046 26.993,0 m -60.629,3.407 26.91,0 m -26.91,3.82 26.91,0 m -94.266,2.324 26.907,0 m 141.441,0.418 26.992,0 m -161.703,8.055 26.992,0 m 74.082,4.152 26.91,0 m -94.265,2.41 26.91,0 m 6.726,5.149 26.993,0 m -60.629,-10.965 26.91,0 m 6.726,1.246 26.993,0 m -94.348,2.906 26.992,0 m 74.082,15.036 26.91,0 m -161.621,7.39 26.907,0 m 74.085,4.652 26.993,0 m -94.348,1.161 26.992,0 m 6.727,1.91 26.91,0 m 6.726,-8.387 26.993,0 m -127.985,4.152 26.907,0 m 40.449,7.059 26.91,0 m -60.629,0.832 26.992,0 m -94.351,-4.484 26.91,0 m 141.523,19.765 26.91,0 m -161.621,0.832 26.907,0 m 74.085,8.387 26.993,0 m -94.348,3.406 26.992,0 m 6.727,4.735 26.91,0 m -26.91,-23.422 26.91,0 m -26.91,8.719 26.91,0 m -60.629,2.742 26.992,0 m -60.629,0.168 26.907,0 m -26.907,9.465 26.907,0 m 74.085,3.574 26.993,0 m 6.726,2.988 26.91,0 m 6.727,1.828 26.992,0 m -161.703,0.332 26.992,0 m -94.351,2.242 26.91,0 m 6.812,1.411 26.907,0 m 6.73,1.332 26.992,0 m 6.727,2.074 26.91,0 m -94.266,0.996 26.907,0"
       style="fill:none;stroke:#000000;stroke-width:2.49159288;stroke-linecap:butt;stroke-linejoin:miter;stroke-miterlimit:3.79999995;stroke-dasharray:none;stroke-opacity:1"
       id="path4403"
       inkscape:connector-curvature="0" /><path
       d="m 167.375,395.461 26.992,0 m 141.438,0 26.91,0 m -127.985,6.23 26.993,0 m -60.629,3.489 26.91,0 m 6.726,0.832 26.993,0 m -94.348,1.242 26.992,0 m 175.156,0.418 26.911,0 m -127.985,0.414 26.91,0 m 6.727,1.828 26.992,0 m 6.727,1.164 26.91,0 m 40.445,0.332 26.992,0 m -229.058,1.742 26.91,0 m -60.629,0.332 26.992,0 m -60.629,0.414 26.907,0 m 6.73,0.086 26.992,0 m -94.351,2.739 26.91,0 m 40.449,0.25 26.992,0 m -128.07,0.082 26.992,0 m 208.797,2.16 26.992,0 m -127.984,0.25 26.91,0 m -94.266,1.578 26.907,0 m 40.449,1.66 26.91,0 m -127.988,3.902 26.91,0 m 242.597,0.583 26.911,0 m -127.985,1.996 26.91,0 m -60.629,0.91 26.993,0"
       style="fill:none;stroke:#000000;stroke-width:2.49159288;stroke-linecap:butt;stroke-linejoin:miter;stroke-miterlimit:3.79999995;stroke-dasharray:none;stroke-opacity:1"
       id="path4407"
       inkscape:connector-curvature="0" /><path
       d="m 46.117,446.207 404.219,0 0,-404.219 -404.219,0 0,404.219 z"
       style="fill:none;stroke:#000000;stroke-width:0.830531;stroke-linecap:butt;stroke-linejoin:miter;stroke-miterlimit:3.79999995;stroke-dasharray:none;stroke-opacity:1"
       id="path4411"
       inkscape:connector-curvature="0" /><path
       d="m 203.82,49.68 34.282,378.004"
       style="fill:none;stroke:#0000ff;stroke-width:1.99327397;stroke-linecap:butt;stroke-linejoin:miter;stroke-miterlimit:4;stroke-dasharray:none;stroke-opacity:1"
       id="path4415"
       inkscape:connector-curvature="0" /><path
       d="m 232.35507,417.73438 5.96531,12.58209 3.60578,-13.449 c -2.63747,2.33527 -6.50438,2.67584 -9.57109,0.86691 z"
       style="fill:#0000ff;fill-opacity:1;fill-rule:evenodd;stroke:#0000ff;stroke-width:0.74747747;stroke-linecap:butt;stroke-linejoin:round;stroke-miterlimit:4;stroke-dasharray:none;stroke-opacity:1"
       id="path4419"
       inkscape:connector-curvature="0" /><path
       d="M 224.773,49.645 248.07,309.207"
       style="fill:#ffff00;fill-opacity:1;fill-rule:evenodd;stroke:#ffff00;stroke-width:1.99327397;stroke-linecap:butt;stroke-linejoin:miter;stroke-miterlimit:4;stroke-dasharray:none;stroke-opacity:1"
       id="path4423"
       inkscape:connector-curvature="0" /><path
       d="m 242.33212,299.24951 5.95325,12.58653 3.61711,-13.44148 c -2.6364,2.33238 -6.50439,2.66846 -9.57036,0.85495 z"
       style="fill:#ffff00;fill-opacity:1;fill-rule:evenodd;stroke:#ffff00;stroke-width:0.74747777;stroke-linecap:butt;stroke-linejoin:round;stroke-miterlimit:4;stroke-dasharray:none;stroke-opacity:1"
       id="path4427"
       inkscape:connector-curvature="0" /><path
       d="m 246.238,300.027 c -1.527,0.098 -3.492,-0.988 -3.492,-0.988 0,0 -0.414,-0.195 -0.676,-0.09 -0.199,0.071 -0.09,0.367 -0.09,0.367 l 5.985,12.743 c 0,0 0.23,0.199 0.375,0.168 0.144,-0.032 0.226,-0.094 0.301,-0.293 0.07,-0.196 3.621,-13.454 3.621,-13.454 0,0 0.074,-0.136 -0.071,-0.332 -0.144,-0.199 -0.425,-0.113 -0.425,-0.113 0,0 -2.016,1.703 -3.532,1.817 -0.152,0.125 -22.453,-250.293 -22.468,-250.297 l -1.985,0.187 1.106,11.481 21.355,238.82"
       style="fill:none;stroke:#000000;stroke-width:0.13288499;stroke-linecap:butt;stroke-linejoin:miter;stroke-miterlimit:4;stroke-dasharray:none;stroke-opacity:1"
       id="path4431"
       inkscape:connector-curvature="0" /><path
       inkscape:connector-curvature="0"
       id="path4433"
       style="fill:#000000;fill-opacity:1;fill-rule:evenodd;stroke:none"
       d="m 240.699,55.191 -0.937,0 c -0.364,0 -0.543,0.188 -0.543,0.571 l 0,7.34 c 0,0.339 0.152,0.476 0.5,0.476 l 0.98,0 0,0.274 -2.308,0 0,-8.934 2.308,0 0,0.273 z" /><path
       inkscape:connector-curvature="0"
       id="path4435"
       style="fill:#000000;fill-opacity:1;fill-rule:evenodd;stroke:none"
       d="m 248.691,63.852 -2.601,0 0,-0.211 c 0.59,-0.02 0.762,-0.102 0.762,-0.352 0,-0.16 -0.122,-0.359 -0.442,-0.75 l -1.23,-1.508 -0.461,0.637 c -0.668,0.934 -0.93,1.402 -0.93,1.641 0,0.222 0.172,0.312 0.531,0.32 l 0.301,0.012 0,0.211 -3.301,0 0,-0.211 c 0.711,-0.032 0.91,-0.192 1.981,-1.711 l 1.187,-1.75 -1.718,-2.11 c -0.969,-1.16 -1.02,-1.199 -1.579,-1.25 l 0,-0.211 2.547,0 0,0.211 c -0.636,0.051 -0.828,0.129 -0.828,0.391 0,0.16 0.16,0.43 0.559,0.937 l 1.301,1.614 1.039,-1.532 c 0.363,-0.531 0.562,-0.902 0.562,-1.07 0,-0.199 -0.172,-0.308 -0.551,-0.32 -0.039,0 -0.16,-0.012 -0.289,-0.02 l 0,-0.211 3.239,0 0,0.211 c -0.571,0.071 -0.739,0.18 -1.211,0.809 l -2.098,3 1.598,1.98 c 0.711,0.86 0.929,0.993 1.632,1.032 l 0,0.211 z" /><path
       inkscape:connector-curvature="0"
       id="path4437"
       style="fill:#000000;fill-opacity:1;fill-rule:evenodd;stroke:none"
       d="m 253.449,58.41 -0.051,-0.082 -0.046,-0.066 -0.043,-0.071 -0.047,-0.07 -0.051,-0.07 -0.051,-0.063 -0.051,-0.058 -0.05,-0.051 -0.039,-0.059 -0.051,-0.05 -0.047,-0.051 -0.152,-0.117 -0.051,-0.043 -0.047,-0.039 -0.051,-0.032 -0.051,-0.027 -0.05,-0.031 -0.059,-0.032 -0.051,-0.019 -0.058,-0.02 -0.051,-0.019 -0.063,-0.02 -0.047,-0.011 -0.062,-0.02 -0.059,-0.008 -0.058,0 -0.063,-0.011 -0.058,-0.008 -0.129,0 c -0.633,0 -1.102,0.316 -1.41,0.937 -0.204,0.41 -0.282,0.77 -0.301,1.442 l 0.019,0.347 c 0.129,0.852 0.5,1.262 1.16,1.262 0.668,0 0.93,-0.309 1.071,-1.262 l -2.231,0 -0.019,-0.347 3.371,0 c -0.094,0.711 -0.203,1.027 -0.473,1.379 -0.328,0.39 -0.828,0.621 -1.398,0.621 -0.551,0 -1.063,-0.192 -1.481,-0.571 -0.511,-0.441 -0.8,-1.218 -0.8,-2.121 0,-1.5 0.781,-2.437 2.039,-2.437 1.043,0 1.863,0.636 2.32,1.816 l -0.18,0.082 z" /><path
       inkscape:connector-curvature="0"
       id="path4439"
       style="fill:#000000;fill-opacity:1;fill-rule:evenodd;stroke:none"
       d="m 254.23,55.191 0,-0.273 2.309,0 0,8.934 -2.309,0 0,-0.274 0.942,0 c 0.359,0 0.539,-0.18 0.539,-0.566 l 0,-7.344 c 0,-0.34 -0.16,-0.477 -0.5,-0.477 l -0.981,0 z" /><path
       inkscape:connector-curvature="0"
       id="path4441"
       style="fill:#000000;fill-opacity:1;fill-rule:evenodd;stroke:none"
       d="m 261.289,59.141 0.441,0 2.622,3.75 0,-3.75 -3.063,0 0,-0.7 3.07,0 0,-1.832 0.852,0 0,1.832 1.109,0 0,0.7 -1.109,0 0,4.859 -0.492,0 -3.43,-4.859 z" /><path
       inkscape:connector-curvature="0"
       id="path4443"
       style="fill:#000000;fill-opacity:1;fill-rule:evenodd;stroke:none"
       d="m 268.672,60.941 0.976,0 -0.957,-4.589 c -0.242,-1.172 -0.601,-1.774 -1.062,-1.774 -0.129,0 -0.219,0.082 -0.219,0.184 0,0.027 0.012,0.058 0.039,0.117 0.051,0.062 0.063,0.109 0.063,0.172 0,0.23 -0.203,0.418 -0.434,0.418 -0.226,0 -0.398,-0.199 -0.398,-0.449 0,-0.372 0.379,-0.668 0.859,-0.668 0.973,0 1.742,1.089 2.191,3.097 l 0.782,3.492 1.187,0 0.071,0.348 -1.18,0 c 0.32,1.723 0.719,2.492 1.332,2.492 0.148,0 0.238,-0.051 0.238,-0.133 0,-0.027 -0.012,-0.046 -0.039,-0.109 -0.043,-0.09 -0.07,-0.148 -0.07,-0.23 0,-0.258 0.168,-0.43 0.41,-0.43 0.25,0 0.461,0.191 0.461,0.43 0,0.41 -0.41,0.711 -0.942,0.711 -0.539,0 -0.96,-0.239 -1.359,-0.75 -0.32,-0.43 -0.543,-0.93 -0.871,-1.981 l -1.012,0 -0.066,-0.348 z" /><path
       inkscape:connector-curvature="0"
       id="path4445"
       style="fill:#000000;fill-opacity:1;fill-rule:evenodd;stroke:none"
       d="m 275.16,65.762 -1.379,-0.703 0,-0.098 c 0.09,0.027 0.18,0.059 0.207,0.078 0.141,0.051 0.274,0.082 0.34,0.082 0.16,0 0.231,-0.109 0.231,-0.351 l 0,-3.469 c 0,-0.25 -0.059,-0.422 -0.18,-0.492 -0.117,-0.071 -0.219,-0.098 -0.551,-0.098 l 0,-0.121 2.121,0 0,0.121 c -0.609,0 -0.73,0.078 -0.73,0.449 l 0,4.578 -0.059,0.024 z" /><path
       inkscape:connector-curvature="0"
       id="path4447"
       style="fill:#000000;fill-opacity:1;fill-rule:evenodd;stroke:none"
       d="m 280.398,61.641 -0.097,0.039 c -0.281,-0.442 -0.379,-0.512 -0.723,-0.512 l -1.828,0 1.281,1.352 c 0.68,0.71 0.981,1.289 0.981,1.89 0,0.758 -0.621,1.352 -1.41,1.352 -0.422,0 -0.821,-0.172 -1.114,-0.481 -0.238,-0.261 -0.347,-0.5 -0.476,-1.043 l 0.16,-0.039 c 0.297,0.75 0.578,0.992 1.098,0.992 0.652,0 1.082,-0.429 1.082,-1.07 0,-0.601 -0.352,-1.312 -0.993,-1.992 L 277,60.691 l 0,-0.101 2.98,0 0.418,1.051 z" /><path
       inkscape:connector-curvature="0"
       id="path4449"
       style="fill:#000000;fill-opacity:1;fill-rule:evenodd;stroke:none"
       d="m 285.98,64.09 -0.121,-0.012 -0.109,-0.008 -0.109,-0.011 -0.11,-0.02 -0.101,-0.008 -0.102,-0.011 -0.09,-0.02 -0.097,-0.02 -0.09,-0.011 -0.09,-0.02 -0.082,-0.019 -0.09,-0.02 -0.078,-0.019 -0.082,-0.02 -0.16,-0.051 -0.149,-0.05 -0.148,-0.059 -0.152,-0.07 -0.141,-0.071 -0.149,-0.082 -0.14,-0.078 -0.149,-0.09 -0.07,-0.05 -0.07,-0.059 c -1.18,-0.84 -1.832,-2.082 -1.832,-3.551 0,-0.949 0.301,-1.91 0.769,-2.449 0.41,-0.492 1,-0.75 1.684,-0.75 1.348,0 2.289,1.039 2.289,2.551 0,1.398 -0.789,2.277 -2.051,2.277 -0.48,0 -0.711,-0.078 -1.398,-0.488 l 0.039,-0.281 c 0.219,0.171 0.558,0.269 0.937,0.269 0.942,0 1.492,-0.789 1.492,-2.148 0,-1.211 -0.429,-1.871 -1.191,-1.871 -0.961,0 -1.551,1.019 -1.551,2.718 0,0.563 0.09,0.864 0.313,1.032 l -0.039,0.281 c 0.297,1.648 1.519,2.828 3.238,3.109 l -0.02,0.18 z" /><path
       inkscape:connector-curvature="0"
       id="path4451"
       style="fill:#000000;fill-opacity:1;fill-rule:evenodd;stroke:none"
       d="m 287.52,58.211 -0.219,-1.742 0.179,0 c 0.09,0.179 0.149,0.23 0.258,0.23 0.121,0 0.321,-0.039 0.532,-0.097 0.25,-0.071 0.429,-0.102 0.609,-0.102 0.91,0 1.57,0.578 1.57,1.41 0,0.418 -0.23,0.899 -0.738,1.539 -0.422,0.512 -0.59,0.852 -0.59,1.141 0,0.359 0.231,0.59 0.609,0.59 0.571,0 0.891,-0.399 1,-1.25 l 0.18,0 0.219,1.519 -0.16,0 c -0.078,-0.16 -0.168,-0.199 -0.321,-0.199 -0.078,0 -0.187,0.02 -0.398,0.078 -0.27,0.082 -0.43,0.102 -0.609,0.102 -0.801,0 -1.321,-0.469 -1.321,-1.2 0,-0.351 0.231,-0.82 0.692,-1.41 0.418,-0.55 0.609,-0.941 0.609,-1.25 0,-0.5 -0.332,-0.851 -0.812,-0.851 -0.598,0 -0.938,0.449 -1.11,1.492 l -0.179,0 z" /><path
       inkscape:connector-curvature="0"
       id="path4453"
       style="fill:#000000;fill-opacity:1;fill-rule:evenodd;stroke:none"
       d="m 295.031,61.641 -0.101,0.039 c -0.289,-0.442 -0.391,-0.512 -0.731,-0.512 l -1.828,0 1.289,1.352 c 0.68,0.71 0.981,1.289 0.981,1.89 0,0.758 -0.621,1.352 -1.422,1.352 -0.418,0 -0.821,-0.172 -1.098,-0.481 -0.25,-0.261 -0.359,-0.5 -0.492,-1.043 l 0.16,-0.039 c 0.313,0.75 0.582,0.992 1.109,0.992 0.641,0 1.082,-0.429 1.082,-1.07 0,-0.601 -0.351,-1.312 -1,-1.992 l -1.359,-1.438 0,-0.101 2.988,0 0.422,1.051 z" /><path
       d="m 255.602,311.602 173.175,0"
       style="fill:none;stroke:#000000;stroke-width:0.80000001;stroke-linecap:butt;stroke-linejoin:miter;stroke-miterlimit:4;stroke-dasharray:6.4, 0.8;stroke-dashoffset:0;stroke-opacity:1"
       id="path4457"
       inkscape:connector-curvature="0" /><path
       d="m 247.602,430.398 94.355,-92.75 86.031,0"
       style="fill:none;stroke:#000000;stroke-width:0.80000001;stroke-linecap:butt;stroke-linejoin:miter;stroke-miterlimit:4;stroke-dasharray:6.4, 0.8;stroke-dashoffset:0;stroke-opacity:1"
       id="path4461"
       inkscape:connector-curvature="0" /></g></svg>