<?xml version="1.0" encoding="UTF-8" standalone="no"?>
<!-- Created with Inkscape (http://www.inkscape.org/) -->

<svg
   xmlns:dc="http://purl.org/dc/elements/1.1/"
   xmlns:cc="http://creativecommons.org/ns#"
   xmlns:rdf="http://www.w3.org/1999/02/22-rdf-syntax-ns#"
   xmlns:svg="http://www.w3.org/2000/svg"
   xmlns="http://www.w3.org/2000/svg"
   xmlns:sodipodi="http://sodipodi.sourceforge.net/DTD/sodipodi-0.dtd"
   xmlns:inkscape="http://www.inkscape.org/namespaces/inkscape"
   width="451.58597pt"
   height="150pt"
   viewBox="0 0 564.48248 187.5"
   id="svg2"
   version="1.1"
   inkscape:version="0.91 r"
   sodipodi:docname="TC_scheme.svg">
  <sodipodi:namedview
     id="base"
     pagecolor="#ffffff"
     bordercolor="#666666"
     borderopacity="1.0"
     inkscape:pageopacity="0.0"
     inkscape:pageshadow="2"
     inkscape:zoom="2.4582031"
     inkscape:cx="198.3976"
     inkscape:cy="108.00314"
     inkscape:document-units="px"
     inkscape:current-layer="layer1"
     showgrid="false"
     units="pt"
     inkscape:window-width="1920"
     inkscape:window-height="1025"
     inkscape:window-x="-2"
     inkscape:window-y="-3"
     inkscape:window-maximized="1" />
  <defs
     id="defs4">
    <marker
       inkscape:isstock="true"
       style="overflow:visible"
       id="marker5614"
       refX="0.0"
       refY="0.0"
       orient="auto"
       inkscape:stockid="Arrow1Sstart">
      <path
         transform="scale(0.2) translate(6,0)"
         style="fill-rule:evenodd;stroke:#000000;stroke-width:1pt;stroke-opacity:1;fill:#000000;fill-opacity:1"
         d="M 0.0,0.0 L 5.0,-5.0 L -12.5,0.0 L 5.0,5.0 L 0.0,0.0 z "
         id="path5616" />
    </marker>
    <marker
       inkscape:stockid="Arrow1Sstart"
       orient="auto"
       refY="0.0"
       refX="0.0"
       id="Arrow1Sstart"
       style="overflow:visible"
       inkscape:isstock="true"
       inkscape:collect="always">
      <path
         id="path5348"
         d="M 0.0,0.0 L 5.0,-5.0 L -12.5,0.0 L 5.0,5.0 L 0.0,0.0 z "
         style="fill-rule:evenodd;stroke:#000000;stroke-width:1pt;stroke-opacity:1;fill:#000000;fill-opacity:1"
         transform="scale(0.2) translate(6,0)" />
    </marker>
  </defs>
  <metadata
     id="metadata7">
    <rdf:RDF>
      <cc:Work
         rdf:about="">
        <dc:format>image/svg+xml</dc:format>
        <dc:type
           rdf:resource="http://purl.org/dc/dcmitype/StillImage" />
        <dc:title></dc:title>
      </cc:Work>
    </rdf:RDF>
  </metadata>
  <g
     transform="translate(0,-864.86223)"
     id="layer1"
     inkscape:groupmode="layer"
     inkscape:label="Layer 1">
    <path
       inkscape:connector-curvature="0"
       id="path4136"
       d="m 234.8455,899.90247 -16.45313,16.45312 27.92774,27.92774 c -5.21039,10.07609 -4.64904,22.2667 0.20312,32.33008 l -28.13086,28.13089 c 5.48462,5.4846 10.9685,10.9704 16.45313,16.455 l 27.92578,-27.92769 c 1.74625,0.84181 3.58061,1.54435 5.50977,2.0625 9.03884,3.16801 18.65789,1.92482 26.83789,-2.25 l 28.11523,28.11519 16.45508,-16.455 -27.9668,-27.96683 c 2.55218,-4.91174 3.9487,-10.42763 3.72852,-16.22656 0.0139,-5.58944 -1.31423,-11.16411 -3.78907,-16.16992 l 28.0254,-28.0254 -16.45313,-16.45312 -27.96289,27.96289 c -10.05437,-4.78055 -22.36341,-4.71311 -32.42969,0.0332 L 234.8455,899.90247 Z"
       style="opacity:1;fill:none;fill-opacity:1;fill-rule:nonzero;stroke:#000000;stroke-width:2;stroke-miterlimit:4;stroke-dasharray:none;stroke-dashoffset:0;stroke-opacity:1" />
    <path
       inkscape:connector-curvature="0"
       id="path4171"
       d="m 349.95254,871.46855 8.04058,30.00782"
       style="fill:none;fill-rule:evenodd;stroke:#000000;stroke-width:1px;stroke-linecap:butt;stroke-linejoin:miter;stroke-opacity:1" />
    <path
       inkscape:connector-curvature="0"
       id="path4173"
       d="M 204.57791,1035.0138 353.50372,886.08797"
       style="fill:none;fill-rule:evenodd;stroke:#004aff;stroke-width:1.5;stroke-linecap:butt;stroke-linejoin:miter;stroke-miterlimit:4;stroke-dasharray:none;stroke-opacity:1" />
    <path
       style="fill:none;fill-rule:evenodd;stroke:#004aff;stroke-width:1.5;stroke-linecap:butt;stroke-linejoin:miter;stroke-miterlimit:4;stroke-dasharray:none;stroke-opacity:1"
       d="m 204.03405,886.30767 150,-3e-5"
       id="path4175"
       inkscape:connector-curvature="0" />
    <path
       style="fill:none;fill-rule:evenodd;stroke:#004aff;stroke-width:1.5;stroke-linecap:butt;stroke-linejoin:miter;stroke-miterlimit:4;stroke-dasharray:none;stroke-opacity:1"
       d="M 353.50371,1035.0138 204.57792,886.08796"
       id="path4177"
       inkscape:connector-curvature="0" />
    <path
       style="fill:none;fill-rule:evenodd;stroke:#000000;stroke-width:1px;stroke-linecap:butt;stroke-linejoin:miter;stroke-opacity:1"
       d="m 207.99312,871.46855 -8.04058,30.00782"
       id="path4179"
       inkscape:connector-curvature="0" />
    <path
       inkscape:connector-curvature="0"
       id="path4181"
       d="m 364.65932,1023.5645 -21.96728,21.9673"
       style="fill:none;fill-rule:evenodd;stroke:#000000;stroke-width:1px;stroke-linecap:butt;stroke-linejoin:miter;stroke-opacity:1" />
    <circle
       r="6.5264926"
       cy="960.5509"
       cx="279.0408"
       id="path4192"
       style="opacity:1;fill:#9a9a7d;fill-opacity:1;fill-rule:nonzero;stroke:none;stroke-width:6.94701481;stroke-miterlimit:4;stroke-dasharray:none;stroke-dashoffset:0;stroke-opacity:1" />
    <g
       id="g5296"
       transform="translate(237.9787,108.58815)">
      <path
         id="path5172"
         d="m 58.43289,931.7347 0.0125,-0.0125 0.025,0 0.0125,0 0.0125,-0.0125 0.0125,0 0.0125,0 0.0375,0 0.025,-0.0125 0.025,0 0.025,-0.0125 0.025,0 0.025,0 0.025,0 0.025,0 0.025,-0.0125 0.025,0 0.0375,0 0.025,0 0.025,0 c 0.35,0 0.475,0.225 0.475,0.875 l 0,3.4625 c 0,0.7375 -0.1875,0.9375 -0.95,0.95 l 0,0.2125 3.025,0 0,-0.2125 c -0.725,-0.025 -0.925,-0.175 -0.925,-0.7125 l 0,-3.85 c 0,-0.025 0.1125,-0.1625 0.2,-0.2625 0.35,-0.3125 0.9375,-0.5375 1.4125,-0.5375 0.6,0 0.9,0.475 0.9,1.425 l 0,2.9625 c 0,0.775 -0.15,0.925 -0.925,0.975 l 0,0.2125 3.0625,0 0,-0.2125 c -0.7875,-0.0125 -0.9875,-0.25 -0.9875,-1.0875 l 0,-3.45 c 0.4125,-0.5875 0.8625,-0.825 1.4875,-0.825 0.775,0 1.025,0.3625 1.025,1.5 l 0,2.875 c 0,0.7875 -0.1125,0.9 -0.9,0.9875 l 0,0.2125 2.9875,0 0,-0.2125 -0.35,-0.025 c -0.4125,-0.025 -0.5875,-0.275 -0.5875,-0.8125 l 0,-2.8125 c 0,-1.6125 -0.5375,-2.425 -1.5875,-2.425 -0.8,0 -1.4875,0.35 -2.225,1.15 -0.25,-0.7875 -0.7125,-1.15 -1.45,-1.15 -0.6,0 -0.9875,0.1875 -2.1125,1.05 l 0,-1.025 -0.1,-0.025 c -0.7,0.2625 -1.1625,0.4125 -1.9125,0.6125 z"
         inkscape:connector-curvature="0"
         style="font-style:normal;font-variant:normal;font-weight:normal;font-stretch:normal;letter-spacing:normal;word-spacing:normal;text-anchor:start;fill:#000000;fill-opacity:1;fill-rule:evenodd;stroke:#000000;stroke-width:0;stroke-linecap:butt;stroke-linejoin:miter;stroke-miterlimit:10.43299961;stroke-dasharray:none;stroke-dashoffset:0;stroke-opacity:1" />
      <path
         id="path5174"
         d="m 71.22039,930.8847 -2.1125,0.75 0,0.2 0.1,-0.0125 c 0.175,-0.025 0.35,-0.0375 0.4625,-0.0375 0.3375,0 0.4625,0.2125 0.4625,0.8125 l 0,3.175 c 0,0.9875 -0.1375,1.1375 -1.0875,1.1875 l 0,0.2125 3.2375,0 0,-0.2125 c -0.9,-0.0625 -1.0125,-0.2 -1.0125,-1.1875 l 0,-4.85 z"
         inkscape:connector-curvature="0"
         style="font-style:normal;font-variant:normal;font-weight:normal;font-stretch:normal;letter-spacing:normal;word-spacing:normal;text-anchor:start;fill:#000000;fill-opacity:1;fill-rule:evenodd;stroke:#000000;stroke-width:0;stroke-linecap:butt;stroke-linejoin:miter;stroke-miterlimit:10.43299961;stroke-dasharray:none;stroke-dashoffset:0;stroke-opacity:1" />
      <path
         id="path5176"
         d="m 70.58289,927.8347 -0.0375,0 -0.0375,0 -0.025,0.0125 -0.0375,0 -0.0375,0.0125 -0.025,0.0125 -0.0375,0.0125 -0.025,0.0125 -0.0375,0.0125 -0.025,0.0125 -0.025,0.0125 -0.0375,0.025 -0.025,0.0125 -0.025,0.025 -0.025,0.025 -0.025,0.025 -0.025,0.025 -0.0125,0.025 -0.025,0.025 -0.0125,0.025 -0.025,0.025 -0.0125,0.025 -0.0125,0.0375 -0.025,0.025 -0.0125,0.0375 0,0.025 -0.0125,0.0375 -0.0125,0.0375 0,0.025 -0.0125,0.0375 0,0.0375 0,0.0375 c 0,0.3875 0.3,0.7 0.6875,0.7 0.3875,0 0.7125,-0.3 0.7125,-0.7 0,-0.3875 -0.325,-0.7 -0.7125,-0.7 z"
         inkscape:connector-curvature="0"
         style="font-style:normal;font-variant:normal;font-weight:normal;font-stretch:normal;letter-spacing:normal;word-spacing:normal;text-anchor:start;fill:#000000;fill-opacity:1;fill-rule:evenodd;stroke:#000000;stroke-width:0;stroke-linecap:butt;stroke-linejoin:miter;stroke-miterlimit:10.43299961;stroke-dasharray:none;stroke-dashoffset:0;stroke-opacity:1" />
      <path
         id="path5178"
         d="m 72.73289,931.8347 0.025,0 0.0125,0 0.0125,-0.0125 0.025,0 0.025,0 0.0375,-0.0125 0.025,0 0.025,0 0.0375,-0.0125 0.025,0 0.025,0 0.025,0 0.0375,-0.0125 0.025,0 0.025,0 0.0375,0 0.025,0 0.025,0 c 0.35,0 0.475,0.2125 0.475,0.8125 l 0,3.425 c 0,0.675 -0.1,0.775 -0.975,0.9375 l 0,0.2125 3.275,0 0,-0.2125 c -0.925,-0.0375 -1.1625,-0.25 -1.1625,-1.025 l 0,-3.075 c 0,-0.4375 0.5875,-1.1125 0.9625,-1.1125 0.075,0 0.2,0.0625 0.35,0.2 0.225,0.1875 0.375,0.275 0.55,0.275 0.325,0 0.525,-0.2375 0.525,-0.6125 0,-0.45 -0.275,-0.725 -0.75,-0.725 -0.575,0 -0.9625,0.3125 -1.6375,1.2875 l 0,-1.2625 -0.0625,-0.025 c -0.725,0.3 -1.2125,0.475 -2.025,0.7375 z"
         inkscape:connector-curvature="0"
         style="font-style:normal;font-variant:normal;font-weight:normal;font-stretch:normal;letter-spacing:normal;word-spacing:normal;text-anchor:start;fill:#000000;fill-opacity:1;fill-rule:evenodd;stroke:#000000;stroke-width:0;stroke-linecap:butt;stroke-linejoin:miter;stroke-miterlimit:10.43299961;stroke-dasharray:none;stroke-dashoffset:0;stroke-opacity:1" />
      <path
         id="path5180"
         d="m 77.29539,931.8347 0.0125,0 0.025,0 0.0125,-0.0125 0.025,0 0.025,0 0.0375,-0.0125 0.025,0 0.025,0 0.0375,-0.0125 0.025,0 0.025,0 0.025,0 0.0375,-0.0125 0.025,0 0.025,0 0.0375,0 0.025,0 0.025,0 c 0.35,0 0.4625,0.2125 0.4625,0.8125 l 0,3.425 c 0,0.675 -0.0875,0.775 -0.9625,0.9375 l 0,0.2125 3.275,0 0,-0.2125 c -0.925,-0.0375 -1.1625,-0.25 -1.1625,-1.025 l 0,-3.075 c 0,-0.4375 0.5875,-1.1125 0.9625,-1.1125 0.075,0 0.2,0.0625 0.35,0.2 0.225,0.1875 0.375,0.275 0.55,0.275 0.325,0 0.525,-0.2375 0.525,-0.6125 0,-0.45 -0.275,-0.725 -0.75,-0.725 -0.5625,0 -0.9625,0.3125 -1.6375,1.2875 l 0,-1.2625 -0.0625,-0.025 c -0.725,0.3 -1.2125,0.475 -2.025,0.7375 z"
         inkscape:connector-curvature="0"
         style="font-style:normal;font-variant:normal;font-weight:normal;font-stretch:normal;letter-spacing:normal;word-spacing:normal;text-anchor:start;fill:#000000;fill-opacity:1;fill-rule:evenodd;stroke:#000000;stroke-width:0;stroke-linecap:butt;stroke-linejoin:miter;stroke-miterlimit:10.43299961;stroke-dasharray:none;stroke-dashoffset:0;stroke-opacity:1" />
      <path
         id="path5182"
         d="m 85.18289,930.8847 -0.175,0 -0.1625,0.0125 -0.15,0.025 -0.1625,0.025 -0.15,0.025 -0.15,0.05 -0.1375,0.0375 -0.1375,0.0625 -0.1375,0.05 -0.125,0.075 -0.1375,0.075 -0.1125,0.075 -0.125,0.0875 -0.1125,0.0875 -0.1,0.1 -0.1,0.1 -0.1,0.1125 -0.1,0.1125 -0.0875,0.1125 -0.075,0.125 -0.075,0.1375 -0.075,0.125 -0.0625,0.1375 -0.05,0.15 -0.05,0.15 -0.05,0.15 -0.0375,0.15 -0.025,0.1625 -0.025,0.1625 -0.025,0.175 -0.0125,0.175 0,0.175 c 0,1.8375 1.275,3.2125 2.9875,3.2125 l 0.1625,-0.375 c -0.525,0 -1.0375,-0.325 -1.325,-0.875 -0.375,-0.7125 -0.6,-1.6625 -0.6,-2.6375 0,-1.3 0.65,-2.15 1.6125,-2.15 l 0,0 c 1.15,0 1.9625,1.3125 1.9625,3.1875 0,1.5375 -0.625,2.475 -1.65,2.475 l -0.1625,0.375 c 1.725,0 3.0375,-1.4375 3.0375,-3.325 0,-1.7875 -1.2625,-3.0875 -3,-3.0875 z"
         inkscape:connector-curvature="0"
         style="font-style:normal;font-variant:normal;font-weight:normal;font-stretch:normal;letter-spacing:normal;word-spacing:normal;text-anchor:start;fill:#000000;fill-opacity:1;fill-rule:evenodd;stroke:#000000;stroke-width:0;stroke-linecap:butt;stroke-linejoin:miter;stroke-miterlimit:10.43299961;stroke-dasharray:none;stroke-dashoffset:0;stroke-opacity:1" />
      <path
         id="path5184"
         d="m 88.70789,931.8347 0.0125,0 0.025,0 0.0125,-0.0125 0.0125,0 0.0375,0 0.025,-0.0125 0.0375,0 0.025,0 0.0375,-0.0125 0.025,0 0.025,0 0.025,0 0.0375,-0.0125 0.025,0 0.025,0 0.025,0 0.0375,0 0.025,0 c 0.3375,0 0.4625,0.2125 0.4625,0.8125 l 0,3.425 c 0,0.675 -0.0875,0.775 -0.9625,0.9375 l 0,0.2125 3.275,0 0,-0.2125 c -0.925,-0.0375 -1.1625,-0.25 -1.1625,-1.025 l 0,-3.075 c 0,-0.4375 0.5875,-1.1125 0.9625,-1.1125 0.075,0 0.2,0.0625 0.35,0.2 0.225,0.1875 0.375,0.275 0.55,0.275 0.325,0 0.525,-0.2375 0.525,-0.6125 0,-0.45 -0.2875,-0.725 -0.75,-0.725 -0.575,0 -0.9625,0.3125 -1.6375,1.2875 l 0,-1.2625 -0.0625,-0.025 c -0.725,0.3 -1.225,0.475 -2.025,0.7375 z"
         inkscape:connector-curvature="0"
         style="font-style:normal;font-variant:normal;font-weight:normal;font-stretch:normal;letter-spacing:normal;word-spacing:normal;text-anchor:start;fill:#000000;fill-opacity:1;fill-rule:evenodd;stroke:#000000;stroke-width:0;stroke-linecap:butt;stroke-linejoin:miter;stroke-miterlimit:10.43299961;stroke-dasharray:none;stroke-dashoffset:0;stroke-opacity:1" />
    </g>
    <g
       id="g5305"
       transform="translate(269.89311,3.0724535)">
      <path
         id="path5186"
         d="m 64.20789,961.1722 -0.025,0.0125 -0.0125,0.025 -0.025,0.0125 -0.025,0.0125 -0.0125,0.0125 -0.025,0.0125 -0.0125,0.025 -0.025,0.0125 -0.0125,0.0125 -0.025,0 -0.0125,0.0125 -0.025,0.0125 -0.0125,0.0125 -0.025,0.0125 -0.0125,0 -0.025,0.0125 -0.0125,0.0125 -0.025,0 -0.0125,0.0125 -0.0125,0 -0.025,0.0125 -0.0125,0 -0.025,0 -0.0125,0.0125 -0.0375,0 -0.0375,0 -0.0375,0.0125 -0.0375,0 c -0.3125,0 -0.4125,-0.2 -0.4125,-0.8 l 0,-2.6625 c 0,-0.7125 -0.0625,-1.1 -0.2625,-1.4375 -0.3125,-0.4875 -0.9,-0.75 -1.7,-0.75 -1.2875,0 -2.3,0.675 -2.3,1.5375 0,0.3125 0.275,0.5875 0.5875,0.5875 0.3375,0 0.625,-0.275 0.625,-0.575 0,-0.05 -0.025,-0.125 -0.0375,-0.225 -0.025,-0.125 -0.0375,-0.225 -0.0375,-0.325 0,-0.3625 0.4375,-0.6625 0.9875,-0.6625 0.6625,0 1.0375,0.3875 1.0375,1.125 l 0,0.8375 0,0.325 0,1.9875 c 0,0.4125 -0.075,0.5375 -0.3625,0.7 -0.325,0.2 -0.7,0.325 -0.9875,0.325 -0.4875,0 -0.8625,-0.475 -0.8625,-1.0625 l 0,-0.05 c 0,-0.8 0.5625,-1.3 2.2125,-1.9 l 0,-0.325 c -2.1125,0.85 -2.3375,0.95 -2.925,1.475 -0.3,0.275 -0.4875,0.7375 -0.4875,1.1875 0,0.8625 0.6,1.4625 1.425,1.4625 0.6,0 1.1625,-0.2875 2,-1 0.0625,0.7125 0.3125,1 0.875,1 0.4625,0 0.75,-0.1625 1.225,-0.6875 z"
         inkscape:connector-curvature="0"
         style="font-style:normal;font-variant:normal;font-weight:normal;font-stretch:normal;letter-spacing:normal;word-spacing:normal;text-anchor:start;fill:#000000;fill-opacity:1;fill-rule:evenodd;stroke:#000000;stroke-width:0;stroke-linecap:butt;stroke-linejoin:miter;stroke-miterlimit:10.43299961;stroke-dasharray:none;stroke-dashoffset:0;stroke-opacity:1" />
      <path
         id="path5188"
         d="m 67.73289,955.9222 -1.375,0 0,-1.5875 c 0,-0.125 -0.0125,-0.175 -0.1,-0.175 -0.0875,0.125 -0.175,0.25 -0.275,0.3875 -0.5125,0.75 -1.1,1.4125 -1.3125,1.4625 -0.15,0.1 -0.2375,0.1875 -0.2375,0.2625 0,0.0375 0.0125,0.0625 0.05,0.0875 l 0.725,0 0,4.1125 c 0,1.15 0.4125,1.7375 1.225,1.7375 0.6625,0 1.1875,-0.325 1.6375,-1.0375 l -0.1875,-0.15 c -0.275,0.3375 -0.5125,0.475 -0.8125,0.475 -0.5,0 -0.7125,-0.3625 -0.7125,-1.225 l 0,-3.9125 1.375,0 z"
         inkscape:connector-curvature="0"
         style="font-style:normal;font-variant:normal;font-weight:normal;font-stretch:normal;letter-spacing:normal;word-spacing:normal;text-anchor:start;fill:#000000;fill-opacity:1;fill-rule:evenodd;stroke:#000000;stroke-width:0;stroke-linecap:butt;stroke-linejoin:miter;stroke-miterlimit:10.43299961;stroke-dasharray:none;stroke-dashoffset:0;stroke-opacity:1" />
      <path
         id="path5190"
         d="m 71.48289,955.7847 -0.175,0.0125 -0.1625,0.0125 -0.15,0.0125 -0.1625,0.025 -0.15,0.0375 -0.1375,0.0375 -0.15,0.05 -0.1375,0.05 -0.1375,0.0625 -0.125,0.0625 -0.125,0.075 -0.125,0.075 -0.125,0.0875 -0.1125,0.1 -0.1,0.0875 -0.1,0.1125 -0.1,0.1 -0.1,0.1125 -0.075,0.125 -0.0875,0.125 -0.075,0.125 -0.0625,0.1375 -0.075,0.1375 -0.05,0.1375 -0.05,0.15 -0.05,0.15 -0.0375,0.1625 -0.025,0.1625 -0.025,0.1625 -0.025,0.1625 -0.0125,0.175 0,0.175 c 0,1.85 1.275,3.225 2.9875,3.225 l 0.1625,-0.3875 c -0.525,0 -1.0375,-0.325 -1.325,-0.875 -0.375,-0.7 -0.5875,-1.6625 -0.5875,-2.6375 0,-1.2875 0.6375,-2.1375 1.6,-2.1375 l 0,0 c 1.15,0 1.9625,1.3125 1.9625,3.175 0,1.55 -0.6125,2.475 -1.65,2.475 l -0.1625,0.3875 c 1.725,0 3.0375,-1.45 3.0375,-3.3375 0,-1.7875 -1.25,-3.0875 -3,-3.0875 z"
         inkscape:connector-curvature="0"
         style="font-style:normal;font-variant:normal;font-weight:normal;font-stretch:normal;letter-spacing:normal;word-spacing:normal;text-anchor:start;fill:#000000;fill-opacity:1;fill-rule:evenodd;stroke:#000000;stroke-width:0;stroke-linecap:butt;stroke-linejoin:miter;stroke-miterlimit:10.43299961;stroke-dasharray:none;stroke-dashoffset:0;stroke-opacity:1" />
      <path
         id="path5192"
         d="m 75.17039,956.6347 0.0125,0 0.025,0 0.0125,-0.0125 0.0125,0 0.0125,0 0.025,-0.0125 0.025,0 0.025,0 0.025,-0.0125 0.025,0 0.025,0 0.025,-0.0125 0.025,0 0.0375,0 0.025,0 0.025,0 0.025,0 0.025,0 0.025,0 c 0.35,0 0.475,0.2125 0.475,0.875 l 0,3.45 c 0,0.7375 -0.1875,0.9375 -0.95,0.9625 l 0,0.2 3.025,0 0,-0.2 c -0.7125,-0.0375 -0.925,-0.1875 -0.925,-0.7125 l 0,-3.85 c 0,-0.025 0.1125,-0.175 0.2125,-0.2625 0.3375,-0.3125 0.925,-0.55 1.4,-0.55 0.6,0 0.9,0.475 0.9,1.4375 l 0,2.9625 c 0,0.7625 -0.15,0.9125 -0.925,0.975 l 0,0.2 3.0625,0 0,-0.2 c -0.7875,-0.025 -0.9875,-0.25 -0.9875,-1.1 l 0,-3.4375 c 0.4125,-0.5875 0.8625,-0.8375 1.4875,-0.8375 0.775,0 1.025,0.375 1.025,1.5 l 0,2.8875 c 0,0.775 -0.1125,0.8875 -0.9,0.9875 l 0,0.2 2.9875,0 0,-0.2 -0.35,-0.0375 c -0.4125,-0.025 -0.5875,-0.2625 -0.5875,-0.8 l 0,-2.8125 c 0,-1.6125 -0.5375,-2.4375 -1.5875,-2.4375 -0.7875,0 -1.4875,0.3625 -2.225,1.15 -0.25,-0.775 -0.7125,-1.15 -1.45,-1.15 -0.6,0 -0.9875,0.2 -2.1125,1.05 l 0,-1.025 -0.1,-0.025 c -0.7,0.2625 -1.1625,0.4125 -1.9125,0.625 z"
         inkscape:connector-curvature="0"
         style="font-style:normal;font-variant:normal;font-weight:normal;font-stretch:normal;letter-spacing:normal;word-spacing:normal;text-anchor:start;fill:#000000;fill-opacity:1;fill-rule:evenodd;stroke:#000000;stroke-width:0;stroke-linecap:butt;stroke-linejoin:miter;stroke-miterlimit:10.43299961;stroke-dasharray:none;stroke-dashoffset:0;stroke-opacity:1" />
      <path
         id="path5194"
         d="m 91.08289,952.7722 -0.0625,-0.025 c -0.575,0.2 -0.95,0.3125 -1.5875,0.4875 l -0.4,0.1125 0,0.2125 c 0.0875,-0.0125 0.1375,-0.0125 0.2375,-0.0125 0.5375,0 0.6625,0.125 0.6625,0.7 l 0,7.0875 c 0,0.425 1.1625,0.875 2.2625,0.875 l 0.2125,-0.4375 c -0.7125,0 -1.325,-0.3125 -1.325,-0.6625 l 0,-3.4375 c 0,-0.5375 0.6375,-1.025 1.35,-1.025 1.075,0 1.75,1.0625 1.75,2.7375 0,1.5125 -0.65,2.3875 -1.775,2.3875 l -0.2125,0.4375 c 1.8,0 3.1875,-1.5 3.1875,-3.45 0,-1.6875 -1.0375,-2.975 -2.4,-2.975 -0.8375,0 -1.625,0.5 -1.9,1.1625 z"
         inkscape:connector-curvature="0"
         style="font-style:normal;font-variant:normal;font-weight:normal;font-stretch:normal;letter-spacing:normal;word-spacing:normal;text-anchor:start;fill:#000000;fill-opacity:1;fill-rule:evenodd;stroke:#000000;stroke-width:0;stroke-linecap:butt;stroke-linejoin:miter;stroke-miterlimit:10.43299961;stroke-dasharray:none;stroke-dashoffset:0;stroke-opacity:1" />
      <path
         id="path5196"
         d="m 101.42039,959.8347 -0.0625,0.0875 -0.0625,0.1 -0.0625,0.0875 -0.0625,0.0875 -0.0625,0.075 -0.05,0.075 -0.0625,0.075 -0.0625,0.075 -0.0625,0.0625 -0.0625,0.0625 -0.0625,0.0625 -0.05,0.0625 -0.0625,0.05 -0.0625,0.05 -0.0625,0.05 -0.0625,0.0375 -0.0625,0.05 -0.075,0.0375 -0.0625,0.025 -0.0625,0.0375 -0.075,0.025 -0.0625,0.0375 -0.0625,0.025 -0.075,0.0125 -0.075,0.025 -0.075,0.0125 -0.0625,0.0125 -0.075,0.0125 -0.0875,0.0125 -0.075,0 -0.075,0 -0.0875,0.0125 c -0.775,0 -1.3625,-0.4 -1.7625,-1.175 -0.2375,-0.525 -0.3375,-0.975 -0.3625,-1.8125 l 0.025,-0.4375 c 0.15,-1.0625 0.6125,-1.5625 1.45,-1.5625 0.8375,0 1.1625,0.375 1.3375,1.5625 l -2.7875,0 -0.025,0.4375 4.2,0 c -0.1,-0.8875 -0.2375,-1.275 -0.5875,-1.7125 -0.4,-0.5 -1.0375,-0.7875 -1.7375,-0.7875 -0.6875,0 -1.325,0.25 -1.85,0.7125 -0.6375,0.5625 -1.0125,1.5375 -1.0125,2.65 0,1.8875 0.9875,3.0625 2.55,3.0625 1.3,0 2.325,-0.8 2.9,-2.2875 z"
         inkscape:connector-curvature="0"
         style="font-style:normal;font-variant:normal;font-weight:normal;font-stretch:normal;letter-spacing:normal;word-spacing:normal;text-anchor:start;fill:#000000;fill-opacity:1;fill-rule:evenodd;stroke:#000000;stroke-width:0;stroke-linecap:butt;stroke-linejoin:miter;stroke-miterlimit:10.43299961;stroke-dasharray:none;stroke-dashoffset:0;stroke-opacity:1" />
      <path
         id="path5198"
         d="m 107.97039,961.1722 -0.025,0.0125 -0.025,0.025 -0.025,0.0125 -0.0125,0.0125 -0.025,0.0125 -0.0125,0.0125 -0.025,0.025 -0.025,0.0125 -0.0125,0.0125 -0.025,0 -0.0125,0.0125 -0.025,0.0125 -0.0125,0.0125 -0.0125,0.0125 -0.025,0 -0.0125,0.0125 -0.025,0.0125 -0.0125,0 -0.025,0.0125 -0.0125,0 -0.0125,0.0125 -0.025,0 -0.0125,0 -0.025,0.0125 -0.0375,0 -0.0375,0 -0.0375,0.0125 -0.0375,0 c -0.3125,0 -0.4,-0.2 -0.4,-0.8 l 0,-2.6625 c 0,-0.7125 -0.075,-1.1 -0.275,-1.4375 -0.3,-0.4875 -0.8875,-0.75 -1.7,-0.75 -1.275,0 -2.2875,0.675 -2.2875,1.5375 0,0.3125 0.275,0.5875 0.5875,0.5875 0.325,0 0.6125,-0.275 0.6125,-0.575 0,-0.05 -0.0125,-0.125 -0.025,-0.225 -0.0375,-0.125 -0.05,-0.225 -0.05,-0.325 0,-0.3625 0.4375,-0.6625 0.9875,-0.6625 0.675,0 1.0375,0.3875 1.0375,1.125 l 0,0.8375 0,0.325 0,1.9875 c 0,0.4125 -0.0625,0.5375 -0.35,0.7 -0.3375,0.2 -0.7125,0.325 -1,0.325 -0.475,0 -0.8625,-0.475 -0.8625,-1.0625 l 0,-0.05 c 0,-0.8 0.5625,-1.3 2.2125,-1.9 l 0,-0.325 c -2.1,0.85 -2.3375,0.95 -2.925,1.475 -0.3,0.275 -0.4875,0.7375 -0.4875,1.1875 0,0.8625 0.6,1.4625 1.4375,1.4625 0.6,0 1.1625,-0.2875 1.9875,-1 0.075,0.7125 0.3125,1 0.875,1 0.4625,0 0.75,-0.1625 1.2375,-0.6875 z"
         inkscape:connector-curvature="0"
         style="font-style:normal;font-variant:normal;font-weight:normal;font-stretch:normal;letter-spacing:normal;word-spacing:normal;text-anchor:start;fill:#000000;fill-opacity:1;fill-rule:evenodd;stroke:#000000;stroke-width:0;stroke-linecap:butt;stroke-linejoin:miter;stroke-miterlimit:10.43299961;stroke-dasharray:none;stroke-dashoffset:0;stroke-opacity:1" />
      <path
         id="path5200"
         d="m 108.27039,956.6347 0.0125,0 0.0125,0 0.025,-0.0125 0.0125,0 0.0125,0 0.0125,-0.0125 0.0375,0 0.025,0 0.025,-0.0125 0.025,0 0.025,0 0.025,-0.0125 0.025,0 0.025,0 0.025,0 0.025,0 0.025,0 0.0375,0 0.025,0 c 0.35,0 0.475,0.2125 0.475,0.875 l 0,3.45 c 0,0.7375 -0.1875,0.9375 -0.95,0.9625 l 0,0.2 3.025,0 0,-0.2 c -0.725,-0.0375 -0.925,-0.1875 -0.925,-0.7125 l 0,-3.85 c 0,-0.025 0.1,-0.175 0.2,-0.2625 0.35,-0.3125 0.9375,-0.55 1.4125,-0.55 0.6,0 0.9,0.475 0.9,1.4375 l 0,2.9625 c 0,0.7625 -0.15,0.9125 -0.925,0.975 l 0,0.2 3.05,0 0,-0.2 c -0.775,-0.025 -0.975,-0.25 -0.975,-1.1 l 0,-3.4375 c 0.4,-0.5875 0.85,-0.8375 1.4875,-0.8375 0.775,0 1.025,0.375 1.025,1.5 l 0,2.8875 c 0,0.775 -0.1125,0.8875 -0.9,0.9875 l 0,0.2 2.9875,0 0,-0.2 -0.3625,-0.0375 c -0.4,-0.025 -0.575,-0.2625 -0.575,-0.8 l 0,-2.8125 c 0,-1.6125 -0.5375,-2.4375 -1.5875,-2.4375 -0.8,0 -1.4875,0.3625 -2.225,1.15 -0.25,-0.775 -0.7125,-1.15 -1.45,-1.15 -0.6,0 -0.9875,0.2 -2.125,1.05 l 0,-1.025 -0.0875,-0.025 c -0.7,0.2625 -1.1625,0.4125 -1.9125,0.625 z"
         inkscape:connector-curvature="0"
         style="font-style:normal;font-variant:normal;font-weight:normal;font-stretch:normal;letter-spacing:normal;word-spacing:normal;text-anchor:start;fill:#000000;fill-opacity:1;fill-rule:evenodd;stroke:#000000;stroke-width:0;stroke-linecap:butt;stroke-linejoin:miter;stroke-miterlimit:10.43299961;stroke-dasharray:none;stroke-dashoffset:0;stroke-opacity:1" />
    </g>
    <g
       id="g5315"
       transform="translate(68.342603,-40.68012)">
      <path
         id="path5202"
         d="m 64.68289,980.8347 -1.9,0 0,0.2 c 0.45,0.0375 0.65,0.175 0.65,0.4375 0,0.1375 -0.025,0.275 -0.0875,0.4125 l -1.35,3.5375 -1.3875,-3.5 c -0.0875,-0.1875 -0.125,-0.375 -0.125,-0.5 0,-0.25 0.15,-0.35 0.625,-0.3875 l 0,-0.2 -2.675,0 0,0.2 c 0.5125,0.025 0.6125,0.1625 1.2375,1.575 l 1.65,3.9125 c 0.025,0.0875 0.0625,0.1875 0.1,0.2875 0.0875,0.25 0.1625,0.3625 0.25,0.3625 0.075,0 0.175,-0.175 0.3875,-0.6875 l 1.7375,-4.3875 c 0.4,-0.925 0.4875,-1.025 0.8875,-1.0625 z"
         inkscape:connector-curvature="0"
         style="font-style:normal;font-variant:normal;font-weight:normal;font-stretch:normal;letter-spacing:normal;word-spacing:normal;text-anchor:start;fill:#000000;fill-opacity:1;fill-rule:evenodd;stroke:#000000;stroke-width:0;stroke-linecap:butt;stroke-linejoin:miter;stroke-miterlimit:10.43299961;stroke-dasharray:none;stroke-dashoffset:0;stroke-opacity:1" />
      <path
         id="path5204"
         d="m 70.72039,986.0722 -0.025,0.025 -0.025,0.0125 -0.0125,0.0125 -0.025,0.025 -0.025,0.0125 -0.0125,0.0125 -0.025,0.0125 -0.0125,0.0125 -0.025,0.0125 -0.0125,0.0125 -0.025,0.0125 -0.0125,0.0125 -0.025,0 -0.0125,0.0125 -0.025,0.0125 -0.0125,0 -0.025,0.0125 -0.0125,0.0125 -0.0125,0 -0.025,0.0125 -0.0125,0 -0.025,0 -0.0125,0.0125 -0.025,0 -0.025,0.0125 -0.0375,0 -0.0375,0 -0.0375,0 c -0.3125,0 -0.4125,-0.1875 -0.4125,-0.7875 l 0,-2.6625 c 0,-0.7125 -0.075,-1.1125 -0.275,-1.4375 -0.3,-0.4875 -0.8875,-0.75 -1.6875,-0.75 -1.2875,0 -2.3,0.6625 -2.3,1.525 0,0.3125 0.275,0.5875 0.5875,0.5875 0.325,0 0.6125,-0.275 0.6125,-0.575 0,-0.05 -0.0125,-0.1125 -0.025,-0.2125 -0.025,-0.125 -0.0375,-0.2375 -0.0375,-0.325 0,-0.375 0.4375,-0.675 0.975,-0.675 0.675,0 1.0375,0.4 1.0375,1.1375 l 0,0.825 0,0.3375 0,1.975 c 0,0.425 -0.0625,0.55 -0.35,0.7125 -0.325,0.1875 -0.7125,0.3125 -1,0.3125 -0.475,0 -0.8625,-0.4625 -0.8625,-1.05 l 0,-0.05 c 0,-0.8125 0.5625,-1.3 2.2125,-1.9 l 0,-0.3375 c -2.1,0.85 -2.3375,0.9625 -2.925,1.475 -0.2875,0.275 -0.4875,0.7375 -0.4875,1.1875 0,0.8625 0.6,1.4625 1.4375,1.4625 0.6,0 1.1625,-0.2875 2,-0.9875 0.0625,0.7 0.3125,0.9875 0.8625,0.9875 0.4625,0 0.7625,-0.1625 1.2375,-0.675 z"
         inkscape:connector-curvature="0"
         style="font-style:normal;font-variant:normal;font-weight:normal;font-stretch:normal;letter-spacing:normal;word-spacing:normal;text-anchor:start;fill:#000000;fill-opacity:1;fill-rule:evenodd;stroke:#000000;stroke-width:0;stroke-linecap:butt;stroke-linejoin:miter;stroke-miterlimit:10.43299961;stroke-dasharray:none;stroke-dashoffset:0;stroke-opacity:1" />
      <path
         id="path5206"
         d="m 76.19539,984.8472 -0.0625,0.0875 -0.05,0.0875 -0.0625,0.075 -0.0625,0.075 -0.0625,0.075 -0.05,0.075 -0.0625,0.0625 -0.05,0.0625 -0.0625,0.0625 -0.05,0.0625 -0.0625,0.05 -0.05,0.05 -0.0625,0.05 -0.05,0.05 -0.0625,0.0375 -0.05,0.0375 -0.0625,0.0375 -0.05,0.0375 -0.0625,0.025 -0.0625,0.025 -0.05,0.025 -0.0625,0.025 -0.0625,0.025 -0.0625,0.0125 -0.0625,0.025 -0.0625,0.0125 -0.0625,0.0125 -0.0625,0 -0.075,0.0125 -0.0625,0 -0.075,0.0125 -0.075,0 c -1.2375,0 -2.1125,-1.1 -2.1125,-2.6625 0,-1.4125 0.75,-2.375 1.85,-2.375 0.5,0 0.675,0.15 0.8125,0.65 l 0.075,0.3 c 0.1125,0.3875 0.3625,0.625 0.65,0.625 0.35,0 0.65,-0.25 0.65,-0.575 0,-0.7625 -0.95,-1.4 -2.1,-1.4 -0.675,0 -1.3625,0.275 -1.925,0.7625 -0.6875,0.6 -1.0625,1.525 -1.0625,2.6125 0,1.775 1.075,3.0375 2.5875,3.0375 0.6125,0 1.1625,-0.2125 1.6625,-0.6375 0.3625,-0.325 0.625,-0.7 1.0375,-1.5 z"
         inkscape:connector-curvature="0"
         style="font-style:normal;font-variant:normal;font-weight:normal;font-stretch:normal;letter-spacing:normal;word-spacing:normal;text-anchor:start;fill:#000000;fill-opacity:1;fill-rule:evenodd;stroke:#000000;stroke-width:0;stroke-linecap:butt;stroke-linejoin:miter;stroke-miterlimit:10.43299961;stroke-dasharray:none;stroke-dashoffset:0;stroke-opacity:1" />
      <path
         id="path5208"
         d="m 83.38289,986.2972 -0.0625,0 c -0.625,0 -0.775,-0.15 -0.775,-0.775 l 0,-4.6875 -2.1625,0 0,0.225 c 0.85,0.05 1.0125,0.1875 1.0125,0.8625 l 0,3.2125 c 0,0.3875 -0.075,0.575 -0.2625,0.725 -0.3625,0.3 -0.7875,0.4625 -1.2,0.4625 -0.5375,0 -0.975,-0.4625 -0.975,-1.0375 l 0,-4.45 -1.9875,0 0,0.1875 c 0.65,0.0375 0.85,0.25 0.85,0.875 l 0,3.4375 c 0,1.0875 0.65,1.775 1.65,1.775 0.5,0 1.0375,-0.2125 1.4,-0.5875 l 0.5875,-0.5875 0,1.1375 0.0625,0.025 c 0.675,-0.275 1.175,-0.425 1.8625,-0.6125 z"
         inkscape:connector-curvature="0"
         style="font-style:normal;font-variant:normal;font-weight:normal;font-stretch:normal;letter-spacing:normal;word-spacing:normal;text-anchor:start;fill:#000000;fill-opacity:1;fill-rule:evenodd;stroke:#000000;stroke-width:0;stroke-linecap:butt;stroke-linejoin:miter;stroke-miterlimit:10.43299961;stroke-dasharray:none;stroke-dashoffset:0;stroke-opacity:1" />
      <path
         id="path5210"
         d="m 90.23289,986.2972 -0.0625,0 c -0.6375,0 -0.7875,-0.15 -0.7875,-0.775 l 0,-4.6875 -2.15,0 0,0.225 c 0.85,0.05 1.0125,0.1875 1.0125,0.8625 l 0,3.2125 c 0,0.3875 -0.075,0.575 -0.2625,0.725 -0.3625,0.3 -0.7875,0.4625 -1.2,0.4625 -0.5375,0 -0.975,-0.4625 -0.975,-1.0375 l 0,-4.45 -1.9875,0 0,0.1875 c 0.65,0.0375 0.8375,0.25 0.8375,0.875 l 0,3.4375 c 0,1.0875 0.6625,1.775 1.6625,1.775 0.5,0 1.0375,-0.2125 1.4,-0.5875 l 0.5875,-0.5875 0,1.1375 0.0625,0.025 c 0.675,-0.275 1.1625,-0.425 1.8625,-0.6125 z"
         inkscape:connector-curvature="0"
         style="font-style:normal;font-variant:normal;font-weight:normal;font-stretch:normal;letter-spacing:normal;word-spacing:normal;text-anchor:start;fill:#000000;fill-opacity:1;fill-rule:evenodd;stroke:#000000;stroke-width:0;stroke-linecap:butt;stroke-linejoin:miter;stroke-miterlimit:10.43299961;stroke-dasharray:none;stroke-dashoffset:0;stroke-opacity:1" />
      <path
         id="path5212"
         d="m 90.80789,981.5472 0.0125,-0.0125 0.0125,0 0.0125,0 0.025,-0.0125 0.0125,0 0.0125,0 0.025,0 0.0375,-0.0125 0.025,0 0.025,-0.0125 0.025,0 0.025,0 0.025,0 0.025,0 0.025,-0.0125 0.025,0 0.025,0 0.025,0 0.025,0 c 0.3625,0 0.4875,0.225 0.4875,0.875 l 0,3.4625 c 0,0.7375 -0.1875,0.9375 -0.9625,0.95 l 0,0.2 3.0375,0 0,-0.2 c -0.725,-0.025 -0.9375,-0.175 -0.9375,-0.7125 l 0,-3.85 c 0,-0.025 0.1125,-0.1625 0.2125,-0.2625 0.3375,-0.3125 0.925,-0.5375 1.4125,-0.5375 0.6,0 0.9,0.475 0.9,1.425 l 0,2.9625 c 0,0.775 -0.15,0.925 -0.9375,0.975 l 0,0.2 3.0625,0 0,-0.2 c -0.775,-0.0125 -0.9875,-0.25 -0.9875,-1.0875 l 0,-3.45 c 0.4125,-0.5875 0.8625,-0.825 1.4875,-0.825 0.7875,0 1.025,0.3625 1.025,1.5 l 0,2.875 c 0,0.7875 -0.1,0.8875 -0.9,0.9875 l 0,0.2 3,0 0,-0.2 -0.3625,-0.025 c -0.4125,-0.025 -0.5875,-0.275 -0.5875,-0.8125 l 0,-2.8125 c 0,-1.6125 -0.525,-2.425 -1.5875,-2.425 -0.7875,0 -1.4875,0.35 -2.225,1.15 -0.2375,-0.7875 -0.7,-1.15 -1.4375,-1.15 -0.6125,0 -0.9875,0.1875 -2.125,1.05 l 0,-1.025 -0.0875,-0.025 c -0.7,0.2625 -1.1625,0.4125 -1.9125,0.6125 z"
         inkscape:connector-curvature="0"
         style="font-style:normal;font-variant:normal;font-weight:normal;font-stretch:normal;letter-spacing:normal;word-spacing:normal;text-anchor:start;fill:#000000;fill-opacity:1;fill-rule:evenodd;stroke:#000000;stroke-width:0;stroke-linecap:butt;stroke-linejoin:miter;stroke-miterlimit:10.43299961;stroke-dasharray:none;stroke-dashoffset:0;stroke-opacity:1" />
      <path
         id="path5214"
         d="m 110.05789,984.8472 -0.0625,0.0875 -0.05,0.0875 -0.0625,0.075 -0.0625,0.075 -0.05,0.075 -0.0625,0.075 -0.0625,0.0625 -0.05,0.0625 -0.0625,0.0625 -0.05,0.0625 -0.0625,0.05 -0.05,0.05 -0.0625,0.05 -0.05,0.05 -0.0625,0.0375 -0.05,0.0375 -0.0625,0.0375 -0.05,0.0375 -0.0625,0.025 -0.0625,0.025 -0.05,0.025 -0.0625,0.025 -0.0625,0.025 -0.0625,0.0125 -0.0625,0.025 -0.0625,0.0125 -0.0625,0.0125 -0.0625,0 -0.075,0.0125 -0.0625,0 -0.075,0.0125 -0.075,0 c -1.2375,0 -2.1125,-1.1 -2.1125,-2.6625 0,-1.4125 0.75,-2.375 1.85,-2.375 0.5,0 0.675,0.15 0.8125,0.65 l 0.075,0.3 c 0.1125,0.3875 0.3625,0.625 0.65,0.625 0.35,0 0.65,-0.25 0.65,-0.575 0,-0.7625 -0.95,-1.4 -2.1,-1.4 -0.675,0 -1.3625,0.275 -1.925,0.7625 -0.6875,0.6 -1.0625,1.525 -1.0625,2.6125 0,1.775 1.075,3.0375 2.5875,3.0375 0.6125,0 1.1625,-0.2125 1.6625,-0.6375 0.3625,-0.325 0.625,-0.7 1.0375,-1.5 z"
         inkscape:connector-curvature="0"
         style="font-style:normal;font-variant:normal;font-weight:normal;font-stretch:normal;letter-spacing:normal;word-spacing:normal;text-anchor:start;fill:#000000;fill-opacity:1;fill-rule:evenodd;stroke:#000000;stroke-width:0;stroke-linecap:butt;stroke-linejoin:miter;stroke-miterlimit:10.43299961;stroke-dasharray:none;stroke-dashoffset:0;stroke-opacity:1" />
      <path
         id="path5216"
         d="m 112.84539,982.2972 0.0625,-0.0625 0.05,-0.05 0.05,-0.0625 0.05,-0.05 0.05,-0.05 0.05,-0.0375 0.05,-0.05 0.05,-0.0375 0.05,-0.0375 0.0375,-0.05 0.05,-0.025 0.05,-0.0375 0.0375,-0.0375 0.05,-0.025 0.05,-0.025 0.0375,-0.0375 0.05,-0.025 0.05,-0.0125 0.0375,-0.025 0.05,-0.025 0.0375,-0.0125 0.05,-0.0125 0.05,-0.0125 0.0375,-0.0125 0.05,-0.0125 0.05,-0.0125 0.0375,-0.0125 0.05,0 0.05,-0.0125 0.05,0 0.05,0 0.05,0 c 0.675,0 1.025,0.4875 1.025,1.45 l 0,2.7 c 0,0.925 -0.1375,1.1125 -0.9375,1.1875 l 0,0.2 2.9,0 0,-0.2 c -0.7375,-0.1375 -0.825,-0.25 -0.825,-1.1875 l 0,-2.7125 c 0,-1.4375 -0.5625,-2.175 -1.675,-2.175 -0.8,0 -1.375,0.325 -2.0125,1.15 l 0,-4.1625 -0.0625,-0.0375 c -0.4625,0.1625 -0.8,0.275 -1.575,0.5 l -0.3625,0.1 0,0.225 c 0.05,-0.0125 0.0875,-0.0125 0.1625,-0.0125 0.5875,0 0.7,0.1 0.7,0.6875 l 0,6.4375 c 0,0.9625 -0.0875,1.075 -0.875,1.1875 l 0,0.2 2.95,0 0,-0.2 c -0.8,-0.075 -0.9375,-0.25 -0.9375,-1.1875 z"
         inkscape:connector-curvature="0"
         style="font-style:normal;font-variant:normal;font-weight:normal;font-stretch:normal;letter-spacing:normal;word-spacing:normal;text-anchor:start;fill:#000000;fill-opacity:1;fill-rule:evenodd;stroke:#000000;stroke-width:0;stroke-linecap:butt;stroke-linejoin:miter;stroke-miterlimit:10.43299961;stroke-dasharray:none;stroke-dashoffset:0;stroke-opacity:1" />
      <path
         id="path5218"
         d="m 123.59539,986.0722 -0.025,0.025 -0.025,0.0125 -0.0125,0.0125 -0.025,0.025 -0.0125,0.0125 -0.025,0.0125 -0.025,0.0125 -0.0125,0.0125 -0.025,0.0125 -0.0125,0.0125 -0.025,0.0125 -0.0125,0.0125 -0.025,0 -0.0125,0.0125 -0.025,0.0125 -0.0125,0 -0.0125,0.0125 -0.025,0.0125 -0.0125,0 -0.025,0.0125 -0.0125,0 -0.025,0 -0.0125,0.0125 -0.0125,0 -0.0375,0.0125 -0.0375,0 -0.0375,0 -0.0375,0 c -0.3125,0 -0.4125,-0.1875 -0.4125,-0.7875 l 0,-2.6625 c 0,-0.7125 -0.075,-1.1125 -0.275,-1.4375 -0.3,-0.4875 -0.8875,-0.75 -1.6875,-0.75 -1.2875,0 -2.3,0.6625 -2.3,1.525 0,0.3125 0.275,0.5875 0.5875,0.5875 0.325,0 0.6125,-0.275 0.6125,-0.575 0,-0.05 -0.0125,-0.1125 -0.025,-0.2125 -0.025,-0.125 -0.0375,-0.2375 -0.0375,-0.325 0,-0.375 0.4375,-0.675 0.975,-0.675 0.675,0 1.05,0.4 1.05,1.1375 l 0,0.825 0,0.3375 0,1.975 c 0,0.425 -0.075,0.55 -0.3625,0.7125 -0.325,0.1875 -0.7125,0.3125 -1,0.3125 -0.475,0 -0.8625,-0.4625 -0.8625,-1.05 l 0,-0.05 c 0,-0.8125 0.5625,-1.3 2.225,-1.9 l 0,-0.3375 c -2.1125,0.85 -2.3375,0.9625 -2.925,1.475 -0.3,0.275 -0.5,0.7375 -0.5,1.1875 0,0.8625 0.6,1.4625 1.4375,1.4625 0.6,0 1.1625,-0.2875 2,-0.9875 0.0625,0.7 0.3125,0.9875 0.875,0.9875 0.4625,0 0.75,-0.1625 1.225,-0.675 z"
         inkscape:connector-curvature="0"
         style="font-style:normal;font-variant:normal;font-weight:normal;font-stretch:normal;letter-spacing:normal;word-spacing:normal;text-anchor:start;fill:#000000;fill-opacity:1;fill-rule:evenodd;stroke:#000000;stroke-width:0;stroke-linecap:butt;stroke-linejoin:miter;stroke-miterlimit:10.43299961;stroke-dasharray:none;stroke-dashoffset:0;stroke-opacity:1" />
      <path
         id="path5220"
         d="m 123.89539,981.5472 0.025,-0.0125 0.0125,0 0.0125,0 0.0125,-0.0125 0.0125,0 0.025,0 0.025,0 0.025,-0.0125 0.025,0 0.025,-0.0125 0.0375,0 0.025,0 0.025,0 0.025,0 0.025,-0.0125 0.025,0 0.025,0 0.025,0 0.025,0 c 0.3625,0 0.475,0.225 0.475,0.875 l 0,3.4625 c 0,0.7375 -0.1875,0.9375 -0.95,0.95 l 0,0.2 3.025,0 0,-0.2 c -0.7125,-0.025 -0.925,-0.175 -0.925,-0.7125 l 0,-3.85 c 0,-0.025 0.1125,-0.1625 0.2125,-0.2625 0.3375,-0.3125 0.925,-0.5375 1.4,-0.5375 0.6,0 0.9,0.475 0.9,1.425 l 0,2.9625 c 0,0.775 -0.15,0.925 -0.925,0.975 l 0,0.2 3.0625,0 0,-0.2 c -0.7875,-0.0125 -0.9875,-0.25 -0.9875,-1.0875 l 0,-3.45 c 0.4125,-0.5875 0.8625,-0.825 1.4875,-0.825 0.775,0 1.025,0.3625 1.025,1.5 l 0,2.875 c 0,0.7875 -0.1125,0.8875 -0.9,0.9875 l 0,0.2 2.9875,0 0,-0.2 -0.35,-0.025 c -0.4125,-0.025 -0.5875,-0.275 -0.5875,-0.8125 l 0,-2.8125 c 0,-1.6125 -0.5375,-2.425 -1.5875,-2.425 -0.7875,0 -1.4875,0.35 -2.225,1.15 -0.25,-0.7875 -0.7125,-1.15 -1.45,-1.15 -0.6,0 -0.9875,0.1875 -2.1125,1.05 l 0,-1.025 -0.1,-0.025 c -0.7,0.2625 -1.1625,0.4125 -1.9125,0.6125 z"
         inkscape:connector-curvature="0"
         style="font-style:normal;font-variant:normal;font-weight:normal;font-stretch:normal;letter-spacing:normal;word-spacing:normal;text-anchor:start;fill:#000000;fill-opacity:1;fill-rule:evenodd;stroke:#000000;stroke-width:0;stroke-linecap:butt;stroke-linejoin:miter;stroke-miterlimit:10.43299961;stroke-dasharray:none;stroke-dashoffset:0;stroke-opacity:1" />
      <path
         id="path5222"
         d="m 136.38289,977.6722 -0.0625,-0.025 c -0.575,0.2125 -0.95,0.3125 -1.5875,0.5 l -0.4,0.1 0,0.225 c 0.0875,-0.0125 0.1375,-0.0125 0.2375,-0.0125 0.55,0 0.6625,0.125 0.6625,0.6875 l 0,7.1 c 0,0.4125 1.1625,0.8625 2.2625,0.8625 l 0.2125,-0.4375 c -0.7125,0 -1.325,-0.3125 -1.325,-0.65 l 0,-3.4375 c 0,-0.5375 0.65,-1.025 1.35,-1.025 1.075,0 1.75,1.0625 1.75,2.725 0,1.5125 -0.65,2.3875 -1.775,2.3875 l -0.2125,0.4375 c 1.8,0 3.1875,-1.5 3.1875,-3.45 0,-1.675 -1.0375,-2.9625 -2.4,-2.9625 -0.825,0 -1.625,0.4875 -1.9,1.1625 z"
         inkscape:connector-curvature="0"
         style="font-style:normal;font-variant:normal;font-weight:normal;font-stretch:normal;letter-spacing:normal;word-spacing:normal;text-anchor:start;fill:#000000;fill-opacity:1;fill-rule:evenodd;stroke:#000000;stroke-width:0;stroke-linecap:butt;stroke-linejoin:miter;stroke-miterlimit:10.43299961;stroke-dasharray:none;stroke-dashoffset:0;stroke-opacity:1" />
      <path
         id="path5224"
         d="m 146.72039,984.7347 -0.0625,0.1 -0.0625,0.0875 -0.0625,0.0875 -0.0625,0.0875 -0.05,0.0875 -0.0625,0.075 -0.0625,0.075 -0.0625,0.0625 -0.0625,0.075 -0.0625,0.0625 -0.05,0.0625 -0.0625,0.05 -0.0625,0.05 -0.0625,0.05 -0.0625,0.05 -0.0625,0.05 -0.0625,0.0375 -0.075,0.0375 -0.0625,0.0375 -0.0625,0.0375 -0.0625,0.025 -0.075,0.025 -0.0625,0.025 -0.075,0.025 -0.075,0.0125 -0.0625,0.025 -0.075,0.0125 -0.075,0 -0.075,0.0125 -0.0875,0.0125 -0.075,0 -0.0875,0 c -0.775,0 -1.3625,-0.4 -1.75,-1.175 -0.25,-0.525 -0.35,-0.975 -0.375,-1.8 l 0.025,-0.4375 c 0.15,-1.0625 0.6125,-1.575 1.45,-1.575 0.8375,0 1.1625,0.3875 1.3375,1.575 l -2.7875,0 -0.025,0.4375 4.2,0 c -0.1,-0.8875 -0.2375,-1.2875 -0.575,-1.725 -0.4125,-0.4875 -1.05,-0.775 -1.75,-0.775 -0.6875,0 -1.325,0.25 -1.85,0.7125 -0.6375,0.5625 -1.0125,1.525 -1.0125,2.65 0,1.875 0.9875,3.05 2.5625,3.05 1.2875,0 2.3125,-0.8 2.8875,-2.275 z"
         inkscape:connector-curvature="0"
         style="font-style:normal;font-variant:normal;font-weight:normal;font-stretch:normal;letter-spacing:normal;word-spacing:normal;text-anchor:start;fill:#000000;fill-opacity:1;fill-rule:evenodd;stroke:#000000;stroke-width:0;stroke-linecap:butt;stroke-linejoin:miter;stroke-miterlimit:10.43299961;stroke-dasharray:none;stroke-dashoffset:0;stroke-opacity:1" />
      <path
         id="path5226"
         d="m 147.32039,981.6472 0.025,0 0.0125,0 0.0125,-0.0125 0.025,0 0.025,0 0.0375,-0.0125 0.025,0 0.0375,0 0.025,-0.0125 0.025,0 0.025,0 0.0375,0 0.025,-0.0125 0.025,0 0.025,0 0.0375,0 0.025,0 0.025,0 c 0.35,0 0.475,0.2125 0.475,0.825 l 0,3.4125 c 0,0.675 -0.1,0.775 -0.975,0.9375 l 0,0.2 3.275,0 0,-0.2 c -0.925,-0.0375 -1.1625,-0.25 -1.1625,-1.025 l 0,-3.075 c 0,-0.4375 0.5875,-1.1125 0.9625,-1.1125 0.075,0 0.2,0.0625 0.35,0.2 0.225,0.1875 0.375,0.275 0.55,0.275 0.325,0 0.5375,-0.2375 0.5375,-0.6125 0,-0.45 -0.2875,-0.725 -0.7625,-0.725 -0.5625,0 -0.9625,0.3125 -1.6375,1.2875 l 0,-1.2625 -0.0625,-0.025 c -0.725,0.3 -1.2125,0.475 -2.025,0.7375 z"
         inkscape:connector-curvature="0"
         style="font-style:normal;font-variant:normal;font-weight:normal;font-stretch:normal;letter-spacing:normal;word-spacing:normal;text-anchor:start;fill:#000000;fill-opacity:1;fill-rule:evenodd;stroke:#000000;stroke-width:0;stroke-linecap:butt;stroke-linejoin:miter;stroke-miterlimit:10.43299961;stroke-dasharray:none;stroke-dashoffset:0;stroke-opacity:1" />
    </g>
    <path
       style="fill:none;fill-rule:evenodd;stroke:#000000;stroke-width:1px;stroke-linecap:butt;stroke-linejoin:miter;stroke-opacity:1;marker-start:url(#Arrow1Sstart)"
       d="m 280.77201,960.5509 43.52772,0"
       id="path5330"
       inkscape:connector-curvature="0" />
    <path
       inkscape:connector-curvature="0"
       id="path5612"
       d="M 236.89929,961.48188 194.85475,950.21607"
       style="fill:none;fill-rule:evenodd;stroke:#000000;stroke-width:1px;stroke-linecap:butt;stroke-linejoin:miter;stroke-opacity:1;marker-start:url(#marker5614)" />
  </g>
</svg>
