<?xml version="1.0" encoding="UTF-8" standalone="no"?>
<!-- Created with Inkscape (http://www.inkscape.org/) -->

<svg
   xmlns:dc="http://purl.org/dc/elements/1.1/"
   xmlns:cc="http://creativecommons.org/ns#"
   xmlns:rdf="http://www.w3.org/1999/02/22-rdf-syntax-ns#"
   xmlns:svg="http://www.w3.org/2000/svg"
   xmlns="http://www.w3.org/2000/svg"
   xmlns:xlink="http://www.w3.org/1999/xlink"
   xmlns:sodipodi="http://sodipodi.sourceforge.net/DTD/sodipodi-0.dtd"
   xmlns:inkscape="http://www.inkscape.org/namespaces/inkscape"
   width="451.58597pt"
   height="200pt"
   viewBox="0 0 564.48248 250"
   id="svg2"
   version="1.1"
   inkscape:version="0.91 r"
   sodipodi:docname="to_ule.svg">
  <sodipodi:namedview
     id="base"
     pagecolor="#ffffff"
     bordercolor="#666666"
     borderopacity="1.0"
     inkscape:pageopacity="0.0"
     inkscape:pageshadow="2"
     inkscape:zoom="1.8058844"
     inkscape:cx="293.35169"
     inkscape:cy="165.51798"
     inkscape:document-units="px"
     inkscape:current-layer="layer1"
     showgrid="false"
     units="pt"
     inkscape:window-width="1920"
     inkscape:window-height="1060"
     inkscape:window-x="1918"
     inkscape:window-y="-3"
     inkscape:window-maximized="1" />
  <defs
     id="defs4">
    <linearGradient
       inkscape:collect="always"
       id="linearGradient7478">
      <stop
         style="stop-color:#ffff00;stop-opacity:1;"
         offset="0"
         id="stop7480" />
      <stop
         style="stop-color:#ffff00;stop-opacity:0;"
         offset="1"
         id="stop7482" />
    </linearGradient>
    <linearGradient
       inkscape:collect="always"
       id="linearGradient7470">
      <stop
         style="stop-color:#ffff00;stop-opacity:1;"
         offset="0"
         id="stop7472" />
      <stop
         style="stop-color:#ffff00;stop-opacity:0;"
         offset="1"
         id="stop7474" />
    </linearGradient>
    <linearGradient
       inkscape:collect="always"
       id="linearGradient7454">
      <stop
         style="stop-color:#ffff00;stop-opacity:1;"
         offset="0"
         id="stop7456" />
      <stop
         style="stop-color:#ffff00;stop-opacity:0;"
         offset="1"
         id="stop7458" />
    </linearGradient>
    <linearGradient
       inkscape:collect="always"
       id="linearGradient7446">
      <stop
         style="stop-color:#ffff00;stop-opacity:1;"
         offset="0"
         id="stop7448" />
      <stop
         style="stop-color:#ffff00;stop-opacity:0;"
         offset="1"
         id="stop7450" />
    </linearGradient>
    <marker
       inkscape:isstock="true"
       style="overflow:visible"
       id="Arrow1Mstart"
       refX="0"
       refY="0"
       orient="auto"
       inkscape:stockid="Arrow1Mstart">
      <path
         transform="matrix(0.4,0,0,0.4,4,0)"
         style="fill:#ffff00;fill-opacity:1;fill-rule:evenodd;stroke:#ffff00;stroke-width:1pt;stroke-opacity:1"
         d="M 0,0 5,-5 -12.5,0 5,5 0,0 Z"
         id="path6358"
         inkscape:connector-curvature="0" />
    </marker>
    <marker
       inkscape:stockid="Arrow1Mend"
       orient="auto"
       refY="0"
       refX="0"
       id="marker5954"
       style="overflow:visible"
       inkscape:isstock="true">
      <path
         inkscape:connector-curvature="0"
         id="path5956"
         d="M 0,0 5,-5 -12.5,0 5,5 0,0 Z"
         style="fill:#ffff00;fill-opacity:1;fill-rule:evenodd;stroke:#ffff00;stroke-width:1pt;stroke-opacity:1"
         transform="matrix(-0.4,0,0,-0.4,-4,0)" />
    </marker>
    <marker
       inkscape:collect="always"
       inkscape:isstock="true"
       style="overflow:visible"
       id="Arrow1Mend"
       refX="0"
       refY="0"
       orient="auto"
       inkscape:stockid="Arrow1Mend">
      <path
         transform="matrix(-0.4,0,0,-0.4,-4,0)"
         style="fill:#ffff00;fill-opacity:1;fill-rule:evenodd;stroke:#ffff00;stroke-width:1pt;stroke-opacity:1"
         d="M 0,0 5,-5 -12.5,0 5,5 0,0 Z"
         id="path6403"
         inkscape:connector-curvature="0" />
    </marker>
    <radialGradient
       inkscape:collect="always"
       xlink:href="#linearGradient7446"
       id="radialGradient7452"
       cx="214.07957"
       cy="870.50616"
       fx="214.07957"
       fy="870.50623"
       r="27.5"
       gradientUnits="userSpaceOnUse"
       gradientTransform="matrix(1.4995379,2.1687687e-7,-2.0029221e-7,1.3848678,-106.94068,-335.0288)" />
    <radialGradient
       inkscape:collect="always"
       xlink:href="#linearGradient7454"
       id="radialGradient7460"
       cx="214.07957"
       cy="870.50226"
       fx="214.07957"
       fy="870.50226"
       r="27.500019"
       gradientTransform="matrix(1.5439147,9.0048155e-8,-9.3707861e-8,1.606662,-116.44095,-528.0999)"
       gradientUnits="userSpaceOnUse" />
    <radialGradient
       inkscape:collect="always"
       xlink:href="#linearGradient7446"
       id="radialGradient7466"
       gradientUnits="userSpaceOnUse"
       gradientTransform="matrix(0.91631207,0,0,1.1464608,17.915869,-127.49437)"
       cx="214.07957"
       cy="870.50531"
       fx="214.07957"
       fy="870.50537"
       r="27.5" />
    <radialGradient
       inkscape:collect="always"
       xlink:href="#linearGradient7470"
       id="radialGradient7476"
       cx="214.07959"
       cy="981.95404"
       fx="214.07959"
       fy="981.95404"
       r="27.5"
       gradientUnits="userSpaceOnUse"
       gradientTransform="matrix(1.5020833,-1.4936432e-6,1.5976561e-6,1.606684,-107.48736,-595.73548)" />
    <radialGradient
       inkscape:collect="always"
       xlink:href="#linearGradient7478"
       id="radialGradient7484"
       cx="214.07958"
       cy="981.95407"
       fx="214.07958"
       fy="981.95407"
       r="27.499994"
       gradientTransform="translate(0,-1.7326159e-4)"
       gradientUnits="userSpaceOnUse" />
  </defs>
  <metadata
     id="metadata7">
    <rdf:RDF>
      <cc:Work
         rdf:about="">
        <dc:format>image/svg+xml</dc:format>
        <dc:type
           rdf:resource="http://purl.org/dc/dcmitype/StillImage" />
        <dc:title></dc:title>
      </cc:Work>
    </rdf:RDF>
  </metadata>
  <g
     transform="translate(0,-802.36222)"
     id="layer1"
     inkscape:groupmode="layer"
     inkscape:label="Layer 1">
    <rect
       style="opacity:1;fill:url(#radialGradient7476);fill-opacity:1;fill-rule:nonzero;stroke:none;stroke-width:1;stroke-miterlimit:4;stroke-dasharray:2, 6;stroke-dashoffset:0;stroke-opacity:1"
       id="rect7468"
       width="55"
       height="55"
       x="186.57959"
       y="954.45404" />
    <rect
       y="843.00226"
       x="186.57957"
       height="55"
       width="55"
       id="rect7462"
       style="opacity:1;fill:url(#radialGradient7466);fill-opacity:1;fill-rule:nonzero;stroke:none;stroke-width:1;stroke-miterlimit:4;stroke-dasharray:2, 6;stroke-dashoffset:0;stroke-opacity:1" />
    <path
       inkscape:connector-curvature="0"
       id="path36856"
       d="m 214.07958,869.51312 0,112.11802"
       style="fill:none;fill-rule:evenodd;stroke:#ffff00;stroke-width:2;stroke-linecap:butt;stroke-linejoin:miter;stroke-miterlimit:4;stroke-dasharray:none;stroke-opacity:1" />
    <path
       style="fill:none;fill-rule:evenodd;stroke:#ffff00;stroke-width:2;stroke-linecap:butt;stroke-linejoin:miter;stroke-miterlimit:4;stroke-dasharray:none;stroke-opacity:1;marker-start:url(#Arrow1Mend)"
       d="m 71.490987,870.50227 142.249743,0"
       id="path36854"
       inkscape:connector-curvature="0" />
    <path
       style="fill:url(#radialGradient7460);fill-rule:evenodd;stroke:#ffff00;stroke-width:2.23239088;stroke-linecap:butt;stroke-linejoin:miter;stroke-miterlimit:4;stroke-dasharray:none;stroke-opacity:1;fill-opacity:1"
       d="m 187.36883,897.21299 53.4215,-53.42145"
       id="path36874"
       inkscape:connector-curvature="0" />
    <path
       inkscape:connector-curvature="0"
       id="path5834"
       d="m 187.36886,955.24334 53.42145,53.42146"
       style="fill:url(#radialGradient7484);fill-rule:evenodd;stroke:#ffff00;stroke-width:2.23239088;stroke-linecap:butt;stroke-linejoin:miter;stroke-miterlimit:4;stroke-dasharray:none;stroke-opacity:1;fill-opacity:1" />
    <path
       style="fill:none;fill-rule:evenodd;stroke:#ffff00;stroke-width:2;stroke-linecap:butt;stroke-linejoin:miter;stroke-miterlimit:4;stroke-dasharray:none;stroke-opacity:1"
       d="m 326.13859,870.50227 -112.11802,0"
       id="path5890"
       inkscape:connector-curvature="0" />
    <path
       inkscape:connector-curvature="0"
       id="path5904"
       d="m 326.13859,981.9541 -112.11802,0"
       style="fill:none;fill-rule:evenodd;stroke:#ffff00;stroke-width:2;stroke-linecap:butt;stroke-linejoin:miter;stroke-miterlimit:4;stroke-dasharray:none;stroke-opacity:1" />
    <rect
       style="opacity:1;fill:none;fill-opacity:1;fill-rule:nonzero;stroke:#000000;stroke-width:3.44511008;stroke-miterlimit:4;stroke-dasharray:none;stroke-dashoffset:0;stroke-opacity:1"
       id="rect36862"
       width="24.525812"
       height="45.547935"
       x="325.46912"
       y="847.72827" />
    <rect
       y="959.18011"
       x="325.46912"
       height="45.547935"
       width="24.525812"
       id="rect5923"
       style="opacity:1;fill:none;fill-opacity:1;fill-rule:nonzero;stroke:#000000;stroke-width:3.44511008;stroke-miterlimit:4;stroke-dasharray:none;stroke-dashoffset:0;stroke-opacity:1" />
    <path
       inkscape:connector-curvature="0"
       id="path5925"
       d="m 464.13859,870.50227 -112.11802,0"
       style="fill:none;fill-rule:evenodd;stroke:#ffff00;stroke-width:2;stroke-linecap:butt;stroke-linejoin:miter;stroke-miterlimit:4;stroke-dasharray:none;stroke-opacity:1" />
    <path
       style="fill:none;fill-rule:evenodd;stroke:#ffff00;stroke-width:2;stroke-linecap:butt;stroke-linejoin:miter;stroke-miterlimit:4;stroke-dasharray:none;stroke-opacity:1"
       d="m 464.13859,981.95409 -112.11802,0"
       id="path5927"
       inkscape:connector-curvature="0" />
    <path
       style="fill:none;fill-rule:evenodd;stroke:#000000;stroke-width:2;stroke-linecap:butt;stroke-linejoin:miter;stroke-miterlimit:4;stroke-dasharray:none;stroke-opacity:1"
       d="m 463.13859,889.07181 0,-37.13908"
       id="path36866"
       inkscape:connector-curvature="0" />
    <path
       inkscape:connector-curvature="0"
       id="path5944"
       d="m 463.13859,1000.5236 0,-37.13905"
       style="fill:none;fill-rule:evenodd;stroke:#000000;stroke-width:2;stroke-linecap:butt;stroke-linejoin:miter;stroke-miterlimit:4;stroke-dasharray:none;stroke-opacity:1" />
    <path
       inkscape:connector-curvature="0"
       id="path5952"
       d="m 71.490987,981.9541 142.249743,0"
       style="fill:none;fill-rule:evenodd;stroke:#ffff00;stroke-width:2;stroke-linecap:butt;stroke-linejoin:miter;stroke-miterlimit:4;stroke-dasharray:none;stroke-opacity:1;marker-start:url(#Arrow1Mstart)" />
    <g
       id="g6899"
       transform="translate(146.12798,12.036371)">
      <path
         id="path6687"
         d="m -83.84947,818.3571 -1.6875,0 0,-1.5875 c 0,-0.7875 0.2625,-1.2125 0.7875,-1.2125 0.2875,0 0.475,0.1375 0.725,0.525 0.2125,0.3625 0.375,0.5 0.6125,0.5 0.3125,0 0.575,-0.25 0.575,-0.5625 0,-0.4875 -0.6,-0.85 -1.425,-0.85 -0.85,0 -1.575,0.375 -1.925,1 -0.35,0.6 -0.4625,1.0875 -0.475,2.1875 l -1.125,0 0,0.4375 1.125,0 0,4.2875 c 0,1 -0.15,1.1625 -1.1375,1.2125 l 0,0.2125 3.55,0 0,-0.2125 c -1.1125,-0.0375 -1.2625,-0.1875 -1.2625,-1.2125 l 0,-4.2875 1.6625,0 z"
         inkscape:connector-curvature="0"
         style="font-style:normal;font-variant:normal;font-weight:normal;font-stretch:normal;letter-spacing:normal;word-spacing:normal;text-anchor:start;fill:#000000;fill-opacity:1;fill-rule:evenodd;stroke:#000000;stroke-width:0;stroke-linecap:butt;stroke-linejoin:miter;stroke-miterlimit:10.43299961;stroke-dasharray:none;stroke-dashoffset:0;stroke-opacity:1" />
      <path
         id="path6689"
         d="m -83.41197,819.1696 0.0125,0 0.025,0 0.0125,-0.0125 0.0125,0 0.0375,0 0.025,-0.0125 0.0375,0 0.025,0 0.025,-0.0125 0.0375,0 0.025,0 0.025,0 0.025,-0.0125 0.0375,0 0.025,0 0.025,0 0.0375,0 0.025,0 c 0.3375,0 0.4625,0.2125 0.4625,0.8125 l 0,3.425 c 0,0.675 -0.0875,0.775 -0.9625,0.9375 l 0,0.2125 3.275,0 0,-0.2125 c -0.925,-0.0375 -1.1625,-0.25 -1.1625,-1.025 l 0,-3.075 c 0,-0.4375 0.5875,-1.1125 0.9625,-1.1125 0.075,0 0.2,0.0625 0.35,0.2 0.2125,0.1875 0.3625,0.275 0.55,0.275 0.325,0 0.525,-0.2375 0.525,-0.6125 0,-0.45 -0.2875,-0.725 -0.75,-0.725 -0.575,0 -0.9625,0.3125 -1.6375,1.2875 l 0,-1.2625 -0.075,-0.025 c -0.7125,0.3 -1.2125,0.475 -2.0125,0.7375 z"
         inkscape:connector-curvature="0"
         style="font-style:normal;font-variant:normal;font-weight:normal;font-stretch:normal;letter-spacing:normal;word-spacing:normal;text-anchor:start;fill:#000000;fill-opacity:1;fill-rule:evenodd;stroke:#000000;stroke-width:0;stroke-linecap:butt;stroke-linejoin:miter;stroke-miterlimit:10.43299961;stroke-dasharray:none;stroke-dashoffset:0;stroke-opacity:1" />
      <path
         id="path6691"
         d="m -75.53697,818.2196 -0.1625,0 -0.1625,0.0125 -0.1625,0.025 -0.15,0.025 -0.15,0.025 -0.15,0.05 -0.1375,0.0375 -0.1375,0.0625 -0.1375,0.05 -0.1375,0.075 -0.125,0.075 -0.125,0.075 -0.1125,0.0875 -0.1125,0.0875 -0.1125,0.1 -0.1,0.1 -0.1,0.1125 -0.0875,0.1125 -0.0875,0.1125 -0.075,0.125 -0.075,0.1375 -0.075,0.125 -0.0625,0.1375 -0.05,0.15 -0.0625,0.15 -0.0375,0.15 -0.0375,0.15 -0.0375,0.1625 -0.025,0.1625 -0.0125,0.175 -0.0125,0.175 0,0.175 c 0,1.8375 1.2625,3.2125 2.9875,3.2125 l 0.1625,-0.375 c -0.525,0 -1.0375,-0.325 -1.325,-0.875 -0.375,-0.7125 -0.6,-1.6625 -0.6,-2.6375 0,-1.3 0.6375,-2.15 1.6125,-2.15 l 0,0 c 1.15,0 1.95,1.3125 1.95,3.1875 0,1.5375 -0.6125,2.475 -1.6375,2.475 l -0.1625,0.375 c 1.725,0 3.0375,-1.4375 3.0375,-3.325 0,-1.7875 -1.2625,-3.0875 -3.0125,-3.0875 z"
         inkscape:connector-curvature="0"
         style="font-style:normal;font-variant:normal;font-weight:normal;font-stretch:normal;letter-spacing:normal;word-spacing:normal;text-anchor:start;fill:#000000;fill-opacity:1;fill-rule:evenodd;stroke:#000000;stroke-width:0;stroke-linecap:butt;stroke-linejoin:miter;stroke-miterlimit:10.43299961;stroke-dasharray:none;stroke-dashoffset:0;stroke-opacity:1" />
      <path
         id="path6693"
         d="m -71.83697,819.0696 0.0125,-0.0125 0.0125,0 0.025,0 0.0125,-0.0125 0.0125,0 0.0125,0 0.0375,0 0.025,-0.0125 0.025,0 0.025,-0.0125 0.025,0 0.025,0 0.025,0 0.025,0 0.025,-0.0125 0.025,0 0.025,0 0.025,0 0.0375,0 c 0.35,0 0.475,0.225 0.475,0.875 l 0,3.4625 c 0,0.7375 -0.1875,0.9375 -0.9625,0.95 l 0,0.2125 3.0375,0 0,-0.2125 c -0.725,-0.025 -0.925,-0.175 -0.925,-0.7125 l 0,-3.85 c 0,-0.025 0.1,-0.1625 0.2,-0.2625 0.35,-0.3125 0.9375,-0.5375 1.4125,-0.5375 0.6,0 0.9,0.475 0.9,1.425 l 0,2.9625 c 0,0.775 -0.15,0.925 -0.925,0.975 l 0,0.2125 3.05,0 0,-0.2125 c -0.775,-0.0125 -0.975,-0.25 -0.975,-1.0875 l 0,-3.45 c 0.4,-0.5875 0.85,-0.825 1.4875,-0.825 0.775,0 1.025,0.3625 1.025,1.5 l 0,2.875 c 0,0.7875 -0.1125,0.9 -0.9,0.9875 l 0,0.2125 2.9875,0 0,-0.2125 -0.35,-0.025 c -0.4125,-0.025 -0.5875,-0.275 -0.5875,-0.8125 l 0,-2.8125 c 0,-1.6125 -0.5375,-2.425 -1.5875,-2.425 -0.8,0 -1.4875,0.35 -2.225,1.15 -0.25,-0.7875 -0.7125,-1.15 -1.45,-1.15 -0.6,0 -0.9875,0.1875 -2.125,1.05 l 0,-1.025 -0.0875,-0.025 c -0.7,0.2625 -1.1625,0.4125 -1.9125,0.6125 z"
         inkscape:connector-curvature="0"
         style="font-style:normal;font-variant:normal;font-weight:normal;font-stretch:normal;letter-spacing:normal;word-spacing:normal;text-anchor:start;fill:#000000;fill-opacity:1;fill-rule:evenodd;stroke:#000000;stroke-width:0;stroke-linecap:butt;stroke-linejoin:miter;stroke-miterlimit:10.43299961;stroke-dasharray:none;stroke-dashoffset:0;stroke-opacity:1" />
      <path
         id="path6695"
         d="m -53.31197,824.6321 2,-0.7 0,-0.225 c -0.25,0.0125 -0.275,0.0125 -0.3125,0.0125 -0.4875,0 -0.6,-0.15 -0.6,-0.775 l 0,-7.75 -0.075,-0.025 c -0.65,0.2375 -1.125,0.375 -2,0.6 l 0,0.225 c 0.1125,-0.0125 0.1875,-0.0125 0.3,-0.0125 0.5,0 0.625,0.1375 0.625,0.6875 l 0,2.1375 c -0.5125,-0.4375 -0.8875,-0.5875 -1.4375,-0.5875 -1.5625,0 -2.8375,1.5375 -2.8375,3.4875 0,1.7375 1.025,2.925 2.525,2.925 0.7625,0 1.2875,-0.2625 1.75,-0.9125 l -0.225,-0.2 c -0.25,0.275 -0.5875,0.4125 -0.9875,0.4125 -1.1375,0 -1.8875,-1.1 -1.8875,-2.775 0,-1.55 0.675,-2.5625 1.7125,-2.5625 0.725,0 1.3875,0.65 1.3875,1.375 l 0,3.1375 c 0,0.1 -0.0875,0.2625 -0.225,0.4125 l 0.225,0.2 0,0.875 z"
         inkscape:connector-curvature="0"
         style="font-style:normal;font-variant:normal;font-weight:normal;font-stretch:normal;letter-spacing:normal;word-spacing:normal;text-anchor:start;fill:#000000;fill-opacity:1;fill-rule:evenodd;stroke:#000000;stroke-width:0;stroke-linecap:butt;stroke-linejoin:miter;stroke-miterlimit:10.43299961;stroke-dasharray:none;stroke-dashoffset:0;stroke-opacity:1" />
      <path
         id="path6697"
         d="m -44.67447,818.3571 -1.85,0 0,0.2 c 0.4375,0 0.6625,0.125 0.6625,0.35 0,0.05 -0.025,0.125 -0.0625,0.225 l -1.325,3.775 -1.5625,-3.4625 c -0.0875,-0.1875 -0.1375,-0.3625 -0.1375,-0.5125 0,-0.25 0.2,-0.35 0.7875,-0.375 l 0,-0.2 -2.8125,0 0,0.1875 c 0.35,0.05 0.5875,0.2125 0.6875,0.4375 l 1.5625,3.3625 0.0375,0.1125 0.2125,0.4 c 0.375,0.6875 0.6,1.175 0.6,1.3875 0,0.2 -0.3125,1.0625 -0.55,1.475 -0.1875,0.35 -0.4875,0.6125 -0.6875,0.6125 -0.075,0 -0.2,-0.025 -0.3375,-0.1 -0.2625,-0.0875 -0.4875,-0.15 -0.725,-0.15 -0.3125,0 -0.5875,0.275 -0.5875,0.6 0,0.45 0.4375,0.8 1.0125,0.8 0.9125,0 1.575,-0.7625 2.3125,-2.7375 l 2.1,-5.575 c 0.175,-0.4375 0.325,-0.575 0.6625,-0.6125 z"
         inkscape:connector-curvature="0"
         style="font-style:normal;font-variant:normal;font-weight:normal;font-stretch:normal;letter-spacing:normal;word-spacing:normal;text-anchor:start;fill:#000000;fill-opacity:1;fill-rule:evenodd;stroke:#000000;stroke-width:0;stroke-linecap:butt;stroke-linejoin:miter;stroke-miterlimit:10.43299961;stroke-dasharray:none;stroke-dashoffset:0;stroke-opacity:1" />
      <path
         id="path6699"
         d="m -38.74947,822.2571 -0.0625,0.1 -0.05,0.0875 -0.0625,0.0875 -0.0625,0.0875 -0.0625,0.0875 -0.0625,0.075 -0.0625,0.075 -0.05,0.0625 -0.0625,0.075 -0.0625,0.0625 -0.0625,0.0625 -0.0625,0.05 -0.0625,0.05 -0.0625,0.05 -0.0625,0.05 -0.0625,0.05 -0.0625,0.0375 -0.0625,0.0375 -0.0625,0.0375 -0.075,0.0375 -0.0625,0.025 -0.0625,0.025 -0.075,0.025 -0.0625,0.025 -0.075,0.0125 -0.075,0.025 -0.075,0.0125 -0.075,0 -0.075,0.0125 -0.075,0.0125 -0.0875,0 -0.075,0 c -0.775,0 -1.3625,-0.4 -1.7625,-1.175 -0.25,-0.5125 -0.3375,-0.9625 -0.375,-1.8 l 0.0375,-0.4375 c 0.15,-1.0625 0.6125,-1.575 1.4375,-1.575 0.8375,0 1.1625,0.3875 1.35,1.575 l -2.7875,0 -0.0375,0.4375 4.2125,0 c -0.1125,-0.8875 -0.25,-1.2875 -0.5875,-1.725 -0.4125,-0.4875 -1.0375,-0.775 -1.75,-0.775 -0.675,0 -1.325,0.2375 -1.8375,0.7125 -0.65,0.55 -1.0125,1.525 -1.0125,2.65 0,1.875 0.975,3.05 2.55,3.05 1.3,0 2.325,-0.8 2.9,-2.275 z"
         inkscape:connector-curvature="0"
         style="font-style:normal;font-variant:normal;font-weight:normal;font-stretch:normal;letter-spacing:normal;word-spacing:normal;text-anchor:start;fill:#000000;fill-opacity:1;fill-rule:evenodd;stroke:#000000;stroke-width:0;stroke-linecap:butt;stroke-linejoin:miter;stroke-miterlimit:10.43299961;stroke-dasharray:none;stroke-dashoffset:0;stroke-opacity:1" />
      <path
         id="path6701"
         d="m -34.54947,815.9946 0.075,0 c 0.15,-0.0125 0.325,-0.0375 0.425,-0.0375 0.4375,0 0.575,0.2 0.575,0.8375 l 0,6.5125 c 0,0.7375 -0.1875,0.925 -1.05,0.9875 l 0,0.2125 3.225,0 0,-0.2125 c -0.8625,-0.05 -1.025,-0.1875 -1.025,-0.9375 l 0,-8.1625 -0.0625,-0.025 c -0.7,0.2375 -1.225,0.375 -2.1625,0.6 z"
         inkscape:connector-curvature="0"
         style="font-style:normal;font-variant:normal;font-weight:normal;font-stretch:normal;letter-spacing:normal;word-spacing:normal;text-anchor:start;fill:#000000;fill-opacity:1;fill-rule:evenodd;stroke:#000000;stroke-width:0;stroke-linecap:butt;stroke-linejoin:miter;stroke-miterlimit:10.43299961;stroke-dasharray:none;stroke-dashoffset:0;stroke-opacity:1" />
      <path
         id="path6703"
         d="m -24.96197,823.5946 -0.025,0.025 -0.025,0.0125 -0.0125,0.0125 -0.025,0.025 -0.025,0.0125 -0.0125,0.0125 -0.025,0.0125 -0.0125,0.0125 -0.025,0.0125 -0.0125,0.0125 -0.025,0.0125 -0.0125,0.0125 -0.025,0 -0.0125,0.0125 -0.025,0.0125 -0.0125,0 -0.025,0.0125 -0.0125,0.0125 -0.0125,0 -0.025,0.0125 -0.0125,0 -0.025,0 -0.0125,0.0125 -0.025,0 -0.025,0.0125 -0.0375,0 -0.0375,0 -0.0375,0 c -0.325,0 -0.4125,-0.1875 -0.4125,-0.7875 l 0,-2.6625 c 0,-0.7125 -0.075,-1.1125 -0.275,-1.4375 -0.3,-0.4875 -0.8875,-0.75 -1.7,-0.75 -1.275,0 -2.2875,0.6625 -2.2875,1.525 0,0.3125 0.275,0.5875 0.5875,0.5875 0.325,0 0.6125,-0.275 0.6125,-0.575 0,-0.05 -0.0125,-0.125 -0.025,-0.2125 -0.025,-0.125 -0.0375,-0.2375 -0.0375,-0.325 0,-0.375 0.425,-0.675 0.975,-0.675 0.675,0 1.0375,0.4 1.0375,1.1375 l 0,0.825 0,0.3375 0,1.975 c 0,0.425 -0.0625,0.55 -0.35,0.7125 -0.325,0.1875 -0.7125,0.3125 -1,0.3125 -0.475,0 -0.8625,-0.4625 -0.8625,-1.05 l 0,-0.05 c 0,-0.8125 0.5625,-1.3 2.2125,-1.9 l 0,-0.3375 c -2.1,0.85 -2.3375,0.9625 -2.925,1.475 -0.3,0.275 -0.4875,0.7375 -0.4875,1.2 0,0.85 0.6,1.45 1.4375,1.45 0.6,0 1.1625,-0.275 1.9875,-0.9875 0.075,0.7125 0.3125,0.9875 0.875,0.9875 0.4625,0 0.75,-0.1625 1.2375,-0.675 z"
         inkscape:connector-curvature="0"
         style="font-style:normal;font-variant:normal;font-weight:normal;font-stretch:normal;letter-spacing:normal;word-spacing:normal;text-anchor:start;fill:#000000;fill-opacity:1;fill-rule:evenodd;stroke:#000000;stroke-width:0;stroke-linecap:butt;stroke-linejoin:miter;stroke-miterlimit:10.43299961;stroke-dasharray:none;stroke-dashoffset:0;stroke-opacity:1" />
      <path
         id="path6705"
         d="m -20.62447,820.2071 -0.05,-1.85 -0.15,0 -0.025,0.025 c -0.125,0.1 -0.1375,0.1125 -0.1875,0.1125 -0.0875,0 -0.225,-0.0375 -0.375,-0.1 -0.3,-0.1125 -0.6,-0.1625 -0.95,-0.1625 -1.0875,0 -1.8625,0.7 -1.8625,1.675 0,0.775 0.4375,1.3125 1.6,1.975 l 0.7875,0.45 c 0.475,0.275 0.7125,0.6 0.7125,1.025 0,0.6 -0.4375,0.975 -1.1375,0.975 -0.4625,0 -0.8875,-0.175 -1.1375,-0.475 -0.2875,-0.3375 -0.4125,-0.65 -0.5875,-1.4375 l -0.225,0 0,2.1375 0.175,0 c 0.1,-0.1375 0.15,-0.1625 0.3125,-0.1625 0.125,0 0.325,0.025 0.6375,0.1125 0.375,0.075 0.75,0.125 0.9875,0.125 1.0625,0 1.9375,-0.7875 1.9375,-1.7375 0,-0.6875 -0.3375,-1.1375 -1.15,-1.6375 l -1.475,-0.8625 c -0.3875,-0.225 -0.5875,-0.5625 -0.5875,-0.9375 0,-0.5375 0.425,-0.925 1.05,-0.925 0.775,0 1.1875,0.4625 1.5,1.675 z"
         inkscape:connector-curvature="0"
         style="font-style:normal;font-variant:normal;font-weight:normal;font-stretch:normal;letter-spacing:normal;word-spacing:normal;text-anchor:start;fill:#000000;fill-opacity:1;fill-rule:evenodd;stroke:#000000;stroke-width:0;stroke-linecap:butt;stroke-linejoin:miter;stroke-miterlimit:10.43299961;stroke-dasharray:none;stroke-dashoffset:0;stroke-opacity:1" />
      <path
         id="path6707"
         d="m -14.02447,822.2571 -0.0625,0.1 -0.05,0.0875 -0.0625,0.0875 -0.0625,0.0875 -0.0625,0.0875 -0.0625,0.075 -0.0625,0.075 -0.05,0.0625 -0.0625,0.075 -0.0625,0.0625 -0.0625,0.0625 -0.0625,0.05 -0.0625,0.05 -0.0625,0.05 -0.0625,0.05 -0.0625,0.05 -0.0625,0.0375 -0.0625,0.0375 -0.0625,0.0375 -0.075,0.0375 -0.0625,0.025 -0.0625,0.025 -0.075,0.025 -0.0625,0.025 -0.075,0.0125 -0.075,0.025 -0.075,0.0125 -0.075,0 -0.075,0.0125 -0.075,0.0125 -0.0875,0 -0.075,0 c -0.775,0 -1.3625,-0.4 -1.7625,-1.175 -0.25,-0.5125 -0.3375,-0.9625 -0.375,-1.8 l 0.0375,-0.4375 c 0.15,-1.0625 0.6125,-1.575 1.4375,-1.575 0.8375,0 1.1625,0.3875 1.35,1.575 l -2.7875,0 -0.0375,0.4375 4.2125,0 c -0.1125,-0.8875 -0.25,-1.2875 -0.5875,-1.725 -0.4125,-0.4875 -1.0375,-0.775 -1.75,-0.775 -0.675,0 -1.325,0.2375 -1.8375,0.7125 -0.65,0.55 -1.0125,1.525 -1.0125,2.65 0,1.875 0.975,3.05 2.55,3.05 1.3,0 2.325,-0.8 2.9,-2.275 z"
         inkscape:connector-curvature="0"
         style="font-style:normal;font-variant:normal;font-weight:normal;font-stretch:normal;letter-spacing:normal;word-spacing:normal;text-anchor:start;fill:#000000;fill-opacity:1;fill-rule:evenodd;stroke:#000000;stroke-width:0;stroke-linecap:butt;stroke-linejoin:miter;stroke-miterlimit:10.43299961;stroke-dasharray:none;stroke-dashoffset:0;stroke-opacity:1" />
      <path
         id="path6709"
         d="m -13.41197,819.1696 0.0125,0 0.025,0 0.0125,-0.0125 0.0125,0 0.0375,0 0.025,-0.0125 0.0375,0 0.025,0 0.025,-0.0125 0.0375,0 0.025,0 0.025,0 0.025,-0.0125 0.0375,0 0.025,0 0.025,0 0.0375,0 0.025,0 c 0.3375,0 0.4625,0.2125 0.4625,0.8125 l 0,3.425 c 0,0.675 -0.1,0.775 -0.9625,0.9375 l 0,0.2125 3.275,0 0,-0.2125 c -0.925,-0.0375 -1.1625,-0.25 -1.1625,-1.025 l 0,-3.075 c 0,-0.4375 0.5875,-1.1125 0.95,-1.1125 0.0875,0 0.2125,0.0625 0.3625,0.2 0.2125,0.1875 0.3625,0.275 0.55,0.275 0.325,0 0.525,-0.2375 0.525,-0.6125 0,-0.45 -0.2875,-0.725 -0.75,-0.725 -0.575,0 -0.975,0.3125 -1.6375,1.2875 l 0,-1.2625 -0.075,-0.025 c -0.7125,0.3 -1.2125,0.475 -2.0125,0.7375 z"
         inkscape:connector-curvature="0"
         style="font-style:normal;font-variant:normal;font-weight:normal;font-stretch:normal;letter-spacing:normal;word-spacing:normal;text-anchor:start;fill:#000000;fill-opacity:1;fill-rule:evenodd;stroke:#000000;stroke-width:0;stroke-linecap:butt;stroke-linejoin:miter;stroke-miterlimit:10.43299961;stroke-dasharray:none;stroke-dashoffset:0;stroke-opacity:1" />
    </g>
    <g
       id="g6913"
       transform="translate(559.7714,25.688918)">
      <path
         id="path6711"
         d="m -87.81197,843.9696 0.0125,0 0.025,0 0.0125,-0.0125 0.0125,0 0.0125,0 0.0125,-0.0125 0.0375,0 0.025,0 0.025,-0.0125 0.025,0 0.025,0 0.025,-0.0125 0.025,0 0.025,0 0.025,0 0.025,0 0.0375,0 0.025,0 0.025,0 c 0.35,0 0.475,0.2125 0.475,0.875 l 0,3.45 c 0,0.7375 -0.1875,0.9375 -0.95,0.9625 l 0,0.2 3.025,0 0,-0.2 c -0.725,-0.0375 -0.925,-0.1875 -0.925,-0.7125 l 0,-3.85 c 0,-0.025 0.1125,-0.175 0.2,-0.2625 0.35,-0.3125 0.9375,-0.55 1.4125,-0.55 0.6,0 0.9,0.475 0.9,1.4375 l 0,2.9625 c 0,0.7625 -0.15,0.9125 -0.925,0.975 l 0,0.2 3.0625,0 0,-0.2 c -0.7875,-0.025 -0.9875,-0.25 -0.9875,-1.1 l 0,-3.4375 c 0.4125,-0.5875 0.8625,-0.8375 1.4875,-0.8375 0.775,0 1.025,0.375 1.025,1.5 l 0,2.8875 c 0,0.775 -0.1125,0.8875 -0.9,0.9875 l 0,0.2 2.9875,0 0,-0.2 -0.35,-0.0375 c -0.4125,-0.025 -0.5875,-0.2625 -0.5875,-0.8 l 0,-2.8125 c 0,-1.6125 -0.5375,-2.4375 -1.5875,-2.4375 -0.8,0 -1.4875,0.3625 -2.225,1.15 -0.25,-0.775 -0.7125,-1.15 -1.45,-1.15 -0.6,0 -0.9875,0.2 -2.1125,1.05 l 0,-1.025 -0.1,-0.025 c -0.7,0.2625 -1.1625,0.4125 -1.9125,0.625 z"
         inkscape:connector-curvature="0"
         style="font-style:normal;font-variant:normal;font-weight:normal;font-stretch:normal;letter-spacing:normal;word-spacing:normal;text-anchor:start;fill:#000000;fill-opacity:1;fill-rule:evenodd;stroke:#000000;stroke-width:0;stroke-linecap:butt;stroke-linejoin:miter;stroke-miterlimit:10.43299961;stroke-dasharray:none;stroke-dashoffset:0;stroke-opacity:1" />
      <path
         id="path6713"
         d="m -75.02447,843.1196 -2.1125,0.75 0,0.2125 0.1,-0.0125 c 0.175,-0.025 0.35,-0.05 0.4625,-0.05 0.3375,0 0.4625,0.225 0.4625,0.825 l 0,3.1625 c 0,0.9875 -0.1375,1.1375 -1.0875,1.2 l 0,0.2 3.2375,0 0,-0.2 c -0.9,-0.075 -1.0125,-0.2125 -1.0125,-1.2 l 0,-4.8375 z"
         inkscape:connector-curvature="0"
         style="font-style:normal;font-variant:normal;font-weight:normal;font-stretch:normal;letter-spacing:normal;word-spacing:normal;text-anchor:start;fill:#000000;fill-opacity:1;fill-rule:evenodd;stroke:#000000;stroke-width:0;stroke-linecap:butt;stroke-linejoin:miter;stroke-miterlimit:10.43299961;stroke-dasharray:none;stroke-dashoffset:0;stroke-opacity:1" />
      <path
         id="path6715"
         d="m -75.66197,840.0821 -0.0375,0 -0.0375,0 -0.025,0 -0.0375,0.0125 -0.0375,0 -0.025,0.0125 -0.0375,0.0125 -0.025,0.0125 -0.0375,0.0125 -0.025,0.0125 -0.025,0.025 -0.0375,0.0125 -0.025,0.025 -0.025,0.0125 -0.025,0.025 -0.025,0.025 -0.025,0.025 -0.0125,0.025 -0.025,0.025 -0.0125,0.025 -0.025,0.0375 -0.0125,0.025 -0.0125,0.025 -0.025,0.0375 -0.0125,0.025 0,0.0375 -0.0125,0.0375 -0.0125,0.025 0,0.0375 -0.0125,0.0375 0,0.0375 0,0.025 c 0,0.3875 0.3,0.7 0.6875,0.7 0.3875,0 0.7125,-0.3 0.7125,-0.7 0,-0.375 -0.325,-0.6875 -0.7125,-0.6875 z"
         inkscape:connector-curvature="0"
         style="font-style:normal;font-variant:normal;font-weight:normal;font-stretch:normal;letter-spacing:normal;word-spacing:normal;text-anchor:start;fill:#000000;fill-opacity:1;fill-rule:evenodd;stroke:#000000;stroke-width:0;stroke-linecap:butt;stroke-linejoin:miter;stroke-miterlimit:10.43299961;stroke-dasharray:none;stroke-dashoffset:0;stroke-opacity:1" />
      <path
         id="path6717"
         d="m -73.51197,844.0821 0.025,0 0.0125,-0.0125 0.0125,0 0.025,0 0.025,-0.0125 0.0375,0 0.025,-0.0125 0.025,0 0.0375,0 0.025,-0.0125 0.025,0 0.025,0 0.0375,0 0.025,0 0.025,0 0.0375,0 0.025,0 0.025,-0.0125 c 0.35,0 0.475,0.225 0.475,0.825 l 0,3.4125 c 0,0.6875 -0.1,0.7875 -0.975,0.95 l 0,0.2 3.275,0 0,-0.2 c -0.925,-0.05 -1.1625,-0.25 -1.1625,-1.025 l 0,-3.075 c 0,-0.4375 0.5875,-1.125 0.9625,-1.125 0.075,0 0.2,0.075 0.35,0.2125 0.225,0.1875 0.375,0.2625 0.55,0.2625 0.325,0 0.525,-0.225 0.525,-0.6125 0,-0.45 -0.275,-0.725 -0.75,-0.725 -0.575,0 -0.9625,0.325 -1.6375,1.2875 l 0,-1.2625 -0.0625,-0.025 c -0.725,0.3 -1.2125,0.4875 -2.025,0.7375 z"
         inkscape:connector-curvature="0"
         style="font-style:normal;font-variant:normal;font-weight:normal;font-stretch:normal;letter-spacing:normal;word-spacing:normal;text-anchor:start;fill:#000000;fill-opacity:1;fill-rule:evenodd;stroke:#000000;stroke-width:0;stroke-linecap:butt;stroke-linejoin:miter;stroke-miterlimit:10.43299961;stroke-dasharray:none;stroke-dashoffset:0;stroke-opacity:1" />
      <path
         id="path6719"
         d="m -68.94947,844.0821 0.0125,0 0.025,-0.0125 0.0125,0 0.025,0 0.025,-0.0125 0.0375,0 0.025,-0.0125 0.025,0 0.0375,0 0.025,-0.0125 0.025,0 0.025,0 0.0375,0 0.025,0 0.025,0 0.0375,0 0.025,0 0.025,-0.0125 c 0.35,0 0.4625,0.225 0.4625,0.825 l 0,3.4125 c 0,0.6875 -0.0875,0.7875 -0.9625,0.95 l 0,0.2 3.275,0 0,-0.2 c -0.925,-0.05 -1.1625,-0.25 -1.1625,-1.025 l 0,-3.075 c 0,-0.4375 0.5875,-1.125 0.9625,-1.125 0.075,0 0.2,0.075 0.35,0.2125 0.225,0.1875 0.375,0.2625 0.55,0.2625 0.325,0 0.525,-0.225 0.525,-0.6125 0,-0.45 -0.275,-0.725 -0.75,-0.725 -0.5625,0 -0.9625,0.325 -1.6375,1.2875 l 0,-1.2625 -0.0625,-0.025 c -0.725,0.3 -1.2125,0.4875 -2.025,0.7375 z"
         inkscape:connector-curvature="0"
         style="font-style:normal;font-variant:normal;font-weight:normal;font-stretch:normal;letter-spacing:normal;word-spacing:normal;text-anchor:start;fill:#000000;fill-opacity:1;fill-rule:evenodd;stroke:#000000;stroke-width:0;stroke-linecap:butt;stroke-linejoin:miter;stroke-miterlimit:10.43299961;stroke-dasharray:none;stroke-dashoffset:0;stroke-opacity:1" />
      <path
         id="path6721"
         d="m -61.06197,843.1196 -0.175,0.0125 -0.1625,0.0125 -0.15,0.0125 -0.1625,0.025 -0.15,0.0375 -0.15,0.0375 -0.1375,0.05 -0.1375,0.05 -0.1375,0.0625 -0.125,0.0625 -0.1375,0.075 -0.1125,0.075 -0.125,0.0875 -0.1125,0.1 -0.1,0.0875 -0.1,0.1125 -0.1,0.1 -0.1,0.1125 -0.0875,0.125 -0.075,0.125 -0.075,0.125 -0.075,0.1375 -0.0625,0.1375 -0.05,0.1375 -0.05,0.15 -0.05,0.15 -0.0375,0.1625 -0.025,0.1625 -0.025,0.1625 -0.025,0.1625 -0.0125,0.175 0,0.175 c 0,1.85 1.275,3.225 2.9875,3.225 l 0.1625,-0.3875 c -0.525,0 -1.0375,-0.325 -1.325,-0.875 -0.375,-0.7 -0.6,-1.6625 -0.6,-2.6375 0,-1.2875 0.65,-2.1375 1.6125,-2.1375 l 0,0 c 1.15,0 1.9625,1.3125 1.9625,3.175 0,1.55 -0.625,2.475 -1.65,2.475 l -0.1625,0.3875 c 1.725,0 3.0375,-1.45 3.0375,-3.3375 0,-1.7875 -1.2625,-3.0875 -3,-3.0875 z"
         inkscape:connector-curvature="0"
         style="font-style:normal;font-variant:normal;font-weight:normal;font-stretch:normal;letter-spacing:normal;word-spacing:normal;text-anchor:start;fill:#000000;fill-opacity:1;fill-rule:evenodd;stroke:#000000;stroke-width:0;stroke-linecap:butt;stroke-linejoin:miter;stroke-miterlimit:10.43299961;stroke-dasharray:none;stroke-dashoffset:0;stroke-opacity:1" />
      <path
         id="path6723"
         d="m -57.53697,844.0821 0.0125,0 0.025,-0.0125 0.0125,0 0.0125,0 0.0375,-0.0125 0.025,0 0.0375,-0.0125 0.025,0 0.0375,0 0.025,-0.0125 0.025,0 0.025,0 0.0375,0 0.025,0 0.025,0 0.025,0 0.0375,0 0.025,-0.0125 c 0.3375,0 0.4625,0.225 0.4625,0.825 l 0,3.4125 c 0,0.6875 -0.0875,0.7875 -0.9625,0.95 l 0,0.2 3.275,0 0,-0.2 c -0.925,-0.05 -1.1625,-0.25 -1.1625,-1.025 l 0,-3.075 c 0,-0.4375 0.5875,-1.125 0.9625,-1.125 0.075,0 0.2,0.075 0.35,0.2125 0.225,0.1875 0.375,0.2625 0.55,0.2625 0.325,0 0.525,-0.225 0.525,-0.6125 0,-0.45 -0.2875,-0.725 -0.75,-0.725 -0.575,0 -0.9625,0.325 -1.6375,1.2875 l 0,-1.2625 -0.0625,-0.025 c -0.725,0.3 -1.225,0.4875 -2.025,0.7375 z"
         inkscape:connector-curvature="0"
         style="font-style:normal;font-variant:normal;font-weight:normal;font-stretch:normal;letter-spacing:normal;word-spacing:normal;text-anchor:start;fill:#000000;fill-opacity:1;fill-rule:evenodd;stroke:#000000;stroke-width:0;stroke-linecap:butt;stroke-linejoin:miter;stroke-miterlimit:10.43299961;stroke-dasharray:none;stroke-dashoffset:0;stroke-opacity:1" />
    </g>
    <g
       id="g6971"
       transform="translate(377.4001,-37.769879)">
      <path
         id="path6737"
         d="m -47.23697,868.9446 0.025,0 0.025,0 0.0125,0 0.025,-0.0125 0.025,0 0.0125,0 0.05,0 0.0375,0 0.025,0 0.0125,0 0.025,0 0.025,0 0.0125,0 0.025,0 c 0.4625,0 0.5625,0.1375 0.5625,0.775 l 0,6.4 c 0,0.7 -0.15,0.85 -0.95,0.9375 l 0,0.2375 3.3,0 0,-0.25 c -1.025,-0.0125 -1.2,-0.1625 -1.2,-1.025 l 0,-2.15 c 0.475,0.45 0.8,0.5875 1.375,0.5875 l 0.05,-0.4375 c -0.65,0 -1.425,-0.4875 -1.425,-0.9 l 0,-3.35 c 0,-0.4125 0.7625,-0.9125 1.3875,-0.9125 1.0125,0 1.6875,1.0375 1.6875,2.625 0,1.5125 -0.675,2.5375 -1.65,2.5375 l -0.05,0.4375 c 1.6125,0 2.875,-1.525 2.875,-3.5 0,-1.7 -0.9625,-2.9125 -2.2875,-2.9125 -0.7625,0 -1.3625,0.3375 -1.9625,1.075 l 0,-1.05 -0.0875,-0.025 c -0.7375,0.2875 -1.2125,0.4625 -1.9625,0.7 z"
         inkscape:connector-curvature="0"
         style="font-style:normal;font-variant:normal;font-weight:normal;font-stretch:normal;letter-spacing:normal;word-spacing:normal;text-anchor:start;fill:#000000;fill-opacity:1;fill-rule:evenodd;stroke:#000000;stroke-width:0;stroke-linecap:butt;stroke-linejoin:miter;stroke-miterlimit:10.43299961;stroke-dasharray:none;stroke-dashoffset:0;stroke-opacity:1" />
      <g
         id="g6922">
        <path
           style="font-style:normal;font-variant:normal;font-weight:normal;font-stretch:normal;letter-spacing:normal;word-spacing:normal;text-anchor:start;fill:#000000;fill-opacity:1;fill-rule:evenodd;stroke:#000000;stroke-width:0;stroke-linecap:butt;stroke-linejoin:miter;stroke-miterlimit:10.43299961;stroke-dasharray:none;stroke-dashoffset:0;stroke-opacity:1"
           inkscape:connector-curvature="0"
           d="m -83.37447,874.4446 2.0125,-0.7 0,-0.225 c -0.25,0.0125 -0.275,0.0125 -0.3125,0.0125 -0.5,0 -0.6,-0.15 -0.6,-0.775 l 0,-7.75 -0.075,-0.025 c -0.65,0.2375 -1.1375,0.375 -2.0125,0.6 l 0,0.225 c 0.1125,-0.0125 0.2,-0.0125 0.3125,-0.0125 0.5,0 0.625,0.1375 0.625,0.6875 l 0,2.1375 c -0.525,-0.4375 -0.8875,-0.5875 -1.4375,-0.5875 -1.575,0 -2.8375,1.5375 -2.8375,3.475 0,1.75 1.025,2.9375 2.525,2.9375 0.7625,0 1.2875,-0.2625 1.75,-0.9125 l -0.2375,-0.2 c -0.25,0.275 -0.5875,0.4125 -0.975,0.4125 -1.1375,0 -1.8875,-1.1 -1.8875,-2.775 0,-1.55 0.6625,-2.5625 1.7,-2.5625 0.725,0 1.4,0.65 1.4,1.375 l 0,3.1375 c 0,0.1 -0.1,0.2625 -0.2375,0.4125 l 0.2375,0.2 0,0.875 z"
           id="path6725" />
        <path
           style="font-style:normal;font-variant:normal;font-weight:normal;font-stretch:normal;letter-spacing:normal;word-spacing:normal;text-anchor:start;fill:#000000;fill-opacity:1;fill-rule:evenodd;stroke:#000000;stroke-width:0;stroke-linecap:butt;stroke-linejoin:miter;stroke-miterlimit:10.43299961;stroke-dasharray:none;stroke-dashoffset:0;stroke-opacity:1"
           inkscape:connector-curvature="0"
           d="m -77.81197,868.0321 -0.1625,0 -0.1625,0.0125 -0.15,0.025 -0.1625,0.025 -0.15,0.025 -0.15,0.0375 -0.1375,0.05 -0.1375,0.0625 -0.1375,0.05 -0.1375,0.075 -0.125,0.075 -0.125,0.075 -0.1125,0.0875 -0.1125,0.0875 -0.1125,0.1 -0.1,0.1 -0.0875,0.1125 -0.1,0.1125 -0.0875,0.1125 -0.075,0.125 -0.075,0.1375 -0.075,0.125 -0.0625,0.1375 -0.05,0.15 -0.0625,0.15 -0.0375,0.15 -0.0375,0.15 -0.0375,0.1625 -0.025,0.1625 -0.0125,0.175 -0.0125,0.1625 0,0.1875 c 0,1.8375 1.2625,3.2125 2.9875,3.2125 l 0.1625,-0.375 c -0.525,0 -1.0375,-0.325 -1.325,-0.875 -0.375,-0.7125 -0.6,-1.6625 -0.6,-2.6375 0,-1.3 0.65,-2.15 1.6125,-2.15 l 0,0 c 1.15,0 1.95,1.3125 1.95,3.1875 0,1.5375 -0.6125,2.475 -1.6375,2.475 l -0.1625,0.375 c 1.725,0 3.0375,-1.4375 3.0375,-3.325 0,-1.7875 -1.2625,-3.0875 -3.0125,-3.0875 z"
           id="path6727" />
        <path
           style="font-style:normal;font-variant:normal;font-weight:normal;font-stretch:normal;letter-spacing:normal;word-spacing:normal;text-anchor:start;fill:#000000;fill-opacity:1;fill-rule:evenodd;stroke:#000000;stroke-width:0;stroke-linecap:butt;stroke-linejoin:miter;stroke-miterlimit:10.43299961;stroke-dasharray:none;stroke-dashoffset:0;stroke-opacity:1"
           inkscape:connector-curvature="0"
           d="m -67.83697,873.6321 -0.0625,0 c -0.625,0 -0.775,-0.15 -0.775,-0.775 l 0,-4.6875 -2.1625,0 0,0.225 c 0.85,0.05 1.0125,0.1875 1.0125,0.8625 l 0,3.2125 c 0,0.3875 -0.0625,0.575 -0.2625,0.725 -0.3625,0.3 -0.7875,0.4625 -1.2,0.4625 -0.5375,0 -0.9625,-0.4625 -0.9625,-1.0375 l 0,-4.45 -2,0 0,0.1875 c 0.65,0.0375 0.85,0.25 0.85,0.875 l 0,3.4375 c 0,1.0875 0.65,1.775 1.65,1.775 0.5,0 1.0375,-0.2125 1.4,-0.5875 l 0.5875,-0.5875 0,1.1375 0.0625,0.025 c 0.675,-0.275 1.175,-0.425 1.8625,-0.6125 z"
           id="path6729" />
        <path
           style="font-style:normal;font-variant:normal;font-weight:normal;font-stretch:normal;letter-spacing:normal;word-spacing:normal;text-anchor:start;fill:#000000;fill-opacity:1;fill-rule:evenodd;stroke:#000000;stroke-width:0;stroke-linecap:butt;stroke-linejoin:miter;stroke-miterlimit:10.43299961;stroke-dasharray:none;stroke-dashoffset:0;stroke-opacity:1"
           inkscape:connector-curvature="0"
           d="m -65.43697,865.0071 -0.0625,-0.025 c -0.575,0.2125 -0.95,0.3125 -1.5875,0.5 l -0.4,0.1 0,0.225 c 0.0875,-0.0125 0.1375,-0.0125 0.2375,-0.0125 0.55,0 0.6625,0.125 0.6625,0.6875 l 0,7.1 c 0,0.4125 1.1625,0.8625 2.2625,0.8625 l 0.2125,-0.4375 c -0.7125,0 -1.325,-0.3125 -1.325,-0.65 l 0,-3.4375 c 0,-0.5375 0.65,-1.025 1.35,-1.025 1.075,0 1.75,1.0625 1.75,2.725 0,1.5125 -0.65,2.3875 -1.775,2.3875 l -0.2125,0.4375 c 1.8,0 3.1875,-1.5 3.1875,-3.45 0,-1.675 -1.0375,-2.9625 -2.4,-2.9625 -0.825,0 -1.625,0.4875 -1.9,1.1625 z"
           id="path6731" />
        <path
           style="font-style:normal;font-variant:normal;font-weight:normal;font-stretch:normal;letter-spacing:normal;word-spacing:normal;text-anchor:start;fill:#000000;fill-opacity:1;fill-rule:evenodd;stroke:#000000;stroke-width:0;stroke-linecap:butt;stroke-linejoin:miter;stroke-miterlimit:10.43299961;stroke-dasharray:none;stroke-dashoffset:0;stroke-opacity:1"
           inkscape:connector-curvature="0"
           d="m -60.41197,865.8071 0.075,0 c 0.15,-0.0125 0.3125,-0.025 0.425,-0.025 0.4375,0 0.575,0.1875 0.575,0.825 l 0,6.5125 c 0,0.7375 -0.1875,0.925 -1.05,0.9875 l 0,0.2 3.225,0 0,-0.2 c -0.8625,-0.05 -1.025,-0.1875 -1.025,-0.9375 l 0,-8.1625 -0.0625,-0.025 c -0.7,0.2375 -1.225,0.375 -2.1625,0.6 z"
           id="path6733" />
        <path
           style="font-style:normal;font-variant:normal;font-weight:normal;font-stretch:normal;letter-spacing:normal;word-spacing:normal;text-anchor:start;fill:#000000;fill-opacity:1;fill-rule:evenodd;stroke:#000000;stroke-width:0;stroke-linecap:butt;stroke-linejoin:miter;stroke-miterlimit:10.43299961;stroke-dasharray:none;stroke-dashoffset:0;stroke-opacity:1"
           inkscape:connector-curvature="0"
           d="m -51.29947,872.0696 -0.05,0.1 -0.0625,0.0875 -0.0625,0.0875 -0.0625,0.0875 -0.0625,0.0875 -0.0625,0.075 -0.05,0.075 -0.0625,0.0625 -0.0625,0.075 -0.0625,0.0625 -0.0625,0.0625 -0.0625,0.05 -0.0625,0.05 -0.0625,0.05 -0.0625,0.05 -0.0625,0.05 -0.0625,0.0375 -0.0625,0.0375 -0.0625,0.0375 -0.0625,0.0375 -0.075,0.025 -0.0625,0.025 -0.075,0.025 -0.0625,0.025 -0.075,0.0125 -0.075,0.025 -0.075,0.0125 -0.075,0 -0.075,0.0125 -0.075,0.0125 -0.075,0 -0.0875,0 c -0.775,0 -1.3625,-0.4 -1.7625,-1.175 -0.25,-0.525 -0.3375,-0.975 -0.3625,-1.8 l 0.025,-0.4375 c 0.15,-1.0625 0.6125,-1.575 1.45,-1.575 0.825,0 1.1625,0.3875 1.3375,1.575 l -2.7875,0 -0.025,0.4375 4.2,0 c -0.1125,-0.8875 -0.25,-1.2875 -0.5875,-1.725 -0.4125,-0.4875 -1.0375,-0.775 -1.75,-0.775 -0.675,0 -1.325,0.25 -1.8375,0.7125 -0.65,0.5625 -1.0125,1.525 -1.0125,2.65 0,1.875 0.9875,3.05 2.55,3.05 1.3,0 2.325,-0.8 2.9,-2.275 z"
           id="path6735" />
        <path
           style="font-style:normal;font-variant:normal;font-weight:normal;font-stretch:normal;letter-spacing:normal;word-spacing:normal;text-anchor:start;fill:#000000;fill-opacity:1;fill-rule:evenodd;stroke:#000000;stroke-width:0;stroke-linecap:butt;stroke-linejoin:miter;stroke-miterlimit:10.43299961;stroke-dasharray:none;stroke-dashoffset:0;stroke-opacity:1"
           inkscape:connector-curvature="0"
           d="m -34.47447,873.4071 -0.025,0.025 -0.0125,0.0125 -0.025,0.0125 -0.025,0.025 -0.0125,0.0125 -0.025,0.0125 -0.0125,0.0125 -0.025,0.0125 -0.0125,0.0125 -0.025,0.0125 -0.0125,0.0125 -0.025,0.0125 -0.0125,0 -0.025,0.0125 -0.0125,0.0125 -0.025,0 -0.0125,0.0125 -0.025,0.0125 -0.0125,0 -0.0125,0.0125 -0.025,0 -0.0125,0 -0.025,0.0125 -0.0125,0 -0.0375,0.0125 -0.0375,0 -0.0375,0 -0.0375,0 c -0.3125,0 -0.4125,-0.1875 -0.4125,-0.7875 l 0,-2.6625 c 0,-0.7125 -0.0625,-1.1125 -0.275,-1.4375 -0.3,-0.4875 -0.8875,-0.75 -1.6875,-0.75 -1.2875,0 -2.3,0.6625 -2.3,1.525 0,0.3125 0.275,0.5875 0.5875,0.5875 0.3375,0 0.6125,-0.275 0.6125,-0.575 0,-0.05 -0.0125,-0.1125 -0.025,-0.2125 -0.025,-0.125 -0.0375,-0.2375 -0.0375,-0.325 0,-0.375 0.4375,-0.675 0.9875,-0.675 0.6625,0 1.0375,0.4 1.0375,1.1375 l 0,0.825 0,0.3375 0,1.975 c 0,0.425 -0.075,0.55 -0.3625,0.7125 -0.325,0.1875 -0.7,0.3125 -0.9875,0.3125 -0.4875,0 -0.8625,-0.4625 -0.8625,-1.05 l 0,-0.05 c 0,-0.8125 0.5625,-1.3 2.2125,-1.9 l 0,-0.3375 c -2.1125,0.85 -2.3375,0.9625 -2.925,1.475 -0.3,0.275 -0.4875,0.7375 -0.4875,1.1875 0,0.8625 0.6,1.4625 1.425,1.4625 0.6,0 1.1625,-0.2875 2,-0.9875 0.0625,0.7 0.3125,0.9875 0.875,0.9875 0.4625,0 0.75,-0.1625 1.225,-0.675 z"
           id="path6739" />
        <path
           style="font-style:normal;font-variant:normal;font-weight:normal;font-stretch:normal;letter-spacing:normal;word-spacing:normal;text-anchor:start;fill:#000000;fill-opacity:1;fill-rule:evenodd;stroke:#000000;stroke-width:0;stroke-linecap:butt;stroke-linejoin:miter;stroke-miterlimit:10.43299961;stroke-dasharray:none;stroke-dashoffset:0;stroke-opacity:1"
           inkscape:connector-curvature="0"
           d="m -30.12447,870.0196 -0.0625,-1.85 -0.15,0 -0.025,0.025 c -0.1125,0.1 -0.1375,0.1125 -0.1875,0.1125 -0.075,0 -0.225,-0.025 -0.375,-0.1 -0.2875,-0.1125 -0.6,-0.1625 -0.95,-0.1625 -1.075,0 -1.8625,0.7 -1.8625,1.675 0,0.7625 0.4375,1.3125 1.6,1.975 l 0.8,0.45 c 0.475,0.275 0.7125,0.6 0.7125,1.025 0,0.6 -0.4375,0.975 -1.1375,0.975 -0.4625,0 -0.8875,-0.175 -1.15,-0.475 -0.2875,-0.3375 -0.4125,-0.65 -0.5875,-1.4375 l -0.2125,0 0,2.1375 0.175,0 c 0.0875,-0.1375 0.15,-0.1625 0.3125,-0.1625 0.125,0 0.3125,0.025 0.625,0.1 0.3875,0.0875 0.75,0.1375 1,0.1375 1.05,0 1.925,-0.7875 1.925,-1.7375 0,-0.6875 -0.325,-1.1375 -1.15,-1.625 l -1.475,-0.875 c -0.375,-0.225 -0.5875,-0.5625 -0.5875,-0.9375 0,-0.5375 0.425,-0.925 1.05,-0.925 0.7875,0 1.1875,0.4625 1.5,1.675 z"
           id="path6741" />
        <path
           style="font-style:normal;font-variant:normal;font-weight:normal;font-stretch:normal;letter-spacing:normal;word-spacing:normal;text-anchor:start;fill:#000000;fill-opacity:1;fill-rule:evenodd;stroke:#000000;stroke-width:0;stroke-linecap:butt;stroke-linejoin:miter;stroke-miterlimit:10.43299961;stroke-dasharray:none;stroke-dashoffset:0;stroke-opacity:1"
           inkscape:connector-curvature="0"
           d="m -24.79947,870.0196 -0.05,-1.85 -0.15,0 -0.025,0.025 c -0.125,0.1 -0.1375,0.1125 -0.2,0.1125 -0.075,0 -0.2125,-0.025 -0.3625,-0.1 -0.3,-0.1125 -0.6,-0.1625 -0.9625,-0.1625 -1.075,0 -1.85,0.7 -1.85,1.675 0,0.7625 0.4375,1.3125 1.6,1.975 l 0.7875,0.45 c 0.475,0.275 0.7125,0.6 0.7125,1.025 0,0.6 -0.4375,0.975 -1.1375,0.975 -0.4625,0 -0.8875,-0.175 -1.15,-0.475 -0.2875,-0.3375 -0.4125,-0.65 -0.5875,-1.4375 l -0.2125,0 0,2.1375 0.175,0 c 0.1,-0.1375 0.15,-0.1625 0.3125,-0.1625 0.125,0 0.3125,0.025 0.625,0.1 0.3875,0.0875 0.75,0.1375 1,0.1375 1.05,0 1.925,-0.7875 1.925,-1.7375 0,-0.6875 -0.325,-1.1375 -1.15,-1.625 l -1.475,-0.875 c -0.375,-0.225 -0.575,-0.5625 -0.575,-0.9375 0,-0.5375 0.4125,-0.925 1.05,-0.925 0.775,0 1.1875,0.4625 1.5,1.675 z"
           id="path6743" />
        <path
           style="font-style:normal;font-variant:normal;font-weight:normal;font-stretch:normal;letter-spacing:normal;word-spacing:normal;text-anchor:start;fill:#000000;fill-opacity:1;fill-rule:evenodd;stroke:#000000;stroke-width:0;stroke-linecap:butt;stroke-linejoin:miter;stroke-miterlimit:10.43299961;stroke-dasharray:none;stroke-dashoffset:0;stroke-opacity:1"
           inkscape:connector-curvature="0"
           d="m -10.69947,874.0571 -0.0625,-0.0125 -0.05,0 -0.05,0 -0.05,-0.0125 -0.05,-0.0125 -0.0375,0 -0.05,-0.0125 -0.0375,-0.0125 -0.0375,-0.0125 -0.0375,-0.0125 -0.0375,-0.025 -0.0375,-0.0125 -0.0375,-0.025 -0.025,-0.025 -0.0375,-0.025 -0.0375,-0.0375 -0.025,-0.025 -0.0375,-0.0375 -0.025,-0.0375 -0.0375,-0.05 -0.025,-0.0375 -0.0375,-0.05 -0.025,-0.05 -0.0375,-0.0625 -0.0375,-0.0625 -0.0375,-0.0625 -0.025,-0.0625 -0.0375,-0.075 -0.05,-0.075 -0.0375,-0.0875 -0.0125,-0.0375 -0.025,-0.05 -0.025,-0.05 -0.025,-0.0375 -3.4,-7.7625 -0.275,0 -2.8375,6.7 c -0.875,2 -1.0375,2.225 -1.6875,2.25 l 0,0.25 2.7,0 0,-0.25 c -0.65,0 -0.925,-0.175 -0.925,-0.5625 0,-0.1625 0.0375,-0.3625 0.1125,-0.5375 l 0.625,-1.6 3.575,0 -0.1875,-0.55 -3.1625,0 1.575,-3.7625 1.5875,3.7625 0.1875,0.55 0.5625,1.3125 c 0.1625,0.375 0.2625,0.725 0.2625,0.925 0,0.3375 -0.2375,0.45 -0.9625,0.4625 l 0,0.25 3.4875,0 z"
           id="path6745" />
        <path
           style="font-style:normal;font-variant:normal;font-weight:normal;font-stretch:normal;letter-spacing:normal;word-spacing:normal;text-anchor:start;fill:#000000;fill-opacity:1;fill-rule:evenodd;stroke:#000000;stroke-width:0;stroke-linecap:butt;stroke-linejoin:miter;stroke-miterlimit:10.43299961;stroke-dasharray:none;stroke-dashoffset:0;stroke-opacity:1"
           inkscape:connector-curvature="0"
           d="m -6.27447,865.0821 0,0.4875 c 0.625,0 1.25,0.25 1.75,0.6875 0.7375,0.6625 1.15,1.95 1.15,3.575 0,0.8125 -0.175,1.75 -0.45,2.4625 -0.1125,0.3375 -0.35,0.675 -0.6625,1 -0.475,0.475 -1.1,0.7125 -1.8125,0.7125 -0.6375,0 -1.25,-0.2375 -1.725,-0.6625 -0.7125,-0.625 -1.1625,-2.0125 -1.1625,-3.525 0,-1.3875 0.3875,-2.7125 0.95,-3.3625 0.5375,-0.5875 1.2125,-0.8875 1.9625,-0.8875 l 0,0 0,-0.4875 c -2.6125,0 -4.475,1.9625 -4.475,4.7125 0,1.2875 0.4375,2.525 1.175,3.3125 0.8,0.8625 2.0125,1.4 3.2125,1.4 2.6875,0 4.55,-1.9125 4.55,-4.6625 0,-1.35 -0.4,-2.5125 -1.15,-3.325 -0.8625,-0.95 -2,-1.4375 -3.3125,-1.4375 z"
           id="path6747" />
        <path
           style="font-style:normal;font-variant:normal;font-weight:normal;font-stretch:normal;letter-spacing:normal;word-spacing:normal;text-anchor:start;fill:#000000;fill-opacity:1;fill-rule:evenodd;stroke:#000000;stroke-width:0;stroke-linecap:butt;stroke-linejoin:miter;stroke-miterlimit:10.43299961;stroke-dasharray:none;stroke-dashoffset:0;stroke-opacity:1"
           inkscape:connector-curvature="0"
           d="m 7.88803,866.4821 0,6.1875 c 0,1.1375 -0.1625,1.3125 -1.25,1.3875 l 0,0.25 3.8375,0 0,-0.25 c -1,-0.075 -1.2,-0.2625 -1.2,-1.2375 l 0,-6.0625 c 0,-0.9625 0.1875,-1.15 1.2,-1.225 l 0,-0.2625 -2.725,0 -3.025,6.9 -3.15,-6.9 -2.7,0 0,0.2625 c 1.1125,0.0625 1.3,0.2375 1.3,1.225 l 0,5.55 c 0,1.4 -0.2,1.6625 -1.325,1.75 l 0,0.25 3.2,0 0,-0.25 c -1.05,-0.0625 -1.275,-0.375 -1.275,-1.75 l 0,-5.5 3.425,7.5 0.1875,0 z"
           id="path6749" />
      </g>
    </g>
    <g
       id="g7003"
       transform="translate(-19.203146,30.115968)">
      <path
         id="path6751"
         d="m 224.20147,803.79625 0,-0.55 0,-3.55 c 0,-0.3625 0.1,-0.4625 0.4625,-0.4625 1.85,0 2.6875,0.65 2.6875,2.05 0,1.325 -0.8,2.0125 -2.375,2.0125 -0.275,0 -0.4625,-0.0125 -0.775,-0.05 l 0,0.55 c 0.35,0.025 0.5875,0.0375 0.9375,0.0375 1.075,0 1.8125,-0.125 2.4,-0.4625 0.8125,-0.4375 1.3,-1.2625 1.3,-2.1625 0,-0.575 -0.1875,-1.1 -0.55,-1.5 -0.55,-0.6 -1.7375,-0.975 -3.025,-0.975 l -3.6,0 0,0.25 c 1,0.1125 1.1375,0.25 1.1375,1.2375 l 0,5.9125 c 0,1.15 -0.1,1.2875 -1.1375,1.375 l 0,0.2625 3.825,0 0,-0.2625 c -1.0875,-0.0375 -1.2875,-0.225 -1.2875,-1.225 z"
         inkscape:connector-curvature="0"
         style="font-style:normal;font-variant:normal;font-weight:normal;font-stretch:normal;letter-spacing:normal;word-spacing:normal;text-anchor:start;fill:#000000;fill-opacity:1;fill-rule:evenodd;stroke:#000000;stroke-width:0;stroke-linecap:butt;stroke-linejoin:miter;stroke-miterlimit:10.43299961;stroke-dasharray:none;stroke-dashoffset:0;stroke-opacity:1" />
      <path
         id="path6753"
         d="m 229.28897,798.73375 0,0.25 c 1.15,0.075 1.3125,0.225 1.3125,1.2375 l 0,6.0625 c 0,1.0125 -0.175,1.1875 -1.3125,1.225 l 0,0.2625 4.5625,0 c 1.0625,0 2.0375,-0.2875 2.5375,-0.75 0.5,-0.4375 0.775,-1.05 0.775,-1.7125 0,-0.6 -0.25,-1.1375 -0.675,-1.5375 -0.4125,-0.375 -0.775,-0.5375 -1.6625,-0.75 0.7125,-0.175 0.9875,-0.3125 1.325,-0.6 0.3375,-0.3 0.5375,-0.8125 0.5375,-1.3625 0,-1.5375 -1.2125,-2.325 -3.575,-2.325 l -0.2125,0.5 c 1.5625,0 2.4,0.6625 2.4,1.875 0,1.0625 -0.725,1.6625 -2.0125,1.6625 l -1.2875,0 0,0.55 c 1.3125,0 1.95,0.0625 2.4375,0.275 0.775,0.325 1.15,0.875 1.15,1.7375 0,0.725 -0.2875,1.2625 -0.8375,1.575 -0.4375,0.25 -1,0.3625 -1.9,0.3625 -0.6625,0 -0.85,-0.125 -0.85,-0.5625 l 0,-3.3875 0,-0.55 0,-3.125 c 0,-0.2875 0.0875,-0.4125 0.3,-0.4125 l 0.6,0 0.2125,-0.5 z"
         inkscape:connector-curvature="0"
         style="font-style:normal;font-variant:normal;font-weight:normal;font-stretch:normal;letter-spacing:normal;word-spacing:normal;text-anchor:start;fill:#000000;fill-opacity:1;fill-rule:evenodd;stroke:#000000;stroke-width:0;stroke-linecap:butt;stroke-linejoin:miter;stroke-miterlimit:10.43299961;stroke-dasharray:none;stroke-dashoffset:0;stroke-opacity:1" />
      <path
         id="path6755"
         d="m 244.30147,798.53375 -0.2875,0 c -0.05,0.325 -0.2,0.475 -0.4375,0.475 -0.1375,0 -0.3625,-0.0625 -0.6,-0.1625 -0.5,-0.2 -1.0125,-0.3125 -1.45,-0.3125 -0.5875,0 -1.1875,0.2375 -1.6375,0.6375 -0.475,0.425 -0.725,1 -0.725,1.7 0,1.1 0.6,1.8625 2.1375,2.6625 0.975,0.525 1.6875,1.0875 2.025,1.6 0.125,0.175 0.2,0.4625 0.2,0.8 0,0.9125 -0.6875,1.5375 -1.6875,1.5375 -1.2125,0 -2.075,-0.75 -2.7625,-2.4125 l -0.3125,0 0.4125,2.8875 0.3,0 c 0.0125,-0.25 0.175,-0.45 0.3875,-0.45 0.15,0 0.375,0.0625 0.6375,0.15 0.525,0.2125 1.0625,0.3125 1.6125,0.3125 1.575,0 2.7875,-1.075 2.7875,-2.475 0,-1.125 -0.75,-2.0125 -2.55,-2.9875 -1.4375,-0.7875 -2.0125,-1.3875 -2.0125,-2.125 0,-0.75 0.575,-1.275 1.425,-1.275 0.6125,0 1.1875,0.2625 1.6625,0.75 0.425,0.4375 0.6125,0.8 0.8375,1.6 l 0.3375,0 z"
         inkscape:connector-curvature="0"
         style="font-style:normal;font-variant:normal;font-weight:normal;font-stretch:normal;letter-spacing:normal;word-spacing:normal;text-anchor:start;fill:#000000;fill-opacity:1;fill-rule:evenodd;stroke:#000000;stroke-width:0;stroke-linecap:butt;stroke-linejoin:miter;stroke-miterlimit:10.43299961;stroke-dasharray:none;stroke-dashoffset:0;stroke-opacity:1" />
    </g>
    <g
       id="g6941"
       transform="translate(146.22798,100.41137)">
      <path
         id="path6757"
         d="m -84.58697,917.9821 -1.375,0 0,-1.5875 c 0,-0.1375 -0.025,-0.175 -0.1,-0.175 -0.1,0.125 -0.175,0.25 -0.275,0.375 -0.525,0.7625 -1.1125,1.4125 -1.325,1.4625 -0.15,0.1 -0.2375,0.2 -0.2375,0.2625 0,0.05 0.025,0.075 0.0625,0.1 l 0.725,0 0,4.1125 c 0,1.15 0.4,1.725 1.2125,1.725 0.675,0 1.1875,-0.325 1.6375,-1.0375 l -0.175,-0.15 c -0.2875,0.35 -0.525,0.4875 -0.825,0.4875 -0.5,0 -0.7,-0.375 -0.7,-1.2375 l 0,-3.9 1.375,0 z"
         inkscape:connector-curvature="0"
         style="font-style:normal;font-variant:normal;font-weight:normal;font-stretch:normal;letter-spacing:normal;word-spacing:normal;text-anchor:start;fill:#000000;fill-opacity:1;fill-rule:evenodd;stroke:#000000;stroke-width:0;stroke-linecap:butt;stroke-linejoin:miter;stroke-miterlimit:10.43299961;stroke-dasharray:none;stroke-dashoffset:0;stroke-opacity:1" />
      <path
         id="path6759"
         d="m -80.84947,917.8446 -0.1625,0 -0.1625,0.0125 -0.1625,0.025 -0.15,0.025 -0.15,0.025 -0.15,0.05 -0.1375,0.0375 -0.15,0.0625 -0.125,0.05 -0.1375,0.075 -0.125,0.075 -0.125,0.075 -0.1125,0.0875 -0.1125,0.0875 -0.1125,0.1 -0.1,0.1 -0.1,0.1125 -0.0875,0.1125 -0.0875,0.1125 -0.0875,0.125 -0.075,0.1375 -0.0625,0.125 -0.0625,0.15 -0.0625,0.1375 -0.05,0.15 -0.0375,0.15 -0.0375,0.1625 -0.0375,0.15 -0.025,0.1625 -0.0125,0.175 -0.0125,0.175 -0.0125,0.175 c 0,1.8375 1.275,3.2125 3,3.2125 l 0.1625,-0.375 c -0.5375,0 -1.0375,-0.325 -1.325,-0.875 -0.3875,-0.7125 -0.6,-1.6625 -0.6,-2.6375 0,-1.3 0.6375,-2.15 1.6125,-2.15 l 0,0 c 1.15,0 1.95,1.3125 1.95,3.1875 0,1.55 -0.6125,2.475 -1.6375,2.475 l -0.1625,0.375 c 1.725,0 3.025,-1.4375 3.025,-3.325 0,-1.7875 -1.25,-3.0875 -3,-3.0875 z"
         inkscape:connector-curvature="0"
         style="font-style:normal;font-variant:normal;font-weight:normal;font-stretch:normal;letter-spacing:normal;word-spacing:normal;text-anchor:start;fill:#000000;fill-opacity:1;fill-rule:evenodd;stroke:#000000;stroke-width:0;stroke-linecap:butt;stroke-linejoin:miter;stroke-miterlimit:10.43299961;stroke-dasharray:none;stroke-dashoffset:0;stroke-opacity:1" />
      <path
         id="path6761"
         d="m -65.64947,917.0946 0,-0.0625 0,-0.0625 0,-0.0625 0.0125,-0.0625 0,-0.0625 0,-0.05 0,-0.1125 0.0125,-0.1 0,-0.1 0.0125,-0.0875 0.0125,-0.0875 0.0125,-0.075 0.0125,-0.075 0.025,-0.0625 0.0125,-0.075 0.025,-0.05 0.025,-0.0625 0.0375,-0.05 0.025,-0.05 0.0375,-0.0375 0.0375,-0.05 0.05,-0.0375 0.0375,-0.025 0.05,-0.0375 0.0625,-0.025 0.05,-0.025 0.0625,-0.025 0.075,-0.025 0.0625,-0.025 0.075,-0.0125 0.0875,-0.0125 0.0875,-0.025 0.0875,-0.0125 0.1,-0.0125 0.1,-0.0125 0,-0.2625 -3.1625,0 0,0.2625 c 1.0625,0.075 1.275,0.3875 1.275,1.75 l 0,3.6875 c 0,0.925 -0.0875,1.45 -0.3125,1.8625 -0.3625,0.65 -1.2375,1.075 -2.2625,1.075 -0.975,0 -1.6375,-0.325 -2.0125,-0.975 -0.25,-0.4375 -0.3375,-0.9375 -0.3375,-1.8 l 0,-4.375 c 0,-0.975 0.15,-1.125 1.2375,-1.225 l 0,-0.2625 -3.8625,0 0,0.2625 c 1.075,0.075 1.225,0.2375 1.225,1.225 l 0,4.2625 c 0,2.3625 1.1125,3.4875 3.4375,3.4875 1.4875,0 2.5125,-0.475 3.0375,-1.4125 0.3375,-0.5625 0.45,-1.2 0.45,-2.25 z"
         inkscape:connector-curvature="0"
         style="font-style:normal;font-variant:normal;font-weight:normal;font-stretch:normal;letter-spacing:normal;word-spacing:normal;text-anchor:start;fill:#000000;fill-opacity:1;fill-rule:evenodd;stroke:#000000;stroke-width:0;stroke-linecap:butt;stroke-linejoin:miter;stroke-miterlimit:10.43299961;stroke-dasharray:none;stroke-dashoffset:0;stroke-opacity:1" />
      <path
         id="path6763"
         d="m -56.27447,921.7446 -0.025,0.05 -0.0125,0.05 -0.025,0.05 -0.025,0.0375 -0.0125,0.05 -0.025,0.0375 -0.025,0.0375 -0.0125,0.05 -0.025,0.0375 -0.0125,0.0375 -0.025,0.0375 -0.025,0.0375 -0.0125,0.0375 -0.025,0.025 -0.0375,0.075 -0.0375,0.0625 -0.0375,0.0625 -0.0375,0.05 -0.0375,0.05 -0.0375,0.05 -0.0375,0.05 -0.0375,0.05 -0.0375,0.05 c -0.475,0.525 -1.2375,0.775 -2.3625,0.775 l -0.9125,0 c -1,0 -1.175,-0.0875 -1.175,-0.5625 l 0,-6.4625 c 0,-0.9625 0.1875,-1.1625 1.2625,-1.225 l 0,-0.2625 -3.85,0 0,0.2625 c 1.0125,0.075 1.1875,0.275 1.1875,1.225 l 0,6.075 c 0,0.95 -0.1875,1.15 -1.1875,1.225 l 0,0.2625 7.35,0 0.6625,-2.3875 z"
         inkscape:connector-curvature="0"
         style="font-style:normal;font-variant:normal;font-weight:normal;font-stretch:normal;letter-spacing:normal;word-spacing:normal;text-anchor:start;fill:#000000;fill-opacity:1;fill-rule:evenodd;stroke:#000000;stroke-width:0;stroke-linecap:butt;stroke-linejoin:miter;stroke-miterlimit:10.43299961;stroke-dasharray:none;stroke-dashoffset:0;stroke-opacity:1" />
      <path
         id="path6765"
         d="m -47.57447,921.8196 -0.3875,0 c -0.675,1.475 -1.2625,1.8 -3.2125,1.8 l -0.375,0 c -0.675,0 -1.25,-0.0625 -1.3375,-0.1625 -0.075,-0.0375 -0.1,-0.1875 -0.1,-0.425 l 0,-3.375 2.1,0 c 1.125,0 1.325,0.1875 1.5125,1.3125 l 0.3125,0 0,-3.1625 -0.3125,0 c -0.1,0.5625 -0.15,0.7625 -0.3,0.95 -0.175,0.2375 -0.5625,0.3375 -1.2125,0.3375 l -2.1,0 0,-3.025 c 0,-0.3875 0.0875,-0.4625 0.45,-0.4625 l 1.85,0 c 1.5375,0 1.8375,0.2 2.075,1.4375 l 0.3375,0 -0.0375,-1.9625 -7.25,0 0,0.2625 c 1.0125,0.075 1.1875,0.275 1.1875,1.225 l 0,6.075 c 0,0.95 -0.1875,1.15 -1.1875,1.225 l 0,0.2625 7.375,0 z"
         inkscape:connector-curvature="0"
         style="font-style:normal;font-variant:normal;font-weight:normal;font-stretch:normal;letter-spacing:normal;word-spacing:normal;text-anchor:start;fill:#000000;fill-opacity:1;fill-rule:evenodd;stroke:#000000;stroke-width:0;stroke-linecap:butt;stroke-linejoin:miter;stroke-miterlimit:10.43299961;stroke-dasharray:none;stroke-dashoffset:0;stroke-opacity:1" />
      <path
         id="path6767"
         d="m -38.49947,921.9946 -0.0625,0.0875 -0.0625,0.0875 -0.05,0.075 -0.0625,0.075 -0.0625,0.075 -0.05,0.075 -0.0625,0.0625 -0.05,0.0625 -0.0625,0.0625 -0.05,0.0625 -0.0625,0.05 -0.05,0.05 -0.0625,0.05 -0.05,0.05 -0.0625,0.0375 -0.05,0.0375 -0.0625,0.0375 -0.05,0.0375 -0.0625,0.025 -0.0625,0.0375 -0.05,0.025 -0.0625,0.0125 -0.0625,0.025 -0.0625,0.025 -0.0625,0.0125 -0.0625,0.0125 -0.0625,0.0125 -0.075,0.0125 -0.0625,0 -0.075,0.0125 -0.0625,0 -0.075,0 c -1.25,0 -2.1125,-1.1 -2.1125,-2.6625 0,-1.4125 0.75,-2.375 1.85,-2.375 0.5,0 0.675,0.15 0.8125,0.65 l 0.075,0.3 c 0.1125,0.3875 0.3625,0.625 0.65,0.625 0.35,0 0.65,-0.25 0.65,-0.575 0,-0.7625 -0.95,-1.4 -2.1,-1.4 -0.675,0 -1.3625,0.275 -1.925,0.7625 -0.6875,0.6 -1.0625,1.5375 -1.0625,2.6125 0,1.775 1.075,3.0375 2.5875,3.0375 0.6125,0 1.1625,-0.2125 1.65,-0.6375 0.375,-0.325 0.6375,-0.7 1.0375,-1.5 z"
         inkscape:connector-curvature="0"
         style="font-style:normal;font-variant:normal;font-weight:normal;font-stretch:normal;letter-spacing:normal;word-spacing:normal;text-anchor:start;fill:#000000;fill-opacity:1;fill-rule:evenodd;stroke:#000000;stroke-width:0;stroke-linecap:butt;stroke-linejoin:miter;stroke-miterlimit:10.43299961;stroke-dasharray:none;stroke-dashoffset:0;stroke-opacity:1" />
      <path
         id="path6769"
         d="m -31.81197,923.2196 -0.025,0.025 -0.025,0.0125 -0.0125,0.025 -0.025,0.0125 -0.025,0.0125 -0.0125,0.0125 -0.025,0.0125 -0.0125,0.0125 -0.025,0.0125 -0.0125,0.0125 -0.025,0.0125 -0.0125,0.0125 -0.025,0.0125 -0.0125,0 -0.025,0.0125 -0.0125,0.0125 -0.025,0 -0.0125,0.0125 -0.0125,0 -0.025,0.0125 -0.0125,0 -0.025,0 -0.0125,0.0125 -0.025,0 -0.025,0.0125 -0.0375,0 -0.0375,0 -0.0375,0 c -0.325,0 -0.4125,-0.1875 -0.4125,-0.7875 l 0,-2.6625 c 0,-0.7125 -0.075,-1.1125 -0.275,-1.4375 -0.3,-0.4875 -0.8875,-0.75 -1.7,-0.75 -1.275,0 -2.2875,0.675 -2.2875,1.525 0,0.325 0.275,0.5875 0.5875,0.5875 0.325,0 0.6125,-0.2625 0.6125,-0.575 0,-0.05 -0.0125,-0.1125 -0.025,-0.2125 -0.025,-0.125 -0.0375,-0.2375 -0.0375,-0.325 0,-0.375 0.4375,-0.675 0.975,-0.675 0.675,0 1.0375,0.4 1.0375,1.1375 l 0,0.8375 0,0.325 0,1.975 c 0,0.425 -0.0625,0.55 -0.35,0.7125 -0.325,0.1875 -0.7125,0.3125 -1,0.3125 -0.475,0 -0.8625,-0.4625 -0.8625,-1.05 l 0,-0.05 c 0,-0.8125 0.5625,-1.3 2.2125,-1.9 l 0,-0.325 c -2.1,0.8375 -2.325,0.95 -2.925,1.475 -0.2875,0.2625 -0.4875,0.7375 -0.4875,1.1875 0,0.8625 0.6,1.45 1.4375,1.45 0.6,0 1.1625,-0.275 1.9875,-0.9875 0.075,0.7125 0.325,0.9875 0.875,0.9875 0.475,0 0.75,-0.1625 1.2375,-0.675 z"
         inkscape:connector-curvature="0"
         style="font-style:normal;font-variant:normal;font-weight:normal;font-stretch:normal;letter-spacing:normal;word-spacing:normal;text-anchor:start;fill:#000000;fill-opacity:1;fill-rule:evenodd;stroke:#000000;stroke-width:0;stroke-linecap:butt;stroke-linejoin:miter;stroke-miterlimit:10.43299961;stroke-dasharray:none;stroke-dashoffset:0;stroke-opacity:1" />
      <path
         id="path6771"
         d="m -25.52447,917.9821 -1.9,0 0,0.2 c 0.4375,0.0375 0.6375,0.1875 0.6375,0.4375 0,0.1375 -0.025,0.275 -0.0875,0.4125 l -1.35,3.5375 -1.3875,-3.5 c -0.0875,-0.1875 -0.125,-0.375 -0.125,-0.5 0,-0.25 0.15,-0.35 0.625,-0.3875 l 0,-0.2 -2.675,0 0,0.2 c 0.525,0.025 0.6125,0.1625 1.25,1.575 l 1.6375,3.925 c 0.025,0.075 0.0625,0.175 0.1125,0.2875 0.075,0.2375 0.1625,0.35 0.2375,0.35 0.0875,0 0.175,-0.175 0.3875,-0.6875 l 1.75,-4.3875 c 0.3875,-0.925 0.475,-1.025 0.8875,-1.0625 z"
         inkscape:connector-curvature="0"
         style="font-style:normal;font-variant:normal;font-weight:normal;font-stretch:normal;letter-spacing:normal;word-spacing:normal;text-anchor:start;fill:#000000;fill-opacity:1;fill-rule:evenodd;stroke:#000000;stroke-width:0;stroke-linecap:butt;stroke-linejoin:miter;stroke-miterlimit:10.43299961;stroke-dasharray:none;stroke-dashoffset:0;stroke-opacity:1" />
      <path
         id="path6773"
         d="m -22.81197,917.8446 -2.1125,0.75 0,0.2 0.1125,-0.0125 c 0.1625,-0.025 0.3375,-0.0375 0.4625,-0.0375 0.325,0 0.45,0.225 0.45,0.825 l 0,3.1625 c 0,0.9875 -0.1375,1.1375 -1.075,1.1875 l 0,0.2125 3.2375,0 0,-0.2125 c -0.9,-0.0625 -1.0125,-0.2 -1.0125,-1.1875 l 0,-4.85 z"
         inkscape:connector-curvature="0"
         style="font-style:normal;font-variant:normal;font-weight:normal;font-stretch:normal;letter-spacing:normal;word-spacing:normal;text-anchor:start;fill:#000000;fill-opacity:1;fill-rule:evenodd;stroke:#000000;stroke-width:0;stroke-linecap:butt;stroke-linejoin:miter;stroke-miterlimit:10.43299961;stroke-dasharray:none;stroke-dashoffset:0;stroke-opacity:1" />
      <path
         id="path6775"
         d="m -23.44947,914.7946 -0.0375,0 -0.025,0.0125 -0.0375,0 -0.0375,0 -0.025,0.0125 -0.0375,0.0125 -0.025,0.0125 -0.0375,0.0125 -0.025,0.0125 -0.0375,0.0125 -0.025,0.0125 -0.025,0.025 -0.025,0.0125 -0.025,0.025 -0.025,0.025 -0.025,0.025 -0.025,0.025 -0.025,0.025 -0.0125,0.025 -0.025,0.025 -0.0125,0.025 -0.025,0.0375 -0.0125,0.025 -0.0125,0.025 -0.0125,0.0375 -0.0125,0.025 -0.0125,0.0375 0,0.0375 -0.0125,0.0375 0,0.025 0,0.0375 0,0.0375 c 0,0.3875 0.3,0.7 0.675,0.7 0.4,0 0.7125,-0.3 0.7125,-0.7 0,-0.3875 -0.3125,-0.7 -0.7125,-0.7 z"
         inkscape:connector-curvature="0"
         style="font-style:normal;font-variant:normal;font-weight:normal;font-stretch:normal;letter-spacing:normal;word-spacing:normal;text-anchor:start;fill:#000000;fill-opacity:1;fill-rule:evenodd;stroke:#000000;stroke-width:0;stroke-linecap:butt;stroke-linejoin:miter;stroke-miterlimit:10.43299961;stroke-dasharray:none;stroke-dashoffset:0;stroke-opacity:1" />
      <path
         id="path6777"
         d="m -17.89947,917.9821 -1.3875,0 0,-1.5875 c 0,-0.1375 -0.0125,-0.175 -0.0875,-0.175 -0.1,0.125 -0.1875,0.25 -0.275,0.375 -0.525,0.7625 -1.1125,1.4125 -1.325,1.4625 -0.15,0.1 -0.2375,0.2 -0.2375,0.2625 0,0.05 0.0125,0.075 0.0625,0.1 l 0.725,0 0,4.1125 c 0,1.15 0.4,1.725 1.2125,1.725 0.6625,0 1.1875,-0.325 1.6375,-1.0375 l -0.175,-0.15 c -0.2875,0.35 -0.525,0.4875 -0.825,0.4875 -0.5,0 -0.7125,-0.375 -0.7125,-1.2375 l 0,-3.9 1.3875,0 z"
         inkscape:connector-curvature="0"
         style="font-style:normal;font-variant:normal;font-weight:normal;font-stretch:normal;letter-spacing:normal;word-spacing:normal;text-anchor:start;fill:#000000;fill-opacity:1;fill-rule:evenodd;stroke:#000000;stroke-width:0;stroke-linecap:butt;stroke-linejoin:miter;stroke-miterlimit:10.43299961;stroke-dasharray:none;stroke-dashoffset:0;stroke-opacity:1" />
      <path
         id="path6779"
         d="m -11.08697,917.9821 -1.85,0 0,0.2 c 0.4375,0 0.6625,0.125 0.6625,0.35 0,0.05 -0.025,0.1375 -0.0625,0.225 l -1.325,3.775 -1.5625,-3.4625 c -0.0875,-0.1875 -0.1375,-0.3625 -0.1375,-0.5125 0,-0.25 0.2,-0.35 0.7875,-0.375 l 0,-0.2 -2.8125,0 0,0.1875 c 0.35,0.05 0.5875,0.2125 0.7,0.4375 l 1.55,3.3625 0.05,0.1125 0.2,0.4125 c 0.3875,0.675 0.6,1.175 0.6,1.375 0,0.2 -0.3125,1.0625 -0.55,1.475 -0.1875,0.35 -0.4875,0.6125 -0.675,0.6125 -0.0875,0 -0.2125,-0.025 -0.35,-0.1 -0.25,-0.0875 -0.4875,-0.15 -0.725,-0.15 -0.3125,0 -0.5875,0.275 -0.5875,0.6 0,0.45 0.4375,0.8 1.0125,0.8 0.925,0 1.575,-0.7625 2.3125,-2.7375 l 2.1,-5.575 c 0.175,-0.425 0.3375,-0.575 0.6625,-0.6125 z"
         inkscape:connector-curvature="0"
         style="font-style:normal;font-variant:normal;font-weight:normal;font-stretch:normal;letter-spacing:normal;word-spacing:normal;text-anchor:start;fill:#000000;fill-opacity:1;fill-rule:evenodd;stroke:#000000;stroke-width:0;stroke-linecap:butt;stroke-linejoin:miter;stroke-miterlimit:10.43299961;stroke-dasharray:none;stroke-dashoffset:0;stroke-opacity:1" />
    </g>
    <g
       transform="translate(559.7714,137.14072)"
       id="g6955">
      <path
         style="font-style:normal;font-variant:normal;font-weight:normal;font-stretch:normal;letter-spacing:normal;word-spacing:normal;text-anchor:start;fill:#000000;fill-opacity:1;fill-rule:evenodd;stroke:#000000;stroke-width:0;stroke-linecap:butt;stroke-linejoin:miter;stroke-miterlimit:10.43299961;stroke-dasharray:none;stroke-dashoffset:0;stroke-opacity:1"
         inkscape:connector-curvature="0"
         d="m -87.81197,843.9696 0.0125,0 0.025,0 0.0125,-0.0125 0.0125,0 0.0125,0 0.0125,-0.0125 0.0375,0 0.025,0 0.025,-0.0125 0.025,0 0.025,0 0.025,-0.0125 0.025,0 0.025,0 0.025,0 0.025,0 0.0375,0 0.025,0 0.025,0 c 0.35,0 0.475,0.2125 0.475,0.875 l 0,3.45 c 0,0.7375 -0.1875,0.9375 -0.95,0.9625 l 0,0.2 3.025,0 0,-0.2 c -0.725,-0.0375 -0.925,-0.1875 -0.925,-0.7125 l 0,-3.85 c 0,-0.025 0.1125,-0.175 0.2,-0.2625 0.35,-0.3125 0.9375,-0.55 1.4125,-0.55 0.6,0 0.9,0.475 0.9,1.4375 l 0,2.9625 c 0,0.7625 -0.15,0.9125 -0.925,0.975 l 0,0.2 3.0625,0 0,-0.2 c -0.7875,-0.025 -0.9875,-0.25 -0.9875,-1.1 l 0,-3.4375 c 0.4125,-0.5875 0.8625,-0.8375 1.4875,-0.8375 0.775,0 1.025,0.375 1.025,1.5 l 0,2.8875 c 0,0.775 -0.1125,0.8875 -0.9,0.9875 l 0,0.2 2.9875,0 0,-0.2 -0.35,-0.0375 c -0.4125,-0.025 -0.5875,-0.2625 -0.5875,-0.8 l 0,-2.8125 c 0,-1.6125 -0.5375,-2.4375 -1.5875,-2.4375 -0.8,0 -1.4875,0.3625 -2.225,1.15 -0.25,-0.775 -0.7125,-1.15 -1.45,-1.15 -0.6,0 -0.9875,0.2 -2.1125,1.05 l 0,-1.025 -0.1,-0.025 c -0.7,0.2625 -1.1625,0.4125 -1.9125,0.625 z"
         id="path6957" />
      <path
         style="font-style:normal;font-variant:normal;font-weight:normal;font-stretch:normal;letter-spacing:normal;word-spacing:normal;text-anchor:start;fill:#000000;fill-opacity:1;fill-rule:evenodd;stroke:#000000;stroke-width:0;stroke-linecap:butt;stroke-linejoin:miter;stroke-miterlimit:10.43299961;stroke-dasharray:none;stroke-dashoffset:0;stroke-opacity:1"
         inkscape:connector-curvature="0"
         d="m -75.02447,843.1196 -2.1125,0.75 0,0.2125 0.1,-0.0125 c 0.175,-0.025 0.35,-0.05 0.4625,-0.05 0.3375,0 0.4625,0.225 0.4625,0.825 l 0,3.1625 c 0,0.9875 -0.1375,1.1375 -1.0875,1.2 l 0,0.2 3.2375,0 0,-0.2 c -0.9,-0.075 -1.0125,-0.2125 -1.0125,-1.2 l 0,-4.8375 z"
         id="path6959" />
      <path
         style="font-style:normal;font-variant:normal;font-weight:normal;font-stretch:normal;letter-spacing:normal;word-spacing:normal;text-anchor:start;fill:#000000;fill-opacity:1;fill-rule:evenodd;stroke:#000000;stroke-width:0;stroke-linecap:butt;stroke-linejoin:miter;stroke-miterlimit:10.43299961;stroke-dasharray:none;stroke-dashoffset:0;stroke-opacity:1"
         inkscape:connector-curvature="0"
         d="m -75.66197,840.0821 -0.0375,0 -0.0375,0 -0.025,0 -0.0375,0.0125 -0.0375,0 -0.025,0.0125 -0.0375,0.0125 -0.025,0.0125 -0.0375,0.0125 -0.025,0.0125 -0.025,0.025 -0.0375,0.0125 -0.025,0.025 -0.025,0.0125 -0.025,0.025 -0.025,0.025 -0.025,0.025 -0.0125,0.025 -0.025,0.025 -0.0125,0.025 -0.025,0.0375 -0.0125,0.025 -0.0125,0.025 -0.025,0.0375 -0.0125,0.025 0,0.0375 -0.0125,0.0375 -0.0125,0.025 0,0.0375 -0.0125,0.0375 0,0.0375 0,0.025 c 0,0.3875 0.3,0.7 0.6875,0.7 0.3875,0 0.7125,-0.3 0.7125,-0.7 0,-0.375 -0.325,-0.6875 -0.7125,-0.6875 z"
         id="path6961" />
      <path
         style="font-style:normal;font-variant:normal;font-weight:normal;font-stretch:normal;letter-spacing:normal;word-spacing:normal;text-anchor:start;fill:#000000;fill-opacity:1;fill-rule:evenodd;stroke:#000000;stroke-width:0;stroke-linecap:butt;stroke-linejoin:miter;stroke-miterlimit:10.43299961;stroke-dasharray:none;stroke-dashoffset:0;stroke-opacity:1"
         inkscape:connector-curvature="0"
         d="m -73.51197,844.0821 0.025,0 0.0125,-0.0125 0.0125,0 0.025,0 0.025,-0.0125 0.0375,0 0.025,-0.0125 0.025,0 0.0375,0 0.025,-0.0125 0.025,0 0.025,0 0.0375,0 0.025,0 0.025,0 0.0375,0 0.025,0 0.025,-0.0125 c 0.35,0 0.475,0.225 0.475,0.825 l 0,3.4125 c 0,0.6875 -0.1,0.7875 -0.975,0.95 l 0,0.2 3.275,0 0,-0.2 c -0.925,-0.05 -1.1625,-0.25 -1.1625,-1.025 l 0,-3.075 c 0,-0.4375 0.5875,-1.125 0.9625,-1.125 0.075,0 0.2,0.075 0.35,0.2125 0.225,0.1875 0.375,0.2625 0.55,0.2625 0.325,0 0.525,-0.225 0.525,-0.6125 0,-0.45 -0.275,-0.725 -0.75,-0.725 -0.575,0 -0.9625,0.325 -1.6375,1.2875 l 0,-1.2625 -0.0625,-0.025 c -0.725,0.3 -1.2125,0.4875 -2.025,0.7375 z"
         id="path6963" />
      <path
         style="font-style:normal;font-variant:normal;font-weight:normal;font-stretch:normal;letter-spacing:normal;word-spacing:normal;text-anchor:start;fill:#000000;fill-opacity:1;fill-rule:evenodd;stroke:#000000;stroke-width:0;stroke-linecap:butt;stroke-linejoin:miter;stroke-miterlimit:10.43299961;stroke-dasharray:none;stroke-dashoffset:0;stroke-opacity:1"
         inkscape:connector-curvature="0"
         d="m -68.94947,844.0821 0.0125,0 0.025,-0.0125 0.0125,0 0.025,0 0.025,-0.0125 0.0375,0 0.025,-0.0125 0.025,0 0.0375,0 0.025,-0.0125 0.025,0 0.025,0 0.0375,0 0.025,0 0.025,0 0.0375,0 0.025,0 0.025,-0.0125 c 0.35,0 0.4625,0.225 0.4625,0.825 l 0,3.4125 c 0,0.6875 -0.0875,0.7875 -0.9625,0.95 l 0,0.2 3.275,0 0,-0.2 c -0.925,-0.05 -1.1625,-0.25 -1.1625,-1.025 l 0,-3.075 c 0,-0.4375 0.5875,-1.125 0.9625,-1.125 0.075,0 0.2,0.075 0.35,0.2125 0.225,0.1875 0.375,0.2625 0.55,0.2625 0.325,0 0.525,-0.225 0.525,-0.6125 0,-0.45 -0.275,-0.725 -0.75,-0.725 -0.5625,0 -0.9625,0.325 -1.6375,1.2875 l 0,-1.2625 -0.0625,-0.025 c -0.725,0.3 -1.2125,0.4875 -2.025,0.7375 z"
         id="path6965" />
      <path
         style="font-style:normal;font-variant:normal;font-weight:normal;font-stretch:normal;letter-spacing:normal;word-spacing:normal;text-anchor:start;fill:#000000;fill-opacity:1;fill-rule:evenodd;stroke:#000000;stroke-width:0;stroke-linecap:butt;stroke-linejoin:miter;stroke-miterlimit:10.43299961;stroke-dasharray:none;stroke-dashoffset:0;stroke-opacity:1"
         inkscape:connector-curvature="0"
         d="m -61.06197,843.1196 -0.175,0.0125 -0.1625,0.0125 -0.15,0.0125 -0.1625,0.025 -0.15,0.0375 -0.15,0.0375 -0.1375,0.05 -0.1375,0.05 -0.1375,0.0625 -0.125,0.0625 -0.1375,0.075 -0.1125,0.075 -0.125,0.0875 -0.1125,0.1 -0.1,0.0875 -0.1,0.1125 -0.1,0.1 -0.1,0.1125 -0.0875,0.125 -0.075,0.125 -0.075,0.125 -0.075,0.1375 -0.0625,0.1375 -0.05,0.1375 -0.05,0.15 -0.05,0.15 -0.0375,0.1625 -0.025,0.1625 -0.025,0.1625 -0.025,0.1625 -0.0125,0.175 0,0.175 c 0,1.85 1.275,3.225 2.9875,3.225 l 0.1625,-0.3875 c -0.525,0 -1.0375,-0.325 -1.325,-0.875 -0.375,-0.7 -0.6,-1.6625 -0.6,-2.6375 0,-1.2875 0.65,-2.1375 1.6125,-2.1375 l 0,0 c 1.15,0 1.9625,1.3125 1.9625,3.175 0,1.55 -0.625,2.475 -1.65,2.475 l -0.1625,0.3875 c 1.725,0 3.0375,-1.45 3.0375,-3.3375 0,-1.7875 -1.2625,-3.0875 -3,-3.0875 z"
         id="path6967" />
      <path
         style="font-style:normal;font-variant:normal;font-weight:normal;font-stretch:normal;letter-spacing:normal;word-spacing:normal;text-anchor:start;fill:#000000;fill-opacity:1;fill-rule:evenodd;stroke:#000000;stroke-width:0;stroke-linecap:butt;stroke-linejoin:miter;stroke-miterlimit:10.43299961;stroke-dasharray:none;stroke-dashoffset:0;stroke-opacity:1"
         inkscape:connector-curvature="0"
         d="m -57.53697,844.0821 0.0125,0 0.025,-0.0125 0.0125,0 0.0125,0 0.0375,-0.0125 0.025,0 0.0375,-0.0125 0.025,0 0.0375,0 0.025,-0.0125 0.025,0 0.025,0 0.0375,0 0.025,0 0.025,0 0.025,0 0.0375,0 0.025,-0.0125 c 0.3375,0 0.4625,0.225 0.4625,0.825 l 0,3.4125 c 0,0.6875 -0.0875,0.7875 -0.9625,0.95 l 0,0.2 3.275,0 0,-0.2 c -0.925,-0.05 -1.1625,-0.25 -1.1625,-1.025 l 0,-3.075 c 0,-0.4375 0.5875,-1.125 0.9625,-1.125 0.075,0 0.2,0.075 0.35,0.2125 0.225,0.1875 0.375,0.2625 0.55,0.2625 0.325,0 0.525,-0.225 0.525,-0.6125 0,-0.45 -0.2875,-0.725 -0.75,-0.725 -0.575,0 -0.9625,0.325 -1.6375,1.2875 l 0,-1.2625 -0.0625,-0.025 c -0.725,0.3 -1.225,0.4875 -2.025,0.7375 z"
         id="path6969" />
    </g>
    <g
       transform="translate(-19.203146,218.11597)"
       id="g7008">
      <path
         style="font-style:normal;font-variant:normal;font-weight:normal;font-stretch:normal;letter-spacing:normal;word-spacing:normal;text-anchor:start;fill:#000000;fill-opacity:1;fill-rule:evenodd;stroke:#000000;stroke-width:0;stroke-linecap:butt;stroke-linejoin:miter;stroke-miterlimit:10.43299961;stroke-dasharray:none;stroke-dashoffset:0;stroke-opacity:1"
         inkscape:connector-curvature="0"
         d="m 224.20147,803.79625 0,-0.55 0,-3.55 c 0,-0.3625 0.1,-0.4625 0.4625,-0.4625 1.85,0 2.6875,0.65 2.6875,2.05 0,1.325 -0.8,2.0125 -2.375,2.0125 -0.275,0 -0.4625,-0.0125 -0.775,-0.05 l 0,0.55 c 0.35,0.025 0.5875,0.0375 0.9375,0.0375 1.075,0 1.8125,-0.125 2.4,-0.4625 0.8125,-0.4375 1.3,-1.2625 1.3,-2.1625 0,-0.575 -0.1875,-1.1 -0.55,-1.5 -0.55,-0.6 -1.7375,-0.975 -3.025,-0.975 l -3.6,0 0,0.25 c 1,0.1125 1.1375,0.25 1.1375,1.2375 l 0,5.9125 c 0,1.15 -0.1,1.2875 -1.1375,1.375 l 0,0.2625 3.825,0 0,-0.2625 c -1.0875,-0.0375 -1.2875,-0.225 -1.2875,-1.225 z"
         id="path7010" />
      <path
         style="font-style:normal;font-variant:normal;font-weight:normal;font-stretch:normal;letter-spacing:normal;word-spacing:normal;text-anchor:start;fill:#000000;fill-opacity:1;fill-rule:evenodd;stroke:#000000;stroke-width:0;stroke-linecap:butt;stroke-linejoin:miter;stroke-miterlimit:10.43299961;stroke-dasharray:none;stroke-dashoffset:0;stroke-opacity:1"
         inkscape:connector-curvature="0"
         d="m 229.28897,798.73375 0,0.25 c 1.15,0.075 1.3125,0.225 1.3125,1.2375 l 0,6.0625 c 0,1.0125 -0.175,1.1875 -1.3125,1.225 l 0,0.2625 4.5625,0 c 1.0625,0 2.0375,-0.2875 2.5375,-0.75 0.5,-0.4375 0.775,-1.05 0.775,-1.7125 0,-0.6 -0.25,-1.1375 -0.675,-1.5375 -0.4125,-0.375 -0.775,-0.5375 -1.6625,-0.75 0.7125,-0.175 0.9875,-0.3125 1.325,-0.6 0.3375,-0.3 0.5375,-0.8125 0.5375,-1.3625 0,-1.5375 -1.2125,-2.325 -3.575,-2.325 l -0.2125,0.5 c 1.5625,0 2.4,0.6625 2.4,1.875 0,1.0625 -0.725,1.6625 -2.0125,1.6625 l -1.2875,0 0,0.55 c 1.3125,0 1.95,0.0625 2.4375,0.275 0.775,0.325 1.15,0.875 1.15,1.7375 0,0.725 -0.2875,1.2625 -0.8375,1.575 -0.4375,0.25 -1,0.3625 -1.9,0.3625 -0.6625,0 -0.85,-0.125 -0.85,-0.5625 l 0,-3.3875 0,-0.55 0,-3.125 c 0,-0.2875 0.0875,-0.4125 0.3,-0.4125 l 0.6,0 0.2125,-0.5 z"
         id="path7012" />
      <path
         style="font-style:normal;font-variant:normal;font-weight:normal;font-stretch:normal;letter-spacing:normal;word-spacing:normal;text-anchor:start;fill:#000000;fill-opacity:1;fill-rule:evenodd;stroke:#000000;stroke-width:0;stroke-linecap:butt;stroke-linejoin:miter;stroke-miterlimit:10.43299961;stroke-dasharray:none;stroke-dashoffset:0;stroke-opacity:1"
         inkscape:connector-curvature="0"
         d="m 244.30147,798.53375 -0.2875,0 c -0.05,0.325 -0.2,0.475 -0.4375,0.475 -0.1375,0 -0.3625,-0.0625 -0.6,-0.1625 -0.5,-0.2 -1.0125,-0.3125 -1.45,-0.3125 -0.5875,0 -1.1875,0.2375 -1.6375,0.6375 -0.475,0.425 -0.725,1 -0.725,1.7 0,1.1 0.6,1.8625 2.1375,2.6625 0.975,0.525 1.6875,1.0875 2.025,1.6 0.125,0.175 0.2,0.4625 0.2,0.8 0,0.9125 -0.6875,1.5375 -1.6875,1.5375 -1.2125,0 -2.075,-0.75 -2.7625,-2.4125 l -0.3125,0 0.4125,2.8875 0.3,0 c 0.0125,-0.25 0.175,-0.45 0.3875,-0.45 0.15,0 0.375,0.0625 0.6375,0.15 0.525,0.2125 1.0625,0.3125 1.6125,0.3125 1.575,0 2.7875,-1.075 2.7875,-2.475 0,-1.125 -0.75,-2.0125 -2.55,-2.9875 -1.4375,-0.7875 -2.0125,-1.3875 -2.0125,-2.125 0,-0.75 0.575,-1.275 1.425,-1.275 0.6125,0 1.1875,0.2625 1.6625,0.75 0.425,0.4375 0.6125,0.8 0.8375,1.6 l 0.3375,0 z"
         id="path7014" />
    </g>
    <g
       transform="translate(377.4001,150.23012)"
       id="g7016">
      <path
         style="font-style:normal;font-variant:normal;font-weight:normal;font-stretch:normal;letter-spacing:normal;word-spacing:normal;text-anchor:start;fill:#000000;fill-opacity:1;fill-rule:evenodd;stroke:#000000;stroke-width:0;stroke-linecap:butt;stroke-linejoin:miter;stroke-miterlimit:10.43299961;stroke-dasharray:none;stroke-dashoffset:0;stroke-opacity:1"
         inkscape:connector-curvature="0"
         d="m -47.23697,868.9446 0.025,0 0.025,0 0.0125,0 0.025,-0.0125 0.025,0 0.0125,0 0.05,0 0.0375,0 0.025,0 0.0125,0 0.025,0 0.025,0 0.0125,0 0.025,0 c 0.4625,0 0.5625,0.1375 0.5625,0.775 l 0,6.4 c 0,0.7 -0.15,0.85 -0.95,0.9375 l 0,0.2375 3.3,0 0,-0.25 c -1.025,-0.0125 -1.2,-0.1625 -1.2,-1.025 l 0,-2.15 c 0.475,0.45 0.8,0.5875 1.375,0.5875 l 0.05,-0.4375 c -0.65,0 -1.425,-0.4875 -1.425,-0.9 l 0,-3.35 c 0,-0.4125 0.7625,-0.9125 1.3875,-0.9125 1.0125,0 1.6875,1.0375 1.6875,2.625 0,1.5125 -0.675,2.5375 -1.65,2.5375 l -0.05,0.4375 c 1.6125,0 2.875,-1.525 2.875,-3.5 0,-1.7 -0.9625,-2.9125 -2.2875,-2.9125 -0.7625,0 -1.3625,0.3375 -1.9625,1.075 l 0,-1.05 -0.0875,-0.025 c -0.7375,0.2875 -1.2125,0.4625 -1.9625,0.7 z"
         id="path7018" />
      <g
         id="g7020">
        <path
           id="path7022"
           d="m -83.37447,874.4446 2.0125,-0.7 0,-0.225 c -0.25,0.0125 -0.275,0.0125 -0.3125,0.0125 -0.5,0 -0.6,-0.15 -0.6,-0.775 l 0,-7.75 -0.075,-0.025 c -0.65,0.2375 -1.1375,0.375 -2.0125,0.6 l 0,0.225 c 0.1125,-0.0125 0.2,-0.0125 0.3125,-0.0125 0.5,0 0.625,0.1375 0.625,0.6875 l 0,2.1375 c -0.525,-0.4375 -0.8875,-0.5875 -1.4375,-0.5875 -1.575,0 -2.8375,1.5375 -2.8375,3.475 0,1.75 1.025,2.9375 2.525,2.9375 0.7625,0 1.2875,-0.2625 1.75,-0.9125 l -0.2375,-0.2 c -0.25,0.275 -0.5875,0.4125 -0.975,0.4125 -1.1375,0 -1.8875,-1.1 -1.8875,-2.775 0,-1.55 0.6625,-2.5625 1.7,-2.5625 0.725,0 1.4,0.65 1.4,1.375 l 0,3.1375 c 0,0.1 -0.1,0.2625 -0.2375,0.4125 l 0.2375,0.2 0,0.875 z"
           inkscape:connector-curvature="0"
           style="font-style:normal;font-variant:normal;font-weight:normal;font-stretch:normal;letter-spacing:normal;word-spacing:normal;text-anchor:start;fill:#000000;fill-opacity:1;fill-rule:evenodd;stroke:#000000;stroke-width:0;stroke-linecap:butt;stroke-linejoin:miter;stroke-miterlimit:10.43299961;stroke-dasharray:none;stroke-dashoffset:0;stroke-opacity:1" />
        <path
           id="path7024"
           d="m -77.81197,868.0321 -0.1625,0 -0.1625,0.0125 -0.15,0.025 -0.1625,0.025 -0.15,0.025 -0.15,0.0375 -0.1375,0.05 -0.1375,0.0625 -0.1375,0.05 -0.1375,0.075 -0.125,0.075 -0.125,0.075 -0.1125,0.0875 -0.1125,0.0875 -0.1125,0.1 -0.1,0.1 -0.0875,0.1125 -0.1,0.1125 -0.0875,0.1125 -0.075,0.125 -0.075,0.1375 -0.075,0.125 -0.0625,0.1375 -0.05,0.15 -0.0625,0.15 -0.0375,0.15 -0.0375,0.15 -0.0375,0.1625 -0.025,0.1625 -0.0125,0.175 -0.0125,0.1625 0,0.1875 c 0,1.8375 1.2625,3.2125 2.9875,3.2125 l 0.1625,-0.375 c -0.525,0 -1.0375,-0.325 -1.325,-0.875 -0.375,-0.7125 -0.6,-1.6625 -0.6,-2.6375 0,-1.3 0.65,-2.15 1.6125,-2.15 l 0,0 c 1.15,0 1.95,1.3125 1.95,3.1875 0,1.5375 -0.6125,2.475 -1.6375,2.475 l -0.1625,0.375 c 1.725,0 3.0375,-1.4375 3.0375,-3.325 0,-1.7875 -1.2625,-3.0875 -3.0125,-3.0875 z"
           inkscape:connector-curvature="0"
           style="font-style:normal;font-variant:normal;font-weight:normal;font-stretch:normal;letter-spacing:normal;word-spacing:normal;text-anchor:start;fill:#000000;fill-opacity:1;fill-rule:evenodd;stroke:#000000;stroke-width:0;stroke-linecap:butt;stroke-linejoin:miter;stroke-miterlimit:10.43299961;stroke-dasharray:none;stroke-dashoffset:0;stroke-opacity:1" />
        <path
           id="path7026"
           d="m -67.83697,873.6321 -0.0625,0 c -0.625,0 -0.775,-0.15 -0.775,-0.775 l 0,-4.6875 -2.1625,0 0,0.225 c 0.85,0.05 1.0125,0.1875 1.0125,0.8625 l 0,3.2125 c 0,0.3875 -0.0625,0.575 -0.2625,0.725 -0.3625,0.3 -0.7875,0.4625 -1.2,0.4625 -0.5375,0 -0.9625,-0.4625 -0.9625,-1.0375 l 0,-4.45 -2,0 0,0.1875 c 0.65,0.0375 0.85,0.25 0.85,0.875 l 0,3.4375 c 0,1.0875 0.65,1.775 1.65,1.775 0.5,0 1.0375,-0.2125 1.4,-0.5875 l 0.5875,-0.5875 0,1.1375 0.0625,0.025 c 0.675,-0.275 1.175,-0.425 1.8625,-0.6125 z"
           inkscape:connector-curvature="0"
           style="font-style:normal;font-variant:normal;font-weight:normal;font-stretch:normal;letter-spacing:normal;word-spacing:normal;text-anchor:start;fill:#000000;fill-opacity:1;fill-rule:evenodd;stroke:#000000;stroke-width:0;stroke-linecap:butt;stroke-linejoin:miter;stroke-miterlimit:10.43299961;stroke-dasharray:none;stroke-dashoffset:0;stroke-opacity:1" />
        <path
           id="path7028"
           d="m -65.43697,865.0071 -0.0625,-0.025 c -0.575,0.2125 -0.95,0.3125 -1.5875,0.5 l -0.4,0.1 0,0.225 c 0.0875,-0.0125 0.1375,-0.0125 0.2375,-0.0125 0.55,0 0.6625,0.125 0.6625,0.6875 l 0,7.1 c 0,0.4125 1.1625,0.8625 2.2625,0.8625 l 0.2125,-0.4375 c -0.7125,0 -1.325,-0.3125 -1.325,-0.65 l 0,-3.4375 c 0,-0.5375 0.65,-1.025 1.35,-1.025 1.075,0 1.75,1.0625 1.75,2.725 0,1.5125 -0.65,2.3875 -1.775,2.3875 l -0.2125,0.4375 c 1.8,0 3.1875,-1.5 3.1875,-3.45 0,-1.675 -1.0375,-2.9625 -2.4,-2.9625 -0.825,0 -1.625,0.4875 -1.9,1.1625 z"
           inkscape:connector-curvature="0"
           style="font-style:normal;font-variant:normal;font-weight:normal;font-stretch:normal;letter-spacing:normal;word-spacing:normal;text-anchor:start;fill:#000000;fill-opacity:1;fill-rule:evenodd;stroke:#000000;stroke-width:0;stroke-linecap:butt;stroke-linejoin:miter;stroke-miterlimit:10.43299961;stroke-dasharray:none;stroke-dashoffset:0;stroke-opacity:1" />
        <path
           id="path7030"
           d="m -60.41197,865.8071 0.075,0 c 0.15,-0.0125 0.3125,-0.025 0.425,-0.025 0.4375,0 0.575,0.1875 0.575,0.825 l 0,6.5125 c 0,0.7375 -0.1875,0.925 -1.05,0.9875 l 0,0.2 3.225,0 0,-0.2 c -0.8625,-0.05 -1.025,-0.1875 -1.025,-0.9375 l 0,-8.1625 -0.0625,-0.025 c -0.7,0.2375 -1.225,0.375 -2.1625,0.6 z"
           inkscape:connector-curvature="0"
           style="font-style:normal;font-variant:normal;font-weight:normal;font-stretch:normal;letter-spacing:normal;word-spacing:normal;text-anchor:start;fill:#000000;fill-opacity:1;fill-rule:evenodd;stroke:#000000;stroke-width:0;stroke-linecap:butt;stroke-linejoin:miter;stroke-miterlimit:10.43299961;stroke-dasharray:none;stroke-dashoffset:0;stroke-opacity:1" />
        <path
           id="path7032"
           d="m -51.29947,872.0696 -0.05,0.1 -0.0625,0.0875 -0.0625,0.0875 -0.0625,0.0875 -0.0625,0.0875 -0.0625,0.075 -0.05,0.075 -0.0625,0.0625 -0.0625,0.075 -0.0625,0.0625 -0.0625,0.0625 -0.0625,0.05 -0.0625,0.05 -0.0625,0.05 -0.0625,0.05 -0.0625,0.05 -0.0625,0.0375 -0.0625,0.0375 -0.0625,0.0375 -0.0625,0.0375 -0.075,0.025 -0.0625,0.025 -0.075,0.025 -0.0625,0.025 -0.075,0.0125 -0.075,0.025 -0.075,0.0125 -0.075,0 -0.075,0.0125 -0.075,0.0125 -0.075,0 -0.0875,0 c -0.775,0 -1.3625,-0.4 -1.7625,-1.175 -0.25,-0.525 -0.3375,-0.975 -0.3625,-1.8 l 0.025,-0.4375 c 0.15,-1.0625 0.6125,-1.575 1.45,-1.575 0.825,0 1.1625,0.3875 1.3375,1.575 l -2.7875,0 -0.025,0.4375 4.2,0 c -0.1125,-0.8875 -0.25,-1.2875 -0.5875,-1.725 -0.4125,-0.4875 -1.0375,-0.775 -1.75,-0.775 -0.675,0 -1.325,0.25 -1.8375,0.7125 -0.65,0.5625 -1.0125,1.525 -1.0125,2.65 0,1.875 0.9875,3.05 2.55,3.05 1.3,0 2.325,-0.8 2.9,-2.275 z"
           inkscape:connector-curvature="0"
           style="font-style:normal;font-variant:normal;font-weight:normal;font-stretch:normal;letter-spacing:normal;word-spacing:normal;text-anchor:start;fill:#000000;fill-opacity:1;fill-rule:evenodd;stroke:#000000;stroke-width:0;stroke-linecap:butt;stroke-linejoin:miter;stroke-miterlimit:10.43299961;stroke-dasharray:none;stroke-dashoffset:0;stroke-opacity:1" />
        <path
           id="path7034"
           d="m -34.47447,873.4071 -0.025,0.025 -0.0125,0.0125 -0.025,0.0125 -0.025,0.025 -0.0125,0.0125 -0.025,0.0125 -0.0125,0.0125 -0.025,0.0125 -0.0125,0.0125 -0.025,0.0125 -0.0125,0.0125 -0.025,0.0125 -0.0125,0 -0.025,0.0125 -0.0125,0.0125 -0.025,0 -0.0125,0.0125 -0.025,0.0125 -0.0125,0 -0.0125,0.0125 -0.025,0 -0.0125,0 -0.025,0.0125 -0.0125,0 -0.0375,0.0125 -0.0375,0 -0.0375,0 -0.0375,0 c -0.3125,0 -0.4125,-0.1875 -0.4125,-0.7875 l 0,-2.6625 c 0,-0.7125 -0.0625,-1.1125 -0.275,-1.4375 -0.3,-0.4875 -0.8875,-0.75 -1.6875,-0.75 -1.2875,0 -2.3,0.6625 -2.3,1.525 0,0.3125 0.275,0.5875 0.5875,0.5875 0.3375,0 0.6125,-0.275 0.6125,-0.575 0,-0.05 -0.0125,-0.1125 -0.025,-0.2125 -0.025,-0.125 -0.0375,-0.2375 -0.0375,-0.325 0,-0.375 0.4375,-0.675 0.9875,-0.675 0.6625,0 1.0375,0.4 1.0375,1.1375 l 0,0.825 0,0.3375 0,1.975 c 0,0.425 -0.075,0.55 -0.3625,0.7125 -0.325,0.1875 -0.7,0.3125 -0.9875,0.3125 -0.4875,0 -0.8625,-0.4625 -0.8625,-1.05 l 0,-0.05 c 0,-0.8125 0.5625,-1.3 2.2125,-1.9 l 0,-0.3375 c -2.1125,0.85 -2.3375,0.9625 -2.925,1.475 -0.3,0.275 -0.4875,0.7375 -0.4875,1.1875 0,0.8625 0.6,1.4625 1.425,1.4625 0.6,0 1.1625,-0.2875 2,-0.9875 0.0625,0.7 0.3125,0.9875 0.875,0.9875 0.4625,0 0.75,-0.1625 1.225,-0.675 z"
           inkscape:connector-curvature="0"
           style="font-style:normal;font-variant:normal;font-weight:normal;font-stretch:normal;letter-spacing:normal;word-spacing:normal;text-anchor:start;fill:#000000;fill-opacity:1;fill-rule:evenodd;stroke:#000000;stroke-width:0;stroke-linecap:butt;stroke-linejoin:miter;stroke-miterlimit:10.43299961;stroke-dasharray:none;stroke-dashoffset:0;stroke-opacity:1" />
        <path
           id="path7036"
           d="m -30.12447,870.0196 -0.0625,-1.85 -0.15,0 -0.025,0.025 c -0.1125,0.1 -0.1375,0.1125 -0.1875,0.1125 -0.075,0 -0.225,-0.025 -0.375,-0.1 -0.2875,-0.1125 -0.6,-0.1625 -0.95,-0.1625 -1.075,0 -1.8625,0.7 -1.8625,1.675 0,0.7625 0.4375,1.3125 1.6,1.975 l 0.8,0.45 c 0.475,0.275 0.7125,0.6 0.7125,1.025 0,0.6 -0.4375,0.975 -1.1375,0.975 -0.4625,0 -0.8875,-0.175 -1.15,-0.475 -0.2875,-0.3375 -0.4125,-0.65 -0.5875,-1.4375 l -0.2125,0 0,2.1375 0.175,0 c 0.0875,-0.1375 0.15,-0.1625 0.3125,-0.1625 0.125,0 0.3125,0.025 0.625,0.1 0.3875,0.0875 0.75,0.1375 1,0.1375 1.05,0 1.925,-0.7875 1.925,-1.7375 0,-0.6875 -0.325,-1.1375 -1.15,-1.625 l -1.475,-0.875 c -0.375,-0.225 -0.5875,-0.5625 -0.5875,-0.9375 0,-0.5375 0.425,-0.925 1.05,-0.925 0.7875,0 1.1875,0.4625 1.5,1.675 z"
           inkscape:connector-curvature="0"
           style="font-style:normal;font-variant:normal;font-weight:normal;font-stretch:normal;letter-spacing:normal;word-spacing:normal;text-anchor:start;fill:#000000;fill-opacity:1;fill-rule:evenodd;stroke:#000000;stroke-width:0;stroke-linecap:butt;stroke-linejoin:miter;stroke-miterlimit:10.43299961;stroke-dasharray:none;stroke-dashoffset:0;stroke-opacity:1" />
        <path
           id="path7038"
           d="m -24.79947,870.0196 -0.05,-1.85 -0.15,0 -0.025,0.025 c -0.125,0.1 -0.1375,0.1125 -0.2,0.1125 -0.075,0 -0.2125,-0.025 -0.3625,-0.1 -0.3,-0.1125 -0.6,-0.1625 -0.9625,-0.1625 -1.075,0 -1.85,0.7 -1.85,1.675 0,0.7625 0.4375,1.3125 1.6,1.975 l 0.7875,0.45 c 0.475,0.275 0.7125,0.6 0.7125,1.025 0,0.6 -0.4375,0.975 -1.1375,0.975 -0.4625,0 -0.8875,-0.175 -1.15,-0.475 -0.2875,-0.3375 -0.4125,-0.65 -0.5875,-1.4375 l -0.2125,0 0,2.1375 0.175,0 c 0.1,-0.1375 0.15,-0.1625 0.3125,-0.1625 0.125,0 0.3125,0.025 0.625,0.1 0.3875,0.0875 0.75,0.1375 1,0.1375 1.05,0 1.925,-0.7875 1.925,-1.7375 0,-0.6875 -0.325,-1.1375 -1.15,-1.625 l -1.475,-0.875 c -0.375,-0.225 -0.575,-0.5625 -0.575,-0.9375 0,-0.5375 0.4125,-0.925 1.05,-0.925 0.775,0 1.1875,0.4625 1.5,1.675 z"
           inkscape:connector-curvature="0"
           style="font-style:normal;font-variant:normal;font-weight:normal;font-stretch:normal;letter-spacing:normal;word-spacing:normal;text-anchor:start;fill:#000000;fill-opacity:1;fill-rule:evenodd;stroke:#000000;stroke-width:0;stroke-linecap:butt;stroke-linejoin:miter;stroke-miterlimit:10.43299961;stroke-dasharray:none;stroke-dashoffset:0;stroke-opacity:1" />
        <path
           id="path7040"
           d="m -10.69947,874.0571 -0.0625,-0.0125 -0.05,0 -0.05,0 -0.05,-0.0125 -0.05,-0.0125 -0.0375,0 -0.05,-0.0125 -0.0375,-0.0125 -0.0375,-0.0125 -0.0375,-0.0125 -0.0375,-0.025 -0.0375,-0.0125 -0.0375,-0.025 -0.025,-0.025 -0.0375,-0.025 -0.0375,-0.0375 -0.025,-0.025 -0.0375,-0.0375 -0.025,-0.0375 -0.0375,-0.05 -0.025,-0.0375 -0.0375,-0.05 -0.025,-0.05 -0.0375,-0.0625 -0.0375,-0.0625 -0.0375,-0.0625 -0.025,-0.0625 -0.0375,-0.075 -0.05,-0.075 -0.0375,-0.0875 -0.0125,-0.0375 -0.025,-0.05 -0.025,-0.05 -0.025,-0.0375 -3.4,-7.7625 -0.275,0 -2.8375,6.7 c -0.875,2 -1.0375,2.225 -1.6875,2.25 l 0,0.25 2.7,0 0,-0.25 c -0.65,0 -0.925,-0.175 -0.925,-0.5625 0,-0.1625 0.0375,-0.3625 0.1125,-0.5375 l 0.625,-1.6 3.575,0 -0.1875,-0.55 -3.1625,0 1.575,-3.7625 1.5875,3.7625 0.1875,0.55 0.5625,1.3125 c 0.1625,0.375 0.2625,0.725 0.2625,0.925 0,0.3375 -0.2375,0.45 -0.9625,0.4625 l 0,0.25 3.4875,0 z"
           inkscape:connector-curvature="0"
           style="font-style:normal;font-variant:normal;font-weight:normal;font-stretch:normal;letter-spacing:normal;word-spacing:normal;text-anchor:start;fill:#000000;fill-opacity:1;fill-rule:evenodd;stroke:#000000;stroke-width:0;stroke-linecap:butt;stroke-linejoin:miter;stroke-miterlimit:10.43299961;stroke-dasharray:none;stroke-dashoffset:0;stroke-opacity:1" />
        <path
           id="path7042"
           d="m -6.27447,865.0821 0,0.4875 c 0.625,0 1.25,0.25 1.75,0.6875 0.7375,0.6625 1.15,1.95 1.15,3.575 0,0.8125 -0.175,1.75 -0.45,2.4625 -0.1125,0.3375 -0.35,0.675 -0.6625,1 -0.475,0.475 -1.1,0.7125 -1.8125,0.7125 -0.6375,0 -1.25,-0.2375 -1.725,-0.6625 -0.7125,-0.625 -1.1625,-2.0125 -1.1625,-3.525 0,-1.3875 0.3875,-2.7125 0.95,-3.3625 0.5375,-0.5875 1.2125,-0.8875 1.9625,-0.8875 l 0,0 0,-0.4875 c -2.6125,0 -4.475,1.9625 -4.475,4.7125 0,1.2875 0.4375,2.525 1.175,3.3125 0.8,0.8625 2.0125,1.4 3.2125,1.4 2.6875,0 4.55,-1.9125 4.55,-4.6625 0,-1.35 -0.4,-2.5125 -1.15,-3.325 -0.8625,-0.95 -2,-1.4375 -3.3125,-1.4375 z"
           inkscape:connector-curvature="0"
           style="font-style:normal;font-variant:normal;font-weight:normal;font-stretch:normal;letter-spacing:normal;word-spacing:normal;text-anchor:start;fill:#000000;fill-opacity:1;fill-rule:evenodd;stroke:#000000;stroke-width:0;stroke-linecap:butt;stroke-linejoin:miter;stroke-miterlimit:10.43299961;stroke-dasharray:none;stroke-dashoffset:0;stroke-opacity:1" />
        <path
           id="path7044"
           d="m 7.88803,866.4821 0,6.1875 c 0,1.1375 -0.1625,1.3125 -1.25,1.3875 l 0,0.25 3.8375,0 0,-0.25 c -1,-0.075 -1.2,-0.2625 -1.2,-1.2375 l 0,-6.0625 c 0,-0.9625 0.1875,-1.15 1.2,-1.225 l 0,-0.2625 -2.725,0 -3.025,6.9 -3.15,-6.9 -2.7,0 0,0.2625 c 1.1125,0.0625 1.3,0.2375 1.3,1.225 l 0,5.55 c 0,1.4 -0.2,1.6625 -1.325,1.75 l 0,0.25 3.2,0 0,-0.25 c -1.05,-0.0625 -1.275,-0.375 -1.275,-1.75 l 0,-5.5 3.425,7.5 0.1875,0 z"
           inkscape:connector-curvature="0"
           style="font-style:normal;font-variant:normal;font-weight:normal;font-stretch:normal;letter-spacing:normal;word-spacing:normal;text-anchor:start;fill:#000000;fill-opacity:1;fill-rule:evenodd;stroke:#000000;stroke-width:0;stroke-linecap:butt;stroke-linejoin:miter;stroke-miterlimit:10.43299961;stroke-dasharray:none;stroke-dashoffset:0;stroke-opacity:1" />
      </g>
    </g>
    <rect
       style="opacity:1;fill:url(#radialGradient7452);fill-opacity:1;fill-rule:nonzero;stroke:none;stroke-width:1;stroke-miterlimit:4;stroke-dasharray:2, 6;stroke-dashoffset:0;stroke-opacity:1"
       id="rect7422"
       width="55"
       height="55"
       x="186.57957"
       y="843.00226" />
  </g>
</svg>
