<?xml version="1.0" encoding="UTF-8" standalone="no"?>
<!-- Created with Inkscape (http://www.inkscape.org/) -->

<svg
   xmlns:ns0="http://www.iki.fi/pav/software/textext/"
   xmlns:osb="http://www.openswatchbook.org/uri/2009/osb"
   xmlns:dc="http://purl.org/dc/elements/1.1/"
   xmlns:cc="http://creativecommons.org/ns#"
   xmlns:rdf="http://www.w3.org/1999/02/22-rdf-syntax-ns#"
   xmlns:svg="http://www.w3.org/2000/svg"
   xmlns="http://www.w3.org/2000/svg"
   xmlns:xlink="http://www.w3.org/1999/xlink"
   xmlns:sodipodi="http://sodipodi.sourceforge.net/DTD/sodipodi-0.dtd"
   xmlns:inkscape="http://www.inkscape.org/namespaces/inkscape"
   width="451.58597pt"
   height="175pt"
   viewBox="0 0 564.48248 218.75"
   id="svg2"
   version="1.1"
   inkscape:version="0.91 r"
   sodipodi:docname="yellow_modulation.svg">
  <sodipodi:namedview
     id="base"
     pagecolor="#ffffff"
     bordercolor="#666666"
     borderopacity="1.0"
     inkscape:pageopacity="0.0"
     inkscape:pageshadow="2"
     inkscape:zoom="2.4831602"
     inkscape:cx="411.24499"
     inkscape:cy="83.820249"
     inkscape:document-units="px"
     inkscape:current-layer="layer1"
     showgrid="false"
     inkscape:window-width="1920"
     inkscape:window-height="1025"
     inkscape:window-x="-2"
     inkscape:window-y="-3"
     inkscape:window-maximized="1"
     units="pt" />
  <defs
     id="defs4">
    <marker
       inkscape:stockid="Arrow1Mstart"
       orient="auto"
       refY="0.0"
       refX="0.0"
       id="marker4990"
       style="overflow:visible"
       inkscape:isstock="true">
      <path
         id="path4992"
         d="M 0.0,0.0 L 5.0,-5.0 L -12.5,0.0 L 5.0,5.0 L 0.0,0.0 z "
         style="fill-rule:evenodd;stroke:#ffdc00;stroke-width:1pt;stroke-opacity:1;fill:#ffdc00;fill-opacity:1"
         transform="scale(0.4) translate(10,0)" />
    </marker>
    <marker
       inkscape:isstock="true"
       style="overflow:visible"
       id="marker4661"
       refX="0.0"
       refY="0.0"
       orient="auto"
       inkscape:stockid="Arrow1Mstart"
       inkscape:collect="always">
      <path
         transform="scale(0.4) translate(10,0)"
         style="fill-rule:evenodd;stroke:#ffdc00;stroke-width:1pt;stroke-opacity:1;fill:#ffdc00;fill-opacity:1"
         d="M 0.0,0.0 L 5.0,-5.0 L -12.5,0.0 L 5.0,5.0 L 0.0,0.0 z "
         id="path4349" />
    </marker>
    <marker
       inkscape:isstock="true"
       style="overflow:visible"
       id="Arrow1Lstart"
       refX="0.0"
       refY="0.0"
       orient="auto"
       inkscape:stockid="Arrow1Lstart">
      <path
         transform="scale(0.8) translate(12.5,0)"
         style="fill-rule:evenodd;stroke:#ffdc00;stroke-width:1pt;stroke-opacity:1;fill:#ffdc00;fill-opacity:1"
         d="M 0.0,0.0 L 5.0,-5.0 L -12.5,0.0 L 5.0,5.0 L 0.0,0.0 z "
         id="path4343" />
    </marker>
    <linearGradient
       id="linearGradient4345"
       inkscape:collect="always">
      <stop
         id="stop4347"
         offset="0"
         style="stop-color:#ffdc00;stop-opacity:1;" />
      <stop
         id="stop4349"
         offset="1"
         style="stop-color:#ffdc00;stop-opacity:0;" />
    </linearGradient>
    <marker
       inkscape:stockid="Arrow1Lend"
       orient="auto"
       refY="0.0"
       refX="0.0"
       id="Arrow1Lend"
       style="overflow:visible;"
       inkscape:isstock="true">
      <path
         id="path6397"
         d="M 0.0,0.0 L 5.0,-5.0 L -12.5,0.0 L 5.0,5.0 L 0.0,0.0 z "
         style="fill-rule:evenodd;stroke:#ffdc00;stroke-width:1pt;stroke-opacity:1;fill:#ffdc00;fill-opacity:1"
         transform="scale(0.8) rotate(180) translate(12.5,0)" />
    </marker>
    <marker
       inkscape:stockid="Arrow1Mend"
       orient="auto"
       refY="0.0"
       refX="0.0"
       id="marker37396"
       style="overflow:visible;"
       inkscape:isstock="true">
      <path
         id="path37398"
         d="M 0.0,0.0 L 5.0,-5.0 L -12.5,0.0 L 5.0,5.0 L 0.0,0.0 z "
         style="fill-rule:evenodd;stroke:#ffff00;stroke-width:1pt;stroke-opacity:1;fill:#ffff00;fill-opacity:1"
         transform="scale(0.4) rotate(180) translate(10,0)" />
    </marker>
    <marker
       inkscape:stockid="Arrow1Mstart"
       orient="auto"
       refY="0.0"
       refX="0.0"
       id="marker37370"
       style="overflow:visible"
       inkscape:isstock="true">
      <path
         id="path37372"
         d="M 0.0,0.0 L 5.0,-5.0 L -12.5,0.0 L 5.0,5.0 L 0.0,0.0 z "
         style="fill-rule:evenodd;stroke:#ffff00;stroke-width:1pt;stroke-opacity:1;fill:#ffff00;fill-opacity:1"
         transform="scale(0.4) translate(10,0)" />
    </marker>
    <marker
       inkscape:stockid="Arrow1Mend"
       orient="auto"
       refY="0.0"
       refX="0.0"
       id="Arrow1Mend"
       style="overflow:visible;"
       inkscape:isstock="true">
      <path
         id="path6403"
         d="M 0.0,0.0 L 5.0,-5.0 L -12.5,0.0 L 5.0,5.0 L 0.0,0.0 z "
         style="fill-rule:evenodd;stroke:#ffdc00;stroke-width:1pt;stroke-opacity:1;fill:#ffdc00;fill-opacity:1"
         transform="scale(0.4) rotate(180) translate(10,0)" />
    </marker>
    <linearGradient
       osb:paint="solid"
       id="linearGradient36834">
      <stop
         id="stop36836"
         offset="0"
         style="stop-color:#000000;stop-opacity:1;" />
    </linearGradient>
    <linearGradient
       osb:paint="gradient"
       id="linearGradient36824">
      <stop
         id="stop36826"
         offset="0"
         style="stop-color:#ffff00;stop-opacity:1;" />
      <stop
         id="stop36828"
         offset="1"
         style="stop-color:#ffff00;stop-opacity:0;" />
    </linearGradient>
    <marker
       inkscape:isstock="true"
       style="overflow:visible"
       id="marker36754"
       refX="0.0"
       refY="0.0"
       orient="auto"
       inkscape:stockid="Arrow1Mstart">
      <path
         transform="scale(0.4) translate(10,0)"
         style="fill-rule:evenodd;stroke:#ffff00;stroke-width:1pt;stroke-opacity:1;fill:#ffff00;fill-opacity:1"
         d="M 0.0,0.0 L 5.0,-5.0 L -12.5,0.0 L 5.0,5.0 L 0.0,0.0 z "
         id="path36756" />
    </marker>
    <marker
       inkscape:isstock="true"
       style="overflow:visible"
       id="Arrow1Mstart"
       refX="0.0"
       refY="0.0"
       orient="auto"
       inkscape:stockid="Arrow1Mstart">
      <path
         transform="scale(0.4) translate(10,0)"
         style="fill-rule:evenodd;stroke:#ffff00;stroke-width:1pt;stroke-opacity:1;fill:#ffff00;fill-opacity:1"
         d="M 0.0,0.0 L 5.0,-5.0 L -12.5,0.0 L 5.0,5.0 L 0.0,0.0 z "
         id="path6400" />
    </marker>
    <marker
       inkscape:isstock="true"
       style="overflow:visible;"
       id="Arrow1Send"
       refX="0.0"
       refY="0.0"
       orient="auto"
       inkscape:stockid="Arrow1Send">
      <path
         transform="scale(0.2) rotate(180) translate(6,0)"
         style="fill-rule:evenodd;stroke:#000000;stroke-width:1pt;stroke-opacity:1;fill:#000000;fill-opacity:1"
         d="M 0.0,0.0 L 5.0,-5.0 L -12.5,0.0 L 5.0,5.0 L 0.0,0.0 z "
         id="path6409" />
    </marker>
    <radialGradient
       gradientTransform="matrix(1.2699862,-8.3569461e-7,9.1183473e-7,1.3856946,-55.149969,-360.54921)"
       gradientUnits="userSpaceOnUse"
       r="27.5"
       fy="934.80536"
       fx="204.26642"
       cy="934.80536"
       cx="204.26642"
       id="radialGradient4351"
       xlink:href="#linearGradient4345"
       inkscape:collect="always" />
  </defs>
  <metadata
     id="metadata7">
    <rdf:RDF>
      <cc:Work
         rdf:about="">
        <dc:format>image/svg+xml</dc:format>
        <dc:type
           rdf:resource="http://purl.org/dc/dcmitype/StillImage" />
        <dc:title></dc:title>
      </cc:Work>
    </rdf:RDF>
  </metadata>
  <g
     inkscape:label="Layer 1"
     inkscape:groupmode="layer"
     id="layer1"
     transform="translate(0,-833.61222)">
    <path
       inkscape:connector-curvature="0"
       id="path4286"
       d="m 465.52319,1020.2237 -112.11805,0"
       style="fill:none;fill-rule:evenodd;stroke:#ffdc00;stroke-width:3;stroke-linecap:butt;stroke-linejoin:miter;stroke-miterlimit:4;stroke-dasharray:none;stroke-opacity:1;marker-start:url(#marker4661)" />
    <rect
       y="907.30536"
       x="176.76642"
       height="55"
       width="55"
       id="rect36852"
       style="opacity:1;fill:url(#radialGradient4351);fill-opacity:1;fill-rule:nonzero;stroke:none;stroke-width:3.25460911;stroke-miterlimit:4;stroke-dasharray:none;stroke-dashoffset:0;stroke-opacity:1" />
    <path
       inkscape:connector-curvature="0"
       id="path36854"
       d="m 87.85501,934.80535 142.24974,0"
       style="fill:none;fill-rule:evenodd;stroke:#ffdc00;stroke-width:3;stroke-linecap:butt;stroke-linejoin:miter;stroke-miterlimit:4;stroke-dasharray:none;stroke-opacity:1;marker-start:url(#Arrow1Mend)" />
    <path
       style="fill:none;fill-rule:evenodd;stroke:#ffdc00;stroke-width:3;stroke-linecap:butt;stroke-linejoin:miter;stroke-miterlimit:4;stroke-dasharray:none;stroke-opacity:1"
       d="m 226.56631,934.80535 112.11801,0"
       id="path36856"
       inkscape:connector-curvature="0" />
    <path
       inkscape:connector-curvature="0"
       id="path36858"
       d="m 204.26642,925.98654 0,-51.8546"
       style="fill:none;fill-rule:evenodd;stroke:#ffdc00;stroke-width:3;stroke-linecap:butt;stroke-linejoin:miter;stroke-miterlimit:4;stroke-dasharray:none;stroke-opacity:1" />
    <rect
       y="858.71564"
       x="182.89392"
       height="16.817701"
       width="42.744987"
       id="rect36860"
       style="opacity:1;fill:#000000;fill-opacity:1;fill-rule:nonzero;stroke:#000000;stroke-width:3.44511008;stroke-miterlimit:4;stroke-dasharray:none;stroke-dashoffset:0;stroke-opacity:1" />
    <rect
       y="912.03137"
       x="337.81659"
       height="45.547935"
       width="24.525812"
       id="rect36862"
       style="opacity:1;fill:none;fill-opacity:1;fill-rule:nonzero;stroke:#000000;stroke-width:3.44511008;stroke-miterlimit:4;stroke-dasharray:none;stroke-dashoffset:0;stroke-opacity:1" />
    <path
       inkscape:connector-curvature="0"
       id="path36864"
       d="m 364.06496,934.80538 112.11801,0"
       style="fill:none;fill-rule:evenodd;stroke:#ffdc00;stroke-width:3;stroke-linecap:butt;stroke-linejoin:miter;stroke-miterlimit:4;stroke-dasharray:none;stroke-opacity:1" />
    <path
       inkscape:connector-curvature="0"
       id="path36866"
       d="m 475.62745,953.37492 0,-37.13908"
       style="fill:none;fill-rule:evenodd;stroke:#000000;stroke-width:2;stroke-linecap:butt;stroke-linejoin:miter;stroke-miterlimit:4;stroke-dasharray:none;stroke-opacity:1" />
    <path
       inkscape:connector-curvature="0"
       id="path36868"
       d="m 204.26642,1021.085 0,-112.11798"
       style="fill:none;fill-rule:evenodd;stroke:#ffdc00;stroke-width:3;stroke-linecap:butt;stroke-linejoin:miter;stroke-miterlimit:4;stroke-dasharray:none;stroke-opacity:1" />
    <path
       style="fill:none;fill-rule:evenodd;stroke:#ffdc00;stroke-width:3;stroke-linecap:butt;stroke-linejoin:miter;stroke-miterlimit:4;stroke-dasharray:none;stroke-opacity:1"
       d="m 315.52319,1020.2237 -112.11805,0"
       id="path36870"
       inkscape:connector-curvature="0" />
    <path
       inkscape:connector-curvature="0"
       id="path36874"
       d="m 177.55567,961.51606 53.4215,-53.42145"
       style="fill:none;fill-rule:evenodd;stroke:#ffdc00;stroke-width:2.23239088;stroke-linecap:butt;stroke-linejoin:miter;stroke-miterlimit:4;stroke-dasharray:none;stroke-opacity:1" />
    <g
       id="g37282"
       transform="translate(-369.34503,42.298391)">
      <path
         id="path37010"
         d="m 609.655,864.2552 0,-0.55 0,-3.55 c 0,-0.375 0.1,-0.475 0.4625,-0.475 1.85,0 2.6875,0.65 2.6875,2.05 0,1.325 -0.8,2.0125 -2.375,2.0125 -0.275,0 -0.4625,-0.0125 -0.775,-0.0375 l 0,0.55 c 0.35,0.025 0.5875,0.0375 0.9375,0.0375 1.075,0 1.8125,-0.1375 2.4,-0.4625 0.8125,-0.4375 1.3,-1.275 1.3,-2.175 0,-0.575 -0.1875,-1.1 -0.55,-1.4875 -0.55,-0.6 -1.7375,-0.9875 -3.025,-0.9875 l -3.6,0 0,0.2625 c 1,0.1125 1.1375,0.2375 1.1375,1.225 l 0,5.9125 c 0,1.15 -0.1,1.2875 -1.1375,1.3875 l 0,0.2625 3.825,0 0,-0.2625 c -1.0875,-0.0375 -1.2875,-0.2375 -1.2875,-1.2375 z"
         inkscape:connector-curvature="0"
         style="font-style:normal;font-variant:normal;font-weight:normal;font-stretch:normal;letter-spacing:normal;word-spacing:normal;text-anchor:start;fill:#000000;fill-opacity:1;fill-rule:evenodd;stroke:#000000;stroke-width:0;stroke-linecap:butt;stroke-linejoin:miter;stroke-miterlimit:10.43299961;stroke-dasharray:none;stroke-dashoffset:0;stroke-opacity:1" />
      <path
         id="path37012"
         d="m 614.7425,859.1802 0,0.2625 c 1.15,0.0625 1.3125,0.2125 1.3125,1.225 l 0,6.0625 c 0,1.0125 -0.175,1.2 -1.3125,1.2375 l 0,0.2625 4.5625,0 c 1.0625,0 2.0375,-0.2875 2.5375,-0.7625 0.5,-0.4375 0.775,-1.05 0.775,-1.7 0,-0.6 -0.25,-1.15 -0.675,-1.55 -0.4125,-0.3625 -0.775,-0.525 -1.6625,-0.75 0.7125,-0.175 0.9875,-0.3125 1.325,-0.6 0.3375,-0.3 0.5375,-0.8 0.5375,-1.3625 0,-1.525 -1.2125,-2.325 -3.575,-2.325 l -0.2125,0.5 c 1.5625,0 2.4,0.6625 2.4,1.875 0,1.075 -0.725,1.675 -2.0125,1.675 l -1.2875,0 0,0.5375 c 1.3125,0 1.95,0.075 2.4375,0.275 0.775,0.325 1.15,0.875 1.15,1.7375 0,0.7375 -0.2875,1.2625 -0.8375,1.5875 -0.4375,0.2375 -1,0.35 -1.9,0.35 -0.6625,0 -0.85,-0.125 -0.85,-0.5625 l 0,-3.3875 0,-0.5375 0,-3.1375 c 0,-0.2875 0.0875,-0.4125 0.3,-0.4125 l 0.6,0 0.2125,-0.5 z"
         inkscape:connector-curvature="0"
         style="font-style:normal;font-variant:normal;font-weight:normal;font-stretch:normal;letter-spacing:normal;word-spacing:normal;text-anchor:start;fill:#000000;fill-opacity:1;fill-rule:evenodd;stroke:#000000;stroke-width:0;stroke-linecap:butt;stroke-linejoin:miter;stroke-miterlimit:10.43299961;stroke-dasharray:none;stroke-dashoffset:0;stroke-opacity:1" />
      <path
         id="path37014"
         d="m 629.755,858.9927 -0.2875,0 c -0.05,0.3125 -0.2,0.4625 -0.4375,0.4625 -0.1375,0 -0.3625,-0.05 -0.6,-0.1625 -0.5,-0.1875 -1.0125,-0.3 -1.45,-0.3 -0.5875,0 -1.1875,0.225 -1.6375,0.625 -0.475,0.425 -0.725,1 -0.725,1.7125 0,1.0875 0.6,1.85 2.1375,2.6625 0.975,0.5125 1.6875,1.075 2.025,1.6 0.125,0.175 0.2,0.4625 0.2,0.7875 0,0.9125 -0.6875,1.55 -1.6875,1.55 -1.2125,0 -2.075,-0.7625 -2.7625,-2.425 l -0.3125,0 0.4125,2.9 0.3,0 c 0.0125,-0.2625 0.175,-0.45 0.3875,-0.45 0.15,0 0.375,0.05 0.6375,0.15 0.525,0.2 1.0625,0.3125 1.6125,0.3125 1.575,0 2.7875,-1.0875 2.7875,-2.4875 0,-1.125 -0.75,-2.0125 -2.55,-2.975 -1.4375,-0.8 -2.0125,-1.4 -2.0125,-2.1375 0,-0.75 0.575,-1.2625 1.425,-1.2625 0.6125,0 1.1875,0.25 1.6625,0.75 0.425,0.4375 0.6125,0.7875 0.8375,1.6 l 0.3375,0 z"
         inkscape:connector-curvature="0"
         style="font-style:normal;font-variant:normal;font-weight:normal;font-stretch:normal;letter-spacing:normal;word-spacing:normal;text-anchor:start;fill:#000000;fill-opacity:1;fill-rule:evenodd;stroke:#000000;stroke-width:0;stroke-linecap:butt;stroke-linejoin:miter;stroke-miterlimit:10.43299961;stroke-dasharray:none;stroke-dashoffset:0;stroke-opacity:1" />
    </g>
    <g
       id="g37287"
       transform="translate(-306.2755,83.123471)">
      <path
         id="path37016"
         d="m 611.5925,893.2677 2.0125,-0.7125 0,-0.2125 c -0.25,0.0125 -0.275,0.0125 -0.3125,0.0125 -0.5,0 -0.6,-0.15 -0.6,-0.7875 l 0,-7.7375 -0.075,-0.025 c -0.65,0.225 -1.1375,0.3625 -2.0125,0.6 l 0,0.2125 c 0.1125,-0.0125 0.2,-0.0125 0.3125,-0.0125 0.5,0 0.625,0.1375 0.625,0.7 l 0,2.125 c -0.525,-0.4375 -0.8875,-0.5875 -1.4375,-0.5875 -1.575,0 -2.8375,1.55 -2.8375,3.4875 0,1.75 1.025,2.9375 2.525,2.9375 0.7625,0 1.2875,-0.275 1.75,-0.9125 l -0.2375,-0.2125 c -0.25,0.275 -0.5875,0.4125 -0.975,0.4125 -1.1375,0 -1.8875,-1.0875 -1.8875,-2.775 0,-1.5375 0.6625,-2.55 1.7,-2.55 0.725,0 1.4,0.6375 1.4,1.3625 l 0,3.1375 c 0,0.1 -0.1,0.2625 -0.2375,0.4125 l 0.2375,0.2125 0,0.875 z"
         inkscape:connector-curvature="0"
         style="font-style:normal;font-variant:normal;font-weight:normal;font-stretch:normal;letter-spacing:normal;word-spacing:normal;text-anchor:start;fill:#000000;fill-opacity:1;fill-rule:evenodd;stroke:#000000;stroke-width:0;stroke-linecap:butt;stroke-linejoin:miter;stroke-miterlimit:10.43299961;stroke-dasharray:none;stroke-dashoffset:0;stroke-opacity:1" />
      <path
         id="path37018"
         d="m 617.155,886.8427 -0.1625,0.0125 -0.1625,0.0125 -0.15,0.0125 -0.1625,0.025 -0.15,0.0375 -0.15,0.0375 -0.1375,0.05 -0.1375,0.05 -0.1375,0.0625 -0.1375,0.0625 -0.125,0.075 -0.125,0.075 -0.1125,0.0875 -0.1125,0.1 -0.1125,0.0875 -0.1,0.1125 -0.0875,0.1 -0.1,0.1125 -0.0875,0.125 -0.075,0.125 -0.075,0.125 -0.075,0.1375 -0.0625,0.1375 -0.05,0.1375 -0.0625,0.15 -0.0375,0.15 -0.0375,0.1625 -0.0375,0.1625 -0.025,0.1625 -0.0125,0.1625 -0.0125,0.175 0,0.175 c 0,1.85 1.2625,3.225 2.9875,3.225 l 0.1625,-0.3875 c -0.525,0 -1.0375,-0.325 -1.325,-0.875 -0.375,-0.7 -0.6,-1.6625 -0.6,-2.6375 0,-1.2875 0.65,-2.1375 1.6125,-2.1375 l 0,0 c 1.15,0 1.95,1.3125 1.95,3.175 0,1.55 -0.6125,2.475 -1.6375,2.475 l -0.1625,0.3875 c 1.725,0 3.0375,-1.45 3.0375,-3.3375 0,-1.7875 -1.2625,-3.0875 -3.0125,-3.0875 z"
         inkscape:connector-curvature="0"
         style="font-style:normal;font-variant:normal;font-weight:normal;font-stretch:normal;letter-spacing:normal;word-spacing:normal;text-anchor:start;fill:#000000;fill-opacity:1;fill-rule:evenodd;stroke:#000000;stroke-width:0;stroke-linecap:butt;stroke-linejoin:miter;stroke-miterlimit:10.43299961;stroke-dasharray:none;stroke-dashoffset:0;stroke-opacity:1" />
      <path
         id="path37020"
         d="m 627.13,892.4427 -0.0625,0 c -0.625,0 -0.775,-0.15 -0.775,-0.775 l 0,-4.6875 -2.1625,0 0,0.2375 c 0.85,0.0375 1.0125,0.175 1.0125,0.8625 l 0,3.2125 c 0,0.375 -0.0625,0.5625 -0.2625,0.7125 -0.3625,0.3 -0.7875,0.475 -1.2,0.475 -0.5375,0 -0.9625,-0.475 -0.9625,-1.0375 l 0,-4.4625 -2,0 0,0.2 c 0.65,0.0375 0.85,0.2375 0.85,0.8625 l 0,3.45 c 0,1.075 0.65,1.775 1.65,1.775 0.5,0 1.0375,-0.225 1.4,-0.5875 l 0.5875,-0.5875 0,1.1375 0.0625,0.025 c 0.675,-0.275 1.175,-0.425 1.8625,-0.6125 z"
         inkscape:connector-curvature="0"
         style="font-style:normal;font-variant:normal;font-weight:normal;font-stretch:normal;letter-spacing:normal;word-spacing:normal;text-anchor:start;fill:#000000;fill-opacity:1;fill-rule:evenodd;stroke:#000000;stroke-width:0;stroke-linecap:butt;stroke-linejoin:miter;stroke-miterlimit:10.43299961;stroke-dasharray:none;stroke-dashoffset:0;stroke-opacity:1" />
      <path
         id="path37022"
         d="m 629.53,883.8302 -0.0625,-0.025 c -0.575,0.2 -0.95,0.3125 -1.5875,0.4875 l -0.4,0.1125 0,0.2125 c 0.0875,-0.0125 0.1375,-0.0125 0.2375,-0.0125 0.55,0 0.6625,0.125 0.6625,0.7 l 0,7.0875 c 0,0.425 1.1625,0.875 2.2625,0.875 l 0.2125,-0.4375 c -0.7125,0 -1.325,-0.3125 -1.325,-0.6625 l 0,-3.4375 c 0,-0.5375 0.65,-1.025 1.35,-1.025 1.075,0 1.75,1.0625 1.75,2.7375 0,1.5125 -0.65,2.3875 -1.775,2.3875 l -0.2125,0.4375 c 1.8,0 3.1875,-1.5 3.1875,-3.45 0,-1.6875 -1.0375,-2.975 -2.4,-2.975 -0.825,0 -1.625,0.5 -1.9,1.1625 z"
         inkscape:connector-curvature="0"
         style="font-style:normal;font-variant:normal;font-weight:normal;font-stretch:normal;letter-spacing:normal;word-spacing:normal;text-anchor:start;fill:#000000;fill-opacity:1;fill-rule:evenodd;stroke:#000000;stroke-width:0;stroke-linecap:butt;stroke-linejoin:miter;stroke-miterlimit:10.43299961;stroke-dasharray:none;stroke-dashoffset:0;stroke-opacity:1" />
      <path
         id="path37024"
         d="m 634.555,884.6177 0.075,0 c 0.15,-0.0125 0.3125,-0.025 0.425,-0.025 0.4375,0 0.575,0.1875 0.575,0.8375 l 0,6.5125 c 0,0.7375 -0.1875,0.9125 -1.05,0.9875 l 0,0.2 3.225,0 0,-0.2 c -0.8625,-0.0625 -1.025,-0.2 -1.025,-0.95 l 0,-8.15 -0.0625,-0.025 c -0.7,0.225 -1.225,0.3625 -2.1625,0.6 z"
         inkscape:connector-curvature="0"
         style="font-style:normal;font-variant:normal;font-weight:normal;font-stretch:normal;letter-spacing:normal;word-spacing:normal;text-anchor:start;fill:#000000;fill-opacity:1;fill-rule:evenodd;stroke:#000000;stroke-width:0;stroke-linecap:butt;stroke-linejoin:miter;stroke-miterlimit:10.43299961;stroke-dasharray:none;stroke-dashoffset:0;stroke-opacity:1" />
      <path
         id="path37026"
         d="m 643.6675,890.8927 -0.05,0.0875 -0.0625,0.1 -0.0625,0.0875 -0.0625,0.0875 -0.0625,0.075 -0.0625,0.075 -0.05,0.075 -0.0625,0.075 -0.0625,0.0625 -0.0625,0.0625 -0.0625,0.0625 -0.0625,0.0625 -0.0625,0.05 -0.0625,0.05 -0.0625,0.05 -0.0625,0.0375 -0.0625,0.05 -0.0625,0.0375 -0.0625,0.025 -0.0625,0.0375 -0.075,0.025 -0.0625,0.0375 -0.075,0.025 -0.0625,0.0125 -0.075,0.025 -0.075,0.0125 -0.075,0.0125 -0.075,0.0125 -0.075,0.0125 -0.075,0 -0.075,0 -0.0875,0.0125 c -0.775,0 -1.3625,-0.4 -1.7625,-1.175 -0.25,-0.525 -0.3375,-0.975 -0.3625,-1.8125 l 0.025,-0.4375 c 0.15,-1.0625 0.6125,-1.5625 1.45,-1.5625 0.825,0 1.1625,0.375 1.3375,1.5625 l -2.7875,0 -0.025,0.4375 4.2,0 c -0.1125,-0.8875 -0.25,-1.275 -0.5875,-1.7125 -0.4125,-0.5 -1.0375,-0.7875 -1.75,-0.7875 -0.675,0 -1.325,0.25 -1.8375,0.7125 -0.65,0.5625 -1.0125,1.5375 -1.0125,2.65 0,1.8875 0.9875,3.0625 2.55,3.0625 1.3,0 2.325,-0.8 2.9,-2.2875 z"
         inkscape:connector-curvature="0"
         style="font-style:normal;font-variant:normal;font-weight:normal;font-stretch:normal;letter-spacing:normal;word-spacing:normal;text-anchor:start;fill:#000000;fill-opacity:1;fill-rule:evenodd;stroke:#000000;stroke-width:0;stroke-linecap:butt;stroke-linejoin:miter;stroke-miterlimit:10.43299961;stroke-dasharray:none;stroke-dashoffset:0;stroke-opacity:1" />
      <path
         id="path37028"
         d="m 647.73,887.7677 0.025,-0.0125 0.025,0 0.0125,0 0.025,0 0.025,0 0.0125,0 0.05,0 0.0375,0 0.025,0 0.0125,0 0.025,0 0.025,0 0.0125,-0.0125 0.025,0 c 0.4625,0 0.5625,0.1375 0.5625,0.7875 l 0,6.3875 c 0,0.7125 -0.15,0.8625 -0.95,0.9375 l 0,0.2375 3.3,0 0,-0.25 c -1.025,-0.0125 -1.2,-0.1625 -1.2,-1.0125 l 0,-2.15 c 0.475,0.45 0.8,0.5875 1.375,0.5875 l 0.05,-0.4375 c -0.65,0 -1.425,-0.4875 -1.425,-0.9 l 0,-3.3625 c 0,-0.4125 0.7625,-0.9 1.3875,-0.9 1.0125,0 1.6875,1.0375 1.6875,2.625 0,1.5125 -0.675,2.5375 -1.65,2.5375 l -0.05,0.4375 c 1.6125,0 2.875,-1.5375 2.875,-3.5125 0,-1.6875 -0.9625,-2.9125 -2.2875,-2.9125 -0.7625,0 -1.3625,0.35 -1.9625,1.0875 l 0,-1.0625 -0.0875,-0.025 c -0.7375,0.2875 -1.2125,0.475 -1.9625,0.7 z"
         inkscape:connector-curvature="0"
         style="font-style:normal;font-variant:normal;font-weight:normal;font-stretch:normal;letter-spacing:normal;word-spacing:normal;text-anchor:start;fill:#000000;fill-opacity:1;fill-rule:evenodd;stroke:#000000;stroke-width:0;stroke-linecap:butt;stroke-linejoin:miter;stroke-miterlimit:10.43299961;stroke-dasharray:none;stroke-dashoffset:0;stroke-opacity:1" />
      <path
         id="path37030"
         d="m 660.4925,892.2302 -0.025,0.0125 -0.0125,0.025 -0.025,0.0125 -0.025,0.0125 -0.0125,0.0125 -0.025,0.0125 -0.0125,0.025 -0.025,0.0125 -0.0125,0.0125 -0.025,0 -0.0125,0.0125 -0.025,0.0125 -0.0125,0.0125 -0.025,0.0125 -0.0125,0 -0.025,0.0125 -0.0125,0.0125 -0.025,0 -0.0125,0.0125 -0.0125,0 -0.025,0.0125 -0.0125,0 -0.025,0 -0.0125,0.0125 -0.0375,0 -0.0375,0 -0.0375,0.0125 -0.0375,0 c -0.3125,0 -0.4125,-0.2 -0.4125,-0.8 l 0,-2.6625 c 0,-0.7125 -0.0625,-1.1 -0.275,-1.4375 -0.3,-0.4875 -0.8875,-0.75 -1.6875,-0.75 -1.2875,0 -2.3,0.675 -2.3,1.5375 0,0.3125 0.275,0.5875 0.5875,0.5875 0.3375,0 0.6125,-0.275 0.6125,-0.575 0,-0.05 -0.0125,-0.125 -0.025,-0.225 -0.025,-0.125 -0.0375,-0.225 -0.0375,-0.325 0,-0.3625 0.4375,-0.6625 0.9875,-0.6625 0.6625,0 1.0375,0.3875 1.0375,1.125 l 0,0.8375 0,0.325 0,1.9875 c 0,0.4125 -0.075,0.5375 -0.3625,0.7 -0.325,0.2 -0.7,0.325 -0.9875,0.325 -0.4875,0 -0.8625,-0.475 -0.8625,-1.0625 l 0,-0.05 c 0,-0.8 0.5625,-1.3 2.2125,-1.9 l 0,-0.325 c -2.1125,0.85 -2.3375,0.95 -2.925,1.475 -0.3,0.275 -0.4875,0.7375 -0.4875,1.1875 0,0.8625 0.6,1.4625 1.425,1.4625 0.6,0 1.1625,-0.2875 2,-1 0.0625,0.7125 0.3125,1 0.875,1 0.4625,0 0.75,-0.1625 1.225,-0.6875 z"
         inkscape:connector-curvature="0"
         style="font-style:normal;font-variant:normal;font-weight:normal;font-stretch:normal;letter-spacing:normal;word-spacing:normal;text-anchor:start;fill:#000000;fill-opacity:1;fill-rule:evenodd;stroke:#000000;stroke-width:0;stroke-linecap:butt;stroke-linejoin:miter;stroke-miterlimit:10.43299961;stroke-dasharray:none;stroke-dashoffset:0;stroke-opacity:1" />
      <path
         id="path37032"
         d="m 664.8425,888.8427 -0.0625,-1.8625 -0.15,0 -0.025,0.0375 c -0.1125,0.0875 -0.1375,0.1 -0.1875,0.1 -0.075,0 -0.225,-0.025 -0.375,-0.0875 -0.2875,-0.1125 -0.6,-0.175 -0.95,-0.175 -1.075,0 -1.8625,0.7 -1.8625,1.6875 0,0.7625 0.4375,1.3125 1.6,1.9625 l 0.8,0.45 c 0.475,0.275 0.7125,0.6 0.7125,1.025 0,0.6 -0.4375,0.9875 -1.1375,0.9875 -0.4625,0 -0.8875,-0.175 -1.15,-0.475 -0.2875,-0.35 -0.4125,-0.6625 -0.5875,-1.4375 l -0.2125,0 0,2.125 0.175,0 c 0.0875,-0.1375 0.15,-0.1625 0.3125,-0.1625 0.125,0 0.3125,0.025 0.625,0.1125 0.3875,0.075 0.75,0.1375 1,0.1375 1.05,0 1.925,-0.7875 1.925,-1.75 0,-0.6875 -0.325,-1.1375 -1.15,-1.625 l -1.475,-0.875 c -0.375,-0.2125 -0.5875,-0.5625 -0.5875,-0.925 0,-0.55 0.425,-0.925 1.05,-0.925 0.7875,0 1.1875,0.4625 1.5,1.675 z"
         inkscape:connector-curvature="0"
         style="font-style:normal;font-variant:normal;font-weight:normal;font-stretch:normal;letter-spacing:normal;word-spacing:normal;text-anchor:start;fill:#000000;fill-opacity:1;fill-rule:evenodd;stroke:#000000;stroke-width:0;stroke-linecap:butt;stroke-linejoin:miter;stroke-miterlimit:10.43299961;stroke-dasharray:none;stroke-dashoffset:0;stroke-opacity:1" />
      <path
         id="path37034"
         d="m 670.1675,888.8427 -0.05,-1.8625 -0.15,0 -0.025,0.0375 c -0.125,0.0875 -0.1375,0.1 -0.2,0.1 -0.075,0 -0.2125,-0.025 -0.3625,-0.0875 -0.3,-0.1125 -0.6,-0.175 -0.9625,-0.175 -1.075,0 -1.85,0.7 -1.85,1.6875 0,0.7625 0.4375,1.3125 1.6,1.9625 l 0.7875,0.45 c 0.475,0.275 0.7125,0.6 0.7125,1.025 0,0.6 -0.4375,0.9875 -1.1375,0.9875 -0.4625,0 -0.8875,-0.175 -1.15,-0.475 -0.2875,-0.35 -0.4125,-0.6625 -0.5875,-1.4375 l -0.2125,0 0,2.125 0.175,0 c 0.1,-0.1375 0.15,-0.1625 0.3125,-0.1625 0.125,0 0.3125,0.025 0.625,0.1125 0.3875,0.075 0.75,0.1375 1,0.1375 1.05,0 1.925,-0.7875 1.925,-1.75 0,-0.6875 -0.325,-1.1375 -1.15,-1.625 l -1.475,-0.875 c -0.375,-0.2125 -0.575,-0.5625 -0.575,-0.925 0,-0.55 0.4125,-0.925 1.05,-0.925 0.775,0 1.1875,0.4625 1.5,1.675 z"
         inkscape:connector-curvature="0"
         style="font-style:normal;font-variant:normal;font-weight:normal;font-stretch:normal;letter-spacing:normal;word-spacing:normal;text-anchor:start;fill:#000000;fill-opacity:1;fill-rule:evenodd;stroke:#000000;stroke-width:0;stroke-linecap:butt;stroke-linejoin:miter;stroke-miterlimit:10.43299961;stroke-dasharray:none;stroke-dashoffset:0;stroke-opacity:1" />
      <path
         id="path37036"
         d="m 684.2675,892.8677 -0.0625,0 -0.05,-0.0125 -0.05,0 -0.05,0 -0.05,-0.0125 -0.0375,-0.0125 -0.05,-0.0125 -0.0375,-0.0125 -0.0375,-0.0125 -0.0375,-0.0125 -0.0375,-0.0125 -0.0375,-0.025 -0.0375,-0.025 -0.025,-0.025 -0.0375,-0.025 -0.0375,-0.025 -0.025,-0.0375 -0.0375,-0.0375 -0.025,-0.0375 -0.0375,-0.0375 -0.025,-0.05 -0.0375,-0.05 -0.025,-0.05 -0.0375,-0.05 -0.0375,-0.0625 -0.0375,-0.0625 -0.025,-0.075 -0.0375,-0.075 -0.05,-0.075 -0.0375,-0.075 -0.0125,-0.05 -0.025,-0.0375 -0.025,-0.05 -0.025,-0.05 -3.4,-7.7625 -0.275,0 -2.8375,6.7125 c -0.875,2 -1.0375,2.2125 -1.6875,2.2375 l 0,0.2625 2.7,0 0,-0.2625 c -0.65,0 -0.925,-0.175 -0.925,-0.5625 0,-0.1625 0.0375,-0.35 0.1125,-0.525 l 0.625,-1.6 3.575,0 -0.1875,-0.5625 -3.1625,0 1.575,-3.75 1.5875,3.75 0.1875,0.5625 0.5625,1.3125 c 0.1625,0.3625 0.2625,0.725 0.2625,0.9125 0,0.3375 -0.2375,0.45 -0.9625,0.4625 l 0,0.2625 3.4875,0 z"
         inkscape:connector-curvature="0"
         style="font-style:normal;font-variant:normal;font-weight:normal;font-stretch:normal;letter-spacing:normal;word-spacing:normal;text-anchor:start;fill:#000000;fill-opacity:1;fill-rule:evenodd;stroke:#000000;stroke-width:0;stroke-linecap:butt;stroke-linejoin:miter;stroke-miterlimit:10.43299961;stroke-dasharray:none;stroke-dashoffset:0;stroke-opacity:1" />
      <path
         id="path37038"
         d="m 688.6925,883.8927 0,0.5 c 0.625,0 1.25,0.2375 1.75,0.675 0.7375,0.675 1.15,1.9625 1.15,3.5875 0,0.8 -0.175,1.7375 -0.45,2.45 -0.1125,0.35 -0.35,0.6875 -0.6625,1 -0.475,0.475 -1.1,0.725 -1.8125,0.725 -0.6375,0 -1.25,-0.25 -1.725,-0.675 -0.7125,-0.625 -1.1625,-2 -1.1625,-3.5125 0,-1.4 0.3875,-2.725 0.95,-3.3625 0.5375,-0.5875 1.2125,-0.8875 1.9625,-0.8875 l 0,0 0,-0.5 c -2.6125,0 -4.475,1.975 -4.475,4.7125 0,1.2875 0.4375,2.5375 1.175,3.325 0.8,0.8625 2.0125,1.3875 3.2125,1.3875 2.6875,0 4.55,-1.9125 4.55,-4.65 0,-1.35 -0.4,-2.5125 -1.15,-3.3375 -0.8625,-0.9375 -2,-1.4375 -3.3125,-1.4375 z"
         inkscape:connector-curvature="0"
         style="font-style:normal;font-variant:normal;font-weight:normal;font-stretch:normal;letter-spacing:normal;word-spacing:normal;text-anchor:start;fill:#000000;fill-opacity:1;fill-rule:evenodd;stroke:#000000;stroke-width:0;stroke-linecap:butt;stroke-linejoin:miter;stroke-miterlimit:10.43299961;stroke-dasharray:none;stroke-dashoffset:0;stroke-opacity:1" />
      <path
         id="path37040"
         d="m 702.855,885.3052 0,6.1875 c 0,1.1375 -0.1625,1.3125 -1.25,1.375 l 0,0.2625 3.8375,0 0,-0.2625 c -1,-0.0625 -1.2,-0.25 -1.2,-1.225 l 0,-6.0625 c 0,-0.975 0.1875,-1.15 1.2,-1.2375 l 0,-0.25 -2.725,0 -3.025,6.8875 -3.15,-6.8875 -2.7,0 0,0.25 c 1.1125,0.075 1.3,0.2375 1.3,1.2375 l 0,5.5375 c 0,1.4125 -0.2,1.675 -1.325,1.75 l 0,0.2625 3.2,0 0,-0.2625 c -1.05,-0.05 -1.275,-0.3625 -1.275,-1.75 l 0,-5.5 3.425,7.5125 0.1875,0 z"
         inkscape:connector-curvature="0"
         style="font-style:normal;font-variant:normal;font-weight:normal;font-stretch:normal;letter-spacing:normal;word-spacing:normal;text-anchor:start;fill:#000000;fill-opacity:1;fill-rule:evenodd;stroke:#000000;stroke-width:0;stroke-linecap:butt;stroke-linejoin:miter;stroke-miterlimit:10.43299961;stroke-dasharray:none;stroke-dashoffset:0;stroke-opacity:1" />
    </g>
    <g
       id="g37302"
       transform="translate(-361.23947,-47.730712)">
      <path
         id="path37042"
         d="m 608.98,908.7302 -0.0625,-0.025 c -0.575,0.2125 -0.95,0.3125 -1.5875,0.5 l -0.4,0.1 0,0.225 c 0.0875,-0.0125 0.1375,-0.0125 0.2375,-0.0125 0.55,0 0.675,0.125 0.675,0.6875 l 0,7.1 c 0,0.4125 1.1625,0.8625 2.25,0.8625 l 0.2125,-0.4375 c -0.7,0 -1.325,-0.3125 -1.325,-0.65 l 0,-3.4375 c 0,-0.5375 0.65,-1.025 1.3625,-1.025 1.0625,0 1.7375,1.0625 1.7375,2.725 0,1.5125 -0.65,2.3875 -1.775,2.3875 l -0.2125,0.4375 c 1.8,0 3.2,-1.5 3.2,-3.45 0,-1.675 -1.05,-2.9625 -2.4125,-2.9625 -0.825,0 -1.625,0.4875 -1.9,1.1625 z"
         inkscape:connector-curvature="0"
         style="font-style:normal;font-variant:normal;font-weight:normal;font-stretch:normal;letter-spacing:normal;word-spacing:normal;text-anchor:start;fill:#000000;fill-opacity:1;fill-rule:evenodd;stroke:#000000;stroke-width:0;stroke-linecap:butt;stroke-linejoin:miter;stroke-miterlimit:10.43299961;stroke-dasharray:none;stroke-dashoffset:0;stroke-opacity:1" />
      <path
         id="path37044"
         d="m 619.3175,915.7927 -0.0625,0.1 -0.0625,0.0875 -0.0625,0.0875 -0.05,0.0875 -0.0625,0.0875 -0.0625,0.075 -0.0625,0.075 -0.0625,0.0625 -0.0625,0.075 -0.05,0.0625 -0.0625,0.0625 -0.0625,0.05 -0.0625,0.05 -0.0625,0.05 -0.0625,0.05 -0.0625,0.05 -0.0625,0.0375 -0.0625,0.0375 -0.075,0.0375 -0.0625,0.0375 -0.0625,0.025 -0.075,0.025 -0.0625,0.025 -0.075,0.025 -0.075,0.0125 -0.0625,0.025 -0.075,0.0125 -0.075,0 -0.075,0.0125 -0.0875,0.0125 -0.075,0 -0.075,0 c -0.7875,0 -1.375,-0.4 -1.7625,-1.175 -0.25,-0.525 -0.35,-0.975 -0.375,-1.8 l 0.025,-0.4375 c 0.15,-1.0625 0.625,-1.575 1.45,-1.575 0.8375,0 1.1625,0.3875 1.3375,1.575 l -2.7875,0 -0.025,0.4375 4.2125,0 c -0.1125,-0.8875 -0.25,-1.2875 -0.5875,-1.725 -0.4125,-0.4875 -1.0375,-0.775 -1.75,-0.775 -0.6875,0 -1.325,0.25 -1.85,0.7125 -0.6375,0.5625 -1.0125,1.525 -1.0125,2.65 0,1.875 0.9875,3.05 2.5625,3.05 1.3,0 2.325,-0.8 2.8875,-2.275 z"
         inkscape:connector-curvature="0"
         style="font-style:normal;font-variant:normal;font-weight:normal;font-stretch:normal;letter-spacing:normal;word-spacing:normal;text-anchor:start;fill:#000000;fill-opacity:1;fill-rule:evenodd;stroke:#000000;stroke-width:0;stroke-linecap:butt;stroke-linejoin:miter;stroke-miterlimit:10.43299961;stroke-dasharray:none;stroke-dashoffset:0;stroke-opacity:1" />
      <path
         id="path37046"
         d="m 625.8675,917.1302 -0.025,0.025 -0.025,0.0125 -0.0125,0.0125 -0.025,0.025 -0.025,0.0125 -0.0125,0.0125 -0.025,0.0125 -0.0125,0.0125 -0.025,0.0125 -0.0125,0.0125 -0.025,0.0125 -0.0125,0.0125 -0.025,0 -0.0125,0.0125 -0.025,0.0125 -0.0125,0 -0.025,0.0125 -0.0125,0.0125 -0.0125,0 -0.025,0.0125 -0.0125,0 -0.025,0 -0.0125,0.0125 -0.025,0 -0.025,0.0125 -0.0375,0 -0.0375,0 -0.0375,0 c -0.3125,0 -0.4125,-0.1875 -0.4125,-0.7875 l 0,-2.6625 c 0,-0.7125 -0.075,-1.1125 -0.275,-1.4375 -0.3,-0.4875 -0.8875,-0.75 -1.6875,-0.75 -1.2875,0 -2.3,0.6625 -2.3,1.525 0,0.3125 0.275,0.5875 0.5875,0.5875 0.325,0 0.6125,-0.275 0.6125,-0.575 0,-0.05 -0.0125,-0.1125 -0.025,-0.2125 -0.025,-0.125 -0.0375,-0.2375 -0.0375,-0.325 0,-0.375 0.4375,-0.675 0.975,-0.675 0.675,0 1.0375,0.4 1.0375,1.1375 l 0,0.825 0,0.3375 0,1.975 c 0,0.425 -0.0625,0.55 -0.35,0.7125 -0.325,0.1875 -0.7125,0.3125 -1,0.3125 -0.475,0 -0.8625,-0.4625 -0.8625,-1.05 l 0,-0.05 c 0,-0.8125 0.5625,-1.3 2.2125,-1.9 l 0,-0.3375 c -2.1,0.85 -2.3375,0.9625 -2.925,1.475 -0.2875,0.275 -0.4875,0.7375 -0.4875,1.1875 0,0.8625 0.6,1.4625 1.4375,1.4625 0.6,0 1.1625,-0.2875 1.9875,-0.9875 0.075,0.7 0.325,0.9875 0.875,0.9875 0.4625,0 0.7625,-0.1625 1.2375,-0.675 z"
         inkscape:connector-curvature="0"
         style="font-style:normal;font-variant:normal;font-weight:normal;font-stretch:normal;letter-spacing:normal;word-spacing:normal;text-anchor:start;fill:#000000;fill-opacity:1;fill-rule:evenodd;stroke:#000000;stroke-width:0;stroke-linecap:butt;stroke-linejoin:miter;stroke-miterlimit:10.43299961;stroke-dasharray:none;stroke-dashoffset:0;stroke-opacity:1" />
      <path
         id="path37048"
         d="m 626.1675,912.6052 0.0125,-0.0125 0.025,0 0.0125,0 0.0125,-0.0125 0.0125,0 0.025,0 0.025,0 0.025,-0.0125 0.025,0 0.025,-0.0125 0.025,0 0.025,0 0.025,0 0.025,0 0.025,-0.0125 0.0375,0 0.025,0 0.025,0 0.025,0 c 0.35,0 0.475,0.225 0.475,0.875 l 0,3.4625 c 0,0.7375 -0.1875,0.9375 -0.95,0.95 l 0,0.2 3.025,0 0,-0.2 c -0.725,-0.025 -0.925,-0.175 -0.925,-0.7125 l 0,-3.85 c 0,-0.025 0.1125,-0.1625 0.2,-0.2625 0.35,-0.3125 0.9375,-0.5375 1.4125,-0.5375 0.6,0 0.9,0.475 0.9,1.425 l 0,2.9625 c 0,0.775 -0.15,0.925 -0.925,0.975 l 0,0.2 3.0625,0 0,-0.2 c -0.7875,-0.0125 -0.9875,-0.25 -0.9875,-1.0875 l 0,-3.45 c 0.4125,-0.5875 0.8625,-0.825 1.4875,-0.825 0.775,0 1.025,0.3625 1.025,1.5 l 0,2.875 c 0,0.7875 -0.1125,0.8875 -0.9,0.9875 l 0,0.2 2.9875,0 0,-0.2 -0.35,-0.025 c -0.4125,-0.025 -0.5875,-0.275 -0.5875,-0.8125 l 0,-2.8125 c 0,-1.6125 -0.5375,-2.425 -1.5875,-2.425 -0.7875,0 -1.4875,0.35 -2.225,1.15 -0.25,-0.7875 -0.7125,-1.15 -1.45,-1.15 -0.6,0 -0.9875,0.1875 -2.1125,1.05 l 0,-1.025 -0.1,-0.025 c -0.7,0.2625 -1.1625,0.4125 -1.9125,0.6125 z"
         inkscape:connector-curvature="0"
         style="font-style:normal;font-variant:normal;font-weight:normal;font-stretch:normal;letter-spacing:normal;word-spacing:normal;text-anchor:start;fill:#000000;fill-opacity:1;fill-rule:evenodd;stroke:#000000;stroke-width:0;stroke-linecap:butt;stroke-linejoin:miter;stroke-miterlimit:10.43299961;stroke-dasharray:none;stroke-dashoffset:0;stroke-opacity:1" />
      <path
         id="path37050"
         d="m 644.6925,918.1677 2,-0.7 0,-0.225 c -0.2375,0.0125 -0.275,0.0125 -0.3125,0.0125 -0.4875,0 -0.6,-0.15 -0.6,-0.775 l 0,-7.75 -0.0625,-0.025 c -0.6625,0.2375 -1.1375,0.375 -2.0125,0.6 l 0,0.225 c 0.1125,-0.0125 0.1875,-0.0125 0.3,-0.0125 0.5125,0 0.625,0.1375 0.625,0.6875 l 0,2.1375 c -0.5125,-0.4375 -0.8875,-0.5875 -1.425,-0.5875 -1.575,0 -2.85,1.5375 -2.85,3.475 0,1.75 1.025,2.9375 2.5375,2.9375 0.7625,0 1.275,-0.2625 1.7375,-0.9125 l -0.225,-0.2 c -0.25,0.275 -0.5875,0.4125 -0.9875,0.4125 -1.1375,0 -1.8875,-1.1 -1.8875,-2.775 0,-1.55 0.675,-2.5625 1.7125,-2.5625 0.725,0 1.3875,0.65 1.3875,1.375 l 0,3.1375 c 0,0.1 -0.0875,0.2625 -0.225,0.4125 l 0.225,0.2 0,0.875 z"
         inkscape:connector-curvature="0"
         style="font-style:normal;font-variant:normal;font-weight:normal;font-stretch:normal;letter-spacing:normal;word-spacing:normal;text-anchor:start;fill:#000000;fill-opacity:1;fill-rule:evenodd;stroke:#000000;stroke-width:0;stroke-linecap:butt;stroke-linejoin:miter;stroke-miterlimit:10.43299961;stroke-dasharray:none;stroke-dashoffset:0;stroke-opacity:1" />
      <path
         id="path37052"
         d="m 653.38,917.3552 -0.0625,0 c -0.625,0 -0.775,-0.15 -0.775,-0.775 l 0,-4.6875 -2.1625,0 0,0.225 c 0.85,0.05 1.0125,0.1875 1.0125,0.8625 l 0,3.2125 c 0,0.3875 -0.075,0.575 -0.2625,0.725 -0.375,0.3 -0.8,0.4625 -1.2,0.4625 -0.5375,0 -0.975,-0.4625 -0.975,-1.0375 l 0,-4.45 -1.9875,0 0,0.1875 c 0.65,0.0375 0.8375,0.25 0.8375,0.875 l 0,3.4375 c 0,1.0875 0.6625,1.775 1.6625,1.775 0.5,0 1.0375,-0.2125 1.4,-0.5875 l 0.5875,-0.5875 0,1.1375 0.05,0.025 c 0.6875,-0.275 1.1875,-0.425 1.875,-0.6125 z"
         inkscape:connector-curvature="0"
         style="font-style:normal;font-variant:normal;font-weight:normal;font-stretch:normal;letter-spacing:normal;word-spacing:normal;text-anchor:start;fill:#000000;fill-opacity:1;fill-rule:evenodd;stroke:#000000;stroke-width:0;stroke-linecap:butt;stroke-linejoin:miter;stroke-miterlimit:10.43299961;stroke-dasharray:none;stroke-dashoffset:0;stroke-opacity:1" />
      <path
         id="path37054"
         d="m 653.955,912.6052 0.0125,-0.0125 0.0125,0 0.0125,0 0.025,-0.0125 0.0125,0 0.0125,0 0.025,0 0.025,-0.0125 0.0375,0 0.025,-0.0125 0.025,0 0.025,0 0.025,0 0.025,0 0.025,-0.0125 0.025,0 0.025,0 0.025,0 0.025,0 c 0.3625,0 0.4875,0.225 0.4875,0.875 l 0,3.4625 c 0,0.7375 -0.2,0.9375 -0.9625,0.95 l 0,0.2 3.0375,0 0,-0.2 c -0.725,-0.025 -0.925,-0.175 -0.925,-0.7125 l 0,-3.85 c 0,-0.025 0.1,-0.1625 0.2,-0.2625 0.3375,-0.3125 0.925,-0.5375 1.4125,-0.5375 0.5875,0 0.9,0.475 0.9,1.425 l 0,2.9625 c 0,0.775 -0.15,0.925 -0.9375,0.975 l 0,0.2 3.0625,0 0,-0.2 c -0.775,-0.0125 -0.9875,-0.25 -0.9875,-1.0875 l 0,-3.45 c 0.4125,-0.5875 0.8625,-0.825 1.5,-0.825 0.775,0 1.0125,0.3625 1.0125,1.5 l 0,2.875 c 0,0.7875 -0.1,0.8875 -0.9,0.9875 l 0,0.2 3,0 0,-0.2 -0.3625,-0.025 c -0.4125,-0.025 -0.5875,-0.275 -0.5875,-0.8125 l 0,-2.8125 c 0,-1.6125 -0.525,-2.425 -1.575,-2.425 -0.8,0 -1.5,0.35 -2.2375,1.15 -0.2375,-0.7875 -0.7125,-1.15 -1.4375,-1.15 -0.6125,0 -0.9875,0.1875 -2.125,1.05 l 0,-1.025 -0.0875,-0.025 c -0.7,0.2625 -1.1625,0.4125 -1.9125,0.6125 z"
         inkscape:connector-curvature="0"
         style="font-style:normal;font-variant:normal;font-weight:normal;font-stretch:normal;letter-spacing:normal;word-spacing:normal;text-anchor:start;fill:#000000;fill-opacity:1;fill-rule:evenodd;stroke:#000000;stroke-width:0;stroke-linecap:butt;stroke-linejoin:miter;stroke-miterlimit:10.43299961;stroke-dasharray:none;stroke-dashoffset:0;stroke-opacity:1" />
      <path
         id="path37056"
         d="m 664.4675,912.6677 0.025,0 0.025,0 0.025,0 0.0125,-0.0125 0.025,0 0.025,0 0.0375,0 0.0375,0 0.025,0 0.0125,0 0.025,0 0.025,0 0.025,0 0.025,0 c 0.4625,0 0.55,0.1375 0.55,0.775 l 0,6.4 c 0,0.7 -0.15,0.85 -0.95,0.9375 l 0,0.2375 3.3,0 0,-0.25 c -1.025,-0.0125 -1.2,-0.1625 -1.2,-1.025 l 0,-2.15 c 0.475,0.45 0.8125,0.5875 1.375,0.5875 l 0.05,-0.4375 c -0.65,0 -1.425,-0.4875 -1.425,-0.9 l 0,-3.35 c 0,-0.4125 0.7625,-0.9125 1.4,-0.9125 1,0 1.675,1.0375 1.675,2.625 0,1.5125 -0.675,2.5375 -1.65,2.5375 l -0.05,0.4375 c 1.6125,0 2.875,-1.525 2.875,-3.5 0,-1.7 -0.9625,-2.9125 -2.2875,-2.9125 -0.7625,0 -1.3625,0.3375 -1.9625,1.075 l 0,-1.05 -0.075,-0.025 c -0.7375,0.2875 -1.225,0.4625 -1.975,0.7 z"
         inkscape:connector-curvature="0"
         style="font-style:normal;font-variant:normal;font-weight:normal;font-stretch:normal;letter-spacing:normal;word-spacing:normal;text-anchor:start;fill:#000000;fill-opacity:1;fill-rule:evenodd;stroke:#000000;stroke-width:0;stroke-linecap:butt;stroke-linejoin:miter;stroke-miterlimit:10.43299961;stroke-dasharray:none;stroke-dashoffset:0;stroke-opacity:1" />
    </g>
    <g
       id="g37333"
       transform="translate(-567.08088,-75.665025)">
      <path
         id="path37092"
         d="m 611.1175,986.6052 -1.6875,0 0,-1.575 c 0,-0.8 0.2625,-1.225 0.7875,-1.225 0.2875,0 0.475,0.1375 0.725,0.5375 0.2125,0.35 0.375,0.4875 0.6125,0.4875 0.3125,0 0.575,-0.2375 0.575,-0.55 0,-0.5 -0.6,-0.85 -1.425,-0.85 -0.85,0 -1.575,0.3625 -1.925,1 -0.35,0.6 -0.4625,1.0875 -0.475,2.175 l -1.125,0 0,0.4375 1.125,0 0,4.2875 c 0,1 -0.15,1.1625 -1.1375,1.225 l 0,0.2 3.55,0 0,-0.2 c -1.1125,-0.05 -1.2625,-0.2 -1.2625,-1.225 l 0,-4.2875 1.6625,0 z"
         inkscape:connector-curvature="0"
         style="font-style:normal;font-variant:normal;font-weight:normal;font-stretch:normal;letter-spacing:normal;word-spacing:normal;text-anchor:start;fill:#000000;fill-opacity:1;fill-rule:evenodd;stroke:#000000;stroke-width:0;stroke-linecap:butt;stroke-linejoin:miter;stroke-miterlimit:10.43299961;stroke-dasharray:none;stroke-dashoffset:0;stroke-opacity:1" />
      <path
         id="path37094"
         d="m 611.555,987.4302 0.0125,0 0.025,-0.0125 0.0125,0 0.0125,0 0.0375,-0.0125 0.025,0 0.0375,-0.0125 0.025,0 0.025,0 0.0375,0 0.025,-0.0125 0.025,0 0.025,0 0.0375,0 0.025,0 0.025,0 0.0375,0 0.025,0 c 0.3375,0 0.4625,0.2125 0.4625,0.8125 l 0,3.4125 c 0,0.6875 -0.0875,0.7875 -0.9625,0.95 l 0,0.2 3.275,0 0,-0.2 c -0.925,-0.05 -1.1625,-0.25 -1.1625,-1.025 l 0,-3.075 c 0,-0.4375 0.5875,-1.125 0.9625,-1.125 0.075,0 0.2,0.075 0.35,0.2125 0.2125,0.1875 0.3625,0.2625 0.55,0.2625 0.325,0 0.525,-0.225 0.525,-0.6125 0,-0.45 -0.2875,-0.725 -0.75,-0.725 -0.575,0 -0.9625,0.325 -1.6375,1.2875 l 0,-1.25 -0.075,-0.0375 c -0.7125,0.3125 -1.2125,0.4875 -2.0125,0.75 z"
         inkscape:connector-curvature="0"
         style="font-style:normal;font-variant:normal;font-weight:normal;font-stretch:normal;letter-spacing:normal;word-spacing:normal;text-anchor:start;fill:#000000;fill-opacity:1;fill-rule:evenodd;stroke:#000000;stroke-width:0;stroke-linecap:butt;stroke-linejoin:miter;stroke-miterlimit:10.43299961;stroke-dasharray:none;stroke-dashoffset:0;stroke-opacity:1" />
      <path
         id="path37096"
         d="m 619.43,986.4677 -0.1625,0.0125 -0.1625,0.0125 -0.1625,0.0125 -0.15,0.025 -0.15,0.0375 -0.15,0.0375 -0.1375,0.05 -0.1375,0.05 -0.1375,0.0625 -0.1375,0.0625 -0.125,0.075 -0.125,0.0875 -0.1125,0.075 -0.1125,0.1 -0.1125,0.0875 -0.1,0.1125 -0.1,0.1 -0.0875,0.1125 -0.0875,0.125 -0.075,0.125 -0.075,0.125 -0.075,0.1375 -0.0625,0.1375 -0.05,0.15 -0.0625,0.1375 -0.0375,0.1625 -0.0375,0.15 -0.0375,0.1625 -0.025,0.1625 -0.0125,0.1625 -0.0125,0.175 0,0.175 c 0,1.85 1.2625,3.225 2.9875,3.225 l 0.1625,-0.3875 c -0.525,0 -1.0375,-0.325 -1.325,-0.875 -0.375,-0.7 -0.6,-1.6625 -0.6,-2.625 0,-1.3 0.6375,-2.15 1.6125,-2.15 l 0,0 c 1.15,0 1.95,1.3125 1.95,3.1875 0,1.5375 -0.6125,2.4625 -1.6375,2.4625 l -0.1625,0.3875 c 1.725,0 3.0375,-1.45 3.0375,-3.3375 0,-1.7875 -1.2625,-3.0875 -3.0125,-3.0875 z"
         inkscape:connector-curvature="0"
         style="font-style:normal;font-variant:normal;font-weight:normal;font-stretch:normal;letter-spacing:normal;word-spacing:normal;text-anchor:start;fill:#000000;fill-opacity:1;fill-rule:evenodd;stroke:#000000;stroke-width:0;stroke-linecap:butt;stroke-linejoin:miter;stroke-miterlimit:10.43299961;stroke-dasharray:none;stroke-dashoffset:0;stroke-opacity:1" />
      <path
         id="path37098"
         d="m 623.13,987.3177 0.0125,0 0.0125,0 0.025,-0.0125 0.0125,0 0.0125,0 0.0125,0 0.0375,-0.0125 0.025,0 0.025,-0.0125 0.025,0 0.025,0 0.025,0 0.025,-0.0125 0.025,0 0.025,0 0.025,0 0.025,0 0.025,0 0.0375,0 c 0.35,0 0.475,0.2125 0.475,0.875 l 0,3.45 c 0,0.7375 -0.1875,0.95 -0.9625,0.9625 l 0,0.2 3.0375,0 0,-0.2 c -0.725,-0.025 -0.925,-0.175 -0.925,-0.7125 l 0,-3.85 c 0,-0.025 0.1,-0.1625 0.2,-0.2625 0.35,-0.3125 0.9375,-0.55 1.4125,-0.55 0.6,0 0.9,0.475 0.9,1.4375 l 0,2.9625 c 0,0.7625 -0.15,0.9125 -0.925,0.975 l 0,0.2 3.05,0 0,-0.2 c -0.775,-0.0125 -0.975,-0.25 -0.975,-1.1 l 0,-3.4375 c 0.4,-0.5875 0.85,-0.8375 1.4875,-0.8375 0.775,0 1.025,0.375 1.025,1.5 l 0,2.8875 c 0,0.775 -0.1125,0.8875 -0.9,0.9875 l 0,0.2 2.9875,0 0,-0.2 -0.35,-0.025 c -0.4125,-0.0375 -0.5875,-0.275 -0.5875,-0.8125 l 0,-2.8125 c 0,-1.6125 -0.5375,-2.4375 -1.5875,-2.4375 -0.8,0 -1.4875,0.3625 -2.225,1.15 -0.25,-0.775 -0.7125,-1.15 -1.45,-1.15 -0.6,0 -0.9875,0.2 -2.125,1.0625 l 0,-1.025 -0.0875,-0.0375 c -0.7,0.2625 -1.1625,0.4125 -1.9125,0.625 z"
         inkscape:connector-curvature="0"
         style="font-style:normal;font-variant:normal;font-weight:normal;font-stretch:normal;letter-spacing:normal;word-spacing:normal;text-anchor:start;fill:#000000;fill-opacity:1;fill-rule:evenodd;stroke:#000000;stroke-width:0;stroke-linecap:butt;stroke-linejoin:miter;stroke-miterlimit:10.43299961;stroke-dasharray:none;stroke-dashoffset:0;stroke-opacity:1" />
      <path
         id="path37100"
         d="m 641.655,992.8927 2,-0.7125 0,-0.2125 c -0.25,0.0125 -0.275,0.0125 -0.3125,0.0125 -0.4875,0 -0.6,-0.15 -0.6,-0.775 l 0,-7.75 -0.075,-0.025 c -0.65,0.225 -1.125,0.3625 -2,0.6 l 0,0.2125 c 0.1125,-0.0125 0.1875,-0.0125 0.3,-0.0125 0.5,0 0.625,0.1375 0.625,0.7 l 0,2.125 c -0.5125,-0.4375 -0.8875,-0.5875 -1.4375,-0.5875 -1.5625,0 -2.8375,1.55 -2.8375,3.4875 0,1.75 1.025,2.9375 2.525,2.9375 0.7625,0 1.2875,-0.275 1.75,-0.9125 l -0.225,-0.2125 c -0.25,0.275 -0.5875,0.4125 -0.9875,0.4125 -1.1375,0 -1.8875,-1.0875 -1.8875,-2.775 0,-1.5375 0.675,-2.55 1.7125,-2.55 0.725,0 1.3875,0.6375 1.3875,1.3625 l 0,3.15 c 0,0.0875 -0.0875,0.25 -0.225,0.4 l 0.225,0.2125 0,0.875 z"
         inkscape:connector-curvature="0"
         style="font-style:normal;font-variant:normal;font-weight:normal;font-stretch:normal;letter-spacing:normal;word-spacing:normal;text-anchor:start;fill:#000000;fill-opacity:1;fill-rule:evenodd;stroke:#000000;stroke-width:0;stroke-linecap:butt;stroke-linejoin:miter;stroke-miterlimit:10.43299961;stroke-dasharray:none;stroke-dashoffset:0;stroke-opacity:1" />
      <path
         id="path37102"
         d="m 650.2925,986.6052 -1.85,0 0,0.2125 c 0.4375,0 0.6625,0.125 0.6625,0.3375 0,0.0625 -0.025,0.1375 -0.0625,0.2375 l -1.325,3.7625 -1.5625,-3.45 c -0.0875,-0.2 -0.1375,-0.375 -0.1375,-0.525 0,-0.2375 0.2,-0.3375 0.7875,-0.3625 l 0,-0.2125 -2.8125,0 0,0.2 c 0.35,0.05 0.5875,0.2 0.6875,0.4375 l 1.5625,3.35 0.0375,0.1125 0.2125,0.4125 c 0.375,0.6875 0.6,1.175 0.6,1.375 0,0.2125 -0.3125,1.075 -0.55,1.475 -0.1875,0.3625 -0.4875,0.625 -0.6875,0.625 -0.075,0 -0.2,-0.0375 -0.3375,-0.1 -0.2625,-0.1 -0.4875,-0.15 -0.725,-0.15 -0.3125,0 -0.5875,0.275 -0.5875,0.6 0,0.45 0.4375,0.7875 1.0125,0.7875 0.9125,0 1.575,-0.7625 2.3125,-2.725 l 2.1,-5.575 c 0.175,-0.4375 0.325,-0.575 0.6625,-0.6125 z"
         inkscape:connector-curvature="0"
         style="font-style:normal;font-variant:normal;font-weight:normal;font-stretch:normal;letter-spacing:normal;word-spacing:normal;text-anchor:start;fill:#000000;fill-opacity:1;fill-rule:evenodd;stroke:#000000;stroke-width:0;stroke-linecap:butt;stroke-linejoin:miter;stroke-miterlimit:10.43299961;stroke-dasharray:none;stroke-dashoffset:0;stroke-opacity:1" />
      <path
         id="path37104"
         d="m 656.2175,990.5177 -0.0625,0.1 -0.05,0.0875 -0.0625,0.0875 -0.0625,0.0875 -0.0625,0.075 -0.0625,0.075 -0.0625,0.075 -0.05,0.075 -0.0625,0.0625 -0.0625,0.0625 -0.0625,0.0625 -0.0625,0.0625 -0.0625,0.05 -0.0625,0.05 -0.0625,0.05 -0.0625,0.0375 -0.0625,0.05 -0.0625,0.0375 -0.0625,0.0375 -0.075,0.025 -0.0625,0.0375 -0.0625,0.025 -0.075,0.025 -0.0625,0.0125 -0.075,0.025 -0.075,0.0125 -0.075,0.0125 -0.075,0.0125 -0.075,0.0125 -0.075,0 -0.0875,0.0125 -0.075,0 c -0.775,0 -1.3625,-0.4 -1.7625,-1.175 -0.25,-0.525 -0.3375,-0.975 -0.375,-1.8125 l 0.0375,-0.4375 c 0.15,-1.0625 0.6125,-1.5625 1.4375,-1.5625 0.8375,0 1.1625,0.375 1.35,1.5625 l -2.7875,0 -0.0375,0.4375 4.2125,0 c -0.1125,-0.8875 -0.25,-1.275 -0.5875,-1.7125 -0.4125,-0.5 -1.0375,-0.7875 -1.75,-0.7875 -0.675,0 -1.325,0.25 -1.8375,0.7125 -0.65,0.5625 -1.0125,1.5375 -1.0125,2.65 0,1.8875 0.975,3.0625 2.55,3.0625 1.3,0 2.325,-0.8 2.9,-2.2875 z"
         inkscape:connector-curvature="0"
         style="font-style:normal;font-variant:normal;font-weight:normal;font-stretch:normal;letter-spacing:normal;word-spacing:normal;text-anchor:start;fill:#000000;fill-opacity:1;fill-rule:evenodd;stroke:#000000;stroke-width:0;stroke-linecap:butt;stroke-linejoin:miter;stroke-miterlimit:10.43299961;stroke-dasharray:none;stroke-dashoffset:0;stroke-opacity:1" />
      <path
         id="path37106"
         d="m 660.4175,984.2427 0.075,0 c 0.15,-0.0125 0.325,-0.025 0.425,-0.025 0.4375,0 0.575,0.1875 0.575,0.8375 l 0,6.5125 c 0,0.7375 -0.1875,0.9125 -1.05,0.9875 l 0,0.2 3.225,0 0,-0.2 c -0.8625,-0.0625 -1.025,-0.2 -1.025,-0.95 l 0,-8.15 -0.0625,-0.025 c -0.7,0.225 -1.225,0.3625 -2.1625,0.6 z"
         inkscape:connector-curvature="0"
         style="font-style:normal;font-variant:normal;font-weight:normal;font-stretch:normal;letter-spacing:normal;word-spacing:normal;text-anchor:start;fill:#000000;fill-opacity:1;fill-rule:evenodd;stroke:#000000;stroke-width:0;stroke-linecap:butt;stroke-linejoin:miter;stroke-miterlimit:10.43299961;stroke-dasharray:none;stroke-dashoffset:0;stroke-opacity:1" />
      <path
         id="path37108"
         d="m 670.005,991.8552 -0.025,0.0125 -0.025,0.025 -0.0125,0.0125 -0.025,0.0125 -0.025,0.0125 -0.0125,0.025 -0.025,0.0125 -0.0125,0.0125 -0.025,0.0125 -0.0125,0.0125 -0.025,0 -0.0125,0.0125 -0.025,0.0125 -0.0125,0.0125 -0.025,0 -0.0125,0.0125 -0.025,0.0125 -0.0125,0 -0.0125,0.0125 -0.025,0 -0.0125,0.0125 -0.025,0 -0.0125,0 -0.025,0.0125 -0.025,0 -0.0375,0 -0.0375,0.0125 -0.0375,0 c -0.325,0 -0.4125,-0.2 -0.4125,-0.8 l 0,-2.6625 c 0,-0.7 -0.075,-1.1 -0.275,-1.425 -0.3,-0.5 -0.8875,-0.7625 -1.7,-0.7625 -1.275,0 -2.2875,0.675 -2.2875,1.5375 0,0.3125 0.275,0.5875 0.5875,0.5875 0.325,0 0.6125,-0.275 0.6125,-0.575 0,-0.05 -0.0125,-0.125 -0.025,-0.225 -0.025,-0.1125 -0.0375,-0.225 -0.0375,-0.325 0,-0.3625 0.425,-0.6625 0.975,-0.6625 0.675,0 1.0375,0.3875 1.0375,1.125 l 0,0.8375 0,0.325 0,1.9875 c 0,0.425 -0.0625,0.5375 -0.35,0.7 -0.325,0.2 -0.7125,0.325 -1,0.325 -0.475,0 -0.8625,-0.475 -0.8625,-1.05 l 0,-0.0625 c 0,-0.8 0.5625,-1.3 2.2125,-1.9 l 0,-0.325 c -2.1,0.85 -2.3375,0.9625 -2.925,1.475 -0.3,0.275 -0.4875,0.7375 -0.4875,1.1875 0,0.8625 0.6,1.4625 1.4375,1.4625 0.6,0 1.1625,-0.2875 1.9875,-1 0.075,0.7125 0.3125,1 0.875,1 0.4625,0 0.75,-0.1625 1.2375,-0.6875 z"
         inkscape:connector-curvature="0"
         style="font-style:normal;font-variant:normal;font-weight:normal;font-stretch:normal;letter-spacing:normal;word-spacing:normal;text-anchor:start;fill:#000000;fill-opacity:1;fill-rule:evenodd;stroke:#000000;stroke-width:0;stroke-linecap:butt;stroke-linejoin:miter;stroke-miterlimit:10.43299961;stroke-dasharray:none;stroke-dashoffset:0;stroke-opacity:1" />
      <path
         id="path37110"
         d="m 674.3425,988.4677 -0.05,-1.8625 -0.15,0 -0.025,0.0375 c -0.125,0.0875 -0.1375,0.1 -0.1875,0.1 -0.0875,0 -0.225,-0.025 -0.375,-0.0875 -0.3,-0.1125 -0.6,-0.175 -0.95,-0.175 -1.0875,0 -1.8625,0.7 -1.8625,1.6875 0,0.7625 0.4375,1.3125 1.6,1.9625 l 0.7875,0.45 c 0.475,0.275 0.7125,0.6 0.7125,1.025 0,0.6 -0.4375,0.9875 -1.1375,0.9875 -0.4625,0 -0.8875,-0.175 -1.1375,-0.475 -0.2875,-0.35 -0.4125,-0.6625 -0.5875,-1.4375 l -0.225,0 0,2.125 0.175,0 c 0.1,-0.1375 0.15,-0.1625 0.3125,-0.1625 0.125,0 0.325,0.025 0.6375,0.1125 0.375,0.0875 0.75,0.1375 0.9875,0.1375 1.0625,0 1.9375,-0.7875 1.9375,-1.75 0,-0.6875 -0.3375,-1.1375 -1.15,-1.625 l -1.475,-0.875 c -0.3875,-0.2125 -0.5875,-0.5625 -0.5875,-0.925 0,-0.55 0.425,-0.925 1.05,-0.925 0.775,0 1.1875,0.4625 1.5,1.675 z"
         inkscape:connector-curvature="0"
         style="font-style:normal;font-variant:normal;font-weight:normal;font-stretch:normal;letter-spacing:normal;word-spacing:normal;text-anchor:start;fill:#000000;fill-opacity:1;fill-rule:evenodd;stroke:#000000;stroke-width:0;stroke-linecap:butt;stroke-linejoin:miter;stroke-miterlimit:10.43299961;stroke-dasharray:none;stroke-dashoffset:0;stroke-opacity:1" />
      <path
         id="path37112"
         d="m 680.9425,990.5177 -0.0625,0.1 -0.05,0.0875 -0.0625,0.0875 -0.0625,0.0875 -0.0625,0.075 -0.0625,0.075 -0.0625,0.075 -0.05,0.075 -0.0625,0.0625 -0.0625,0.0625 -0.0625,0.0625 -0.0625,0.0625 -0.0625,0.05 -0.0625,0.05 -0.0625,0.05 -0.0625,0.0375 -0.0625,0.05 -0.0625,0.0375 -0.0625,0.0375 -0.075,0.025 -0.0625,0.0375 -0.0625,0.025 -0.075,0.025 -0.0625,0.0125 -0.075,0.025 -0.075,0.0125 -0.075,0.0125 -0.075,0.0125 -0.075,0.0125 -0.075,0 -0.0875,0.0125 -0.075,0 c -0.775,0 -1.3625,-0.4 -1.7625,-1.175 -0.25,-0.525 -0.3375,-0.975 -0.375,-1.8125 l 0.0375,-0.4375 c 0.15,-1.0625 0.6125,-1.5625 1.4375,-1.5625 0.8375,0 1.1625,0.375 1.35,1.5625 l -2.7875,0 -0.0375,0.4375 4.2125,0 c -0.1125,-0.8875 -0.25,-1.275 -0.5875,-1.7125 -0.4125,-0.5 -1.0375,-0.7875 -1.75,-0.7875 -0.675,0 -1.325,0.25 -1.8375,0.7125 -0.65,0.5625 -1.0125,1.5375 -1.0125,2.65 0,1.8875 0.975,3.0625 2.55,3.0625 1.3,0 2.325,-0.8 2.9,-2.2875 z"
         inkscape:connector-curvature="0"
         style="font-style:normal;font-variant:normal;font-weight:normal;font-stretch:normal;letter-spacing:normal;word-spacing:normal;text-anchor:start;fill:#000000;fill-opacity:1;fill-rule:evenodd;stroke:#000000;stroke-width:0;stroke-linecap:butt;stroke-linejoin:miter;stroke-miterlimit:10.43299961;stroke-dasharray:none;stroke-dashoffset:0;stroke-opacity:1" />
      <path
         id="path37114"
         d="m 681.555,987.4302 0.0125,0 0.025,-0.0125 0.0125,0 0.0125,0 0.0375,-0.0125 0.025,0 0.0375,-0.0125 0.025,0 0.025,0 0.0375,0 0.025,-0.0125 0.025,0 0.025,0 0.0375,0 0.025,0 0.025,0 0.0375,0 0.025,0 c 0.3375,0 0.4625,0.2125 0.4625,0.8125 l 0,3.4125 c 0,0.6875 -0.1,0.7875 -0.9625,0.95 l 0,0.2 3.275,0 0,-0.2 c -0.925,-0.05 -1.1625,-0.25 -1.1625,-1.025 l 0,-3.075 c 0,-0.4375 0.5875,-1.125 0.95,-1.125 0.0875,0 0.2125,0.075 0.3625,0.2125 0.2125,0.1875 0.3625,0.2625 0.55,0.2625 0.325,0 0.525,-0.225 0.525,-0.6125 0,-0.45 -0.2875,-0.725 -0.75,-0.725 -0.575,0 -0.975,0.325 -1.6375,1.2875 l 0,-1.25 -0.075,-0.0375 c -0.7125,0.3125 -1.2125,0.4875 -2.0125,0.75 z"
         inkscape:connector-curvature="0"
         style="font-style:normal;font-variant:normal;font-weight:normal;font-stretch:normal;letter-spacing:normal;word-spacing:normal;text-anchor:start;fill:#000000;fill-opacity:1;fill-rule:evenodd;stroke:#000000;stroke-width:0;stroke-linecap:butt;stroke-linejoin:miter;stroke-miterlimit:10.43299961;stroke-dasharray:none;stroke-dashoffset:0;stroke-opacity:1" />
    </g>
    <g
       id="g37347"
       transform="translate(-148.8838,-121.22676)">
      <path
         id="path37116"
         d="m 607.155,1012.2302 0.0125,-0.012 0.025,0 0.0125,0 0.0125,0 0.0125,-0.013 0.0125,0 0.0375,0 0.025,-0.013 0.025,0 0.025,0 0.025,-0.012 0.025,0 0.025,0 0.025,0 0.025,0 0.025,0 0.0375,-0.013 0.025,0 0.025,0 c 0.35,0 0.475,0.225 0.475,0.875 l 0,3.4625 c 0,0.7375 -0.1875,0.9375 -0.95,0.95 l 0,0.2125 3.025,0 0,-0.2125 c -0.725,-0.025 -0.925,-0.175 -0.925,-0.7 l 0,-3.8625 c 0,-0.025 0.1125,-0.1625 0.2,-0.25 0.35,-0.325 0.9375,-0.55 1.4125,-0.55 0.6,0 0.9,0.475 0.9,1.4375 l 0,2.9625 c 0,0.7625 -0.15,0.9125 -0.925,0.9625 l 0,0.2125 3.0625,0 0,-0.2125 c -0.7875,-0.013 -0.9875,-0.2375 -0.9875,-1.0875 l 0,-3.4375 c 0.4125,-0.6 0.8625,-0.8375 1.4875,-0.8375 0.775,0 1.025,0.3625 1.025,1.5 l 0,2.8875 c 0,0.775 -0.1125,0.8875 -0.9,0.975 l 0,0.2125 2.9875,0 0,-0.2125 -0.35,-0.025 c -0.4125,-0.025 -0.5875,-0.275 -0.5875,-0.8 l 0,-2.8125 c 0,-1.6125 -0.5375,-2.4375 -1.5875,-2.4375 -0.8,0 -1.4875,0.35 -2.225,1.15 -0.25,-0.775 -0.7125,-1.15 -1.45,-1.15 -0.6,0 -0.9875,0.1875 -2.1125,1.05 l 0,-1.025 -0.1,-0.025 c -0.7,0.2625 -1.1625,0.4125 -1.9125,0.6125 z"
         inkscape:connector-curvature="0"
         style="font-style:normal;font-variant:normal;font-weight:normal;font-stretch:normal;letter-spacing:normal;word-spacing:normal;text-anchor:start;fill:#000000;fill-opacity:1;fill-rule:evenodd;stroke:#000000;stroke-width:0;stroke-linecap:butt;stroke-linejoin:miter;stroke-miterlimit:10.43299961;stroke-dasharray:none;stroke-dashoffset:0;stroke-opacity:1" />
      <path
         id="path37118"
         d="m 619.9425,1011.3802 -2.1125,0.75 0,0.2 0.1,-0.013 c 0.175,-0.025 0.35,-0.037 0.4625,-0.037 0.3375,0 0.4625,0.225 0.4625,0.825 l 0,3.1625 c 0,0.9875 -0.1375,1.1375 -1.0875,1.1875 l 0,0.2125 3.2375,0 0,-0.2125 c -0.9,-0.062 -1.0125,-0.2 -1.0125,-1.1875 l 0,-4.85 z"
         inkscape:connector-curvature="0"
         style="font-style:normal;font-variant:normal;font-weight:normal;font-stretch:normal;letter-spacing:normal;word-spacing:normal;text-anchor:start;fill:#000000;fill-opacity:1;fill-rule:evenodd;stroke:#000000;stroke-width:0;stroke-linecap:butt;stroke-linejoin:miter;stroke-miterlimit:10.43299961;stroke-dasharray:none;stroke-dashoffset:0;stroke-opacity:1" />
      <path
         id="path37120"
         d="m 619.305,1008.3302 -0.0375,0 -0.0375,0.013 -0.025,0 -0.0375,0.012 -0.0375,0 -0.025,0.013 -0.0375,0.012 -0.025,0.013 -0.0375,0.013 -0.025,0.012 -0.025,0.025 -0.0375,0.013 -0.025,0.025 -0.025,0.013 -0.025,0.025 -0.025,0.025 -0.025,0.025 -0.0125,0.025 -0.025,0.025 -0.0125,0.025 -0.025,0.025 -0.0125,0.038 -0.0125,0.025 -0.025,0.025 -0.0125,0.038 0,0.038 -0.0125,0.025 -0.0125,0.038 0,0.038 -0.0125,0.025 0,0.038 0,0.038 c 0,0.3875 0.3,0.7 0.6875,0.7 0.3875,0 0.7125,-0.3 0.7125,-0.7 0,-0.375 -0.325,-0.7 -0.7125,-0.7 z"
         inkscape:connector-curvature="0"
         style="font-style:normal;font-variant:normal;font-weight:normal;font-stretch:normal;letter-spacing:normal;word-spacing:normal;text-anchor:start;fill:#000000;fill-opacity:1;fill-rule:evenodd;stroke:#000000;stroke-width:0;stroke-linecap:butt;stroke-linejoin:miter;stroke-miterlimit:10.43299961;stroke-dasharray:none;stroke-dashoffset:0;stroke-opacity:1" />
      <path
         id="path37122"
         d="m 621.455,1012.3302 0.025,0 0.0125,0 0.0125,0 0.025,-0.013 0.025,0 0.0375,-0.012 0.025,0 0.025,0 0.0375,-0.013 0.025,0 0.025,0 0.025,0 0.0375,0 0.025,-0.012 0.025,0 0.0375,0 0.025,0 0.025,0 c 0.35,0 0.475,0.225 0.475,0.825 l 0,3.4125 c 0,0.6875 -0.1,0.775 -0.975,0.9375 l 0,0.2125 3.275,0 0,-0.2125 c -0.925,-0.038 -1.1625,-0.2375 -1.1625,-1.025 l 0,-3.075 c 0,-0.425 0.5875,-1.1125 0.9625,-1.1125 0.075,0 0.2,0.062 0.35,0.2 0.225,0.2 0.375,0.275 0.55,0.275 0.325,0 0.525,-0.225 0.525,-0.6125 0,-0.45 -0.275,-0.725 -0.75,-0.725 -0.575,0 -0.9625,0.3125 -1.6375,1.2875 l 0,-1.2625 -0.0625,-0.025 c -0.725,0.3 -1.2125,0.475 -2.025,0.7375 z"
         inkscape:connector-curvature="0"
         style="font-style:normal;font-variant:normal;font-weight:normal;font-stretch:normal;letter-spacing:normal;word-spacing:normal;text-anchor:start;fill:#000000;fill-opacity:1;fill-rule:evenodd;stroke:#000000;stroke-width:0;stroke-linecap:butt;stroke-linejoin:miter;stroke-miterlimit:10.43299961;stroke-dasharray:none;stroke-dashoffset:0;stroke-opacity:1" />
      <path
         id="path37124"
         d="m 626.0175,1012.3302 0.0125,0 0.025,0 0.0125,0 0.025,-0.013 0.025,0 0.0375,-0.012 0.025,0 0.025,0 0.0375,-0.013 0.025,0 0.025,0 0.025,0 0.0375,0 0.025,-0.012 0.025,0 0.0375,0 0.025,0 0.025,0 c 0.35,0 0.4625,0.225 0.4625,0.825 l 0,3.4125 c 0,0.6875 -0.0875,0.775 -0.9625,0.9375 l 0,0.2125 3.275,0 0,-0.2125 c -0.925,-0.038 -1.1625,-0.2375 -1.1625,-1.025 l 0,-3.075 c 0,-0.425 0.5875,-1.1125 0.9625,-1.1125 0.075,0 0.2,0.062 0.35,0.2 0.225,0.2 0.375,0.275 0.55,0.275 0.325,0 0.525,-0.225 0.525,-0.6125 0,-0.45 -0.275,-0.725 -0.75,-0.725 -0.5625,0 -0.9625,0.3125 -1.6375,1.2875 l 0,-1.2625 -0.0625,-0.025 c -0.725,0.3 -1.2125,0.475 -2.025,0.7375 z"
         inkscape:connector-curvature="0"
         style="font-style:normal;font-variant:normal;font-weight:normal;font-stretch:normal;letter-spacing:normal;word-spacing:normal;text-anchor:start;fill:#000000;fill-opacity:1;fill-rule:evenodd;stroke:#000000;stroke-width:0;stroke-linecap:butt;stroke-linejoin:miter;stroke-miterlimit:10.43299961;stroke-dasharray:none;stroke-dashoffset:0;stroke-opacity:1" />
      <path
         id="path37126"
         d="m 633.905,1011.3802 -0.175,0 -0.1625,0.013 -0.15,0.025 -0.1625,0.025 -0.15,0.038 -0.15,0.038 -0.1375,0.05 -0.1375,0.05 -0.1375,0.062 -0.125,0.062 -0.1375,0.075 -0.1125,0.075 -0.125,0.087 -0.1125,0.087 -0.1,0.1 -0.1,0.1 -0.1,0.1125 -0.1,0.1125 -0.0875,0.125 -0.075,0.125 -0.075,0.125 -0.075,0.1375 -0.0625,0.1375 -0.05,0.1375 -0.05,0.15 -0.05,0.15 -0.0375,0.1625 -0.025,0.15 -0.025,0.175 -0.025,0.1625 -0.0125,0.175 0,0.175 c 0,1.8375 1.275,3.225 2.9875,3.225 l 0.1625,-0.3875 c -0.525,0 -1.0375,-0.325 -1.325,-0.875 -0.375,-0.7125 -0.6,-1.6625 -0.6,-2.6375 0,-1.3 0.65,-2.1375 1.6125,-2.1375 l 0,0 c 1.15,0 1.9625,1.3125 1.9625,3.175 0,1.55 -0.625,2.475 -1.65,2.475 l -0.1625,0.3875 c 1.725,0 3.0375,-1.45 3.0375,-3.3375 0,-1.7875 -1.2625,-3.0875 -3,-3.0875 z"
         inkscape:connector-curvature="0"
         style="font-style:normal;font-variant:normal;font-weight:normal;font-stretch:normal;letter-spacing:normal;word-spacing:normal;text-anchor:start;fill:#000000;fill-opacity:1;fill-rule:evenodd;stroke:#000000;stroke-width:0;stroke-linecap:butt;stroke-linejoin:miter;stroke-miterlimit:10.43299961;stroke-dasharray:none;stroke-dashoffset:0;stroke-opacity:1" />
      <path
         id="path37128"
         d="m 637.43,1012.3302 0.0125,0 0.025,0 0.0125,0 0.0125,-0.013 0.0375,0 0.025,-0.012 0.0375,0 0.025,0 0.0375,-0.013 0.025,0 0.025,0 0.025,0 0.0375,0 0.025,-0.012 0.025,0 0.025,0 0.0375,0 0.025,0 c 0.3375,0 0.4625,0.225 0.4625,0.825 l 0,3.4125 c 0,0.6875 -0.0875,0.775 -0.9625,0.9375 l 0,0.2125 3.275,0 0,-0.2125 c -0.925,-0.038 -1.1625,-0.2375 -1.1625,-1.025 l 0,-3.075 c 0,-0.425 0.5875,-1.1125 0.9625,-1.1125 0.075,0 0.2,0.062 0.35,0.2 0.225,0.2 0.375,0.275 0.55,0.275 0.325,0 0.525,-0.225 0.525,-0.6125 0,-0.45 -0.2875,-0.725 -0.75,-0.725 -0.575,0 -0.9625,0.3125 -1.6375,1.2875 l 0,-1.2625 -0.0625,-0.025 c -0.725,0.3 -1.225,0.475 -2.025,0.7375 z"
         inkscape:connector-curvature="0"
         style="font-style:normal;font-variant:normal;font-weight:normal;font-stretch:normal;letter-spacing:normal;word-spacing:normal;text-anchor:start;fill:#000000;fill-opacity:1;fill-rule:evenodd;stroke:#000000;stroke-width:0;stroke-linecap:butt;stroke-linejoin:miter;stroke-miterlimit:10.43299961;stroke-dasharray:none;stroke-dashoffset:0;stroke-opacity:1" />
    </g>
    <g
       ns0:preamble="/media/rob/Daten/Masterarbeit/Thesis/inkscape_preamble.tex"
       ns0:text=" \\fontsize{11pt}{1em}\\selectfont to MOT"
       word-spacing="normal"
       letter-spacing="normal"
       font-size-adjust="none"
       font-stretch="normal"
       font-weight="normal"
       font-variant="normal"
       font-style="normal"
       stroke-miterlimit="10.433"
       xml:space="preserve"
       transform="matrix(1.25,0,0,-1.25,157.27527,1933.7091)"
       id="content"
       style="font-style:normal;font-variant:normal;font-weight:normal;font-stretch:normal;letter-spacing:normal;word-spacing:normal;text-anchor:start;fill:none;fill-opacity:1;fill-rule:evenodd;stroke:#000000;stroke-linecap:butt;stroke-linejoin:miter;stroke-miterlimit:10.43299961;stroke-dasharray:none;stroke-dashoffset:0;stroke-opacity:1"><path
         id="path4837"
         d="m 226.22,712.04 -1.1,0 0,1.27 c 0,0.11 -0.02,0.14 -0.08,0.14 -0.08,-0.1 -0.14,-0.19 -0.22,-0.3 -0.42,-0.61 -0.89,-1.13 -1.06,-1.17 -0.12,-0.08 -0.19,-0.16 -0.19,-0.21 0,-0.03 0.02,-0.06 0.05,-0.08 l 0.58,0 0,-3.29 c 0,-0.91 0.32,-1.38 0.97,-1.38 0.54,0 0.95,0.26 1.31,0.83 l -0.14,0.12 c -0.23,-0.28 -0.42,-0.39 -0.66,-0.39 -0.4,0 -0.56,0.3 -0.56,0.99 l 0,3.12 1.1,0 z"
         inkscape:connector-curvature="0"
         style="fill:#000000;stroke-width:0" /><path
         id="path4839"
         d="m 229.21,712.15 -0.13,0 -0.13,-0.01 -0.13,-0.02 -0.12,-0.02 -0.12,-0.02 -0.12,-0.04 -0.11,-0.03 -0.12,-0.05 -0.1,-0.04 -0.11,-0.06 -0.1,-0.06 -0.1,-0.06 -0.09,-0.07 -0.09,-0.07 -0.09,-0.08 -0.08,-0.08 -0.08,-0.09 -0.07,-0.09 -0.07,-0.09 -0.07,-0.1 -0.06,-0.11 -0.05,-0.1 -0.05,-0.11 -0.05,-0.12 -0.04,-0.12 -0.03,-0.12 -0.03,-0.12 -0.03,-0.13 -0.02,-0.13 -0.01,-0.14 -0.01,-0.14 -0.01,-0.14 c 0,-1.47 1.02,-2.57 2.4,-2.57 l 0.13,0.3 c -0.43,0 -0.83,0.26 -1.06,0.7 -0.31,0.57 -0.48,1.33 -0.48,2.11 0,1.04 0.51,1.72 1.29,1.72 l 0,0 c 0.92,0 1.56,-1.05 1.56,-2.55 0,-1.23 -0.49,-1.98 -1.31,-1.98 l -0.13,-0.3 c 1.38,0 2.42,1.15 2.42,2.66 0,1.43 -1,2.47 -2.4,2.47 z"
         inkscape:connector-curvature="0"
         style="fill:#000000;stroke-width:0" /><path
         id="path4841"
         d="m 242.06,713.39 0,-4.95 c 0,-0.91 -0.13,-1.05 -0.99,-1.11 l 0,-0.21 3.06,0 0,0.21 c -0.8,0.06 -0.95,0.21 -0.95,0.99 l 0,4.85 c 0,0.77 0.14,0.92 0.95,0.98 l 0,0.21 -2.18,0 -2.41,-5.52 -2.53,5.52 -2.16,0 0,-0.21 c 0.9,-0.05 1.04,-0.18 1.04,-0.98 l 0,-4.44 c 0,-1.12 -0.15,-1.33 -1.06,-1.4 l 0,-0.21 2.57,0 0,0.21 c -0.85,0.05 -1.03,0.3 -1.03,1.4 l 0,4.41 2.74,-6.02 0.15,0 z"
         inkscape:connector-curvature="0"
         style="fill:#000000;stroke-width:0" /><path
         id="path4843"
         d="m 248.38,714.51 0,-0.39 c 0.51,0 1.01,-0.2 1.4,-0.55 0.59,-0.53 0.93,-1.56 0.93,-2.86 0,-0.65 -0.14,-1.4 -0.36,-1.97 -0.1,-0.27 -0.28,-0.54 -0.53,-0.8 -0.39,-0.38 -0.88,-0.58 -1.46,-0.58 -0.5,0 -0.99,0.2 -1.37,0.54 -0.57,0.5 -0.93,1.61 -0.93,2.82 0,1.12 0.3,2.18 0.76,2.69 0.43,0.47 0.96,0.71 1.56,0.71 l 0,0 0,0.39 c -2.08,0 -3.57,-1.57 -3.57,-3.77 0,-1.02 0.35,-2.02 0.94,-2.65 0.63,-0.69 1.61,-1.12 2.57,-1.12 2.15,0 3.64,1.53 3.64,3.73 0,1.08 -0.32,2.01 -0.92,2.66 -0.69,0.76 -1.61,1.15 -2.66,1.15 z"
         inkscape:connector-curvature="0"
         style="fill:#000000;stroke-width:0" /><path
         id="path4845"
         d="m 254.69,713.9 0,-5.46 c 0,-0.93 -0.12,-1.05 -1.03,-1.11 l 0,-0.21 3.19,0 0,0.21 c -0.89,0.05 -1.05,0.19 -1.05,0.99 l 0,5.58 0.59,0 c 1.25,0 1.49,-0.2 1.74,-1.4 l 0.26,0 -0.06,1.86 -6.17,0 -0.06,-1.86 0.26,0 c 0.26,1.19 0.52,1.4 1.74,1.4 z"
         inkscape:connector-curvature="0"
         style="fill:#000000;stroke-width:0" /></g>    <path
       style="fill:none;fill-rule:evenodd;stroke:#ffdc00;stroke-width:3;stroke-linecap:butt;stroke-linejoin:miter;stroke-miterlimit:4;stroke-dasharray:none;stroke-opacity:1;marker-start:url(#marker4990)"
       d="m 465.52319,1020.2237 -112.11805,0"
       id="path4988"
       inkscape:connector-curvature="0" />
    <path
       inkscape:connector-curvature="0"
       id="path5104"
       d="m 375.52319,1020.2237 -112.11805,0"
       style="fill:none;fill-rule:evenodd;stroke:#ffdc00;stroke-width:3;stroke-linecap:butt;stroke-linejoin:miter;stroke-miterlimit:4;stroke-dasharray:none;stroke-opacity:1" />
  </g>
</svg>
