<?xml version="1.0" encoding="UTF-8" standalone="no"?>
<!-- Created with Inkscape (http://www.inkscape.org/) -->

<svg
   xmlns:ns0="http://www.iki.fi/pav/software/textext/"
   xmlns:dc="http://purl.org/dc/elements/1.1/"
   xmlns:cc="http://creativecommons.org/ns#"
   xmlns:rdf="http://www.w3.org/1999/02/22-rdf-syntax-ns#"
   xmlns:svg="http://www.w3.org/2000/svg"
   xmlns="http://www.w3.org/2000/svg"
   xmlns:sodipodi="http://sodipodi.sourceforge.net/DTD/sodipodi-0.dtd"
   xmlns:inkscape="http://www.inkscape.org/namespaces/inkscape"
   width="451.58597pt"
   height="300pt"
   viewBox="0 0 564.48245 374.99999"
   id="svg2"
   version="1.1"
   inkscape:version="0.91 r"
   sodipodi:docname="MOT_Energy_modi.svg">
  <sodipodi:namedview
     id="base"
     pagecolor="#ffffff"
     bordercolor="#666666"
     borderopacity="1.0"
     inkscape:pageopacity="0.0"
     inkscape:pageshadow="2"
     inkscape:zoom="3.5117188"
     inkscape:cx="287.43371"
     inkscape:cy="-15.535094"
     inkscape:document-units="px"
     inkscape:current-layer="layer1"
     showgrid="false"
     inkscape:window-width="1920"
     inkscape:window-height="1025"
     inkscape:window-x="-2"
     inkscape:window-y="-3"
     inkscape:window-maximized="1"
     units="pt" />
  <defs
     id="defs4">
    <marker
       inkscape:stockid="Arrow1Lend"
       orient="auto"
       refY="0"
       refX="0"
       id="marker19352"
       style="overflow:visible"
       inkscape:isstock="true">
      <path
         inkscape:connector-curvature="0"
         id="path19354"
         d="M 0,0 5,-5 -12.5,0 5,5 0,0 Z"
         style="fill:#000000;fill-opacity:1;fill-rule:evenodd;stroke:#000000;stroke-width:1pt;stroke-opacity:1"
         transform="matrix(-0.8,0,0,-0.8,-10,0)" />
    </marker>
    <marker
       inkscape:isstock="true"
       style="overflow:visible"
       id="marker19220"
       refX="0"
       refY="0"
       orient="auto"
       inkscape:stockid="Arrow1Mend">
      <path
         inkscape:connector-curvature="0"
         transform="matrix(-0.4,0,0,-0.4,-4,0)"
         style="fill:#000000;fill-opacity:1;fill-rule:evenodd;stroke:#000000;stroke-width:1pt;stroke-opacity:1"
         d="M 0,0 5,-5 -12.5,0 5,5 0,0 Z"
         id="path19222" />
    </marker>
    <marker
       inkscape:collect="always"
       inkscape:stockid="Arrow1Mend"
       orient="auto"
       refY="0"
       refX="0"
       id="marker17472"
       style="overflow:visible"
       inkscape:isstock="true">
      <path
         inkscape:connector-curvature="0"
         id="path17474"
         d="M 0,0 5,-5 -12.5,0 5,5 0,0 Z"
         style="fill:#000000;fill-opacity:1;fill-rule:evenodd;stroke:#000000;stroke-width:1pt;stroke-opacity:1"
         transform="matrix(-0.4,0,0,-0.4,-4,0)" />
    </marker>
    <marker
       inkscape:isstock="true"
       style="overflow:visible"
       id="marker17378"
       refX="0"
       refY="0"
       orient="auto"
       inkscape:stockid="Arrow1Mstart">
      <path
         inkscape:connector-curvature="0"
         transform="matrix(0.4,0,0,0.4,4,0)"
         style="fill:#000000;fill-opacity:1;fill-rule:evenodd;stroke:#000000;stroke-width:1pt;stroke-opacity:1"
         d="M 0,0 5,-5 -12.5,0 5,5 0,0 Z"
         id="path17380" />
    </marker>
    <marker
       inkscape:collect="always"
       inkscape:isstock="true"
       style="overflow:visible"
       id="marker14384"
       refX="0"
       refY="0"
       orient="auto"
       inkscape:stockid="Arrow1Mend">
      <path
         inkscape:connector-curvature="0"
         transform="matrix(-0.4,0,0,-0.4,-4,0)"
         style="fill:#000000;fill-opacity:1;fill-rule:evenodd;stroke:#000000;stroke-width:1pt;stroke-opacity:1"
         d="M 0,0 5,-5 -12.5,0 5,5 0,0 Z"
         id="path14386" />
    </marker>
    <marker
       inkscape:collect="always"
       inkscape:stockid="Arrow1Mstart"
       orient="auto"
       refY="0"
       refX="0"
       id="marker14302"
       style="overflow:visible"
       inkscape:isstock="true">
      <path
         inkscape:connector-curvature="0"
         id="path14304"
         d="M 0,0 5,-5 -12.5,0 5,5 0,0 Z"
         style="fill:#000000;fill-opacity:1;fill-rule:evenodd;stroke:#000000;stroke-width:1pt;stroke-opacity:1"
         transform="matrix(0.4,0,0,0.4,4,0)" />
    </marker>
    <marker
       inkscape:stockid="Arrow1Mend"
       orient="auto"
       refY="0"
       refX="0"
       id="marker12547"
       style="overflow:visible"
       inkscape:isstock="true">
      <path
         inkscape:connector-curvature="0"
         id="path12549"
         d="M 0,0 5,-5 -12.5,0 5,5 0,0 Z"
         style="fill:#000000;fill-opacity:1;fill-rule:evenodd;stroke:#000000;stroke-width:1pt;stroke-opacity:1"
         transform="matrix(-0.4,0,0,-0.4,-4,0)" />
    </marker>
    <marker
       inkscape:collect="always"
       inkscape:isstock="true"
       style="overflow:visible"
       id="Arrow1Mstart"
       refX="0"
       refY="0"
       orient="auto"
       inkscape:stockid="Arrow1Mstart">
      <path
         inkscape:connector-curvature="0"
         transform="matrix(0.4,0,0,0.4,4,0)"
         style="fill:#000000;fill-opacity:1;fill-rule:evenodd;stroke:#000000;stroke-width:1pt;stroke-opacity:1"
         d="M 0,0 5,-5 -12.5,0 5,5 0,0 Z"
         id="path8080" />
    </marker>
    <marker
       inkscape:isstock="true"
       style="overflow:visible"
       id="Arrow2Send"
       refX="0"
       refY="0"
       orient="auto"
       inkscape:stockid="Arrow2Send">
      <path
         inkscape:connector-curvature="0"
         transform="matrix(-0.3,0,0,-0.3,0.69,0)"
         d="M 8.7185878,4.0337352 -2.2072895,0.01601326 8.7185884,-4.0017078 c -1.7454984,2.3720609 -1.7354408,5.6174519 -6e-7,8.035443 z"
         style="fill:#000000;fill-opacity:1;fill-rule:evenodd;stroke:#000000;stroke-width:0.625;stroke-linejoin:round;stroke-opacity:1"
         id="path8107" />
    </marker>
    <marker
       inkscape:isstock="true"
       style="overflow:visible"
       id="Arrow1Sstart"
       refX="0"
       refY="0"
       orient="auto"
       inkscape:stockid="Arrow1Sstart">
      <path
         inkscape:connector-curvature="0"
         transform="matrix(0.2,0,0,0.2,1.2,0)"
         style="fill:#000000;fill-opacity:1;fill-rule:evenodd;stroke:#000000;stroke-width:1pt;stroke-opacity:1"
         d="M 0,0 5,-5 -12.5,0 5,5 0,0 Z"
         id="path8086" />
    </marker>
    <marker
       inkscape:collect="always"
       inkscape:stockid="Arrow1Mend"
       orient="auto"
       refY="0"
       refX="0"
       id="marker10311"
       style="overflow:visible"
       inkscape:isstock="true">
      <path
         inkscape:connector-curvature="0"
         id="path10313"
         d="M 0,0 5,-5 -12.5,0 5,5 0,0 Z"
         style="fill:#000000;fill-opacity:1;fill-rule:evenodd;stroke:#000000;stroke-width:1pt;stroke-opacity:1"
         transform="matrix(-0.4,0,0,-0.4,-4,0)" />
    </marker>
    <marker
       inkscape:stockid="Arrow1Mend"
       orient="auto"
       refY="0"
       refX="0"
       id="marker9178"
       style="overflow:visible"
       inkscape:isstock="true">
      <path
         inkscape:connector-curvature="0"
         id="path9180"
         d="M 0,0 5,-5 -12.5,0 5,5 0,0 Z"
         style="fill:#000000;fill-opacity:1;fill-rule:evenodd;stroke:#000000;stroke-width:1pt;stroke-opacity:1"
         transform="matrix(-0.4,0,0,-0.4,-4,0)" />
    </marker>
    <marker
       inkscape:stockid="Arrow1Mend"
       orient="auto"
       refY="0"
       refX="0"
       id="marker8599"
       style="overflow:visible"
       inkscape:isstock="true">
      <path
         inkscape:connector-curvature="0"
         id="path8601"
         d="M 0,0 5,-5 -12.5,0 5,5 0,0 Z"
         style="fill:#000000;fill-opacity:1;fill-rule:evenodd;stroke:#000000;stroke-width:1pt;stroke-opacity:1"
         transform="matrix(-0.4,0,0,-0.4,-4,0)" />
    </marker>
    <marker
       inkscape:collect="always"
       inkscape:isstock="true"
       style="overflow:visible"
       id="marker8452"
       refX="0"
       refY="0"
       orient="auto"
       inkscape:stockid="Arrow1Mend">
      <path
         inkscape:connector-curvature="0"
         transform="matrix(-0.4,0,0,-0.4,-4,0)"
         style="fill:#000000;fill-opacity:1;fill-rule:evenodd;stroke:#000000;stroke-width:1pt;stroke-opacity:1"
         d="M 0,0 5,-5 -12.5,0 5,5 0,0 Z"
         id="path8454" />
    </marker>
    <marker
       inkscape:collect="always"
       inkscape:isstock="true"
       style="overflow:visible"
       id="marker8412"
       refX="0"
       refY="0"
       orient="auto"
       inkscape:stockid="Arrow1Mend">
      <path
         inkscape:connector-curvature="0"
         transform="matrix(-0.4,0,0,-0.4,-4,0)"
         style="fill:#000000;fill-opacity:1;fill-rule:evenodd;stroke:#000000;stroke-width:1pt;stroke-opacity:1"
         d="M 0,0 5,-5 -12.5,0 5,5 0,0 Z"
         id="path8414" />
    </marker>
    <marker
       inkscape:isstock="true"
       style="overflow:visible"
       id="Arrow1Mend"
       refX="0"
       refY="0"
       orient="auto"
       inkscape:stockid="Arrow1Mend">
      <path
         inkscape:connector-curvature="0"
         transform="matrix(-0.4,0,0,-0.4,-4,0)"
         style="fill:#000000;fill-opacity:1;fill-rule:evenodd;stroke:#000000;stroke-width:1pt;stroke-opacity:1"
         d="M 0,0 5,-5 -12.5,0 5,5 0,0 Z"
         id="path8083" />
    </marker>
    <marker
       inkscape:collect="always"
       inkscape:isstock="true"
       style="overflow:visible"
       id="Arrow1Lend"
       refX="0"
       refY="0"
       orient="auto"
       inkscape:stockid="Arrow1Lend">
      <path
         inkscape:connector-curvature="0"
         transform="matrix(-0.8,0,0,-0.8,-10,0)"
         style="fill:#000000;fill-opacity:1;fill-rule:evenodd;stroke:#000000;stroke-width:1pt;stroke-opacity:1"
         d="M 0,0 5,-5 -12.5,0 5,5 0,0 Z"
         id="path8077" />
    </marker>
  </defs>
  <metadata
     id="metadata7">
    <rdf:RDF>
      <cc:Work
         rdf:about="">
        <dc:format>image/svg+xml</dc:format>
        <dc:type
           rdf:resource="http://purl.org/dc/dcmitype/StillImage" />
        <dc:title></dc:title>
      </cc:Work>
    </rdf:RDF>
  </metadata>
  <g
     transform="translate(0,-677.3622)"
     id="layer1"
     inkscape:groupmode="layer"
     inkscape:label="Layer 1">
    <path
       inkscape:connector-curvature="0"
       id="path3336"
       d="m 3.0813288,1032.2757 488.8102612,0"
       style="fill:none;fill-opacity:1;fill-rule:evenodd;stroke:#000000;stroke-width:1.42513847;stroke-linecap:butt;stroke-linejoin:miter;stroke-miterlimit:4;stroke-dasharray:none;stroke-opacity:1;marker-end:url(#marker8452)" />
    <path
       inkscape:connector-curvature="0"
       id="path8394"
       d="m 248.76658,971.37559 0,-287.03627"
       style="fill:none;fill-rule:evenodd;stroke:#000000;stroke-width:1.42513847;stroke-linecap:butt;stroke-linejoin:miter;stroke-miterlimit:4;stroke-dasharray:none;stroke-opacity:1;marker-end:url(#marker8412)" />
    <g
       transform="matrix(0.80255029,0,0,0.90472784,-49.818304,166.8504)"
       id="g36544">
      <path
         style="fill:none;fill-rule:evenodd;stroke:#000000;stroke-width:1.67248392;stroke-linecap:butt;stroke-linejoin:miter;stroke-miterlimit:4;stroke-dasharray:none;stroke-opacity:1"
         d="M 388.32674,904.85755 371.92278,888.40911"
         id="path8396"
         inkscape:connector-curvature="0" />
      <path
         inkscape:connector-curvature="0"
         id="path8398"
         d="M 372.16738,932.37731 355.76343,915.92887"
         style="fill:none;fill-rule:evenodd;stroke:#000000;stroke-width:1.67248392;stroke-linecap:butt;stroke-linejoin:miter;stroke-miterlimit:4;stroke-dasharray:none;stroke-opacity:1" />
      <path
         style="fill:none;fill-rule:evenodd;stroke:#000000;stroke-width:1.67248392;stroke-linecap:butt;stroke-linejoin:miter;stroke-miterlimit:4;stroke-dasharray:none;stroke-opacity:1"
         d="m 356.01394,916.15016 31.98771,-11.43914"
         id="path8400"
         inkscape:connector-curvature="0" />
    </g>
    <path
       style="fill:none;fill-opacity:1;fill-rule:evenodd;stroke:#ff0000;stroke-width:1.42513847;stroke-linecap:butt;stroke-linejoin:miter;stroke-miterlimit:4;stroke-dasharray:1.42513845, 1.42513845;stroke-dashoffset:0;stroke-opacity:1"
       d="m 3.0813288,900.45392 488.8102612,0"
       id="path8597"
       inkscape:connector-curvature="0" />
    <path
       style="fill:none;fill-rule:evenodd;stroke:#000000;stroke-width:1.42513847;stroke-linecap:butt;stroke-linejoin:miter;stroke-miterlimit:4;stroke-dasharray:none;stroke-opacity:1"
       d="m 248.76658,1032.206 0,-22.2663"
       id="path9163"
       inkscape:connector-curvature="0" />
    <path
       style="fill:none;fill-rule:evenodd;stroke:#000000;stroke-width:1.42513847;stroke-linecap:butt;stroke-linejoin:miter;stroke-miterlimit:4;stroke-dasharray:none;stroke-opacity:1;marker-end:url(#marker9178)"
       d="m 121.42514,970.91808 0,-68.42427"
       id="path9165"
       inkscape:connector-curvature="0" />
    <g
       transform="matrix(0.80255029,0,0,0.90472784,-49.818304,120.35563)"
       id="g36538">
      <g
         id="g9230"
         transform="matrix(0.83511041,0,0,0.83737504,-21.818827,244.09397)">
        <path
           style="fill:none;fill-rule:evenodd;stroke:#000000;stroke-width:2;stroke-linecap:butt;stroke-linejoin:miter;stroke-miterlimit:4;stroke-dasharray:none;stroke-opacity:1"
           d="M 301.12735,850.46059 281.48449,830.81773"
           id="path9167"
           inkscape:connector-curvature="0" />
        <path
           inkscape:connector-curvature="0"
           id="path9169"
           d="M 281.77739,883.32491 262.13453,863.68205"
           style="fill:none;fill-rule:evenodd;stroke:#000000;stroke-width:2;stroke-linecap:butt;stroke-linejoin:miter;stroke-miterlimit:4;stroke-dasharray:none;stroke-opacity:1" />
        <path
           style="fill:none;fill-rule:evenodd;stroke:#000000;stroke-width:2;stroke-linecap:butt;stroke-linejoin:miter;stroke-miterlimit:4;stroke-dasharray:none;stroke-opacity:1"
           d="m 262.43451,863.94632 38.30357,-13.66071"
           id="path9171"
           inkscape:connector-curvature="0" />
      </g>
    </g>
    <path
       style="fill:none;fill-opacity:1;fill-rule:evenodd;stroke:#000000;stroke-width:1.42513847;stroke-linecap:butt;stroke-linejoin:miter;stroke-miterlimit:4;stroke-dasharray:none;stroke-opacity:1"
       d="m 4.3614527,829.23985 488.8102573,0"
       id="path10309"
       inkscape:connector-curvature="0" />
    <g
       transform="matrix(0.69292181,0,0,0.75752961,-78.079096,341.71351)"
       id="g11838">
      <path
         style="fill:none;fill-opacity:1;fill-rule:evenodd;stroke:#000000;stroke-width:2;stroke-linecap:butt;stroke-linejoin:miter;stroke-miterlimit:4;stroke-dasharray:none;stroke-opacity:1"
         d="M 119.39153,737.95624 823.87035,549.1917"
         id="path11825"
         inkscape:connector-curvature="0" />
      <path
         style="fill:none;fill-opacity:1;fill-rule:evenodd;stroke:#000000;stroke-width:2;stroke-linecap:butt;stroke-linejoin:miter;stroke-miterlimit:4;stroke-dasharray:none;stroke-opacity:1"
         d="M 119.39153,549.1917 823.87035,737.95624"
         id="path11827"
         inkscape:connector-curvature="0" />
    </g>
    <path
       inkscape:connector-curvature="0"
       id="path11850"
       d="m 137.80881,897.51292 0,-65.44387"
       style="fill:none;fill-rule:evenodd;stroke:#000000;stroke-width:1.42513847;stroke-linecap:butt;stroke-linejoin:miter;stroke-miterlimit:4;stroke-dasharray:none;stroke-opacity:1;marker-start:url(#Arrow1Mstart);marker-end:url(#marker10311)" />
    <path
       style="fill:none;fill-rule:evenodd;stroke:#000000;stroke-width:1.34334719;stroke-linecap:butt;stroke-linejoin:miter;stroke-miterlimit:4;stroke-dasharray:4.03004149, 4.03004149;stroke-dashoffset:0;stroke-opacity:1"
       d="m 393.53369,1032.5578 0,-350.23651"
       id="path12545"
       inkscape:connector-curvature="0" />
    <path
       inkscape:connector-curvature="0"
       id="path14284"
       d="m 393.55408,786.71257 93.25985,0"
       style="fill:none;fill-rule:evenodd;stroke:#000000;stroke-width:1.42513847;stroke-linecap:butt;stroke-linejoin:miter;stroke-miterlimit:4;stroke-dasharray:2.85027688, 1.42513845;stroke-dashoffset:0;stroke-opacity:1" />
    <path
       style="fill:none;fill-rule:evenodd;stroke:#000000;stroke-width:1.42513847;stroke-linecap:butt;stroke-linejoin:miter;stroke-miterlimit:4;stroke-dasharray:2.85027688, 1.42513845;stroke-dashoffset:0;stroke-opacity:1"
       d="m 393.55408,871.56337 93.25985,0"
       id="path14286"
       inkscape:connector-curvature="0" />
    <path
       style="fill:none;fill-rule:evenodd;stroke:#000000;stroke-width:1.42513847;stroke-linecap:butt;stroke-linejoin:miter;stroke-miterlimit:4;stroke-dasharray:none;stroke-opacity:1;marker-start:url(#marker14302);marker-end:url(#marker14384)"
       d="m 444.7687,895.7211 0,-105.96316"
       id="path14300"
       inkscape:connector-curvature="0" />
    <path
       inkscape:connector-curvature="0"
       id="path17376"
       d="m 480.96048,899.21681 0,-26.91327"
       style="fill:none;fill-rule:evenodd;stroke:#000000;stroke-width:1.42513847;stroke-linecap:butt;stroke-linejoin:miter;stroke-miterlimit:4;stroke-dasharray:none;stroke-opacity:1;marker-start:url(#marker17378);marker-end:url(#marker17472)" />
    <path
       inkscape:connector-curvature="0"
       id="path19212"
       d="m 3.0813288,970.57301 64.3171362,0"
       style="fill:none;fill-rule:evenodd;stroke:#000000;stroke-width:1.42513847;stroke-linecap:butt;stroke-linejoin:miter;stroke-miterlimit:4;stroke-dasharray:none;stroke-opacity:1;marker-end:url(#Arrow1Lend)" />
    <path
       style="fill:none;fill-rule:evenodd;stroke:#000000;stroke-width:1.42513847;stroke-linecap:butt;stroke-linejoin:miter;stroke-miterlimit:4;stroke-dasharray:none;stroke-opacity:1;marker-end:url(#marker19352)"
       d="m 494.45185,970.57301 -64.31715,0"
       id="path19350"
       inkscape:connector-curvature="0" />
    <path
       inkscape:connector-curvature="0"
       id="path36530"
       d="m 121.42514,1032.206 0,-22.2663"
       style="fill:none;fill-rule:evenodd;stroke:#000000;stroke-width:1.42513847;stroke-linecap:butt;stroke-linejoin:miter;stroke-miterlimit:4;stroke-dasharray:none;stroke-opacity:1" />
    <g
       id="g5200"
       transform="matrix(1.25,0,0,-1.25,191.94172,1933.8134)"
       xml:space="preserve"
       stroke-miterlimit="10.433"
       font-style="normal"
       font-variant="normal"
       font-weight="normal"
       font-stretch="normal"
       font-size-adjust="none"
       letter-spacing="normal"
       word-spacing="normal"
       ns0:text=" \\fontsize{11pt}{1em}\\selectfont Position"
       ns0:preamble="/media/rob/Daten/Masterarbeit/Thesis/inkscape_preamble.tex"
       style="font-style:normal;font-variant:normal;font-weight:normal;font-stretch:normal;letter-spacing:normal;word-spacing:normal;text-anchor:start;fill:none;fill-opacity:1;fill-rule:evenodd;stroke:#000000;stroke-linecap:butt;stroke-linejoin:miter;stroke-miterlimit:10.43299961;stroke-dasharray:none;stroke-dashoffset:0;stroke-opacity:1"><path
         style="fill:#000000;stroke-width:0"
         inkscape:connector-curvature="0"
         d="m 225.64,710.3 0,0.44 0,2.84 c 0,0.3 0.08,0.38 0.37,0.38 1.48,0 2.15,-0.52 2.15,-1.64 0,-1.06 -0.64,-1.61 -1.9,-1.61 -0.22,0 -0.37,0.01 -0.62,0.03 l 0,-0.44 c 0.28,-0.02 0.47,-0.03 0.75,-0.03 0.86,0 1.45,0.11 1.92,0.37 0.65,0.35 1.04,1.02 1.04,1.74 0,0.46 -0.15,0.88 -0.44,1.19 -0.44,0.48 -1.39,0.79 -2.42,0.79 l -2.88,0 0,-0.21 c 0.8,-0.09 0.91,-0.19 0.91,-0.98 l 0,-4.73 c 0,-0.92 -0.08,-1.03 -0.91,-1.11 l 0,-0.21 3.06,0 0,0.21 c -0.87,0.03 -1.03,0.19 -1.03,0.99 z"
         id="path5202" /><path
         style="fill:#000000;stroke-width:0"
         inkscape:connector-curvature="0"
         d="m 232.26,712.15 -0.13,0 -0.13,-0.01 -0.13,-0.02 -0.12,-0.02 -0.13,-0.02 -0.11,-0.04 -0.12,-0.03 -0.11,-0.05 -0.11,-0.04 -0.1,-0.06 -0.1,-0.06 -0.1,-0.06 -0.1,-0.07 -0.09,-0.07 -0.08,-0.08 -0.08,-0.08 -0.08,-0.09 -0.07,-0.09 -0.07,-0.09 -0.07,-0.1 -0.06,-0.11 -0.05,-0.1 -0.05,-0.11 -0.05,-0.12 -0.04,-0.12 -0.04,-0.12 -0.03,-0.12 -0.02,-0.13 -0.02,-0.13 -0.02,-0.14 -0.01,-0.14 0,-0.14 c 0,-1.47 1.02,-2.57 2.4,-2.57 l 0.13,0.3 c -0.43,0 -0.83,0.26 -1.06,0.7 -0.31,0.57 -0.49,1.33 -0.49,2.11 0,1.04 0.52,1.72 1.3,1.72 l 0,0 c 0.91,0 1.56,-1.05 1.56,-2.55 0,-1.23 -0.49,-1.98 -1.31,-1.98 l -0.13,-0.3 c 1.37,0 2.42,1.15 2.42,2.66 0,1.43 -1,2.47 -2.4,2.47 z"
         id="path5204" /><path
         style="fill:#000000;stroke-width:0"
         inkscape:connector-curvature="0"
         d="m 238.45,710.56 -0.05,1.48 -0.12,0 -0.02,-0.02 c -0.1,-0.08 -0.11,-0.09 -0.15,-0.09 -0.07,0 -0.18,0.03 -0.3,0.08 -0.24,0.09 -0.48,0.13 -0.76,0.13 -0.87,0 -1.49,-0.56 -1.49,-1.34 0,-0.62 0.35,-1.05 1.28,-1.58 l 0.63,-0.36 c 0.39,-0.22 0.57,-0.48 0.57,-0.82 0,-0.48 -0.35,-0.78 -0.91,-0.78 -0.37,0 -0.7,0.14 -0.91,0.38 -0.23,0.27 -0.33,0.52 -0.47,1.15 l -0.18,0 0,-1.71 0.14,0 c 0.08,0.11 0.13,0.13 0.26,0.13 0.1,0 0.25,-0.02 0.5,-0.09 0.3,-0.06 0.6,-0.1 0.8,-0.1 0.84,0 1.54,0.63 1.54,1.39 0,0.55 -0.27,0.91 -0.92,1.31 l -1.18,0.69 c -0.31,0.18 -0.47,0.45 -0.47,0.75 0,0.43 0.34,0.74 0.84,0.74 0.62,0 0.95,-0.37 1.2,-1.34 z"
         id="path5206" /><path
         style="fill:#000000;stroke-width:0"
         inkscape:connector-curvature="0"
         d="m 241.18,712.15 -1.69,-0.6 0,-0.16 0.08,0.01 c 0.14,0.02 0.28,0.03 0.38,0.03 0.26,0 0.36,-0.17 0.36,-0.65 l 0,-2.54 c 0,-0.79 -0.11,-0.91 -0.87,-0.95 l 0,-0.17 2.59,0 0,0.17 c -0.72,0.05 -0.81,0.16 -0.81,0.95 l 0,3.88 z"
         id="path5208" /><path
         style="fill:#000000;stroke-width:0"
         inkscape:connector-curvature="0"
         d="m 240.67,714.59 -0.03,0 -0.03,0 -0.03,-0.01 -0.02,0 -0.03,-0.01 -0.02,-0.01 -0.03,-0.01 -0.02,-0.01 -0.03,-0.01 -0.02,-0.01 -0.02,-0.01 -0.03,-0.02 -0.02,-0.01 -0.02,-0.02 -0.02,-0.02 -0.02,-0.02 -0.02,-0.02 -0.01,-0.02 -0.02,-0.02 -0.02,-0.02 -0.01,-0.02 -0.01,-0.02 -0.02,-0.03 -0.01,-0.02 -0.01,-0.03 0,-0.02 -0.01,-0.03 -0.01,-0.03 0,-0.02 -0.01,-0.03 0,-0.03 0,-0.03 c 0,-0.31 0.24,-0.56 0.55,-0.56 0.31,0 0.56,0.24 0.56,0.56 0,0.31 -0.25,0.56 -0.56,0.56 z"
         id="path5210" /><path
         style="fill:#000000;stroke-width:0"
         inkscape:connector-curvature="0"
         d="m 245.1,712.04 -1.1,0 0,1.27 c 0,0.11 -0.01,0.14 -0.08,0.14 -0.08,-0.1 -0.14,-0.19 -0.22,-0.3 -0.41,-0.61 -0.88,-1.13 -1.06,-1.17 -0.12,-0.08 -0.18,-0.16 -0.18,-0.21 0,-0.03 0.01,-0.06 0.04,-0.08 l 0.58,0 0,-3.29 c 0,-0.91 0.33,-1.38 0.97,-1.38 0.54,0 0.95,0.26 1.31,0.83 l -0.14,0.12 c -0.23,-0.28 -0.41,-0.39 -0.65,-0.39 -0.41,0 -0.57,0.3 -0.57,0.99 l 0,3.12 1.1,0 z"
         id="path5212" /><path
         style="fill:#000000;stroke-width:0"
         inkscape:connector-curvature="0"
         d="m 247.27,712.15 -1.69,-0.6 0,-0.16 0.09,0.01 c 0.13,0.02 0.27,0.03 0.37,0.03 0.26,0 0.36,-0.17 0.36,-0.65 l 0,-2.54 c 0,-0.79 -0.11,-0.91 -0.86,-0.95 l 0,-0.17 2.58,0 0,0.17 c -0.72,0.05 -0.8,0.16 -0.8,0.95 l 0,3.88 z"
         id="path5214" /><path
         style="fill:#000000;stroke-width:0"
         inkscape:connector-curvature="0"
         d="m 246.76,714.59 -0.03,0 -0.03,0 -0.02,-0.01 -0.03,0 -0.03,-0.01 -0.02,-0.01 -0.03,-0.01 -0.02,-0.01 -0.02,-0.01 -0.03,-0.01 -0.02,-0.01 -0.02,-0.02 -0.02,-0.01 -0.03,-0.02 -0.02,-0.02 -0.01,-0.02 -0.02,-0.02 -0.02,-0.02 -0.02,-0.02 -0.01,-0.02 -0.02,-0.02 -0.01,-0.02 -0.01,-0.03 -0.01,-0.02 -0.01,-0.03 -0.01,-0.02 -0.01,-0.03 -0.01,-0.03 0,-0.02 0,-0.03 -0.01,-0.03 0,-0.03 c 0,-0.31 0.24,-0.56 0.55,-0.56 0.32,0 0.57,0.24 0.57,0.56 0,0.31 -0.25,0.56 -0.57,0.56 z"
         id="path5216" /><path
         style="fill:#000000;stroke-width:0"
         inkscape:connector-curvature="0"
         d="m 251.14,712.15 -0.13,0 -0.13,-0.01 -0.13,-0.02 -0.12,-0.02 -0.12,-0.02 -0.12,-0.04 -0.12,-0.03 -0.11,-0.05 -0.11,-0.04 -0.1,-0.06 -0.1,-0.06 -0.1,-0.06 -0.09,-0.07 -0.09,-0.07 -0.09,-0.08 -0.08,-0.08 -0.08,-0.09 -0.07,-0.09 -0.07,-0.09 -0.07,-0.1 -0.06,-0.11 -0.05,-0.1 -0.05,-0.11 -0.05,-0.12 -0.04,-0.12 -0.03,-0.12 -0.04,-0.12 -0.02,-0.13 -0.02,-0.13 -0.01,-0.14 -0.01,-0.14 -0.01,-0.14 c 0,-1.47 1.02,-2.57 2.4,-2.57 l 0.13,0.3 c -0.43,0 -0.83,0.26 -1.06,0.7 -0.31,0.57 -0.48,1.33 -0.48,2.11 0,1.04 0.51,1.72 1.29,1.72 l 0,0 c 0.91,0 1.56,-1.05 1.56,-2.55 0,-1.23 -0.49,-1.98 -1.31,-1.98 l -0.13,-0.3 c 1.37,0 2.42,1.15 2.42,2.66 0,1.43 -1,2.47 -2.4,2.47 z"
         id="path5218" /><path
         style="fill:#000000;stroke-width:0"
         inkscape:connector-curvature="0"
         d="m 254.06,711.47 0.01,0.01 0,0 0.01,0 0.01,0.01 0,0 0.01,0 0.01,0 0.01,0 0.01,0.01 0,0 0.02,0 0.02,0.01 0.02,0 0.02,0 0.02,0 0.02,0 0.02,0.01 0.02,0 0.02,0 0.02,0 0.03,0 c 0.3,0 0.4,-0.17 0.4,-0.7 l 0,-2.71 c 0,-0.62 -0.12,-0.78 -0.68,-0.82 l 0,-0.17 2.32,0 0,0.17 c -0.56,0.04 -0.72,0.17 -0.72,0.57 l 0,3.07 c 0.52,0.49 0.76,0.62 1.12,0.62 0.54,0 0.8,-0.34 0.8,-1.06 l 0,-2.28 c 0,-0.69 -0.14,-0.88 -0.69,-0.92 l 0,-0.17 2.28,0 0,0.17 c -0.54,0.05 -0.67,0.18 -0.67,0.72 l 0,2.5 c 0,1.03 -0.48,1.64 -1.29,1.64 -0.5,0 -0.84,-0.18 -1.58,-0.88 l 0,0.86 -0.08,0.02 c -0.54,-0.19 -0.91,-0.31 -1.51,-0.49 z"
         id="path5220" /></g>    <g
       ns0:preamble="/media/rob/Daten/Masterarbeit/Thesis/inkscape_preamble.tex"
       ns0:text=" \\fontsize{11pt}{1em}\\selectfont Energy"
       word-spacing="normal"
       letter-spacing="normal"
       font-size-adjust="none"
       font-stretch="normal"
       font-weight="normal"
       font-variant="normal"
       font-style="normal"
       stroke-miterlimit="10.433"
       xml:space="preserve"
       transform="matrix(1.25,0,0,-1.25,-20.897409,1581.6743)"
       id="g5544"
       style="font-style:normal;font-variant:normal;font-weight:normal;font-stretch:normal;letter-spacing:normal;word-spacing:normal;text-anchor:start;fill:none;fill-opacity:1;fill-rule:evenodd;stroke:#000000;stroke-linecap:butt;stroke-linejoin:miter;stroke-miterlimit:10.43299961;stroke-dasharray:none;stroke-dashoffset:0;stroke-opacity:1"><path
         id="path5546"
         d="m 229.96,708.97 -0.31,0 c -0.55,-1.18 -1.02,-1.44 -2.58,-1.44 l -0.29,0 c -0.54,0 -1,0.05 -1.07,0.13 -0.06,0.03 -0.08,0.15 -0.08,0.34 l 0,2.7 1.68,0 c 0.9,0 1.06,-0.14 1.2,-1.05 l 0.25,0 0,2.53 -0.25,0 c -0.07,-0.44 -0.12,-0.61 -0.24,-0.76 -0.14,-0.19 -0.45,-0.27 -0.96,-0.27 l -1.68,0 0,2.42 c 0,0.31 0.06,0.37 0.36,0.37 l 1.47,0 c 1.24,0 1.48,-0.16 1.66,-1.14 l 0.28,0 -0.03,1.56 -5.81,0 0,-0.21 c 0.81,-0.06 0.95,-0.22 0.95,-0.98 l 0,-4.85 c 0,-0.77 -0.15,-0.93 -0.95,-0.99 l 0,-0.21 5.9,0 z"
         inkscape:connector-curvature="0"
         style="fill:#000000;stroke-width:0" /><path
         id="path5548"
         d="m 230.3,711.47 0.01,0.01 0.01,0 0,0 0.01,0.01 0.01,0 0,0 0.01,0 0.01,0 0.01,0.01 0.01,0 0,0 0.01,0 0.02,0.01 0.02,0 0.02,0 0.02,0 0.02,0 0.02,0.01 0.02,0 0.02,0 0.03,0 0.02,0 c 0.3,0 0.4,-0.17 0.4,-0.7 l 0,-2.71 c 0,-0.62 -0.12,-0.78 -0.68,-0.82 l 0,-0.17 2.32,0 0,0.17 c -0.56,0.04 -0.72,0.17 -0.72,0.57 l 0,3.07 c 0.52,0.49 0.76,0.62 1.12,0.62 0.54,0 0.8,-0.34 0.8,-1.06 l 0,-2.28 c 0,-0.69 -0.14,-0.88 -0.69,-0.92 l 0,-0.17 2.28,0 0,0.17 c -0.54,0.05 -0.67,0.18 -0.67,0.72 l 0,2.5 c 0,1.03 -0.48,1.64 -1.29,1.64 -0.5,0 -0.84,-0.18 -1.58,-0.88 l 0,0.86 -0.08,0.02 c -0.54,-0.19 -0.91,-0.31 -1.51,-0.49 z"
         inkscape:connector-curvature="0"
         style="fill:#000000;stroke-width:0" /><path
         id="path5550"
         d="m 240.07,708.92 -0.05,-0.08 -0.05,-0.07 -0.05,-0.07 -0.05,-0.07 -0.05,-0.07 -0.05,-0.06 -0.04,-0.06 -0.05,-0.05 -0.05,-0.06 -0.05,-0.05 -0.05,-0.05 -0.05,-0.04 -0.05,-0.04 -0.05,-0.04 -0.05,-0.04 -0.05,-0.04 -0.05,-0.03 -0.05,-0.03 -0.05,-0.03 -0.05,-0.03 -0.06,-0.02 -0.05,-0.02 -0.06,-0.02 -0.05,-0.02 -0.06,-0.01 -0.06,-0.02 -0.06,-0.01 -0.06,0 -0.06,-0.01 -0.06,-0.01 -0.06,0 -0.07,0 c -0.62,0 -1.09,0.32 -1.41,0.94 -0.19,0.41 -0.27,0.77 -0.29,1.44 l 0.02,0.35 c 0.12,0.85 0.49,1.26 1.16,1.26 0.66,0 0.93,-0.31 1.07,-1.26 l -2.23,0 -0.02,-0.35 3.36,0 c -0.08,0.71 -0.19,1.03 -0.47,1.38 -0.32,0.39 -0.83,0.62 -1.4,0.62 -0.54,0 -1.06,-0.19 -1.47,-0.57 -0.51,-0.44 -0.81,-1.22 -0.81,-2.12 0,-1.5 0.79,-2.44 2.04,-2.44 1.04,0 1.86,0.64 2.32,1.82 z"
         inkscape:connector-curvature="0"
         style="fill:#000000;stroke-width:0" /><path
         id="path5552"
         d="m 240.55,711.39 0.01,0 0.02,0 0.01,0.01 0.01,0 0.03,0 0.03,0.01 0.02,0 0.02,0 0.03,0.01 0.02,0 0.02,0 0.02,0 0.03,0.01 0.02,0 0.02,0 0.02,0 0.03,0 0.02,0 c 0.28,0 0.37,-0.17 0.37,-0.65 l 0,-2.74 c 0,-0.54 -0.07,-0.62 -0.77,-0.75 l 0,-0.17 2.62,0 0,0.17 c -0.74,0.03 -0.93,0.2 -0.93,0.82 l 0,2.46 c 0,0.35 0.47,0.89 0.77,0.89 0.06,0 0.16,-0.05 0.28,-0.16 0.18,-0.15 0.3,-0.22 0.44,-0.22 0.26,0 0.42,0.19 0.42,0.49 0,0.36 -0.23,0.58 -0.6,0.58 -0.46,0 -0.77,-0.25 -1.31,-1.03 l 0,1.01 -0.05,0.02 c -0.58,-0.24 -0.98,-0.38 -1.62,-0.59 z"
         inkscape:connector-curvature="0"
         style="fill:#000000;stroke-width:0" /><path
         id="path5554"
         d="m 249.06,711.36 0,0.43 -0.84,0 c -0.22,0 -0.38,0.03 -0.6,0.11 l -0.24,0.09 c -0.3,0.11 -0.59,0.16 -0.88,0.16 -1.01,0 -1.82,-0.79 -1.82,-1.78 0,-0.69 0.29,-1.1 1.02,-1.46 -0.21,-0.2 -0.41,-0.39 -0.47,-0.44 -0.36,-0.32 -0.51,-0.54 -0.51,-0.75 0,-0.23 0.13,-0.37 0.58,-0.58 l 0.23,-0.04 c 0.36,-0.07 1.24,-0.14 1.77,-0.14 1,0 1.36,-0.14 1.36,-0.53 0,-0.64 -0.83,-1.06 -2.07,-1.06 -0.96,0 -1.59,0.31 -1.59,0.79 0,0.25 0.07,0.4 0.53,0.94 l 0,0 -0.23,0.04 c -0.77,-0.57 -1.07,-0.93 -1.07,-1.34 0,-0.58 0.85,-1.06 1.89,-1.06 0.82,0 1.67,0.29 2.24,0.75 0.42,0.34 0.6,0.68 0.6,1.1 0,0.68 -0.51,1.14 -1.32,1.17 l -1.41,0.06 c -0.58,0.03 -0.85,0.12 -0.85,0.3 0,0.22 0.36,0.6 0.65,0.69 0.1,-0.01 0.18,-0.02 0.21,-0.02 0.21,-0.03 0.35,-0.04 0.42,-0.04 l 0.04,0.28 c -0.66,0 -1.11,0.71 -1.11,1.76 l 0,0.03 c 0,0.64 0.3,1.03 0.81,1.03 0.33,0 0.62,-0.19 0.79,-0.52 0.2,-0.38 0.33,-0.88 0.33,-1.31 0,-0.61 -0.32,-0.99 -0.82,-0.99 l -0.04,-0.28 c 0.4,0 0.84,0.17 1.18,0.46 0.36,0.31 0.52,0.69 0.52,1.24 0,0.31 -0.05,0.57 -0.21,0.91 z"
         inkscape:connector-curvature="0"
         style="fill:#000000;stroke-width:0" /><path
         id="path5556"
         d="m 254.6,712.04 -1.48,0 0,-0.16 c 0.35,0 0.52,-0.1 0.52,-0.28 0,-0.04 -0.01,-0.1 -0.04,-0.18 l -1.06,-3.02 -1.26,2.77 c -0.06,0.15 -0.1,0.29 -0.1,0.41 0,0.2 0.16,0.28 0.63,0.3 l 0,0.16 -2.25,0 0,-0.15 c 0.28,-0.04 0.47,-0.17 0.56,-0.35 l 1.24,-2.69 0.03,-0.09 0.17,-0.32 c 0.3,-0.55 0.48,-0.94 0.48,-1.11 0,-0.16 -0.25,-0.85 -0.44,-1.18 -0.15,-0.28 -0.39,-0.49 -0.55,-0.49 -0.06,0 -0.16,0.02 -0.27,0.08 -0.21,0.07 -0.39,0.12 -0.58,0.12 -0.25,0 -0.47,-0.22 -0.47,-0.48 0,-0.36 0.35,-0.64 0.81,-0.64 0.73,0 1.26,0.61 1.85,2.19 l 1.68,4.46 c 0.14,0.35 0.26,0.46 0.53,0.49 z"
         inkscape:connector-curvature="0"
         style="fill:#000000;stroke-width:0" /></g>    <g
       ns0:preamble="/media/rob/Daten/Masterarbeit/Thesis/inkscape_preamble.tex"
       ns0:text=" \\fontsize{11pt}{1em}\\selectfont $m_{\\mathrm{e}}=+1$"
       word-spacing="normal"
       letter-spacing="normal"
       font-size-adjust="none"
       font-stretch="normal"
       font-weight="normal"
       font-variant="normal"
       font-style="normal"
       stroke-miterlimit="10.433"
       xml:space="preserve"
       transform="matrix(1.25,0,0,-1.25,223.05442,1642.7281)"
       id="g6251"
       style="font-style:normal;font-variant:normal;font-weight:normal;font-stretch:normal;letter-spacing:normal;word-spacing:normal;text-anchor:start;fill:none;fill-opacity:1;fill-rule:evenodd;stroke:#000000;stroke-linecap:butt;stroke-linejoin:miter;stroke-miterlimit:10.43299961;stroke-dasharray:none;stroke-dashoffset:0;stroke-opacity:1"><path
         id="path6253"
         d="m 230.96,708.4 -0.02,-0.02 -0.02,-0.02 -0.02,-0.03 -0.02,-0.02 -0.01,-0.01 0,-0.01 -0.01,-0.01 -0.01,-0.01 -0.01,-0.01 -0.01,-0.01 0,-0.01 -0.01,-0.01 -0.01,-0.01 -0.01,-0.01 0,-0.01 -0.01,-0.01 -0.01,0 0,-0.01 -0.01,-0.01 0,-0.01 -0.01,0 0,-0.01 -0.01,-0.01 0,0 -0.01,-0.01 0,0 -0.01,-0.01 0,0 c -0.3,-0.39 -0.53,-0.58 -0.7,-0.58 -0.08,0 -0.14,0.07 -0.14,0.18 0,0.05 0.04,0.22 0.11,0.49 l 0.74,2.74 c 0.01,0.04 0.03,0.24 0.03,0.31 0,0.39 -0.27,0.68 -0.64,0.68 -0.21,0 -0.43,-0.07 -0.69,-0.24 -0.53,-0.35 -0.98,-0.87 -1.73,-2.07 0.27,0.83 0.43,1.45 0.43,1.66 0,0.38 -0.25,0.65 -0.62,0.65 -0.67,0 -1.43,-0.72 -2.44,-2.3 l 0.64,2.28 -0.04,0.02 c -0.61,-0.13 -0.84,-0.17 -1.75,-0.34 l 0,-0.17 0.28,0 c 0.28,0 0.42,-0.08 0.42,-0.24 0,-0.12 -0.25,-1.11 -0.64,-2.5 -0.25,-0.9 -0.28,-1.01 -0.43,-1.57 l 0.82,0 c 0.53,1.74 0.69,2.15 1.06,2.72 0.61,0.92 1.27,1.54 1.64,1.54 0.14,0 0.22,-0.1 0.22,-0.28 0,-0.1 -0.35,-1.42 -1.04,-3.98 l 0.82,0 c 0.44,1.71 0.66,2.26 1.21,3.03 0.54,0.75 1.09,1.23 1.4,1.23 0.12,0 0.22,-0.11 0.22,-0.23 0,-0.06 -0.02,-0.19 -0.07,-0.39 l -0.64,-2.51 c -0.1,-0.4 -0.14,-0.61 -0.14,-0.72 0,-0.33 0.15,-0.5 0.44,-0.5 0.51,0 0.99,0.36 1.57,1.17 l 0.05,0.07 z"
         inkscape:connector-curvature="0"
         style="fill:#000000;stroke-width:0" /><path
         id="path6255"
         d="m 234.47,706.73 -0.04,-0.05 -0.03,-0.05 -0.04,-0.05 -0.03,-0.05 -0.03,-0.04 -0.04,-0.05 -0.03,-0.04 -0.03,-0.04 -0.04,-0.03 -0.03,-0.04 -0.04,-0.03 -0.03,-0.04 -0.04,-0.03 -0.03,-0.02 -0.04,-0.03 -0.03,-0.02 -0.04,-0.03 -0.03,-0.02 -0.04,-0.02 -0.04,-0.02 -0.03,-0.01 -0.04,-0.02 -0.04,-0.01 -0.04,-0.01 -0.04,-0.01 -0.04,-0.01 -0.04,-0.01 -0.04,-0.01 -0.05,0 -0.04,-0.01 -0.04,0 -0.05,0 c -0.44,0 -0.77,0.22 -0.99,0.66 -0.14,0.29 -0.19,0.54 -0.2,1.01 l 0.01,0.24 c 0.09,0.6 0.35,0.88 0.81,0.88 0.47,0 0.65,-0.21 0.75,-0.88 l -1.56,0 -0.01,-0.24 2.35,0 c -0.06,0.49 -0.13,0.72 -0.33,0.96 -0.23,0.28 -0.58,0.44 -0.98,0.44 -0.38,0 -0.74,-0.14 -1.03,-0.4 -0.36,-0.32 -0.56,-0.86 -0.56,-1.48 0,-1.06 0.55,-1.71 1.43,-1.71 0.72,0 1.3,0.44 1.62,1.27 z"
         inkscape:connector-curvature="0"
         style="fill:#000000;stroke-width:0" /><polygon
         id="polygon6257"
         points="244.57,710.73 244.57,711.34 238.97,711.34 238.97,710.73 "
         style="fill:#000000;stroke-width:0" /><polygon
         id="polygon6259"
         points="244.57,708.51 244.57,709.12 238.97,709.12 238.97,708.51 "
         style="fill:#000000;stroke-width:0" /><polygon
         id="polygon6261"
         points="251.48,712.71 251.48,710.24 248.99,710.24 248.99,709.63 251.48,709.63 251.48,707.12 252.09,707.12 252.09,709.63 254.58,709.63 254.58,710.24 252.09,710.24 252.09,712.71 "
         style="fill:#000000;stroke-width:0" /><path
         id="path6263"
         d="m 258.46,714.51 -1.97,-0.99 0,-0.16 c 0.13,0.06 0.25,0.1 0.29,0.12 0.2,0.08 0.39,0.12 0.5,0.12 0.23,0 0.32,-0.16 0.32,-0.51 l 0,-4.95 c 0,-0.36 -0.08,-0.61 -0.26,-0.71 -0.16,-0.1 -0.32,-0.13 -0.77,-0.14 l 0,-0.17 3.01,0 0,0.17 c -0.86,0.01 -1.04,0.12 -1.04,0.64 l 0,6.56 z"
         inkscape:connector-curvature="0"
         style="fill:#000000;stroke-width:0" /></g>    <g
       style="font-style:normal;font-variant:normal;font-weight:normal;font-stretch:normal;letter-spacing:normal;word-spacing:normal;text-anchor:start;fill:none;fill-opacity:1;fill-rule:evenodd;stroke:#000000;stroke-linecap:butt;stroke-linejoin:miter;stroke-miterlimit:10.43299961;stroke-dasharray:none;stroke-dashoffset:0;stroke-opacity:1"
       id="g6615"
       transform="matrix(1.25,0,0,-1.25,223.05442,1790.1494)"
       xml:space="preserve"
       stroke-miterlimit="10.433"
       font-style="normal"
       font-variant="normal"
       font-weight="normal"
       font-stretch="normal"
       font-size-adjust="none"
       letter-spacing="normal"
       word-spacing="normal"
       ns0:text=" \\fontsize{11pt}{1em}\\selectfont $m_{\\mathrm{e}}=-1$"
       ns0:preamble="/media/rob/Daten/Masterarbeit/Thesis/inkscape_preamble.tex"><path
         style="fill:#000000;stroke-width:0"
         inkscape:connector-curvature="0"
         d="m 230.96,708.4 -0.02,-0.02 -0.02,-0.02 -0.02,-0.03 -0.02,-0.02 -0.01,-0.01 0,-0.01 -0.01,-0.01 -0.01,-0.01 -0.01,-0.01 -0.01,-0.01 0,-0.01 -0.01,-0.01 -0.01,-0.01 -0.01,-0.01 0,-0.01 -0.01,-0.01 -0.01,0 0,-0.01 -0.01,-0.01 0,-0.01 -0.01,0 0,-0.01 -0.01,-0.01 0,0 -0.01,-0.01 0,0 -0.01,-0.01 0,0 c -0.3,-0.39 -0.53,-0.58 -0.7,-0.58 -0.08,0 -0.14,0.07 -0.14,0.18 0,0.05 0.04,0.22 0.11,0.49 l 0.74,2.74 c 0.01,0.04 0.03,0.24 0.03,0.31 0,0.39 -0.27,0.68 -0.64,0.68 -0.21,0 -0.43,-0.07 -0.69,-0.24 -0.53,-0.35 -0.98,-0.87 -1.73,-2.07 0.27,0.83 0.43,1.45 0.43,1.66 0,0.38 -0.25,0.65 -0.62,0.65 -0.67,0 -1.43,-0.72 -2.44,-2.3 l 0.64,2.28 -0.04,0.02 c -0.61,-0.13 -0.84,-0.17 -1.75,-0.34 l 0,-0.17 0.28,0 c 0.28,0 0.42,-0.08 0.42,-0.24 0,-0.12 -0.25,-1.11 -0.64,-2.5 -0.25,-0.9 -0.28,-1.01 -0.43,-1.57 l 0.82,0 c 0.53,1.74 0.69,2.15 1.06,2.72 0.61,0.92 1.27,1.54 1.64,1.54 0.14,0 0.22,-0.1 0.22,-0.28 0,-0.1 -0.35,-1.42 -1.04,-3.98 l 0.82,0 c 0.44,1.71 0.66,2.26 1.21,3.03 0.54,0.75 1.09,1.23 1.4,1.23 0.12,0 0.22,-0.11 0.22,-0.23 0,-0.06 -0.02,-0.19 -0.07,-0.39 l -0.64,-2.51 c -0.1,-0.4 -0.14,-0.61 -0.14,-0.72 0,-0.33 0.15,-0.5 0.44,-0.5 0.51,0 0.99,0.36 1.57,1.17 l 0.05,0.07 z"
         id="path6617" /><path
         style="fill:#000000;stroke-width:0"
         inkscape:connector-curvature="0"
         d="m 234.47,706.73 -0.04,-0.05 -0.03,-0.05 -0.04,-0.05 -0.03,-0.05 -0.03,-0.04 -0.04,-0.05 -0.03,-0.04 -0.03,-0.04 -0.04,-0.03 -0.03,-0.04 -0.04,-0.03 -0.03,-0.04 -0.04,-0.03 -0.03,-0.02 -0.04,-0.03 -0.03,-0.02 -0.04,-0.03 -0.03,-0.02 -0.04,-0.02 -0.04,-0.02 -0.03,-0.01 -0.04,-0.02 -0.04,-0.01 -0.04,-0.01 -0.04,-0.01 -0.04,-0.01 -0.04,-0.01 -0.04,-0.01 -0.05,0 -0.04,-0.01 -0.04,0 -0.05,0 c -0.44,0 -0.77,0.22 -0.99,0.66 -0.14,0.29 -0.19,0.54 -0.2,1.01 l 0.01,0.24 c 0.09,0.6 0.35,0.88 0.81,0.88 0.47,0 0.65,-0.21 0.75,-0.88 l -1.56,0 -0.01,-0.24 2.35,0 c -0.06,0.49 -0.13,0.72 -0.33,0.96 -0.23,0.28 -0.58,0.44 -0.98,0.44 -0.38,0 -0.74,-0.14 -1.03,-0.4 -0.36,-0.32 -0.56,-0.86 -0.56,-1.48 0,-1.06 0.55,-1.71 1.43,-1.71 0.72,0 1.3,0.44 1.62,1.27 z"
         id="path6619" /><polygon
         style="fill:#000000;stroke-width:0"
         points="238.97,711.34 238.97,710.73 244.57,710.73 244.57,711.34 "
         id="polygon6621" /><polygon
         style="fill:#000000;stroke-width:0"
         points="238.97,709.12 238.97,708.51 244.57,708.51 244.57,709.12 "
         id="polygon6623" /><polygon
         style="fill:#000000;stroke-width:0"
         points="248.98,710.24 248.98,709.63 254.58,709.63 254.58,710.24 "
         id="polygon6625" /><path
         style="fill:#000000;stroke-width:0"
         inkscape:connector-curvature="0"
         d="m 258.46,714.51 -1.97,-0.99 0,-0.16 c 0.13,0.06 0.25,0.1 0.29,0.12 0.2,0.08 0.39,0.12 0.5,0.12 0.23,0 0.32,-0.16 0.32,-0.51 l 0,-4.95 c 0,-0.36 -0.08,-0.61 -0.26,-0.71 -0.16,-0.1 -0.32,-0.13 -0.77,-0.14 l 0,-0.17 3.01,0 0,0.17 c -0.86,0.01 -1.04,0.12 -1.04,0.64 l 0,6.56 z"
         id="path6627" /></g>    <g
       id="g7390"
       transform="matrix(1.25,0,0,-1.25,226.84817,1716.6899)"
       xml:space="preserve"
       stroke-miterlimit="10.433"
       font-style="normal"
       font-variant="normal"
       font-weight="normal"
       font-stretch="normal"
       font-size-adjust="none"
       letter-spacing="normal"
       word-spacing="normal"
       ns0:text="  \\fontsize{11pt}{1em}\\selectfont $m_{\\mathrm{e}}=0$"
       ns0:preamble="/media/rob/Daten/Masterarbeit/Thesis/inkscape_preamble.tex"
       style="font-style:normal;font-variant:normal;font-weight:normal;font-stretch:normal;letter-spacing:normal;word-spacing:normal;text-anchor:start;fill:none;fill-opacity:1;fill-rule:evenodd;stroke:#000000;stroke-linecap:butt;stroke-linejoin:miter;stroke-miterlimit:10.43299961;stroke-dasharray:none;stroke-dashoffset:0;stroke-opacity:1"><path
         d="m 230.96,708.4 -0.02,-0.02 -0.02,-0.02 -0.02,-0.03 -0.02,-0.02 -0.01,-0.01 0,-0.01 -0.01,-0.01 -0.01,-0.01 -0.01,-0.01 -0.01,-0.01 0,-0.01 -0.01,-0.01 -0.01,-0.01 -0.01,-0.01 0,-0.01 -0.01,-0.01 -0.01,0 0,-0.01 -0.01,-0.01 0,-0.01 -0.01,0 0,-0.01 -0.01,-0.01 0,0 -0.01,-0.01 0,0 -0.01,-0.01 0,0 c -0.3,-0.39 -0.53,-0.58 -0.7,-0.58 -0.08,0 -0.14,0.07 -0.14,0.18 0,0.05 0.04,0.22 0.11,0.49 l 0.74,2.74 c 0.01,0.04 0.03,0.24 0.03,0.31 0,0.39 -0.27,0.68 -0.64,0.68 -0.21,0 -0.43,-0.07 -0.69,-0.24 -0.53,-0.35 -0.98,-0.87 -1.73,-2.07 0.27,0.83 0.43,1.45 0.43,1.66 0,0.38 -0.25,0.65 -0.62,0.65 -0.67,0 -1.43,-0.72 -2.44,-2.3 l 0.64,2.28 -0.04,0.02 c -0.61,-0.13 -0.84,-0.17 -1.75,-0.34 l 0,-0.17 0.28,0 c 0.28,0 0.42,-0.08 0.42,-0.24 0,-0.12 -0.25,-1.11 -0.64,-2.5 -0.25,-0.9 -0.28,-1.01 -0.43,-1.57 l 0.82,0 c 0.53,1.74 0.69,2.15 1.06,2.72 0.61,0.92 1.27,1.54 1.64,1.54 0.14,0 0.22,-0.1 0.22,-0.28 0,-0.1 -0.35,-1.42 -1.04,-3.98 l 0.82,0 c 0.44,1.71 0.66,2.26 1.21,3.03 0.54,0.75 1.09,1.23 1.4,1.23 0.12,0 0.22,-0.11 0.22,-0.23 0,-0.06 -0.02,-0.19 -0.07,-0.39 l -0.64,-2.51 c -0.1,-0.4 -0.14,-0.61 -0.14,-0.72 0,-0.33 0.15,-0.5 0.44,-0.5 0.51,0 0.99,0.36 1.57,1.17 l 0.05,0.07 z"
         id="path7392"
         inkscape:connector-curvature="0"
         style="fill:#000000;stroke-width:0" /><path
         d="m 234.47,706.73 -0.04,-0.05 -0.03,-0.05 -0.04,-0.05 -0.03,-0.05 -0.03,-0.04 -0.04,-0.05 -0.03,-0.04 -0.03,-0.04 -0.04,-0.03 -0.03,-0.04 -0.04,-0.03 -0.03,-0.04 -0.04,-0.03 -0.03,-0.02 -0.04,-0.03 -0.03,-0.02 -0.04,-0.03 -0.03,-0.02 -0.04,-0.02 -0.04,-0.02 -0.03,-0.01 -0.04,-0.02 -0.04,-0.01 -0.04,-0.01 -0.04,-0.01 -0.04,-0.01 -0.04,-0.01 -0.04,-0.01 -0.05,0 -0.04,-0.01 -0.04,0 -0.05,0 c -0.44,0 -0.77,0.22 -0.99,0.66 -0.14,0.29 -0.19,0.54 -0.2,1.01 l 0.01,0.24 c 0.09,0.6 0.35,0.88 0.81,0.88 0.47,0 0.65,-0.21 0.75,-0.88 l -1.56,0 -0.01,-0.24 2.35,0 c -0.06,0.49 -0.13,0.72 -0.33,0.96 -0.23,0.28 -0.58,0.44 -0.98,0.44 -0.38,0 -0.74,-0.14 -1.03,-0.4 -0.36,-0.32 -0.56,-0.86 -0.56,-1.48 0,-1.06 0.55,-1.71 1.43,-1.71 0.72,0 1.3,0.44 1.62,1.27 z"
         id="path7394"
         inkscape:connector-curvature="0"
         style="fill:#000000;stroke-width:0" /><polygon
         points="244.57,711.34 238.97,711.34 238.97,710.73 244.57,710.73 "
         id="polygon7396"
         style="fill:#000000;stroke-width:0" /><polygon
         points="244.57,709.12 238.97,709.12 238.97,708.51 244.57,708.51 "
         id="polygon7398"
         style="fill:#000000;stroke-width:0" /><path
         d="m 251.08,714.51 -0.05,0 -0.06,0 -0.05,0 -0.06,-0.01 -0.05,0 -0.05,-0.01 -0.05,0 -0.05,-0.01 -0.05,-0.01 -0.05,-0.01 -0.05,-0.01 -0.05,-0.02 -0.05,-0.01 -0.04,-0.02 -0.05,-0.01 -0.04,-0.02 -0.05,-0.02 -0.04,-0.02 -0.05,-0.02 -0.04,-0.02 -0.04,-0.02 -0.04,-0.03 -0.05,-0.02 -0.04,-0.03 -0.04,-0.02 -0.04,-0.03 -0.04,-0.03 -0.04,-0.03 -0.04,-0.03 -0.04,-0.04 -0.03,-0.03 -0.04,-0.04 c -0.64,-0.61 -1.05,-1.86 -1.05,-3.14 0,-1.2 0.36,-2.47 0.87,-3.08 0.41,-0.49 0.96,-0.75 1.6,-0.75 l 0,0.29 c -0.94,0 -1.42,1.16 -1.42,3.44 0,2.32 0.49,3.53 1.43,3.53 l 0,0 c 0.92,0 1.41,-1.24 1.41,-3.52 0,-2.29 -0.48,-3.45 -1.42,-3.45 l 0,-0.29 c 0.56,0 1.03,0.19 1.42,0.57 0.63,0.6 1.05,1.87 1.05,3.19 0,2.24 -1,3.78 -2.43,3.78 z"
         id="path7400"
         inkscape:connector-curvature="0"
         style="fill:#000000;stroke-width:0" /></g>    <g
       ns0:preamble="/media/rob/Daten/Masterarbeit/Thesis/inkscape_preamble.tex"
       ns0:text="\\fontsize{11pt}{1em}\\selectfont $m_{\\mathrm{g}}=0$"
       word-spacing="normal"
       letter-spacing="normal"
       font-size-adjust="none"
       font-stretch="normal"
       font-weight="normal"
       font-variant="normal"
       font-style="normal"
       stroke-miterlimit="10.433"
       xml:space="preserve"
       transform="matrix(1.25,0,0,-1.25,226.57942,1918.732)"
       id="g7778"
       style="font-style:normal;font-variant:normal;font-weight:normal;font-stretch:normal;letter-spacing:normal;word-spacing:normal;text-anchor:start;fill:none;fill-opacity:1;fill-rule:evenodd;stroke:#000000;stroke-linecap:butt;stroke-linejoin:miter;stroke-miterlimit:10.43299961;stroke-dasharray:none;stroke-dashoffset:0;stroke-opacity:1"><path
         id="path7780"
         d="m 230.96,708.4 -0.02,-0.02 -0.02,-0.02 -0.02,-0.03 -0.02,-0.02 -0.01,-0.01 0,-0.01 -0.01,-0.01 -0.01,-0.01 -0.01,-0.01 -0.01,-0.01 0,-0.01 -0.01,-0.01 -0.01,-0.01 -0.01,-0.01 0,-0.01 -0.01,-0.01 -0.01,0 0,-0.01 -0.01,-0.01 0,-0.01 -0.01,0 0,-0.01 -0.01,-0.01 0,0 -0.01,-0.01 0,0 -0.01,-0.01 0,0 c -0.3,-0.39 -0.53,-0.58 -0.7,-0.58 -0.08,0 -0.14,0.07 -0.14,0.18 0,0.05 0.04,0.22 0.11,0.49 l 0.74,2.74 c 0.01,0.04 0.03,0.24 0.03,0.31 0,0.39 -0.27,0.68 -0.64,0.68 -0.21,0 -0.43,-0.07 -0.69,-0.24 -0.53,-0.35 -0.98,-0.87 -1.73,-2.07 0.27,0.83 0.43,1.45 0.43,1.66 0,0.38 -0.25,0.65 -0.62,0.65 -0.67,0 -1.43,-0.72 -2.44,-2.3 l 0.64,2.28 -0.04,0.02 c -0.61,-0.13 -0.84,-0.17 -1.75,-0.34 l 0,-0.17 0.28,0 c 0.28,0 0.42,-0.08 0.42,-0.24 0,-0.12 -0.25,-1.11 -0.64,-2.5 -0.25,-0.9 -0.28,-1.01 -0.43,-1.57 l 0.82,0 c 0.53,1.74 0.69,2.15 1.06,2.72 0.61,0.92 1.27,1.54 1.64,1.54 0.14,0 0.22,-0.1 0.22,-0.28 0,-0.1 -0.35,-1.42 -1.04,-3.98 l 0.82,0 c 0.44,1.71 0.66,2.26 1.21,3.03 0.54,0.75 1.09,1.23 1.4,1.23 0.12,0 0.22,-0.11 0.22,-0.23 0,-0.06 -0.02,-0.19 -0.07,-0.39 l -0.64,-2.51 c -0.1,-0.4 -0.14,-0.61 -0.14,-0.72 0,-0.33 0.15,-0.5 0.44,-0.5 0.51,0 0.99,0.36 1.57,1.17 l 0.05,0.07 z"
         inkscape:connector-curvature="0"
         style="fill:#000000;stroke-width:0" /><path
         id="path7782"
         d="m 234.94,708.45 0,0.29 -0.59,0 c -0.15,0 -0.27,0.03 -0.42,0.08 l -0.17,0.06 c -0.2,0.08 -0.41,0.12 -0.61,0.12 -0.71,0 -1.28,-0.55 -1.28,-1.25 0,-0.48 0.21,-0.77 0.71,-1.02 -0.14,-0.14 -0.28,-0.27 -0.32,-0.31 -0.26,-0.22 -0.36,-0.37 -0.36,-0.53 0,-0.16 0.09,-0.25 0.41,-0.4 l 0.16,-0.02 c 0.25,-0.06 0.86,-0.1 1.24,-0.1 0.69,0 0.95,-0.1 0.95,-0.38 0,-0.44 -0.58,-0.74 -1.45,-0.74 -0.67,0 -1.12,0.22 -1.12,0.56 0,0.17 0.06,0.27 0.38,0.66 l 0,0 -0.16,0.02 c -0.55,-0.4 -0.75,-0.65 -0.75,-0.93 0,-0.41 0.59,-0.74 1.32,-0.74 0.58,0 1.17,0.19 1.57,0.52 0.29,0.23 0.42,0.48 0.42,0.77 0,0.47 -0.36,0.79 -0.92,0.81 l -0.99,0.05 c -0.41,0.01 -0.6,0.08 -0.6,0.21 0,0.15 0.25,0.42 0.46,0.48 0.07,-0.01 0.12,-0.02 0.15,-0.02 0.14,-0.01 0.24,-0.02 0.29,-0.02 l 0.03,0.19 c -0.46,0 -0.78,0.5 -0.78,1.23 l 0,0.02 c 0,0.46 0.21,0.72 0.56,0.72 0.24,0 0.44,-0.13 0.56,-0.36 0.14,-0.26 0.23,-0.62 0.23,-0.91 0,-0.43 -0.22,-0.7 -0.57,-0.7 l -0.03,-0.19 c 0.28,0 0.59,0.11 0.82,0.32 0.26,0.21 0.37,0.48 0.37,0.86 0,0.23 -0.04,0.4 -0.14,0.65 z"
         inkscape:connector-curvature="0"
         style="fill:#000000;stroke-width:0" /><polygon
         id="polygon7784"
         points="244.99,711.34 239.4,711.34 239.4,710.73 244.99,710.73 "
         style="fill:#000000;stroke-width:0" /><polygon
         id="polygon7786"
         points="244.99,709.12 239.4,709.12 239.4,708.51 244.99,708.51 "
         style="fill:#000000;stroke-width:0" /><path
         id="path7788"
         d="m 251.51,714.51 -0.05,0 -0.06,0 -0.05,0 -0.06,-0.01 -0.05,0 -0.05,-0.01 -0.05,0 -0.05,-0.01 -0.05,-0.01 -0.05,-0.01 -0.05,-0.01 -0.05,-0.02 -0.05,-0.01 -0.04,-0.02 -0.05,-0.01 -0.04,-0.02 -0.05,-0.02 -0.04,-0.02 -0.05,-0.02 -0.04,-0.02 -0.04,-0.02 -0.04,-0.03 -0.05,-0.02 -0.04,-0.03 -0.04,-0.02 -0.04,-0.03 -0.04,-0.03 -0.04,-0.03 -0.04,-0.03 -0.04,-0.04 -0.03,-0.03 -0.04,-0.04 c -0.64,-0.61 -1.05,-1.86 -1.05,-3.14 0,-1.2 0.36,-2.47 0.87,-3.08 0.41,-0.49 0.96,-0.75 1.6,-0.75 l 0,0.29 c -0.94,0 -1.42,1.16 -1.42,3.44 0,2.32 0.49,3.53 1.43,3.53 l 0,0 c 0.92,0 1.41,-1.24 1.41,-3.52 0,-2.29 -0.48,-3.45 -1.42,-3.45 l 0,-0.29 c 0.55,0 1.02,0.19 1.42,0.57 0.63,0.6 1.05,1.87 1.05,3.19 0,2.24 -1,3.78 -2.43,3.78 z"
         inkscape:connector-curvature="0"
         style="fill:#000000;stroke-width:0" /></g>    <g
       id="g8178"
       transform="matrix(1.25,0,0,-1.25,-149.46952,1833.2829)"
       xml:space="preserve"
       stroke-miterlimit="10.433"
       font-style="normal"
       font-variant="normal"
       font-weight="normal"
       font-stretch="normal"
       font-size-adjust="none"
       letter-spacing="normal"
       word-spacing="normal"
       ns0:text="\\fontsize{11pt}{1em}\\selectfont $\\omega_l$"
       ns0:preamble="/media/rob/Daten/Masterarbeit/Thesis/inkscape_preamble.tex"
       style="font-style:normal;font-variant:normal;font-weight:normal;font-stretch:normal;letter-spacing:normal;word-spacing:normal;text-anchor:start;fill:none;fill-opacity:1;fill-rule:evenodd;stroke:#000000;stroke-linecap:butt;stroke-linejoin:miter;stroke-miterlimit:10.43299961;stroke-dasharray:none;stroke-dashoffset:0;stroke-opacity:1"><path
         d="m 230.72,709.89 0,0.11 -0.01,0.1 -0.01,0.1 -0.01,0.1 -0.02,0.1 -0.02,0.09 -0.02,0.1 -0.03,0.09 -0.02,0.08 -0.03,0.09 -0.03,0.08 -0.04,0.08 -0.03,0.08 -0.04,0.08 -0.03,0.07 -0.04,0.07 -0.03,0.06 -0.04,0.06 -0.04,0.06 -0.03,0.06 -0.04,0.05 -0.03,0.05 -0.04,0.05 -0.03,0.04 -0.03,0.04 -0.03,0.04 -0.02,0.03 -0.03,0.02 -0.02,0.03 -0.01,0.02 -0.02,0.01 -0.01,0.01 -0.36,0 c 0.08,-0.13 0.34,-0.65 0.34,-1.43 0,-1.28 -0.83,-3.06 -1.91,-3.06 -0.41,0 -0.69,0.23 -0.69,0.63 0,1.09 0.59,2.12 0.59,2.37 0,0.04 -0.02,0.06 -0.07,0.06 l -0.52,0 c -0.34,0 -0.08,-3.06 -1.77,-3.06 -0.78,0 -0.82,0.77 -0.82,1.06 0,1.74 1.28,3.2 1.5,3.43 l -0.37,0 c -0.01,0 -2.13,-1.43 -2.13,-3.39 0,-0.68 0.36,-1.54 1.5,-1.54 1.34,0 1.74,1.11 1.74,1.12 l 0.01,0 c 0,-0.01 -0.02,-0.1 -0.02,-0.24 0,-0.34 0.14,-0.88 1.1,-0.88 1.39,0 2.71,1.48 2.71,2.88 z"
         id="path8180"
         inkscape:connector-curvature="0"
         style="fill:#000000;stroke-width:0" /><path
         d="m 232.75,706.42 -0.05,-0.06 -0.03,-0.03 -0.02,-0.04 -0.03,-0.03 -0.03,-0.03 -0.02,-0.03 -0.03,-0.04 c -0.24,-0.32 -0.39,-0.43 -0.53,-0.43 -0.07,0 -0.11,0.05 -0.11,0.13 0,0.06 0.02,0.15 0.06,0.3 0.01,0.02 0.02,0.06 0.03,0.08 l 1.15,4.42 -0.04,0.04 c -0.45,-0.1 -0.74,-0.15 -1.19,-0.21 l 0,-0.12 c 0.36,0 0.52,-0.05 0.52,-0.17 0,-0.03 -0.01,-0.07 -0.03,-0.14 l -1.05,-4.04 c -0.02,-0.08 -0.04,-0.16 -0.04,-0.19 0,-0.28 0.13,-0.43 0.38,-0.43 0.39,0 0.66,0.22 1.16,0.95 z"
         id="path8182"
         inkscape:connector-curvature="0"
         style="fill:#000000;stroke-width:0" /></g>    <g
       ns0:preamble="/media/rob/Daten/Masterarbeit/Thesis/inkscape_preamble.tex"
       ns0:text="\\fontsize{11pt}{1em}\\selectfont $\\delta$"
       word-spacing="normal"
       letter-spacing="normal"
       font-size-adjust="none"
       font-stretch="normal"
       font-weight="normal"
       font-variant="normal"
       font-style="normal"
       stroke-miterlimit="10.433"
       xml:space="preserve"
       transform="matrix(1.25,0,0,-1.25,-134.38805,1764.4614)"
       id="g8578"
       style="font-style:normal;font-variant:normal;font-weight:normal;font-stretch:normal;letter-spacing:normal;word-spacing:normal;text-anchor:start;fill:none;fill-opacity:1;fill-rule:evenodd;stroke:#000000;stroke-linecap:butt;stroke-linejoin:miter;stroke-miterlimit:10.43299961;stroke-dasharray:none;stroke-dashoffset:0;stroke-opacity:1"><path
         id="path8580"
         d="m 228.48,713.68 0,0.03 -0.01,0.03 0,0.03 -0.01,0.04 -0.02,0.03 -0.01,0.02 -0.02,0.03 -0.02,0.03 -0.03,0.03 -0.02,0.03 -0.03,0.02 -0.04,0.03 -0.03,0.02 -0.04,0.03 -0.04,0.02 -0.04,0.02 -0.05,0.02 -0.05,0.02 -0.05,0.02 -0.05,0.02 -0.06,0.01 -0.06,0.02 -0.06,0.01 -0.06,0.01 -0.07,0.02 -0.07,0.01 -0.07,0 -0.07,0.01 -0.08,0.01 -0.07,0 -0.09,0 -0.08,0 c -0.87,0 -1.58,-0.49 -1.58,-1.15 0,-0.73 0.75,-1.51 0.75,-1.52 l 0.21,-0.23 c 0,-0.01 0.57,-0.71 0.57,-1.6 l 0,0 c 0,-1.41 -0.91,-2.56 -1.65,-2.56 -0.62,0 -0.83,0.84 -0.83,1.45 0,2.52 1.9,2.71 1.91,2.71 l -0.21,0.23 c -0.01,0 -2.62,-0.43 -2.62,-2.91 0,-0.74 0.38,-1.76 1.49,-1.76 1.55,0 2.78,1.42 2.78,3.2 0,1.82 -1.99,2.05 -1.99,3.11 0,0.49 0.58,0.7 0.93,0.7 1.03,0 0.8,-0.63 1.26,-0.63 0.23,0 0.38,0.16 0.38,0.34 z"
         inkscape:connector-curvature="0"
         style="fill:#000000;stroke-width:0" /></g>    <g
       id="g8980"
       transform="matrix(1.25,0,0,-1.25,174.26406,1730.102)"
       xml:space="preserve"
       stroke-miterlimit="10.433"
       font-style="normal"
       font-variant="normal"
       font-weight="normal"
       font-stretch="normal"
       font-size-adjust="none"
       letter-spacing="normal"
       word-spacing="normal"
       ns0:text="\\fontsize{11pt}{1em}\\selectfont $\\delta_+$"
       ns0:preamble="/media/rob/Daten/Masterarbeit/Thesis/inkscape_preamble.tex"
       style="font-style:normal;font-variant:normal;font-weight:normal;font-stretch:normal;letter-spacing:normal;word-spacing:normal;text-anchor:start;fill:none;fill-opacity:1;fill-rule:evenodd;stroke:#000000;stroke-linecap:butt;stroke-linejoin:miter;stroke-miterlimit:10.43299961;stroke-dasharray:none;stroke-dashoffset:0;stroke-opacity:1"><path
         d="m 228.48,713.68 0,0.03 -0.01,0.03 0,0.03 -0.01,0.04 -0.02,0.03 -0.01,0.02 -0.02,0.03 -0.02,0.03 -0.03,0.03 -0.02,0.03 -0.03,0.02 -0.04,0.03 -0.03,0.02 -0.04,0.03 -0.04,0.02 -0.04,0.02 -0.05,0.02 -0.05,0.02 -0.05,0.02 -0.05,0.02 -0.06,0.01 -0.06,0.02 -0.06,0.01 -0.06,0.01 -0.07,0.02 -0.07,0.01 -0.07,0 -0.07,0.01 -0.08,0.01 -0.07,0 -0.09,0 -0.08,0 c -0.87,0 -1.58,-0.49 -1.58,-1.15 0,-0.73 0.75,-1.51 0.75,-1.52 l 0.21,-0.23 c 0,-0.01 0.57,-0.71 0.57,-1.6 l 0,0 c 0,-1.41 -0.91,-2.56 -1.65,-2.56 -0.62,0 -0.83,0.84 -0.83,1.45 0,2.52 1.9,2.71 1.91,2.71 l -0.21,0.23 c -0.01,0 -2.62,-0.43 -2.62,-2.91 0,-0.74 0.38,-1.76 1.49,-1.76 1.55,0 2.78,1.42 2.78,3.2 0,1.82 -1.99,2.05 -1.99,3.11 0,0.49 0.58,0.7 0.93,0.7 1.03,0 0.8,-0.63 1.26,-0.63 0.23,0 0.38,0.16 0.38,0.34 z"
         id="path8982"
         inkscape:connector-curvature="0"
         style="fill:#000000;stroke-width:0" /><polygon
         points="230.75,705.48 231.18,705.48 231.18,707.23 232.92,707.23 232.92,707.66 231.18,707.66 231.18,709.39 230.75,709.39 230.75,707.66 229,707.66 229,707.23 230.75,707.23 "
         id="polygon8984"
         style="fill:#000000;stroke-width:0" /></g>    <g
       ns0:preamble="/media/rob/Daten/Masterarbeit/Thesis/inkscape_preamble.tex"
       ns0:text="\\fontsize{11pt}{1em}\\selectfont $\\delta_-$"
       word-spacing="normal"
       letter-spacing="normal"
       font-size-adjust="none"
       font-stretch="normal"
       font-weight="normal"
       font-variant="normal"
       font-style="normal"
       stroke-miterlimit="10.433"
       xml:space="preserve"
       transform="matrix(1.25,0,0,-1.25,211.03361,1774.0477)"
       id="g9390"
       style="font-style:normal;font-variant:normal;font-weight:normal;font-stretch:normal;letter-spacing:normal;word-spacing:normal;text-anchor:start;fill:none;fill-opacity:1;fill-rule:evenodd;stroke:#000000;stroke-linecap:butt;stroke-linejoin:miter;stroke-miterlimit:10.43299961;stroke-dasharray:none;stroke-dashoffset:0;stroke-opacity:1"><path
         id="path9392"
         d="m 228.48,713.68 0,0.03 -0.01,0.03 0,0.03 -0.01,0.04 -0.02,0.03 -0.01,0.02 -0.02,0.03 -0.02,0.03 -0.03,0.03 -0.02,0.03 -0.03,0.02 -0.04,0.03 -0.03,0.02 -0.04,0.03 -0.04,0.02 -0.04,0.02 -0.05,0.02 -0.05,0.02 -0.05,0.02 -0.05,0.02 -0.06,0.01 -0.06,0.02 -0.06,0.01 -0.06,0.01 -0.07,0.02 -0.07,0.01 -0.07,0 -0.07,0.01 -0.08,0.01 -0.07,0 -0.09,0 -0.08,0 c -0.87,0 -1.58,-0.49 -1.58,-1.15 0,-0.73 0.75,-1.51 0.75,-1.52 l 0.21,-0.23 c 0,-0.01 0.57,-0.71 0.57,-1.6 l 0,0 c 0,-1.41 -0.91,-2.56 -1.65,-2.56 -0.62,0 -0.83,0.84 -0.83,1.45 0,2.52 1.9,2.71 1.91,2.71 l -0.21,0.23 c -0.01,0 -2.62,-0.43 -2.62,-2.91 0,-0.74 0.38,-1.76 1.49,-1.76 1.55,0 2.78,1.42 2.78,3.2 0,1.82 -1.99,2.05 -1.99,3.11 0,0.49 0.58,0.7 0.93,0.7 1.03,0 0.8,-0.63 1.26,-0.63 0.23,0 0.38,0.16 0.38,0.34 z"
         inkscape:connector-curvature="0"
         style="fill:#000000;stroke-width:0" /><polygon
         id="polygon9394"
         points="232.92,707.23 232.92,707.66 229,707.66 229,707.23 "
         style="fill:#000000;stroke-width:0" /></g>    <g
       id="g9806"
       transform="matrix(1.25,0,0,-1.25,157.00888,1881.0296)"
       xml:space="preserve"
       stroke-miterlimit="10.433"
       font-style="normal"
       font-variant="normal"
       font-weight="normal"
       font-stretch="normal"
       font-size-adjust="none"
       letter-spacing="normal"
       word-spacing="normal"
       ns0:text="\\fontsize{11pt}{1em}\\selectfont $\\sigma_-$ beam"
       ns0:preamble="/media/rob/Daten/Masterarbeit/Thesis/inkscape_preamble.tex"
       style="font-style:normal;font-variant:normal;font-weight:normal;font-stretch:normal;letter-spacing:normal;word-spacing:normal;text-anchor:start;fill:none;fill-opacity:1;fill-rule:evenodd;stroke:#000000;stroke-linecap:butt;stroke-linejoin:miter;stroke-miterlimit:10.43299961;stroke-dasharray:none;stroke-dashoffset:0;stroke-opacity:1"><path
         d="m 230.82,711.94 -3.99,0 c -1.65,0 -3.12,-1.37 -3.12,-3.21 0,-1.1 0.58,-1.72 1.7,-1.72 l 0.15,0.27 c -0.84,0 -0.95,1.09 -0.95,1.42 0,2.11 1.13,2.95 1.94,2.95 0.4,0 1.05,-0.11 1.05,-1.41 l 0,0 c 0,-1.63 -0.91,-2.96 -2.04,-2.96 l -0.15,-0.27 c 1.34,0 3.02,1.29 3.02,3.24 0,0.62 -0.21,0.86 -0.21,0.87 l 2.38,0 z"
         id="path9808"
         inkscape:connector-curvature="0"
         style="fill:#000000;stroke-width:0" /><polygon
         points="235.27,707.66 231.35,707.66 231.35,707.23 235.27,707.23 "
         id="polygon9810"
         style="fill:#000000;stroke-width:0" /><path
         d="m 240.66,714.57 -0.05,0.02 c -0.46,-0.17 -0.76,-0.25 -1.27,-0.39 l -0.32,-0.09 0,-0.18 c 0.07,0.01 0.11,0.01 0.19,0.01 0.44,0 0.53,-0.1 0.53,-0.55 l 0,-5.67 c 0,-0.34 0.93,-0.7 1.81,-0.7 l 0.17,0.34 c -0.57,0 -1.06,0.26 -1.06,0.53 l 0,2.75 c 0,0.43 0.52,0.82 1.08,0.82 0.86,0 1.4,-0.85 1.4,-2.18 0,-1.21 -0.52,-1.92 -1.42,-1.92 l -0.17,-0.34 c 1.44,0 2.55,1.2 2.55,2.76 0,1.34 -0.83,2.37 -1.92,2.37 -0.67,0 -1.3,-0.39 -1.52,-0.93 z"
         id="path9812"
         inkscape:connector-curvature="0"
         style="fill:#000000;stroke-width:0" /><path
         d="m 248.93,708.92 -0.05,-0.08 -0.05,-0.07 -0.05,-0.07 -0.05,-0.07 -0.05,-0.07 -0.04,-0.06 -0.05,-0.06 -0.05,-0.05 -0.05,-0.06 -0.05,-0.05 -0.05,-0.05 -0.04,-0.04 -0.05,-0.04 -0.05,-0.04 -0.05,-0.04 -0.05,-0.04 -0.05,-0.03 -0.06,-0.03 -0.05,-0.03 -0.05,-0.03 -0.05,-0.02 -0.06,-0.02 -0.05,-0.02 -0.06,-0.02 -0.06,-0.01 -0.06,-0.02 -0.05,-0.01 -0.06,0 -0.07,-0.01 -0.06,-0.01 -0.06,0 -0.07,0 c -0.62,0 -1.09,0.32 -1.41,0.94 -0.19,0.41 -0.27,0.77 -0.29,1.44 l 0.02,0.35 c 0.12,0.85 0.49,1.26 1.16,1.26 0.67,0 0.93,-0.31 1.07,-1.26 l -2.23,0 -0.02,-0.35 3.37,0 c -0.09,0.71 -0.2,1.03 -0.47,1.38 -0.33,0.39 -0.83,0.62 -1.4,0.62 -0.55,0 -1.06,-0.19 -1.48,-0.57 -0.51,-0.44 -0.81,-1.22 -0.81,-2.12 0,-1.5 0.79,-2.44 2.05,-2.44 1.03,0 1.85,0.64 2.31,1.82 z"
         id="path9814"
         inkscape:connector-curvature="0"
         style="fill:#000000;stroke-width:0" /><path
         d="m 254.16,707.85 -0.01,-0.02 -0.02,-0.01 -0.02,-0.01 -0.01,-0.02 -0.02,-0.01 -0.01,-0.01 -0.02,-0.01 -0.02,-0.01 -0.01,-0.01 -0.02,-0.01 -0.01,-0.01 -0.02,-0.01 -0.01,0 -0.01,-0.01 -0.02,-0.01 -0.01,0 -0.02,-0.01 -0.01,-0.01 -0.02,0 -0.01,-0.01 -0.01,0 -0.02,0 -0.01,-0.01 -0.02,0 -0.03,-0.01 -0.03,0 -0.03,0 -0.03,0 c -0.25,0 -0.32,0.15 -0.32,0.63 l 0,2.13 c 0,0.57 -0.06,0.89 -0.22,1.15 -0.24,0.39 -0.71,0.6 -1.36,0.6 -1.02,0 -1.83,-0.53 -1.83,-1.22 0,-0.25 0.22,-0.47 0.47,-0.47 0.26,0 0.49,0.22 0.49,0.46 0,0.04 -0.01,0.1 -0.02,0.17 -0.02,0.1 -0.04,0.19 -0.04,0.26 0,0.3 0.35,0.54 0.79,0.54 0.54,0 0.83,-0.32 0.83,-0.91 l 0,-0.66 0,-0.27 0,-1.58 c 0,-0.34 -0.05,-0.44 -0.28,-0.57 -0.26,-0.15 -0.57,-0.25 -0.8,-0.25 -0.38,0 -0.69,0.37 -0.69,0.84 l 0,0.04 c 0,0.65 0.45,1.04 1.77,1.52 l 0,0.27 c -1.68,-0.68 -1.87,-0.77 -2.34,-1.18 -0.24,-0.22 -0.39,-0.59 -0.39,-0.96 0,-0.68 0.48,-1.16 1.15,-1.16 0.48,0 0.93,0.22 1.59,0.79 0.06,-0.57 0.25,-0.79 0.7,-0.79 0.37,0 0.6,0.13 0.98,0.54 z"
         id="path9816"
         inkscape:connector-curvature="0"
         style="fill:#000000;stroke-width:0" /><path
         d="m 254.41,711.47 0.01,0.01 0.01,0 0.02,0 0.01,0.01 0.01,0 0.01,0 0.03,0 0.02,0.01 0.02,0 0.02,0.01 0.02,0 0.02,0 0.02,0 0.02,0 0.02,0.01 0.02,0 0.02,0 0.03,0 0.02,0 c 0.28,0 0.38,-0.18 0.38,-0.7 l 0,-2.77 c 0,-0.59 -0.15,-0.75 -0.76,-0.76 l 0,-0.17 2.42,0 0,0.17 c -0.58,0.02 -0.74,0.14 -0.74,0.57 l 0,3.08 c 0,0.02 0.09,0.13 0.16,0.21 0.28,0.25 0.74,0.43 1.13,0.43 0.48,0 0.72,-0.38 0.72,-1.14 l 0,-2.37 c 0,-0.62 -0.12,-0.74 -0.74,-0.78 l 0,-0.17 2.44,0 0,0.17 c -0.62,0.01 -0.78,0.2 -0.78,0.87 l 0,2.76 c 0.33,0.47 0.68,0.66 1.19,0.66 0.62,0 0.82,-0.29 0.82,-1.2 l 0,-2.3 c 0,-0.63 -0.09,-0.72 -0.72,-0.79 l 0,-0.17 2.39,0 0,0.17 -0.28,0.02 c -0.33,0.02 -0.47,0.22 -0.47,0.65 l 0,2.25 c 0,1.29 -0.43,1.94 -1.27,1.94 -0.64,0 -1.19,-0.28 -1.78,-0.92 -0.2,0.63 -0.57,0.92 -1.16,0.92 -0.48,0 -0.79,-0.15 -1.69,-0.84 l 0,0.82 -0.08,0.02 c -0.56,-0.21 -0.93,-0.33 -1.53,-0.49 z"
         id="path9818"
         inkscape:connector-curvature="0"
         style="fill:#000000;stroke-width:0" /></g>    <g
       ns0:preamble="/media/rob/Daten/Masterarbeit/Thesis/inkscape_preamble.tex"
       ns0:text="\\fontsize{11pt}{1em}\\selectfont $\\sigma_+$ beam"
       word-spacing="normal"
       letter-spacing="normal"
       font-size-adjust="none"
       font-stretch="normal"
       font-weight="normal"
       font-variant="normal"
       font-style="normal"
       stroke-miterlimit="10.433"
       xml:space="preserve"
       transform="matrix(1.25,0,0,-1.25,-267.45071,1880.0733)"
       id="g10244"
       style="font-style:normal;font-variant:normal;font-weight:normal;font-stretch:normal;letter-spacing:normal;word-spacing:normal;text-anchor:start;fill:none;fill-opacity:1;fill-rule:evenodd;stroke:#000000;stroke-linecap:butt;stroke-linejoin:miter;stroke-miterlimit:10.43299961;stroke-dasharray:none;stroke-dashoffset:0;stroke-opacity:1"><path
         id="path10246"
         d="m 230.82,711.94 -3.99,0 c -1.65,0 -3.12,-1.37 -3.12,-3.21 0,-1.1 0.58,-1.72 1.7,-1.72 l 0.15,0.27 c -0.84,0 -0.95,1.09 -0.95,1.42 0,2.11 1.13,2.95 1.94,2.95 0.4,0 1.05,-0.11 1.05,-1.41 l 0,0 c 0,-1.63 -0.91,-2.96 -2.04,-2.96 l -0.15,-0.27 c 1.34,0 3.02,1.29 3.02,3.24 0,0.62 -0.21,0.86 -0.21,0.87 l 2.38,0 z"
         inkscape:connector-curvature="0"
         style="fill:#000000;stroke-width:0" /><polygon
         id="polygon10248"
         points="233.09,709.39 233.09,707.66 231.35,707.66 231.35,707.23 233.09,707.23 233.09,705.48 233.52,705.48 233.52,707.23 235.27,707.23 235.27,707.66 233.52,707.66 233.52,709.39 "
         style="fill:#000000;stroke-width:0" /><path
         id="path10250"
         d="m 240.66,714.57 -0.05,0.02 c -0.46,-0.17 -0.76,-0.25 -1.27,-0.39 l -0.32,-0.09 0,-0.18 c 0.07,0.01 0.11,0.01 0.19,0.01 0.44,0 0.53,-0.1 0.53,-0.55 l 0,-5.67 c 0,-0.34 0.93,-0.7 1.81,-0.7 l 0.17,0.34 c -0.57,0 -1.06,0.26 -1.06,0.53 l 0,2.75 c 0,0.43 0.52,0.82 1.08,0.82 0.86,0 1.4,-0.85 1.4,-2.18 0,-1.21 -0.52,-1.92 -1.42,-1.92 l -0.17,-0.34 c 1.44,0 2.55,1.2 2.55,2.76 0,1.34 -0.83,2.37 -1.92,2.37 -0.67,0 -1.3,-0.39 -1.52,-0.93 z"
         inkscape:connector-curvature="0"
         style="fill:#000000;stroke-width:0" /><path
         id="path10252"
         d="m 248.93,708.92 -0.05,-0.08 -0.05,-0.07 -0.05,-0.07 -0.05,-0.07 -0.05,-0.07 -0.04,-0.06 -0.05,-0.06 -0.05,-0.05 -0.05,-0.06 -0.05,-0.05 -0.05,-0.05 -0.04,-0.04 -0.05,-0.04 -0.05,-0.04 -0.05,-0.04 -0.05,-0.04 -0.05,-0.03 -0.06,-0.03 -0.05,-0.03 -0.05,-0.03 -0.05,-0.02 -0.06,-0.02 -0.05,-0.02 -0.06,-0.02 -0.06,-0.01 -0.06,-0.02 -0.05,-0.01 -0.06,0 -0.07,-0.01 -0.06,-0.01 -0.06,0 -0.07,0 c -0.62,0 -1.09,0.32 -1.41,0.94 -0.19,0.41 -0.27,0.77 -0.29,1.44 l 0.02,0.35 c 0.12,0.85 0.49,1.26 1.16,1.26 0.67,0 0.93,-0.31 1.07,-1.26 l -2.23,0 -0.02,-0.35 3.37,0 c -0.09,0.71 -0.2,1.03 -0.47,1.38 -0.33,0.39 -0.83,0.62 -1.4,0.62 -0.55,0 -1.06,-0.19 -1.48,-0.57 -0.51,-0.44 -0.81,-1.22 -0.81,-2.12 0,-1.5 0.79,-2.44 2.05,-2.44 1.03,0 1.85,0.64 2.31,1.82 z"
         inkscape:connector-curvature="0"
         style="fill:#000000;stroke-width:0" /><path
         id="path10254"
         d="m 254.16,707.85 -0.01,-0.02 -0.02,-0.01 -0.02,-0.01 -0.01,-0.02 -0.02,-0.01 -0.01,-0.01 -0.02,-0.01 -0.02,-0.01 -0.01,-0.01 -0.02,-0.01 -0.01,-0.01 -0.02,-0.01 -0.01,0 -0.01,-0.01 -0.02,-0.01 -0.01,0 -0.02,-0.01 -0.01,-0.01 -0.02,0 -0.01,-0.01 -0.01,0 -0.02,0 -0.01,-0.01 -0.02,0 -0.03,-0.01 -0.03,0 -0.03,0 -0.03,0 c -0.25,0 -0.32,0.15 -0.32,0.63 l 0,2.13 c 0,0.57 -0.06,0.89 -0.22,1.15 -0.24,0.39 -0.71,0.6 -1.36,0.6 -1.02,0 -1.83,-0.53 -1.83,-1.22 0,-0.25 0.22,-0.47 0.47,-0.47 0.26,0 0.49,0.22 0.49,0.46 0,0.04 -0.01,0.1 -0.02,0.17 -0.02,0.1 -0.04,0.19 -0.04,0.26 0,0.3 0.35,0.54 0.79,0.54 0.54,0 0.83,-0.32 0.83,-0.91 l 0,-0.66 0,-0.27 0,-1.58 c 0,-0.34 -0.05,-0.44 -0.28,-0.57 -0.26,-0.15 -0.57,-0.25 -0.8,-0.25 -0.38,0 -0.69,0.37 -0.69,0.84 l 0,0.04 c 0,0.65 0.45,1.04 1.77,1.52 l 0,0.27 c -1.68,-0.68 -1.87,-0.77 -2.34,-1.18 -0.24,-0.22 -0.39,-0.59 -0.39,-0.96 0,-0.68 0.48,-1.16 1.15,-1.16 0.48,0 0.93,0.22 1.59,0.79 0.06,-0.57 0.25,-0.79 0.7,-0.79 0.37,0 0.6,0.13 0.98,0.54 z"
         inkscape:connector-curvature="0"
         style="fill:#000000;stroke-width:0" /><path
         id="path10256"
         d="m 254.41,711.47 0.01,0.01 0.01,0 0.02,0 0.01,0.01 0.01,0 0.01,0 0.03,0 0.02,0.01 0.02,0 0.02,0.01 0.02,0 0.02,0 0.02,0 0.02,0 0.02,0.01 0.02,0 0.02,0 0.03,0 0.02,0 c 0.28,0 0.38,-0.18 0.38,-0.7 l 0,-2.77 c 0,-0.59 -0.15,-0.75 -0.76,-0.76 l 0,-0.17 2.42,0 0,0.17 c -0.58,0.02 -0.74,0.14 -0.74,0.57 l 0,3.08 c 0,0.02 0.09,0.13 0.16,0.21 0.28,0.25 0.74,0.43 1.13,0.43 0.48,0 0.72,-0.38 0.72,-1.14 l 0,-2.37 c 0,-0.62 -0.12,-0.74 -0.74,-0.78 l 0,-0.17 2.44,0 0,0.17 c -0.62,0.01 -0.78,0.2 -0.78,0.87 l 0,2.76 c 0.33,0.47 0.68,0.66 1.19,0.66 0.62,0 0.82,-0.29 0.82,-1.2 l 0,-2.3 c 0,-0.63 -0.09,-0.72 -0.72,-0.79 l 0,-0.17 2.39,0 0,0.17 -0.28,0.02 c -0.33,0.02 -0.47,0.22 -0.47,0.65 l 0,2.25 c 0,1.29 -0.43,1.94 -1.27,1.94 -0.64,0 -1.19,-0.28 -1.78,-0.92 -0.2,0.63 -0.57,0.92 -1.16,0.92 -0.48,0 -0.79,-0.15 -1.69,-0.84 l 0,0.82 -0.08,0.02 c -0.56,-0.21 -0.93,-0.33 -1.53,-0.49 z"
         inkscape:connector-curvature="0"
         style="fill:#000000;stroke-width:0" /></g>    <g
       id="content"
       transform="matrix(1.25,0,0,-1.25,109.52744,1933.8259)"
       xml:space="preserve"
       stroke-miterlimit="10.433"
       font-style="normal"
       font-variant="normal"
       font-weight="normal"
       font-stretch="normal"
       font-size-adjust="none"
       letter-spacing="normal"
       word-spacing="normal"
       ns0:text="\\fontsize{11pt}{1em}\\selectfont z\'"
       ns0:preamble="/media/rob/Daten/Masterarbeit/Thesis/inkscape_preamble.tex"
       style="font-style:normal;font-variant:normal;font-weight:normal;font-stretch:normal;letter-spacing:normal;word-spacing:normal;text-anchor:start;fill:none;fill-opacity:1;fill-rule:evenodd;stroke:#000000;stroke-linecap:butt;stroke-linejoin:miter;stroke-miterlimit:10.43299961;stroke-dasharray:none;stroke-dashoffset:0;stroke-opacity:1"><path
         d="m 228,708.6 -0.2,0.04 c -0.11,-0.54 -0.17,-0.72 -0.31,-0.9 -0.16,-0.19 -0.53,-0.29 -1.09,-0.29 l -1.5,0 2.94,4.43 0,0.16 -3.8,0 -0.03,-1.29 0.2,0 c 0.1,0.8 0.26,0.96 0.92,0.96 l 1.5,0 -2.9,-4.42 0,-0.17 4.12,0 z"
         id="path10687"
         inkscape:connector-curvature="0"
         style="fill:#000000;stroke-width:0" /><path
         d="m 229.46,711.86 0.06,0.03 0.07,0.04 0.07,0.04 0.06,0.04 0.06,0.04 0.06,0.04 0.06,0.04 0.06,0.05 0.05,0.05 0.05,0.04 0.06,0.05 0.04,0.05 0.05,0.06 0.05,0.05 0.04,0.05 0.04,0.06 0.04,0.05 0.04,0.06 0.03,0.06 0.04,0.05 0.03,0.06 0.02,0.06 0.03,0.06 0.02,0.06 0.02,0.06 0.02,0.06 0.01,0.06 0.02,0.06 0.01,0.06 0,0.07 0.01,0.06 0,0.06 c 0,0.55 -0.38,0.97 -0.87,0.97 -0.39,0 -0.65,-0.25 -0.65,-0.62 0,-0.35 0.25,-0.56 0.65,-0.56 0.06,0 0.14,0.01 0.2,0.02 0.08,0.03 0.08,0.03 0.09,0.03 0.09,0 0.15,-0.07 0.15,-0.16 0,-0.36 -0.3,-0.75 -0.89,-1.16 z"
         id="path10689"
         inkscape:connector-curvature="0"
         style="fill:#000000;stroke-width:0" /></g>    <g
       ns0:preamble="/media/rob/Daten/Masterarbeit/Thesis/inkscape_preamble.tex"
       ns0:text="\\fontsize{11pt}{1em}\\selectfont 0"
       word-spacing="normal"
       letter-spacing="normal"
       font-size-adjust="none"
       font-stretch="normal"
       font-weight="normal"
       font-variant="normal"
       font-style="normal"
       stroke-miterlimit="10.433"
       xml:space="preserve"
       transform="matrix(1.25,0,0,-1.25,-33.93342,1933.7322)"
       id="g4506"
       style="font-style:normal;font-variant:normal;font-weight:normal;font-stretch:normal;letter-spacing:normal;word-spacing:normal;text-anchor:start;fill:none;fill-opacity:1;fill-rule:evenodd;stroke:#000000;stroke-linecap:butt;stroke-linejoin:miter;stroke-miterlimit:10.43299961;stroke-dasharray:none;stroke-dashoffset:0;stroke-opacity:1"><path
         id="path4508"
         d="m 226.21,714.51 -0.06,0 -0.05,0 -0.06,0 -0.05,-0.01 -0.05,0 -0.06,-0.01 -0.05,0 -0.05,-0.01 -0.05,-0.01 -0.05,-0.01 -0.05,-0.01 -0.04,-0.02 -0.05,-0.01 -0.05,-0.02 -0.04,-0.01 -0.05,-0.02 -0.04,-0.02 -0.05,-0.02 -0.04,-0.02 -0.04,-0.02 -0.05,-0.02 -0.04,-0.03 -0.04,-0.02 -0.04,-0.03 -0.04,-0.02 -0.04,-0.03 -0.04,-0.03 -0.04,-0.03 -0.04,-0.03 -0.04,-0.04 -0.04,-0.03 -0.04,-0.04 c -0.63,-0.61 -1.05,-1.86 -1.05,-3.14 0,-1.2 0.36,-2.47 0.88,-3.08 0.4,-0.49 0.96,-0.75 1.59,-0.75 l 0,0.29 c -0.94,0 -1.42,1.16 -1.42,3.44 0,2.32 0.5,3.53 1.44,3.53 l 0,0 c 0.91,0 1.4,-1.24 1.4,-3.52 0,-2.29 -0.48,-3.45 -1.42,-3.45 l 0,-0.29 c 0.56,0 1.03,0.19 1.42,0.57 0.64,0.6 1.05,1.87 1.05,3.19 0,2.24 -0.99,3.78 -2.42,3.78 z"
         inkscape:connector-curvature="0"
         style="fill:#000000;stroke-width:0" /></g>  </g>
</svg>
